<?xml version="1.0" encoding="UTF-8" standalone="no"?>
<!DOCTYPE svg PUBLIC "-//W3C//DTD SVG 1.1//EN"
 "http://www.w3.org/Graphics/SVG/1.1/DTD/svg11.dtd">
<!-- Generated by graphviz version 7.0.5 (20221223.1930)
 -->
<!-- Title: inheritance249cf4f211 Pages: 1 -->
<svg width="408pt" height="27pt"
 viewBox="0.00 0.00 408.00 27.00" xmlns="http://www.w3.org/2000/svg" xmlns:xlink="http://www.w3.org/1999/xlink">
<g id="graph0" class="graph" transform="scale(1 1) rotate(0) translate(4 23)">
<title>inheritance249cf4f211</title>
<!-- BaseChoice -->
<g id="node1" class="node">
<title>BaseChoice</title>
<g id="a_node1"><a xlink:href="../pyVHDLModel.Base.html#pyVHDLModel.Base.BaseChoice" xlink:title="A ``Choice`` is a base&#45;class for all choices." target="_top">
<polygon fill="white" stroke="#1e90ff" points="227,-19 135,-19 135,0 227,0 227,-19"/>
<text text-anchor="middle" x="181" y="-7" font-family="Vera Sans, DejaVu Sans, Liberation Sans, Arial, Helvetica, sans" font-size="10.00">BaseChoice</text>
</a>
</g>
</g>
<!-- SequentialChoice -->
<g id="node3" class="node">
<title>SequentialChoice</title>
<g id="a_node3"><a xlink:href="../pyVHDLModel/pyVHDLModel.Sequential.html#pyVHDLModel.Sequential.SequentialChoice" xlink:title="A ``SequentialChoice`` is a base&#45;class for all sequential choices (in case statements)." target="_top">
<polygon fill="white" stroke="#1e90ff" points="400,-19 263,-19 263,0 400,0 400,-19"/>
<text text-anchor="middle" x="331.5" y="-7" font-family="Vera Sans, DejaVu Sans, Liberation Sans, Arial, Helvetica, sans" font-size="10.00">SequentialChoice</text>
</a>
</g>
</g>
<!-- BaseChoice&#45;&gt;SequentialChoice -->
<g id="edge2" class="edge">
<title>BaseChoice&#45;&gt;SequentialChoice</title>
<path fill="none" stroke="black" stroke-width="0.5" d="M227.36,-9.5C236.53,-9.5 246.39,-9.5 256.25,-9.5"/>
<polygon fill="black" stroke="black" stroke-width="0.5" points="256.97,-11.25 261.97,-9.5 256.97,-7.75 256.97,-11.25"/>
</g>
<!-- ModelEntity -->
<g id="node2" class="node">
<title>ModelEntity</title>
<g id="a_node2"><a xlink:href="../pyVHDLModel.Base.html#pyVHDLModel.Base.ModelEntity" xlink:title="``ModelEntity`` is the base&#45;class for all classes in the VHDL language model, except for mixin classes (see multiple" target="_top">
<polygon fill="white" stroke="#1e90ff" points="99,-19 0,-19 0,0 99,0 99,-19"/>
<text text-anchor="middle" x="49.5" y="-7" font-family="Vera Sans, DejaVu Sans, Liberation Sans, Arial, Helvetica, sans" font-size="10.00">ModelEntity</text>
</a>
</g>
</g>
<!-- ModelEntity&#45;&gt;BaseChoice -->
<g id="edge1" class="edge">
<title>ModelEntity&#45;&gt;BaseChoice</title>
<path fill="none" stroke="black" stroke-width="0.5" d="M99.46,-9.5C108.89,-9.5 118.79,-9.5 128.3,-9.5"/>
<polygon fill="black" stroke="black" stroke-width="0.5" points="129.06,-11.25 134.06,-9.5 129.06,-7.75 129.06,-11.25"/>
</g>
</g>
</svg>
