<?xml version="1.0" encoding="UTF-8" standalone="no"?>
<!DOCTYPE svg PUBLIC "-//W3C//DTD SVG 1.1//EN"
 "http://www.w3.org/Graphics/SVG/1.1/DTD/svg11.dtd">
<!-- Generated by graphviz version 7.0.5 (20221223.1930)
 -->
<!-- Title: inheritance4f7ab58da6 Pages: 1 -->
<svg width="576pt" height="62pt"
 viewBox="0.00 0.00 576.00 62.37" xmlns="http://www.w3.org/2000/svg" xmlns:xlink="http://www.w3.org/1999/xlink">
<g id="graph0" class="graph" transform="scale(0.524113 0.524113) rotate(0) translate(4 115)">
<title>inheritance4f7ab58da6</title>
<!-- BaseConstant -->
<g id="node1" class="node">
<title>BaseConstant</title>
<g id="a_node1"><a xlink:href="../pyVHDLModel.Object.html#pyVHDLModel.Object.BaseConstant" xlink:title="BaseConstant" target="_top">
<polygon fill="white" stroke="#1e90ff" points="542.5,-93 435.5,-93 435.5,-74 542.5,-74 542.5,-93"/>
<text text-anchor="middle" x="489" y="-81" font-family="Vera Sans, DejaVu Sans, Liberation Sans, Arial, Helvetica, sans" font-size="10.00">BaseConstant</text>
</a>
</g>
</g>
<!-- Constant -->
<g id="node3" class="node">
<title>Constant</title>
<g id="a_node3"><a xlink:href="../pyVHDLModel.Object.html#pyVHDLModel.Object.Constant" xlink:title="Constant" target="_top">
<polygon fill="white" stroke="#1e90ff" points="760.5,-56 683.5,-56 683.5,-37 760.5,-37 760.5,-56"/>
<text text-anchor="middle" x="722" y="-44" font-family="Vera Sans, DejaVu Sans, Liberation Sans, Arial, Helvetica, sans" font-size="10.00">Constant</text>
</a>
</g>
</g>
<!-- BaseConstant&#45;&gt;Constant -->
<g id="edge2" class="edge">
<title>BaseConstant&#45;&gt;Constant</title>
<path fill="none" stroke="black" stroke-width="0.5" d="M543,-75.01C583.58,-68.51 638.9,-59.65 677.05,-53.54"/>
<polygon fill="black" stroke="black" stroke-width="0.5" points="677.61,-55.22 682.27,-52.7 677.06,-51.77 677.61,-55.22"/>
</g>
<!-- Obj -->
<g id="node2" class="node">
<title>Obj</title>
<g id="a_node2"><a xlink:href="../pyVHDLModel.Object.html#pyVHDLModel.Object.Obj" xlink:title="Obj" target="_top">
<polygon fill="white" stroke="#1e90ff" points="317,-83 263,-83 263,-64 317,-64 317,-83"/>
<text text-anchor="middle" x="290" y="-71" font-family="Vera Sans, DejaVu Sans, Liberation Sans, Arial, Helvetica, sans" font-size="10.00">Obj</text>
</a>
</g>
</g>
<!-- Obj&#45;&gt;BaseConstant -->
<g id="edge1" class="edge">
<title>Obj&#45;&gt;BaseConstant</title>
<path fill="none" stroke="black" stroke-width="0.5" d="M317.16,-74.83C345.46,-76.26 391.51,-78.6 428.67,-80.49"/>
<polygon fill="black" stroke="black" stroke-width="0.5" points="429.19,-82.27 434.27,-80.77 429.36,-78.77 429.19,-82.27"/>
</g>
<!-- ParameterConstantInterfaceItem -->
<g id="node10" class="node">
<title>ParameterConstantInterfaceItem</title>
<g id="a_node10"><a xlink:href="../pyVHDLModel/pyVHDLModel.Interface.html#pyVHDLModel.Interface.ParameterConstantInterfaceItem" xlink:title="ParameterConstantInterfaceItem" target="_top">
<polygon fill="white" stroke="#1e90ff" points="1091,-56 849,-56 849,-37 1091,-37 1091,-56"/>
<text text-anchor="middle" x="970" y="-44" font-family="Vera Sans, DejaVu Sans, Liberation Sans, Arial, Helvetica, sans" font-size="10.00">ParameterConstantInterfaceItem</text>
</a>
</g>
</g>
<!-- Constant&#45;&gt;ParameterConstantInterfaceItem -->
<g id="edge8" class="edge">
<title>Constant&#45;&gt;ParameterConstantInterfaceItem</title>
<path fill="none" stroke="black" stroke-width="0.5" d="M760.9,-46.5C783.11,-46.5 812.57,-46.5 842.33,-46.5"/>
<polygon fill="black" stroke="black" stroke-width="0.5" points="842.92,-48.25 847.92,-46.5 842.92,-44.75 842.92,-48.25"/>
</g>
<!-- WithDefaultExpressionMixin -->
<g id="node4" class="node">
<title>WithDefaultExpressionMixin</title>
<g id="a_node4"><a xlink:href="../pyVHDLModel.Object.html#pyVHDLModel.Object.WithDefaultExpressionMixin" xlink:title="A ``WithDefaultExpression`` is a mixin class for all objects declarations accepting default expressions." target="_top">
<polygon fill="white" stroke="#1e90ff" points="595,-56 383,-56 383,-37 595,-37 595,-56"/>
<text text-anchor="middle" x="489" y="-44" font-family="Vera Sans, DejaVu Sans, Liberation Sans, Arial, Helvetica, sans" font-size="10.00">WithDefaultExpressionMixin</text>
</a>
</g>
</g>
<!-- WithDefaultExpressionMixin&#45;&gt;Constant -->
<g id="edge3" class="edge">
<title>WithDefaultExpressionMixin&#45;&gt;Constant</title>
<path fill="none" stroke="black" stroke-width="0.5" d="M595.36,-46.5C624.07,-46.5 653.63,-46.5 676.86,-46.5"/>
<polygon fill="black" stroke="black" stroke-width="0.5" points="677.48,-48.25 682.48,-46.5 677.48,-44.75 677.48,-48.25"/>
</g>
<!-- DocumentedEntityMixin -->
<g id="node5" class="node">
<title>DocumentedEntityMixin</title>
<g id="a_node5"><a xlink:href="../pyVHDLModel.Base.html#pyVHDLModel.Base.DocumentedEntityMixin" xlink:title="A ``DocumentedEntityMixin`` is a mixin class for all VHDL entities that can have an associated documentation." target="_top">
<polygon fill="white" stroke="#1e90ff" points="185.5,-37 11.5,-37 11.5,-18 185.5,-18 185.5,-37"/>
<text text-anchor="middle" x="98.5" y="-25" font-family="Vera Sans, DejaVu Sans, Liberation Sans, Arial, Helvetica, sans" font-size="10.00">DocumentedEntityMixin</text>
</a>
</g>
</g>
<!-- DocumentedEntityMixin&#45;&gt;Obj -->
<g id="edge7" class="edge">
<title>DocumentedEntityMixin&#45;&gt;Obj</title>
<path fill="none" stroke="black" stroke-width="0.5" d="M155.38,-37.46C169.05,-40.15 183.6,-43.23 197,-46.5 217.05,-51.38 239.26,-57.87 256.83,-63.26"/>
<polygon fill="black" stroke="black" stroke-width="0.5" points="256.59,-65.02 261.88,-64.82 257.62,-61.67 256.59,-65.02"/>
</g>
<!-- InterfaceItem -->
<g id="node6" class="node">
<title>InterfaceItem</title>
<g id="a_node6"><a xlink:href="../pyVHDLModel/pyVHDLModel.Interface.html#pyVHDLModel.Interface.InterfaceItem" xlink:title="An ``InterfaceItem`` is a base&#45;class for all mixin&#45;classes for all interface items." target="_top">
<polygon fill="white" stroke="#1e90ff" points="347,-37 233,-37 233,-18 347,-18 347,-37"/>
<text text-anchor="middle" x="290" y="-25" font-family="Vera Sans, DejaVu Sans, Liberation Sans, Arial, Helvetica, sans" font-size="10.00">InterfaceItem</text>
</a>
</g>
</g>
<!-- DocumentedEntityMixin&#45;&gt;InterfaceItem -->
<g id="edge4" class="edge">
<title>DocumentedEntityMixin&#45;&gt;InterfaceItem</title>
<path fill="none" stroke="black" stroke-width="0.5" d="M185.93,-27.5C199.52,-27.5 213.34,-27.5 226.26,-27.5"/>
<polygon fill="black" stroke="black" stroke-width="0.5" points="226.77,-29.25 231.77,-27.5 226.77,-25.75 226.77,-29.25"/>
</g>
<!-- ParameterInterfaceItem -->
<g id="node11" class="node">
<title>ParameterInterfaceItem</title>
<g id="a_node11"><a xlink:href="../pyVHDLModel/pyVHDLModel.Interface.html#pyVHDLModel.Interface.ParameterInterfaceItem" xlink:title="A ``ParameterInterfaceItem`` is a mixin class for all parameter interface items." target="_top">
<polygon fill="white" stroke="#1e90ff" points="813,-19 631,-19 631,0 813,0 813,-19"/>
<text text-anchor="middle" x="722" y="-7" font-family="Vera Sans, DejaVu Sans, Liberation Sans, Arial, Helvetica, sans" font-size="10.00">ParameterInterfaceItem</text>
</a>
</g>
</g>
<!-- InterfaceItem&#45;&gt;ParameterInterfaceItem -->
<g id="edge11" class="edge">
<title>InterfaceItem&#45;&gt;ParameterInterfaceItem</title>
<path fill="none" stroke="black" stroke-width="0.5" d="M347.21,-25.15C417.51,-22.2 538.96,-17.12 624.3,-13.55"/>
<polygon fill="black" stroke="black" stroke-width="0.5" points="624.96,-15.27 629.88,-13.31 624.82,-11.77 624.96,-15.27"/>
</g>
<!-- InterfaceItemWithMode -->
<g id="node7" class="node">
<title>InterfaceItemWithMode</title>
<g id="a_node7"><a xlink:href="../pyVHDLModel/pyVHDLModel.Interface.html#pyVHDLModel.Interface.InterfaceItemWithMode" xlink:title="An ``InterfaceItemWithMode`` is a mixin&#45;class to provide a ``Mode`` to interface items." target="_top">
<polygon fill="white" stroke="#1e90ff" points="809,-93 635,-93 635,-74 809,-74 809,-93"/>
<text text-anchor="middle" x="722" y="-81" font-family="Vera Sans, DejaVu Sans, Liberation Sans, Arial, Helvetica, sans" font-size="10.00">InterfaceItemWithMode</text>
</a>
</g>
</g>
<!-- InterfaceItemWithMode&#45;&gt;ParameterConstantInterfaceItem -->
<g id="edge10" class="edge">
<title>InterfaceItemWithMode&#45;&gt;ParameterConstantInterfaceItem</title>
<path fill="none" stroke="black" stroke-width="0.5" d="M789.25,-73.54C822.34,-68.56 862.45,-62.53 896.37,-57.42"/>
<polygon fill="black" stroke="black" stroke-width="0.5" points="897.2,-59.07 901.89,-56.59 896.68,-55.61 897.2,-59.07"/>
</g>
<!-- ModelEntity -->
<g id="node8" class="node">
<title>ModelEntity</title>
<g id="a_node8"><a xlink:href="../pyVHDLModel.Base.html#pyVHDLModel.Base.ModelEntity" xlink:title="``ModelEntity`` is the base&#45;class for all classes in the VHDL language model, except for mixin classes (see multiple" target="_top">
<polygon fill="white" stroke="#1e90ff" points="148,-111 49,-111 49,-92 148,-92 148,-111"/>
<text text-anchor="middle" x="98.5" y="-99" font-family="Vera Sans, DejaVu Sans, Liberation Sans, Arial, Helvetica, sans" font-size="10.00">ModelEntity</text>
</a>
</g>
</g>
<!-- ModelEntity&#45;&gt;Obj -->
<g id="edge5" class="edge">
<title>ModelEntity&#45;&gt;Obj</title>
<path fill="none" stroke="black" stroke-width="0.5" d="M148.3,-94.29C182.29,-89.27 226.69,-82.71 256.44,-78.31"/>
<polygon fill="black" stroke="black" stroke-width="0.5" points="257.12,-79.98 261.81,-77.52 256.61,-76.52 257.12,-79.98"/>
</g>
<!-- MultipleNamedEntityMixin -->
<g id="node9" class="node">
<title>MultipleNamedEntityMixin</title>
<g id="a_node9"><a xlink:href="../pyVHDLModel.Base.html#pyVHDLModel.Base.MultipleNamedEntityMixin" xlink:title="A ``MultipleNamedEntityMixin`` is a mixin class for all VHDL entities that declare multiple instances at once by" target="_top">
<polygon fill="white" stroke="#1e90ff" points="197,-74 0,-74 0,-55 197,-55 197,-74"/>
<text text-anchor="middle" x="98.5" y="-62" font-family="Vera Sans, DejaVu Sans, Liberation Sans, Arial, Helvetica, sans" font-size="10.00">MultipleNamedEntityMixin</text>
</a>
</g>
</g>
<!-- MultipleNamedEntityMixin&#45;&gt;Obj -->
<g id="edge6" class="edge">
<title>MultipleNamedEntityMixin&#45;&gt;Obj</title>
<path fill="none" stroke="black" stroke-width="0.5" d="M197.3,-69.14C218.55,-70.15 239.6,-71.15 256.16,-71.94"/>
<polygon fill="black" stroke="black" stroke-width="0.5" points="256.67,-73.72 261.75,-72.21 256.84,-70.22 256.67,-73.72"/>
</g>
<!-- ParameterInterfaceItem&#45;&gt;ParameterConstantInterfaceItem -->
<g id="edge9" class="edge">
<title>ParameterInterfaceItem&#45;&gt;ParameterConstantInterfaceItem</title>
<path fill="none" stroke="black" stroke-width="0.5" d="M789.25,-19.46C822.34,-24.44 862.45,-30.47 896.37,-35.58"/>
<polygon fill="black" stroke="black" stroke-width="0.5" points="896.68,-37.39 901.89,-36.41 897.2,-33.93 896.68,-37.39"/>
</g>
</g>
</svg>
