<?xml version="1.0" encoding="UTF-8" standalone="no"?>
<!DOCTYPE svg PUBLIC "-//W3C//DTD SVG 1.1//EN"
 "http://www.w3.org/Graphics/SVG/1.1/DTD/svg11.dtd">
<!-- Generated by graphviz version 7.0.5 (20221223.1930)
 -->
<!-- Title: inheritancebdcfc4fe7d Pages: 1 -->
<svg width="543pt" height="64pt"
 viewBox="0.00 0.00 543.00 64.00" xmlns="http://www.w3.org/2000/svg" xmlns:xlink="http://www.w3.org/1999/xlink">
<g id="graph0" class="graph" transform="scale(1 1) rotate(0) translate(4 60)">
<title>inheritancebdcfc4fe7d</title>
<!-- LibraryReferenceSymbol -->
<g id="node1" class="node">
<title>LibraryReferenceSymbol</title>
<g id="a_node1"><a xlink:href="../pyVHDLModel/pyVHDLModel.Symbol.html#pyVHDLModel.Symbol.LibraryReferenceSymbol" xlink:title="A library reference in a library clause." target="_top">
<polygon fill="white" stroke="#1e90ff" points="535,-37 353,-37 353,-18 535,-18 535,-37"/>
<text text-anchor="middle" x="444" y="-25" font-family="Vera Sans, DejaVu Sans, Liberation Sans, Arial, Helvetica, sans" font-size="10.00">LibraryReferenceSymbol</text>
</a>
</g>
</g>
<!-- SimpleName -->
<g id="node2" class="node">
<title>SimpleName</title>
<g id="a_node2"><a xlink:href="../pyVHDLModel.Name.html#pyVHDLModel.Name.SimpleName" xlink:title="A *simple name* is a name made from a single word." target="_top">
<polygon fill="white" stroke="#1e90ff" points="317,-56 225,-56 225,-37 317,-37 317,-56"/>
<text text-anchor="middle" x="271" y="-44" font-family="Vera Sans, DejaVu Sans, Liberation Sans, Arial, Helvetica, sans" font-size="10.00">SimpleName</text>
</a>
</g>
</g>
<!-- SimpleName&#45;&gt;LibraryReferenceSymbol -->
<g id="edge1" class="edge">
<title>SimpleName&#45;&gt;LibraryReferenceSymbol</title>
<path fill="none" stroke="black" stroke-width="0.5" d="M317.38,-41.46C326.55,-40.44 336.53,-39.33 346.71,-38.2"/>
<polygon fill="black" stroke="black" stroke-width="0.5" points="347.54,-39.87 352.32,-37.58 347.16,-36.39 347.54,-39.87"/>
</g>
<!-- Symbol -->
<g id="node3" class="node">
<title>Symbol</title>
<g id="a_node3"><a xlink:href="../pyVHDLModel/pyVHDLModel.Symbol.html#pyVHDLModel.Symbol.Symbol" xlink:title="Symbol" target="_top">
<polygon fill="white" stroke="#1e90ff" points="302,-19 240,-19 240,0 302,0 302,-19"/>
<text text-anchor="middle" x="271" y="-7" font-family="Vera Sans, DejaVu Sans, Liberation Sans, Arial, Helvetica, sans" font-size="10.00">Symbol</text>
</a>
</g>
</g>
<!-- Symbol&#45;&gt;LibraryReferenceSymbol -->
<g id="edge2" class="edge">
<title>Symbol&#45;&gt;LibraryReferenceSymbol</title>
<path fill="none" stroke="black" stroke-width="0.5" d="M302.18,-12.68C314.79,-14 330.22,-15.63 346.18,-17.31"/>
<polygon fill="black" stroke="black" stroke-width="0.5" points="346.65,-19.12 351.81,-17.9 347.02,-15.64 346.65,-19.12"/>
</g>
<!-- ModelEntity -->
<g id="node4" class="node">
<title>ModelEntity</title>
<g id="a_node4"><a xlink:href="../pyVHDLModel.Base.html#pyVHDLModel.Base.ModelEntity" xlink:title="``ModelEntity`` is the base&#45;class for all classes in the VHDL language model, except for mixin classes (see multiple" target="_top">
<polygon fill="white" stroke="#1e90ff" points="99,-56 0,-56 0,-37 99,-37 99,-56"/>
<text text-anchor="middle" x="49.5" y="-44" font-family="Vera Sans, DejaVu Sans, Liberation Sans, Arial, Helvetica, sans" font-size="10.00">ModelEntity</text>
</a>
</g>
</g>
<!-- Name -->
<g id="node5" class="node">
<title>Name</title>
<g id="a_node5"><a xlink:href="../pyVHDLModel.Name.html#pyVHDLModel.Name.Name" xlink:title="``Name`` is the base&#45;class for all *names* in the VHDL language model." target="_top">
<polygon fill="white" stroke="#1e90ff" points="189,-56 135,-56 135,-37 189,-37 189,-56"/>
<text text-anchor="middle" x="162" y="-44" font-family="Vera Sans, DejaVu Sans, Liberation Sans, Arial, Helvetica, sans" font-size="10.00">Name</text>
</a>
</g>
</g>
<!-- ModelEntity&#45;&gt;Name -->
<g id="edge3" class="edge">
<title>ModelEntity&#45;&gt;Name</title>
<path fill="none" stroke="black" stroke-width="0.5" d="M99.29,-46.5C109.06,-46.5 119.1,-46.5 128.17,-46.5"/>
<polygon fill="black" stroke="black" stroke-width="0.5" points="128.83,-48.25 133.83,-46.5 128.83,-44.75 128.83,-48.25"/>
</g>
<!-- Name&#45;&gt;SimpleName -->
<g id="edge4" class="edge">
<title>Name&#45;&gt;SimpleName</title>
<path fill="none" stroke="black" stroke-width="0.5" d="M189.45,-46.5C198.26,-46.5 208.41,-46.5 218.46,-46.5"/>
<polygon fill="black" stroke="black" stroke-width="0.5" points="218.94,-48.25 223.94,-46.5 218.94,-44.75 218.94,-48.25"/>
</g>
</g>
</svg>
