<?xml version="1.0" encoding="UTF-8" standalone="no"?>
<!DOCTYPE svg PUBLIC "-//W3C//DTD SVG 1.1//EN"
 "http://www.w3.org/Graphics/SVG/1.1/DTD/svg11.dtd">
<!-- Generated by graphviz version 7.0.5 (20221223.1930)
 -->
<!-- Title: inheritancee320da2d7f Pages: 1 -->
<svg width="576pt" height="73pt"
 viewBox="0.00 0.00 576.00 72.90" xmlns="http://www.w3.org/2000/svg" xmlns:xlink="http://www.w3.org/1999/xlink">
<g id="graph0" class="graph" transform="scale(0.721805 0.721805) rotate(0) translate(4 97)">
<title>inheritancee320da2d7f</title>
<!-- DocumentedEntityMixin -->
<g id="node1" class="node">
<title>DocumentedEntityMixin</title>
<g id="a_node1"><a xlink:href="../pyVHDLModel.Base.html#pyVHDLModel.Base.DocumentedEntityMixin" xlink:title="A ``DocumentedEntityMixin`` is a mixin class for all VHDL entities that can have an associated documentation." target="_top">
<polygon fill="white" stroke="#1e90ff" points="174,-19 0,-19 0,0 174,0 174,-19"/>
<text text-anchor="middle" x="87" y="-7" font-family="Vera Sans, DejaVu Sans, Liberation Sans, Arial, Helvetica, sans" font-size="10.00">DocumentedEntityMixin</text>
</a>
</g>
</g>
<!-- Subprogram -->
<g id="node3" class="node">
<title>Subprogram</title>
<g id="a_node3"><a xlink:href="../pyVHDLModel.Subprogram.html#pyVHDLModel.Subprogram.Subprogram" xlink:title="Subprogram" target="_top">
<polygon fill="white" stroke="#1e90ff" points="313,-56 221,-56 221,-37 313,-37 313,-56"/>
<text text-anchor="middle" x="267" y="-44" font-family="Vera Sans, DejaVu Sans, Liberation Sans, Arial, Helvetica, sans" font-size="10.00">Subprogram</text>
</a>
</g>
</g>
<!-- DocumentedEntityMixin&#45;&gt;Subprogram -->
<g id="edge8" class="edge">
<title>DocumentedEntityMixin&#45;&gt;Subprogram</title>
<path fill="none" stroke="black" stroke-width="0.5" d="M135.7,-19.42C160,-24.47 189.59,-30.62 214.42,-35.78"/>
<polygon fill="black" stroke="black" stroke-width="0.5" points="214.63,-37.61 219.88,-36.91 215.34,-34.18 214.63,-37.61"/>
</g>
<!-- InterfaceItem -->
<g id="node6" class="node">
<title>InterfaceItem</title>
<g id="a_node6"><a xlink:href="../pyVHDLModel/pyVHDLModel.Interface.html#pyVHDLModel.Interface.InterfaceItem" xlink:title="An ``InterfaceItem`` is a base&#45;class for all mixin&#45;classes for all interface items." target="_top">
<polygon fill="white" stroke="#1e90ff" points="324,-19 210,-19 210,0 324,0 324,-19"/>
<text text-anchor="middle" x="267" y="-7" font-family="Vera Sans, DejaVu Sans, Liberation Sans, Arial, Helvetica, sans" font-size="10.00">InterfaceItem</text>
</a>
</g>
</g>
<!-- DocumentedEntityMixin&#45;&gt;InterfaceItem -->
<g id="edge5" class="edge">
<title>DocumentedEntityMixin&#45;&gt;InterfaceItem</title>
<path fill="none" stroke="black" stroke-width="0.5" d="M174.39,-9.5C184.18,-9.5 194.01,-9.5 203.41,-9.5"/>
<polygon fill="black" stroke="black" stroke-width="0.5" points="204.08,-11.25 209.08,-9.5 204.08,-7.75 204.08,-11.25"/>
</g>
<!-- Function -->
<g id="node2" class="node">
<title>Function</title>
<g id="a_node2"><a xlink:href="../pyVHDLModel.Subprogram.html#pyVHDLModel.Subprogram.Function" xlink:title="Function" target="_top">
<polygon fill="white" stroke="#1e90ff" points="482,-56 405,-56 405,-37 482,-37 482,-56"/>
<text text-anchor="middle" x="443.5" y="-44" font-family="Vera Sans, DejaVu Sans, Liberation Sans, Arial, Helvetica, sans" font-size="10.00">Function</text>
</a>
</g>
</g>
<!-- GenericFunctionInterfaceItem -->
<g id="node4" class="node">
<title>GenericFunctionInterfaceItem</title>
<g id="a_node4"><a xlink:href="../pyVHDLModel/pyVHDLModel.Interface.html#pyVHDLModel.Interface.GenericFunctionInterfaceItem" xlink:title="GenericFunctionInterfaceItem" target="_top">
<polygon fill="white" stroke="#1e90ff" points="790,-37 563,-37 563,-18 790,-18 790,-37"/>
<text text-anchor="middle" x="676.5" y="-25" font-family="Vera Sans, DejaVu Sans, Liberation Sans, Arial, Helvetica, sans" font-size="10.00">GenericFunctionInterfaceItem</text>
</a>
</g>
</g>
<!-- Function&#45;&gt;GenericFunctionInterfaceItem -->
<g id="edge2" class="edge">
<title>Function&#45;&gt;GenericFunctionInterfaceItem</title>
<path fill="none" stroke="black" stroke-width="0.5" d="M482.39,-43.38C502.83,-41.7 529.3,-39.52 556.06,-37.32"/>
<polygon fill="black" stroke="black" stroke-width="0.5" points="556.91,-39.01 561.75,-36.86 556.62,-35.52 556.91,-39.01"/>
</g>
<!-- Subprogram&#45;&gt;Function -->
<g id="edge1" class="edge">
<title>Subprogram&#45;&gt;Function</title>
<path fill="none" stroke="black" stroke-width="0.5" d="M313.39,-46.5C339.55,-46.5 372.29,-46.5 398.25,-46.5"/>
<polygon fill="black" stroke="black" stroke-width="0.5" points="398.94,-48.25 403.94,-46.5 398.94,-44.75 398.94,-48.25"/>
</g>
<!-- GenericInterfaceItem -->
<g id="node5" class="node">
<title>GenericInterfaceItem</title>
<g id="a_node5"><a xlink:href="../pyVHDLModel/pyVHDLModel.Interface.html#pyVHDLModel.Interface.GenericInterfaceItem" xlink:title="A ``GenericInterfaceItem`` is a mixin class for all generic interface items." target="_top">
<polygon fill="white" stroke="#1e90ff" points="527,-19 360,-19 360,0 527,0 527,-19"/>
<text text-anchor="middle" x="443.5" y="-7" font-family="Vera Sans, DejaVu Sans, Liberation Sans, Arial, Helvetica, sans" font-size="10.00">GenericInterfaceItem</text>
</a>
</g>
</g>
<!-- GenericInterfaceItem&#45;&gt;GenericFunctionInterfaceItem -->
<g id="edge3" class="edge">
<title>GenericInterfaceItem&#45;&gt;GenericFunctionInterfaceItem</title>
<path fill="none" stroke="black" stroke-width="0.5" d="M527.24,-15.95C536.7,-16.68 546.47,-17.45 556.27,-18.21"/>
<polygon fill="black" stroke="black" stroke-width="0.5" points="556.84,-20.01 561.96,-18.65 557.12,-16.52 556.84,-20.01"/>
</g>
<!-- InterfaceItem&#45;&gt;GenericInterfaceItem -->
<g id="edge4" class="edge">
<title>InterfaceItem&#45;&gt;GenericInterfaceItem</title>
<path fill="none" stroke="black" stroke-width="0.5" d="M324.17,-9.5C333.49,-9.5 343.35,-9.5 353.25,-9.5"/>
<polygon fill="black" stroke="black" stroke-width="0.5" points="353.99,-11.25 358.99,-9.5 353.99,-7.75 353.99,-11.25"/>
</g>
<!-- ModelEntity -->
<g id="node7" class="node">
<title>ModelEntity</title>
<g id="a_node7"><a xlink:href="../pyVHDLModel.Base.html#pyVHDLModel.Base.ModelEntity" xlink:title="``ModelEntity`` is the base&#45;class for all classes in the VHDL language model, except for mixin classes (see multiple" target="_top">
<polygon fill="white" stroke="#1e90ff" points="136.5,-93 37.5,-93 37.5,-74 136.5,-74 136.5,-93"/>
<text text-anchor="middle" x="87" y="-81" font-family="Vera Sans, DejaVu Sans, Liberation Sans, Arial, Helvetica, sans" font-size="10.00">ModelEntity</text>
</a>
</g>
</g>
<!-- ModelEntity&#45;&gt;Subprogram -->
<g id="edge6" class="edge">
<title>ModelEntity&#45;&gt;Subprogram</title>
<path fill="none" stroke="black" stroke-width="0.5" d="M135.7,-73.58C160,-68.53 189.59,-62.38 214.42,-57.22"/>
<polygon fill="black" stroke="black" stroke-width="0.5" points="215.34,-58.82 219.88,-56.09 214.63,-55.39 215.34,-58.82"/>
</g>
<!-- NamedEntityMixin -->
<g id="node8" class="node">
<title>NamedEntityMixin</title>
<g id="a_node8"><a xlink:href="../pyVHDLModel.Base.html#pyVHDLModel.Base.NamedEntityMixin" xlink:title="A ``NamedEntityMixin`` is a mixin class for all VHDL entities that have identifiers." target="_top">
<polygon fill="white" stroke="#1e90ff" points="155.5,-56 18.5,-56 18.5,-37 155.5,-37 155.5,-56"/>
<text text-anchor="middle" x="87" y="-44" font-family="Vera Sans, DejaVu Sans, Liberation Sans, Arial, Helvetica, sans" font-size="10.00">NamedEntityMixin</text>
</a>
</g>
</g>
<!-- NamedEntityMixin&#45;&gt;Subprogram -->
<g id="edge7" class="edge">
<title>NamedEntityMixin&#45;&gt;Subprogram</title>
<path fill="none" stroke="black" stroke-width="0.5" d="M155.8,-46.5C175.31,-46.5 196.26,-46.5 214.6,-46.5"/>
<polygon fill="black" stroke="black" stroke-width="0.5" points="214.96,-48.25 219.96,-46.5 214.96,-44.75 214.96,-48.25"/>
</g>
</g>
</svg>
