<?xml version="1.0" encoding="UTF-8" standalone="no"?>
<!DOCTYPE svg PUBLIC "-//W3C//DTD SVG 1.1//EN"
 "http://www.w3.org/Graphics/SVG/1.1/DTD/svg11.dtd">
<!-- Generated by graphviz version 7.0.5 (20221223.1930)
 -->
<!-- Title: inheritance681660cbd4 Pages: 1 -->
<svg width="576pt" height="60pt"
 viewBox="0.00 0.00 576.00 59.65" xmlns="http://www.w3.org/2000/svg" xmlns:xlink="http://www.w3.org/1999/xlink">
<g id="graph0" class="graph" transform="scale(0.932039 0.932039) rotate(0) translate(4 60)">
<title>inheritance681660cbd4</title>
<!-- ConfigurationInstantiationSymbol -->
<g id="node1" class="node">
<title>ConfigurationInstantiationSymbol</title>
<g id="a_node1"><a xlink:href="../pyVHDLModel/pyVHDLModel.Symbol.html#pyVHDLModel.Symbol.ConfigurationInstantiationSymbol" xlink:title="A configuration reference in a configuration instantiation." target="_top">
<polygon fill="white" stroke="#1e90ff" points="610,-37 353,-37 353,-18 610,-18 610,-37"/>
<text text-anchor="middle" x="481.5" y="-25" font-family="Vera Sans, DejaVu Sans, Liberation Sans, Arial, Helvetica, sans" font-size="10.00">ConfigurationInstantiationSymbol</text>
</a>
</g>
</g>
<!-- SimpleName -->
<g id="node2" class="node">
<title>SimpleName</title>
<g id="a_node2"><a xlink:href="../pyVHDLModel.Name.html#pyVHDLModel.Name.SimpleName" xlink:title="A *simple name* is a name made from a single word." target="_top">
<polygon fill="white" stroke="#1e90ff" points="317,-56 225,-56 225,-37 317,-37 317,-56"/>
<text text-anchor="middle" x="271" y="-44" font-family="Vera Sans, DejaVu Sans, Liberation Sans, Arial, Helvetica, sans" font-size="10.00">SimpleName</text>
</a>
</g>
</g>
<!-- SimpleName&#45;&gt;ConfigurationInstantiationSymbol -->
<g id="edge1" class="edge">
<title>SimpleName&#45;&gt;ConfigurationInstantiationSymbol</title>
<path fill="none" stroke="black" stroke-width="0.5" d="M317.5,-42.35C331.69,-41.06 348.04,-39.57 364.79,-38.04"/>
<polygon fill="black" stroke="black" stroke-width="0.5" points="365.4,-39.75 370.22,-37.55 365.09,-36.26 365.4,-39.75"/>
</g>
<!-- Symbol -->
<g id="node3" class="node">
<title>Symbol</title>
<g id="a_node3"><a xlink:href="../pyVHDLModel/pyVHDLModel.Symbol.html#pyVHDLModel.Symbol.Symbol" xlink:title="Symbol" target="_top">
<polygon fill="white" stroke="#1e90ff" points="302,-19 240,-19 240,0 302,0 302,-19"/>
<text text-anchor="middle" x="271" y="-7" font-family="Vera Sans, DejaVu Sans, Liberation Sans, Arial, Helvetica, sans" font-size="10.00">Symbol</text>
</a>
</g>
</g>
<!-- Symbol&#45;&gt;ConfigurationInstantiationSymbol -->
<g id="edge2" class="edge">
<title>Symbol&#45;&gt;ConfigurationInstantiationSymbol</title>
<path fill="none" stroke="black" stroke-width="0.5" d="M302.32,-12.12C317.84,-13.46 337.87,-15.19 358.86,-17"/>
<polygon fill="black" stroke="black" stroke-width="0.5" points="359.22,-18.79 364.35,-17.47 359.52,-15.3 359.22,-18.79"/>
</g>
<!-- ModelEntity -->
<g id="node4" class="node">
<title>ModelEntity</title>
<g id="a_node4"><a xlink:href="../pyVHDLModel.Base.html#pyVHDLModel.Base.ModelEntity" xlink:title="``ModelEntity`` is the base&#45;class for all classes in the VHDL language model, except for mixin classes (see multiple" target="_top">
<polygon fill="white" stroke="#1e90ff" points="99,-56 0,-56 0,-37 99,-37 99,-56"/>
<text text-anchor="middle" x="49.5" y="-44" font-family="Vera Sans, DejaVu Sans, Liberation Sans, Arial, Helvetica, sans" font-size="10.00">ModelEntity</text>
</a>
</g>
</g>
<!-- Name -->
<g id="node5" class="node">
<title>Name</title>
<g id="a_node5"><a xlink:href="../pyVHDLModel.Name.html#pyVHDLModel.Name.Name" xlink:title="``Name`` is the base&#45;class for all *names* in the VHDL language model." target="_top">
<polygon fill="white" stroke="#1e90ff" points="189,-56 135,-56 135,-37 189,-37 189,-56"/>
<text text-anchor="middle" x="162" y="-44" font-family="Vera Sans, DejaVu Sans, Liberation Sans, Arial, Helvetica, sans" font-size="10.00">Name</text>
</a>
</g>
</g>
<!-- ModelEntity&#45;&gt;Name -->
<g id="edge3" class="edge">
<title>ModelEntity&#45;&gt;Name</title>
<path fill="none" stroke="black" stroke-width="0.5" d="M99.29,-46.5C109.06,-46.5 119.1,-46.5 128.17,-46.5"/>
<polygon fill="black" stroke="black" stroke-width="0.5" points="128.83,-48.25 133.83,-46.5 128.83,-44.75 128.83,-48.25"/>
</g>
<!-- Name&#45;&gt;SimpleName -->
<g id="edge4" class="edge">
<title>Name&#45;&gt;SimpleName</title>
<path fill="none" stroke="black" stroke-width="0.5" d="M189.45,-46.5C198.26,-46.5 208.41,-46.5 218.46,-46.5"/>
<polygon fill="black" stroke="black" stroke-width="0.5" points="218.94,-48.25 223.94,-46.5 218.94,-44.75 218.94,-48.25"/>
</g>
</g>
</svg>
