<?xml version="1.0" encoding="UTF-8" standalone="no"?>
<!DOCTYPE svg PUBLIC "-//W3C//DTD SVG 1.1//EN"
 "http://www.w3.org/Graphics/SVG/1.1/DTD/svg11.dtd">
<!-- Generated by graphviz version 7.0.5 (20221223.1930)
 -->
<!-- Title: inheritance41b486d74d Pages: 1 -->
<svg width="543pt" height="138pt"
 viewBox="0.00 0.00 543.00 138.00" xmlns="http://www.w3.org/2000/svg" xmlns:xlink="http://www.w3.org/1999/xlink">
<g id="graph0" class="graph" transform="scale(1 1) rotate(0) translate(4 134)">
<title>inheritance41b486d74d</title>
<!-- BranchMixin -->
<g id="node1" class="node">
<title>BranchMixin</title>
<g id="a_node1"><a xlink:href="../pyVHDLModel.Base.html#pyVHDLModel.Base.BranchMixin" xlink:title="A ``BaseBranch`` is a mixin&#45;class for all statements with branches." target="_top">
<polygon fill="white" stroke="#1e90ff" points="140.5,-130 41.5,-130 41.5,-111 140.5,-111 140.5,-130"/>
<text text-anchor="middle" x="91" y="-118" font-family="Vera Sans, DejaVu Sans, Liberation Sans, Arial, Helvetica, sans" font-size="10.00">BranchMixin</text>
</a>
</g>
</g>
<!-- ElseBranchMixin -->
<g id="node4" class="node">
<title>ElseBranchMixin</title>
<g id="a_node4"><a xlink:href="../pyVHDLModel.Base.html#pyVHDLModel.Base.ElseBranchMixin" xlink:title="A ``BaseElseBranch`` is a mixin&#45;class for all else&#45;branches." target="_top">
<polygon fill="white" stroke="#1e90ff" points="347,-120 218,-120 218,-101 347,-101 347,-120"/>
<text text-anchor="middle" x="282.5" y="-108" font-family="Vera Sans, DejaVu Sans, Liberation Sans, Arial, Helvetica, sans" font-size="10.00">ElseBranchMixin</text>
</a>
</g>
</g>
<!-- BranchMixin&#45;&gt;ElseBranchMixin -->
<g id="edge1" class="edge">
<title>BranchMixin&#45;&gt;ElseBranchMixin</title>
<path fill="none" stroke="black" stroke-width="0.5" d="M140.8,-117.92C162.34,-116.79 188.07,-115.43 211.59,-114.19"/>
<polygon fill="black" stroke="black" stroke-width="0.5" points="212.19,-115.91 217.09,-113.9 212,-112.42 212.19,-115.91"/>
</g>
<!-- ConcurrentDeclarations -->
<g id="node2" class="node">
<title>ConcurrentDeclarations</title>
<g id="a_node2"><a xlink:href="../pyVHDLModel/pyVHDLModel.Concurrent.html#pyVHDLModel.Concurrent.ConcurrentDeclarations" xlink:title="ConcurrentDeclarations" target="_top">
<polygon fill="white" stroke="#1e90ff" points="182,-93 0,-93 0,-74 182,-74 182,-93"/>
<text text-anchor="middle" x="91" y="-81" font-family="Vera Sans, DejaVu Sans, Liberation Sans, Arial, Helvetica, sans" font-size="10.00">ConcurrentDeclarations</text>
</a>
</g>
</g>
<!-- GenerateBranch -->
<g id="node6" class="node">
<title>GenerateBranch</title>
<g id="a_node6"><a xlink:href="../pyVHDLModel/pyVHDLModel.Concurrent.html#pyVHDLModel.Concurrent.GenerateBranch" xlink:title="A ``GenerateBranch`` is a base&#45;class for all branches in a generate statements." target="_top">
<polygon fill="white" stroke="#1e90ff" points="343.5,-74 221.5,-74 221.5,-55 343.5,-55 343.5,-74"/>
<text text-anchor="middle" x="282.5" y="-62" font-family="Vera Sans, DejaVu Sans, Liberation Sans, Arial, Helvetica, sans" font-size="10.00">GenerateBranch</text>
</a>
</g>
</g>
<!-- ConcurrentDeclarations&#45;&gt;GenerateBranch -->
<g id="edge5" class="edge">
<title>ConcurrentDeclarations&#45;&gt;GenerateBranch</title>
<path fill="none" stroke="black" stroke-width="0.5" d="M182.31,-74.45C193.2,-73.35 204.18,-72.25 214.65,-71.2"/>
<polygon fill="black" stroke="black" stroke-width="0.5" points="215.55,-72.87 220.35,-70.63 215.2,-69.39 215.55,-72.87"/>
</g>
<!-- ConcurrentStatements -->
<g id="node3" class="node">
<title>ConcurrentStatements</title>
<g id="a_node3"><a xlink:href="../pyVHDLModel/pyVHDLModel.Concurrent.html#pyVHDLModel.Concurrent.ConcurrentStatements" xlink:title="ConcurrentStatements" target="_top">
<polygon fill="white" stroke="#1e90ff" points="174.5,-56 7.5,-56 7.5,-37 174.5,-37 174.5,-56"/>
<text text-anchor="middle" x="91" y="-44" font-family="Vera Sans, DejaVu Sans, Liberation Sans, Arial, Helvetica, sans" font-size="10.00">ConcurrentStatements</text>
</a>
</g>
</g>
<!-- ConcurrentStatements&#45;&gt;GenerateBranch -->
<g id="edge6" class="edge">
<title>ConcurrentStatements&#45;&gt;GenerateBranch</title>
<path fill="none" stroke="black" stroke-width="0.5" d="M174.84,-54.37C188.19,-55.64 201.87,-56.94 214.78,-58.16"/>
<polygon fill="black" stroke="black" stroke-width="0.5" points="215.15,-59.96 220.29,-58.69 215.48,-56.47 215.15,-59.96"/>
</g>
<!-- ElseGenerateBranch -->
<g id="node5" class="node">
<title>ElseGenerateBranch</title>
<g id="a_node5"><a xlink:href="../pyVHDLModel/pyVHDLModel.Concurrent.html#pyVHDLModel.Concurrent.ElseGenerateBranch" xlink:title="ElseGenerateBranch" target="_top">
<polygon fill="white" stroke="#1e90ff" points="535,-92 383,-92 383,-73 535,-73 535,-92"/>
<text text-anchor="middle" x="459" y="-80" font-family="Vera Sans, DejaVu Sans, Liberation Sans, Arial, Helvetica, sans" font-size="10.00">ElseGenerateBranch</text>
</a>
</g>
</g>
<!-- ElseBranchMixin&#45;&gt;ElseGenerateBranch -->
<g id="edge3" class="edge">
<title>ElseBranchMixin&#45;&gt;ElseGenerateBranch</title>
<path fill="none" stroke="black" stroke-width="0.5" d="M345.51,-100.55C359.83,-98.25 375.13,-95.8 389.7,-93.46"/>
<polygon fill="black" stroke="black" stroke-width="0.5" points="390.49,-95.11 395.15,-92.59 389.93,-91.65 390.49,-95.11"/>
</g>
<!-- GenerateBranch&#45;&gt;ElseGenerateBranch -->
<g id="edge2" class="edge">
<title>GenerateBranch&#45;&gt;ElseGenerateBranch</title>
<path fill="none" stroke="black" stroke-width="0.5" d="M343.55,-70.69C354.1,-71.78 365.24,-72.93 376.26,-74.07"/>
<polygon fill="black" stroke="black" stroke-width="0.5" points="376.82,-75.89 381.98,-74.66 377.18,-72.4 376.82,-75.89"/>
</g>
<!-- ModelEntity -->
<g id="node7" class="node">
<title>ModelEntity</title>
<g id="a_node7"><a xlink:href="../pyVHDLModel.Base.html#pyVHDLModel.Base.ModelEntity" xlink:title="``ModelEntity`` is the base&#45;class for all classes in the VHDL language model, except for mixin classes (see multiple" target="_top">
<polygon fill="white" stroke="#1e90ff" points="140.5,-19 41.5,-19 41.5,0 140.5,0 140.5,-19"/>
<text text-anchor="middle" x="91" y="-7" font-family="Vera Sans, DejaVu Sans, Liberation Sans, Arial, Helvetica, sans" font-size="10.00">ModelEntity</text>
</a>
</g>
</g>
<!-- ModelEntity&#45;&gt;GenerateBranch -->
<g id="edge4" class="edge">
<title>ModelEntity&#45;&gt;GenerateBranch</title>
<path fill="none" stroke="black" stroke-width="0.5" d="M140.88,-18.53C154.3,-21.36 168.79,-24.74 182,-28.5 205.54,-35.21 231.52,-44.68 251.03,-52.23"/>
<polygon fill="black" stroke="black" stroke-width="0.5" points="250.87,-54.04 256.17,-54.23 252.14,-50.78 250.87,-54.04"/>
</g>
</g>
</svg>
