<?xml version="1.0" encoding="UTF-8" standalone="no"?>
<!DOCTYPE svg PUBLIC "-//W3C//DTD SVG 1.1//EN"
 "http://www.w3.org/Graphics/SVG/1.1/DTD/svg11.dtd">
<!-- Generated by graphviz version 7.0.5 (20221223.1930)
 -->
<!-- Title: inheritance81d7d7a8e9 Pages: 1 -->
<svg width="576pt" height="66pt"
 viewBox="0.00 0.00 576.00 65.53" xmlns="http://www.w3.org/2000/svg" xmlns:xlink="http://www.w3.org/1999/xlink">
<g id="graph0" class="graph" transform="scale(0.550669 0.550669) rotate(0) translate(4 115)">
<title>inheritance81d7d7a8e9</title>
<!-- DesignUnit -->
<g id="node1" class="node">
<title>DesignUnit</title>
<g id="a_node1"><a xlink:href="../pyVHDLModel.DesignUnit.html#pyVHDLModel.DesignUnit.DesignUnit" xlink:title="A ``DesignUnit`` is a base&#45;class for all design units." target="_top">
<polygon fill="white" stroke="#1e90ff" points="302,-56 210,-56 210,-37 302,-37 302,-56"/>
<text text-anchor="middle" x="256" y="-44" font-family="Vera Sans, DejaVu Sans, Liberation Sans, Arial, Helvetica, sans" font-size="10.00">DesignUnit</text>
</a>
</g>
</g>
<!-- SecondaryUnit -->
<g id="node9" class="node">
<title>SecondaryUnit</title>
<g id="a_node9"><a xlink:href="../pyVHDLModel.DesignUnit.html#pyVHDLModel.DesignUnit.SecondaryUnit" xlink:title="A ``SecondaryUnit`` is a base&#45;class for all secondary units." target="_top">
<polygon fill="white" stroke="#1e90ff" points="501,-56 387,-56 387,-37 501,-37 501,-56"/>
<text text-anchor="middle" x="444" y="-44" font-family="Vera Sans, DejaVu Sans, Liberation Sans, Arial, Helvetica, sans" font-size="10.00">SecondaryUnit</text>
</a>
</g>
</g>
<!-- DesignUnit&#45;&gt;SecondaryUnit -->
<g id="edge9" class="edge">
<title>DesignUnit&#45;&gt;SecondaryUnit</title>
<path fill="none" stroke="black" stroke-width="0.5" d="M302.03,-46.5C325.52,-46.5 354.63,-46.5 380.29,-46.5"/>
<polygon fill="black" stroke="black" stroke-width="0.5" points="380.98,-48.25 385.98,-46.5 380.98,-44.75 380.98,-48.25"/>
</g>
<!-- ModelEntity -->
<g id="node2" class="node">
<title>ModelEntity</title>
<g id="a_node2"><a xlink:href="../pyVHDLModel.Base.html#pyVHDLModel.Base.ModelEntity" xlink:title="``ModelEntity`` is the base&#45;class for all classes in the VHDL language model, except for mixin classes (see multiple" target="_top">
<polygon fill="white" stroke="#1e90ff" points="136.5,-93 37.5,-93 37.5,-74 136.5,-74 136.5,-93"/>
<text text-anchor="middle" x="87" y="-81" font-family="Vera Sans, DejaVu Sans, Liberation Sans, Arial, Helvetica, sans" font-size="10.00">ModelEntity</text>
</a>
</g>
</g>
<!-- ModelEntity&#45;&gt;DesignUnit -->
<g id="edge1" class="edge">
<title>ModelEntity&#45;&gt;DesignUnit</title>
<path fill="none" stroke="black" stroke-width="0.5" d="M136.71,-73.52C148.9,-70.96 161.94,-68.18 174,-65.5 184.73,-63.12 196.23,-60.48 207.1,-57.94"/>
<polygon fill="black" stroke="black" stroke-width="0.5" points="208.22,-59.47 212.68,-56.63 207.42,-56.07 208.22,-59.47"/>
</g>
<!-- NamedEntityMixin -->
<g id="node3" class="node">
<title>NamedEntityMixin</title>
<g id="a_node3"><a xlink:href="../pyVHDLModel.Base.html#pyVHDLModel.Base.NamedEntityMixin" xlink:title="A ``NamedEntityMixin`` is a mixin class for all VHDL entities that have identifiers." target="_top">
<polygon fill="white" stroke="#1e90ff" points="155.5,-56 18.5,-56 18.5,-37 155.5,-37 155.5,-56"/>
<text text-anchor="middle" x="87" y="-44" font-family="Vera Sans, DejaVu Sans, Liberation Sans, Arial, Helvetica, sans" font-size="10.00">NamedEntityMixin</text>
</a>
</g>
</g>
<!-- NamedEntityMixin&#45;&gt;DesignUnit -->
<g id="edge2" class="edge">
<title>NamedEntityMixin&#45;&gt;DesignUnit</title>
<path fill="none" stroke="black" stroke-width="0.5" d="M155.93,-46.5C171.73,-46.5 188.3,-46.5 203.28,-46.5"/>
<polygon fill="black" stroke="black" stroke-width="0.5" points="203.83,-48.25 208.83,-46.5 203.83,-44.75 203.83,-48.25"/>
</g>
<!-- DocumentedEntityMixin -->
<g id="node4" class="node">
<title>DocumentedEntityMixin</title>
<g id="a_node4"><a xlink:href="../pyVHDLModel.Base.html#pyVHDLModel.Base.DocumentedEntityMixin" xlink:title="A ``DocumentedEntityMixin`` is a mixin class for all VHDL entities that can have an associated documentation." target="_top">
<polygon fill="white" stroke="#1e90ff" points="174,-19 0,-19 0,0 174,0 174,-19"/>
<text text-anchor="middle" x="87" y="-7" font-family="Vera Sans, DejaVu Sans, Liberation Sans, Arial, Helvetica, sans" font-size="10.00">DocumentedEntityMixin</text>
</a>
</g>
</g>
<!-- DocumentedEntityMixin&#45;&gt;DesignUnit -->
<g id="edge3" class="edge">
<title>DocumentedEntityMixin&#45;&gt;DesignUnit</title>
<path fill="none" stroke="black" stroke-width="0.5" d="M133.08,-19.45C146.27,-22.36 160.71,-25.56 174,-28.5 183.78,-30.67 194.23,-32.99 204.26,-35.21"/>
<polygon fill="black" stroke="black" stroke-width="0.5" points="204.44,-37.05 209.7,-36.42 205.2,-33.63 204.44,-37.05"/>
</g>
<!-- DesignUnitWithContextMixin -->
<g id="node5" class="node">
<title>DesignUnitWithContextMixin</title>
<g id="a_node5"><a xlink:href="../pyVHDLModel.DesignUnit.html#pyVHDLModel.DesignUnit.DesignUnitWithContextMixin" xlink:title="DesignUnitWithContextMixin" target="_top">
<polygon fill="white" stroke="#1e90ff" points="550,-93 338,-93 338,-74 550,-74 550,-93"/>
<text text-anchor="middle" x="444" y="-81" font-family="Vera Sans, DejaVu Sans, Liberation Sans, Arial, Helvetica, sans" font-size="10.00">DesignUnitWithContextMixin</text>
</a>
</g>
</g>
<!-- PackageBody -->
<g id="node8" class="node">
<title>PackageBody</title>
<g id="a_node8"><a xlink:href="../pyVHDLModel.DesignUnit.html#pyVHDLModel.DesignUnit.PackageBody" xlink:title="PackageBody" target="_top">
<polygon fill="white" stroke="#1e90ff" points="700,-74 601,-74 601,-55 700,-55 700,-74"/>
<text text-anchor="middle" x="650.5" y="-62" font-family="Vera Sans, DejaVu Sans, Liberation Sans, Arial, Helvetica, sans" font-size="10.00">PackageBody</text>
</a>
</g>
</g>
<!-- DesignUnitWithContextMixin&#45;&gt;PackageBody -->
<g id="edge6" class="edge">
<title>DesignUnitWithContextMixin&#45;&gt;PackageBody</title>
<path fill="none" stroke="black" stroke-width="0.5" d="M550.25,-73.72C565.52,-72.3 580.71,-70.89 594.44,-69.62"/>
<polygon fill="black" stroke="black" stroke-width="0.5" points="595.07,-71.31 599.89,-69.11 594.75,-67.83 595.07,-71.31"/>
</g>
<!-- Env_Body -->
<g id="node6" class="node">
<title>Env_Body</title>
<g id="a_node6"><a xlink:href="../pyVHDLModel/pyVHDLModel.STD.html#pyVHDLModel.STD.Env_Body" xlink:title="Env_Body" target="_top">
<polygon fill="white" stroke="#1e90ff" points="1038,-92 961,-92 961,-73 1038,-73 1038,-92"/>
<text text-anchor="middle" x="999.5" y="-80" font-family="Vera Sans, DejaVu Sans, Liberation Sans, Arial, Helvetica, sans" font-size="10.00">Env_Body</text>
</a>
</g>
</g>
<!-- PredefinedPackageBody -->
<g id="node7" class="node">
<title>PredefinedPackageBody</title>
<g id="a_node7"><a xlink:href="../pyVHDLModel/pyVHDLModel.STD.html#pyVHDLModel.STD.PredefinedPackageBody" xlink:title="PredefinedPackageBody" target="_top">
<polygon fill="white" stroke="#1e90ff" points="925,-92 751,-92 751,-73 925,-73 925,-92"/>
<text text-anchor="middle" x="838" y="-80" font-family="Vera Sans, DejaVu Sans, Liberation Sans, Arial, Helvetica, sans" font-size="10.00">PredefinedPackageBody</text>
</a>
</g>
</g>
<!-- PredefinedPackageBody&#45;&gt;Env_Body -->
<g id="edge4" class="edge">
<title>PredefinedPackageBody&#45;&gt;Env_Body</title>
<path fill="none" stroke="black" stroke-width="0.5" d="M925.29,-82.5C935.33,-82.5 945.23,-82.5 954.35,-82.5"/>
<polygon fill="black" stroke="black" stroke-width="0.5" points="955.09,-84.25 960.09,-82.5 955.09,-80.75 955.09,-84.25"/>
</g>
<!-- PackageBody&#45;&gt;PredefinedPackageBody -->
<g id="edge7" class="edge">
<title>PackageBody&#45;&gt;PredefinedPackageBody</title>
<path fill="none" stroke="black" stroke-width="0.5" d="M700.24,-69.23C713.88,-70.55 729.19,-72.04 744.48,-73.52"/>
<polygon fill="black" stroke="black" stroke-width="0.5" points="744.66,-75.3 749.81,-74.04 745,-71.81 744.66,-75.3"/>
</g>
<!-- SecondaryUnit&#45;&gt;PackageBody -->
<g id="edge5" class="edge">
<title>SecondaryUnit&#45;&gt;PackageBody</title>
<path fill="none" stroke="black" stroke-width="0.5" d="M501.42,-51.47C530.33,-54.01 565.4,-57.1 594.15,-59.63"/>
<polygon fill="black" stroke="black" stroke-width="0.5" points="594.67,-61.43 599.8,-60.13 594.98,-57.94 594.67,-61.43"/>
</g>
<!-- PredefinedMixin -->
<g id="node10" class="node">
<title>PredefinedMixin</title>
<g id="a_node10"><a xlink:href="../pyVHDLModel/pyVHDLModel.STD.html#pyVHDLModel.STD.PredefinedMixin" xlink:title="PredefinedMixin" target="_top">
<polygon fill="white" stroke="#1e90ff" points="715,-111 586,-111 586,-92 715,-92 715,-111"/>
<text text-anchor="middle" x="650.5" y="-99" font-family="Vera Sans, DejaVu Sans, Liberation Sans, Arial, Helvetica, sans" font-size="10.00">PredefinedMixin</text>
</a>
</g>
</g>
<!-- PredefinedMixin&#45;&gt;PredefinedPackageBody -->
<g id="edge8" class="edge">
<title>PredefinedMixin&#45;&gt;PredefinedPackageBody</title>
<path fill="none" stroke="black" stroke-width="0.5" d="M715.34,-94.96C724.71,-94 734.52,-93 744.32,-91.99"/>
<polygon fill="black" stroke="black" stroke-width="0.5" points="745.22,-93.66 750.01,-91.41 744.86,-90.18 745.22,-93.66"/>
</g>
</g>
</svg>
