<?xml version="1.0" encoding="UTF-8" standalone="no"?>
<!DOCTYPE svg PUBLIC "-//W3C//DTD SVG 1.1//EN"
 "http://www.w3.org/Graphics/SVG/1.1/DTD/svg11.dtd">
<!-- Generated by graphviz version 7.0.5 (20221223.1930)
 -->
<!-- Title: inheritancea148513133 Pages: 1 -->
<svg width="576pt" height="85pt"
 viewBox="0.00 0.00 576.00 85.04" xmlns="http://www.w3.org/2000/svg" xmlns:xlink="http://www.w3.org/1999/xlink">
<g id="graph0" class="graph" transform="scale(0.71464 0.71464) rotate(0) translate(4 115)">
<title>inheritancea148513133</title>
<!-- AssertStatementMixin -->
<g id="node1" class="node">
<title>AssertStatementMixin</title>
<g id="a_node1"><a xlink:href="../pyVHDLModel.Base.html#pyVHDLModel.Base.AssertStatementMixin" xlink:title="A ``MixinAssertStatement`` is a mixin&#45;class for all assert statements." target="_top">
<polygon fill="white" stroke="#1e90ff" points="558,-56 391,-56 391,-37 558,-37 558,-56"/>
<text text-anchor="middle" x="474.5" y="-44" font-family="Vera Sans, DejaVu Sans, Liberation Sans, Arial, Helvetica, sans" font-size="10.00">AssertStatementMixin</text>
</a>
</g>
</g>
<!-- ConcurrentAssertStatement -->
<g id="node4" class="node">
<title>ConcurrentAssertStatement</title>
<g id="a_node4"><a xlink:href="../pyVHDLModel/pyVHDLModel.Concurrent.html#pyVHDLModel.Concurrent.ConcurrentAssertStatement" xlink:title="ConcurrentAssertStatement" target="_top">
<polygon fill="white" stroke="#1e90ff" points="798,-74 594,-74 594,-55 798,-55 798,-74"/>
<text text-anchor="middle" x="696" y="-62" font-family="Vera Sans, DejaVu Sans, Liberation Sans, Arial, Helvetica, sans" font-size="10.00">ConcurrentAssertStatement</text>
</a>
</g>
</g>
<!-- AssertStatementMixin&#45;&gt;ConcurrentAssertStatement -->
<g id="edge4" class="edge">
<title>AssertStatementMixin&#45;&gt;ConcurrentAssertStatement</title>
<path fill="none" stroke="black" stroke-width="0.5" d="M558.48,-53.31C567.94,-54.08 577.69,-54.88 587.41,-55.68"/>
<polygon fill="black" stroke="black" stroke-width="0.5" points="587.91,-57.47 593.04,-56.14 588.2,-53.99 587.91,-57.47"/>
</g>
<!-- ReportStatementMixin -->
<g id="node2" class="node">
<title>ReportStatementMixin</title>
<g id="a_node2"><a xlink:href="../pyVHDLModel.Base.html#pyVHDLModel.Base.ReportStatementMixin" xlink:title="A ``MixinReportStatement`` is a mixin&#45;class for all report and assert statements." target="_top">
<polygon fill="white" stroke="#1e90ff" points="355,-56 188,-56 188,-37 355,-37 355,-56"/>
<text text-anchor="middle" x="271.5" y="-44" font-family="Vera Sans, DejaVu Sans, Liberation Sans, Arial, Helvetica, sans" font-size="10.00">ReportStatementMixin</text>
</a>
</g>
</g>
<!-- ReportStatementMixin&#45;&gt;AssertStatementMixin -->
<g id="edge1" class="edge">
<title>ReportStatementMixin&#45;&gt;AssertStatementMixin</title>
<path fill="none" stroke="black" stroke-width="0.5" d="M355.41,-46.5C365,-46.5 374.8,-46.5 384.45,-46.5"/>
<polygon fill="black" stroke="black" stroke-width="0.5" points="385.02,-48.25 390.02,-46.5 385.02,-44.75 385.02,-48.25"/>
</g>
<!-- ConditionalMixin -->
<g id="node3" class="node">
<title>ConditionalMixin</title>
<g id="a_node3"><a xlink:href="../pyVHDLModel.Base.html#pyVHDLModel.Base.ConditionalMixin" xlink:title="A ``BaseConditional`` is a mixin&#45;class for all statements with a condition." target="_top">
<polygon fill="white" stroke="#1e90ff" points="340,-19 203,-19 203,0 340,0 340,-19"/>
<text text-anchor="middle" x="271.5" y="-7" font-family="Vera Sans, DejaVu Sans, Liberation Sans, Arial, Helvetica, sans" font-size="10.00">ConditionalMixin</text>
</a>
</g>
</g>
<!-- ConditionalMixin&#45;&gt;AssertStatementMixin -->
<g id="edge2" class="edge">
<title>ConditionalMixin&#45;&gt;AssertStatementMixin</title>
<path fill="none" stroke="black" stroke-width="0.5" d="M326.63,-19.46C353.33,-24.38 385.62,-30.32 413.12,-35.39"/>
<polygon fill="black" stroke="black" stroke-width="0.5" points="413.3,-37.2 418.53,-36.38 413.93,-33.75 413.3,-37.2"/>
</g>
<!-- ConcurrentStatement -->
<g id="node5" class="node">
<title>ConcurrentStatement</title>
<g id="a_node5"><a xlink:href="../pyVHDLModel/pyVHDLModel.Concurrent.html#pyVHDLModel.Concurrent.ConcurrentStatement" xlink:title="A ``ConcurrentStatement`` is a base&#45;class for all concurrent statements." target="_top">
<polygon fill="white" stroke="#1e90ff" points="554,-93 395,-93 395,-74 554,-74 554,-93"/>
<text text-anchor="middle" x="474.5" y="-81" font-family="Vera Sans, DejaVu Sans, Liberation Sans, Arial, Helvetica, sans" font-size="10.00">ConcurrentStatement</text>
</a>
</g>
</g>
<!-- ConcurrentStatement&#45;&gt;ConcurrentAssertStatement -->
<g id="edge3" class="edge">
<title>ConcurrentStatement&#45;&gt;ConcurrentAssertStatement</title>
<path fill="none" stroke="black" stroke-width="0.5" d="M554.43,-76.67C565.22,-75.73 576.44,-74.76 587.62,-73.79"/>
<polygon fill="black" stroke="black" stroke-width="0.5" points="588.24,-75.5 593.07,-73.32 587.94,-72.01 588.24,-75.5"/>
</g>
<!-- Statement -->
<g id="node6" class="node">
<title>Statement</title>
<g id="a_node6"><a xlink:href="../pyVHDLModel.Common.html#pyVHDLModel.Common.Statement" xlink:title="A ``Statement`` is a base&#45;class for all statements." target="_top">
<polygon fill="white" stroke="#1e90ff" points="313.5,-93 229.5,-93 229.5,-74 313.5,-74 313.5,-93"/>
<text text-anchor="middle" x="271.5" y="-81" font-family="Vera Sans, DejaVu Sans, Liberation Sans, Arial, Helvetica, sans" font-size="10.00">Statement</text>
</a>
</g>
</g>
<!-- Statement&#45;&gt;ConcurrentStatement -->
<g id="edge5" class="edge">
<title>Statement&#45;&gt;ConcurrentStatement</title>
<path fill="none" stroke="black" stroke-width="0.5" d="M313.66,-83.5C335.25,-83.5 362.52,-83.5 388.4,-83.5"/>
<polygon fill="black" stroke="black" stroke-width="0.5" points="388.84,-85.25 393.84,-83.5 388.84,-81.75 388.84,-85.25"/>
</g>
<!-- LabeledEntityMixin -->
<g id="node7" class="node">
<title>LabeledEntityMixin</title>
<g id="a_node7"><a xlink:href="../pyVHDLModel.Base.html#pyVHDLModel.Base.LabeledEntityMixin" xlink:title="A ``LabeledEntityMixin`` is a mixin class for all VHDL entities that can have labels." target="_top">
<polygon fill="white" stroke="#1e90ff" points="152,-111 0,-111 0,-92 152,-92 152,-111"/>
<text text-anchor="middle" x="76" y="-99" font-family="Vera Sans, DejaVu Sans, Liberation Sans, Arial, Helvetica, sans" font-size="10.00">LabeledEntityMixin</text>
</a>
</g>
</g>
<!-- LabeledEntityMixin&#45;&gt;Statement -->
<g id="edge7" class="edge">
<title>LabeledEntityMixin&#45;&gt;Statement</title>
<path fill="none" stroke="black" stroke-width="0.5" d="M152.37,-94.49C176.02,-92.29 201.48,-89.92 222.68,-87.95"/>
<polygon fill="black" stroke="black" stroke-width="0.5" points="223.54,-89.63 228.36,-87.42 223.22,-86.14 223.54,-89.63"/>
</g>
<!-- ModelEntity -->
<g id="node8" class="node">
<title>ModelEntity</title>
<g id="a_node8"><a xlink:href="../pyVHDLModel.Base.html#pyVHDLModel.Base.ModelEntity" xlink:title="``ModelEntity`` is the base&#45;class for all classes in the VHDL language model, except for mixin classes (see multiple" target="_top">
<polygon fill="white" stroke="#1e90ff" points="125.5,-74 26.5,-74 26.5,-55 125.5,-55 125.5,-74"/>
<text text-anchor="middle" x="76" y="-62" font-family="Vera Sans, DejaVu Sans, Liberation Sans, Arial, Helvetica, sans" font-size="10.00">ModelEntity</text>
</a>
</g>
</g>
<!-- ModelEntity&#45;&gt;Statement -->
<g id="edge6" class="edge">
<title>ModelEntity&#45;&gt;Statement</title>
<path fill="none" stroke="black" stroke-width="0.5" d="M125.83,-69.29C155.62,-72.22 193.52,-75.94 223.05,-78.84"/>
<polygon fill="black" stroke="black" stroke-width="0.5" points="223.32,-80.63 228.47,-79.37 223.66,-77.14 223.32,-80.63"/>
</g>
</g>
</svg>
