<?xml version="1.0" encoding="UTF-8" standalone="no"?>
<!DOCTYPE svg PUBLIC "-//W3C//DTD SVG 1.1//EN"
 "http://www.w3.org/Graphics/SVG/1.1/DTD/svg11.dtd">
<!-- Generated by graphviz version 7.0.5 (20221223.1930)
 -->
<!-- Title: inheritancee30643d748 Pages: 1 -->
<svg width="576pt" height="20pt"
 viewBox="0.00 0.00 576.00 20.04" xmlns="http://www.w3.org/2000/svg" xmlns:xlink="http://www.w3.org/1999/xlink">
<g id="graph0" class="graph" transform="scale(0.742268 0.742268) rotate(0) translate(4 23)">
<title>inheritancee30643d748</title>
<!-- BaseExpression -->
<g id="node1" class="node">
<title>BaseExpression</title>
<g id="a_node1"><a xlink:href="../pyVHDLModel/pyVHDLModel.Expression.html#pyVHDLModel.Expression.BaseExpression" xlink:title="A ``BaseExpression`` is a base&#45;class for all expressions." target="_top">
<polygon fill="white" stroke="#1e90ff" points="257,-19 135,-19 135,0 257,0 257,-19"/>
<text text-anchor="middle" x="196" y="-7" font-family="Vera Sans, DejaVu Sans, Liberation Sans, Arial, Helvetica, sans" font-size="10.00">BaseExpression</text>
</a>
</g>
</g>
<!-- BinaryExpression -->
<g id="node3" class="node">
<title>BinaryExpression</title>
<g id="a_node3"><a xlink:href="../pyVHDLModel/pyVHDLModel.Expression.html#pyVHDLModel.Expression.BinaryExpression" xlink:title="A ``BinaryExpression`` is a base&#45;class for all binary expressions." target="_top">
<polygon fill="white" stroke="#1e90ff" points="430,-19 293,-19 293,0 430,0 430,-19"/>
<text text-anchor="middle" x="361.5" y="-7" font-family="Vera Sans, DejaVu Sans, Liberation Sans, Arial, Helvetica, sans" font-size="10.00">BinaryExpression</text>
</a>
</g>
</g>
<!-- BaseExpression&#45;&gt;BinaryExpression -->
<g id="edge2" class="edge">
<title>BaseExpression&#45;&gt;BinaryExpression</title>
<path fill="none" stroke="black" stroke-width="0.5" d="M257.42,-9.5C266.82,-9.5 276.63,-9.5 286.29,-9.5"/>
<polygon fill="black" stroke="black" stroke-width="0.5" points="286.86,-11.25 291.86,-9.5 286.86,-7.75 286.86,-11.25"/>
</g>
<!-- ModelEntity -->
<g id="node2" class="node">
<title>ModelEntity</title>
<g id="a_node2"><a xlink:href="../pyVHDLModel.Base.html#pyVHDLModel.Base.ModelEntity" xlink:title="``ModelEntity`` is the base&#45;class for all classes in the VHDL language model, except for mixin classes (see multiple" target="_top">
<polygon fill="white" stroke="#1e90ff" points="99,-19 0,-19 0,0 99,0 99,-19"/>
<text text-anchor="middle" x="49.5" y="-7" font-family="Vera Sans, DejaVu Sans, Liberation Sans, Arial, Helvetica, sans" font-size="10.00">ModelEntity</text>
</a>
</g>
</g>
<!-- ModelEntity&#45;&gt;BaseExpression -->
<g id="edge1" class="edge">
<title>ModelEntity&#45;&gt;BaseExpression</title>
<path fill="none" stroke="black" stroke-width="0.5" d="M99.42,-9.5C108.69,-9.5 118.53,-9.5 128.24,-9.5"/>
<polygon fill="black" stroke="black" stroke-width="0.5" points="128.84,-11.25 133.84,-9.5 128.84,-7.75 128.84,-11.25"/>
</g>
<!-- LogicalExpression -->
<g id="node4" class="node">
<title>LogicalExpression</title>
<g id="a_node4"><a xlink:href="../pyVHDLModel/pyVHDLModel.Expression.html#pyVHDLModel.Expression.LogicalExpression" xlink:title="A ``LogicalExpression`` is a base&#45;class for all logical expressions." target="_top">
<polygon fill="white" stroke="#1e90ff" points="610,-19 466,-19 466,0 610,0 610,-19"/>
<text text-anchor="middle" x="538" y="-7" font-family="Vera Sans, DejaVu Sans, Liberation Sans, Arial, Helvetica, sans" font-size="10.00">LogicalExpression</text>
</a>
</g>
</g>
<!-- BinaryExpression&#45;&gt;LogicalExpression -->
<g id="edge3" class="edge">
<title>BinaryExpression&#45;&gt;LogicalExpression</title>
<path fill="none" stroke="black" stroke-width="0.5" d="M430.47,-9.5C439.96,-9.5 449.78,-9.5 459.44,-9.5"/>
<polygon fill="black" stroke="black" stroke-width="0.5" points="460.01,-11.25 465.01,-9.5 460.01,-7.75 460.01,-11.25"/>
</g>
<!-- XnorExpression -->
<g id="node5" class="node">
<title>XnorExpression</title>
<g id="a_node5"><a xlink:href="../pyVHDLModel/pyVHDLModel.Expression.html#pyVHDLModel.Expression.XnorExpression" xlink:title="XnorExpression" target="_top">
<polygon fill="white" stroke="#1e90ff" points="768,-19 646,-19 646,0 768,0 768,-19"/>
<text text-anchor="middle" x="707" y="-7" font-family="Vera Sans, DejaVu Sans, Liberation Sans, Arial, Helvetica, sans" font-size="10.00">XnorExpression</text>
</a>
</g>
</g>
<!-- LogicalExpression&#45;&gt;XnorExpression -->
<g id="edge4" class="edge">
<title>LogicalExpression&#45;&gt;XnorExpression</title>
<path fill="none" stroke="black" stroke-width="0.5" d="M610.31,-9.5C619.98,-9.5 629.87,-9.5 639.46,-9.5"/>
<polygon fill="black" stroke="black" stroke-width="0.5" points="639.95,-11.25 644.95,-9.5 639.95,-7.75 639.95,-11.25"/>
</g>
</g>
</svg>
