<?xml version="1.0" encoding="UTF-8" standalone="no"?>
<!DOCTYPE svg PUBLIC "-//W3C//DTD SVG 1.1//EN"
 "http://www.w3.org/Graphics/SVG/1.1/DTD/svg11.dtd">
<!-- Generated by graphviz version 7.0.5 (20221223.1930)
 -->
<!-- Title: inheritance76ac8fae4b Pages: 1 -->
<svg width="576pt" height="169pt"
 viewBox="0.00 0.00 576.00 168.62" xmlns="http://www.w3.org/2000/svg" xmlns:xlink="http://www.w3.org/1999/xlink">
<g id="graph0" class="graph" transform="scale(0.787962 0.787962) rotate(0) translate(4 210)">
<title>inheritance76ac8fae4b</title>
<!-- BlockStatementMixin -->
<g id="node1" class="node">
<title>BlockStatementMixin</title>
<g id="a_node1"><a xlink:title="A ``BlockStatement`` is a mixin&#45;class for all block statements.">
<polygon fill="white" stroke="#1e90ff" points="478.5,-206 319.5,-206 319.5,-187 478.5,-187 478.5,-206"/>
<text text-anchor="middle" x="399" y="-194" font-family="Vera Sans, DejaVu Sans, Liberation Sans, Arial, Helvetica, sans" font-size="10.00">BlockStatementMixin</text>
</a>
</g>
</g>
<!-- ConcurrentBlockStatement -->
<g id="node2" class="node">
<title>ConcurrentBlockStatement</title>
<g id="a_node2"><a xlink:href="../pyVHDLModel/pyVHDLModel.Concurrent.html#pyVHDLModel.Concurrent.ConcurrentBlockStatement" xlink:title="ConcurrentBlockStatement" target="_top">
<polygon fill="white" stroke="#1e90ff" points="723,-111 526,-111 526,-92 723,-92 723,-111"/>
<text text-anchor="middle" x="624.5" y="-99" font-family="Vera Sans, DejaVu Sans, Liberation Sans, Arial, Helvetica, sans" font-size="10.00">ConcurrentBlockStatement</text>
</a>
</g>
</g>
<!-- BlockStatementMixin&#45;&gt;ConcurrentBlockStatement -->
<g id="edge2" class="edge">
<title>BlockStatementMixin&#45;&gt;ConcurrentBlockStatement</title>
<path fill="none" stroke="black" stroke-width="0.5" d="M445.51,-186.51C459.96,-182.78 475.85,-178.06 490,-172.5 531.34,-156.24 576.35,-130.46 602.12,-114.84"/>
<polygon fill="black" stroke="black" stroke-width="0.5" points="603.63,-115.98 606.98,-111.88 601.8,-112.99 603.63,-115.98"/>
</g>
<!-- ConcurrentStatement -->
<g id="node3" class="node">
<title>ConcurrentStatement</title>
<g id="a_node3"><a xlink:href="../pyVHDLModel/pyVHDLModel.Concurrent.html#pyVHDLModel.Concurrent.ConcurrentStatement" xlink:title="A ``ConcurrentStatement`` is a base&#45;class for all concurrent statements." target="_top">
<polygon fill="white" stroke="#1e90ff" points="478.5,-130 319.5,-130 319.5,-111 478.5,-111 478.5,-130"/>
<text text-anchor="middle" x="399" y="-118" font-family="Vera Sans, DejaVu Sans, Liberation Sans, Arial, Helvetica, sans" font-size="10.00">ConcurrentStatement</text>
</a>
</g>
</g>
<!-- ConcurrentStatement&#45;&gt;ConcurrentBlockStatement -->
<g id="edge1" class="edge">
<title>ConcurrentStatement&#45;&gt;ConcurrentBlockStatement</title>
<path fill="none" stroke="black" stroke-width="0.5" d="M478.8,-113.8C491.99,-112.68 505.84,-111.5 519.55,-110.34"/>
<polygon fill="black" stroke="black" stroke-width="0.5" points="520.24,-112.03 525.08,-109.87 519.94,-108.55 520.24,-112.03"/>
</g>
<!-- LabeledEntityMixin -->
<g id="node4" class="node">
<title>LabeledEntityMixin</title>
<g id="a_node4"><a xlink:href="../pyVHDLModel.Base.html#pyVHDLModel.Base.LabeledEntityMixin" xlink:title="A ``LabeledEntityMixin`` is a mixin class for all VHDL entities that can have labels." target="_top">
<polygon fill="white" stroke="#1e90ff" points="152,-167 0,-167 0,-148 152,-148 152,-167"/>
<text text-anchor="middle" x="76" y="-155" font-family="Vera Sans, DejaVu Sans, Liberation Sans, Arial, Helvetica, sans" font-size="10.00">LabeledEntityMixin</text>
</a>
</g>
</g>
<!-- LabeledEntityMixin&#45;&gt;ConcurrentBlockStatement -->
<g id="edge3" class="edge">
<title>LabeledEntityMixin&#45;&gt;ConcurrentBlockStatement</title>
<path fill="none" stroke="black" stroke-width="0.5" d="M152.14,-159.46C235.32,-160.43 373.1,-158.42 490,-139.5 524.72,-133.88 563.25,-122.32 589.95,-113.41"/>
<polygon fill="black" stroke="black" stroke-width="0.5" points="590.91,-114.94 595.09,-111.68 589.79,-111.62 590.91,-114.94"/>
</g>
<!-- Statement -->
<g id="node8" class="node">
<title>Statement</title>
<g id="a_node8"><a xlink:href="../pyVHDLModel.Common.html#pyVHDLModel.Common.Statement" xlink:title="A ``Statement`` is a base&#45;class for all statements." target="_top">
<polygon fill="white" stroke="#1e90ff" points="272,-130 188,-130 188,-111 272,-111 272,-130"/>
<text text-anchor="middle" x="230" y="-118" font-family="Vera Sans, DejaVu Sans, Liberation Sans, Arial, Helvetica, sans" font-size="10.00">Statement</text>
</a>
</g>
</g>
<!-- LabeledEntityMixin&#45;&gt;Statement -->
<g id="edge9" class="edge">
<title>LabeledEntityMixin&#45;&gt;Statement</title>
<path fill="none" stroke="black" stroke-width="0.5" d="M118.67,-147.55C129.52,-144.94 141.2,-142.13 152,-139.5 161.97,-137.07 172.66,-134.45 182.81,-131.95"/>
<polygon fill="black" stroke="black" stroke-width="0.5" points="183.88,-133.49 188.31,-130.59 183.04,-130.09 183.88,-133.49"/>
</g>
<!-- ConcurrentDeclarations -->
<g id="node5" class="node">
<title>ConcurrentDeclarations</title>
<g id="a_node5"><a xlink:href="../pyVHDLModel/pyVHDLModel.Concurrent.html#pyVHDLModel.Concurrent.ConcurrentDeclarations" xlink:title="ConcurrentDeclarations" target="_top">
<polygon fill="white" stroke="#1e90ff" points="490,-93 308,-93 308,-74 490,-74 490,-93"/>
<text text-anchor="middle" x="399" y="-81" font-family="Vera Sans, DejaVu Sans, Liberation Sans, Arial, Helvetica, sans" font-size="10.00">ConcurrentDeclarations</text>
</a>
</g>
</g>
<!-- ConcurrentDeclarations&#45;&gt;ConcurrentBlockStatement -->
<g id="edge4" class="edge">
<title>ConcurrentDeclarations&#45;&gt;ConcurrentBlockStatement</title>
<path fill="none" stroke="black" stroke-width="0.5" d="M490.26,-90.77C499.8,-91.54 509.56,-92.32 519.24,-93.1"/>
<polygon fill="black" stroke="black" stroke-width="0.5" points="519.71,-94.9 524.84,-93.55 519.99,-91.41 519.71,-94.9"/>
</g>
<!-- ConcurrentStatements -->
<g id="node6" class="node">
<title>ConcurrentStatements</title>
<g id="a_node6"><a xlink:href="../pyVHDLModel/pyVHDLModel.Concurrent.html#pyVHDLModel.Concurrent.ConcurrentStatements" xlink:title="ConcurrentStatements" target="_top">
<polygon fill="white" stroke="#1e90ff" points="482.5,-56 315.5,-56 315.5,-37 482.5,-37 482.5,-56"/>
<text text-anchor="middle" x="399" y="-44" font-family="Vera Sans, DejaVu Sans, Liberation Sans, Arial, Helvetica, sans" font-size="10.00">ConcurrentStatements</text>
</a>
</g>
</g>
<!-- ConcurrentStatements&#45;&gt;ConcurrentBlockStatement -->
<g id="edge5" class="edge">
<title>ConcurrentStatements&#45;&gt;ConcurrentBlockStatement</title>
<path fill="none" stroke="black" stroke-width="0.5" d="M452.97,-56.42C465.17,-58.9 478.06,-61.66 490,-64.5 521.84,-72.09 557.55,-82.06 584.03,-89.74"/>
<polygon fill="black" stroke="black" stroke-width="0.5" points="584.19,-91.62 589.48,-91.33 585.17,-88.25 584.19,-91.62"/>
</g>
<!-- DocumentedEntityMixin -->
<g id="node7" class="node">
<title>DocumentedEntityMixin</title>
<g id="a_node7"><a xlink:href="../pyVHDLModel.Base.html#pyVHDLModel.Base.DocumentedEntityMixin" xlink:title="A ``DocumentedEntityMixin`` is a mixin class for all VHDL entities that can have an associated documentation." target="_top">
<polygon fill="white" stroke="#1e90ff" points="486,-19 312,-19 312,0 486,0 486,-19"/>
<text text-anchor="middle" x="399" y="-7" font-family="Vera Sans, DejaVu Sans, Liberation Sans, Arial, Helvetica, sans" font-size="10.00">DocumentedEntityMixin</text>
</a>
</g>
</g>
<!-- DocumentedEntityMixin&#45;&gt;ConcurrentBlockStatement -->
<g id="edge6" class="edge">
<title>DocumentedEntityMixin&#45;&gt;ConcurrentBlockStatement</title>
<path fill="none" stroke="black" stroke-width="0.5" d="M462.66,-19.43C471.96,-21.65 481.32,-24.32 490,-27.5 533.02,-43.29 578.83,-71.51 604.04,-88.17"/>
<polygon fill="black" stroke="black" stroke-width="0.5" points="603.63,-90 608.76,-91.32 605.57,-87.09 603.63,-90"/>
</g>
<!-- Statement&#45;&gt;ConcurrentStatement -->
<g id="edge7" class="edge">
<title>Statement&#45;&gt;ConcurrentStatement</title>
<path fill="none" stroke="black" stroke-width="0.5" d="M272.28,-120.5C284.59,-120.5 298.57,-120.5 312.61,-120.5"/>
<polygon fill="black" stroke="black" stroke-width="0.5" points="313.31,-122.25 318.31,-120.5 313.31,-118.75 313.31,-122.25"/>
</g>
<!-- ModelEntity -->
<g id="node9" class="node">
<title>ModelEntity</title>
<g id="a_node9"><a xlink:href="../pyVHDLModel.Base.html#pyVHDLModel.Base.ModelEntity" xlink:title="``ModelEntity`` is the base&#45;class for all classes in the VHDL language model, except for mixin classes (see multiple" target="_top">
<polygon fill="white" stroke="#1e90ff" points="125.5,-130 26.5,-130 26.5,-111 125.5,-111 125.5,-130"/>
<text text-anchor="middle" x="76" y="-118" font-family="Vera Sans, DejaVu Sans, Liberation Sans, Arial, Helvetica, sans" font-size="10.00">ModelEntity</text>
</a>
</g>
</g>
<!-- ModelEntity&#45;&gt;Statement -->
<g id="edge8" class="edge">
<title>ModelEntity&#45;&gt;Statement</title>
<path fill="none" stroke="black" stroke-width="0.5" d="M125.93,-120.5C143.71,-120.5 163.76,-120.5 181.42,-120.5"/>
<polygon fill="black" stroke="black" stroke-width="0.5" points="182.05,-122.25 187.05,-120.5 182.05,-118.75 182.05,-122.25"/>
</g>
</g>
</svg>
