<?xml version="1.0" encoding="UTF-8" standalone="no"?>
<!DOCTYPE svg PUBLIC "-//W3C//DTD SVG 1.1//EN"
 "http://www.w3.org/Graphics/SVG/1.1/DTD/svg11.dtd">
<!-- Generated by graphviz version 7.0.5 (20221223.1930)
 -->
<!-- Title: inheritance9964fc2623 Pages: 1 -->
<svg width="576pt" height="59pt"
 viewBox="0.00 0.00 576.00 58.98" xmlns="http://www.w3.org/2000/svg" xmlns:xlink="http://www.w3.org/1999/xlink">
<g id="graph0" class="graph" transform="scale(0.9216 0.9216) rotate(0) translate(4 60)">
<title>inheritance9964fc2623</title>
<!-- BaseExpression -->
<g id="node1" class="node">
<title>BaseExpression</title>
<g id="a_node1"><a xlink:href="../pyVHDLModel/pyVHDLModel.Expression.html#pyVHDLModel.Expression.BaseExpression" xlink:title="A ``BaseExpression`` is a base&#45;class for all expressions." target="_top">
<polygon fill="white" stroke="#1e90ff" points="257,-19 135,-19 135,0 257,0 257,-19"/>
<text text-anchor="middle" x="196" y="-7" font-family="Vera Sans, DejaVu Sans, Liberation Sans, Arial, Helvetica, sans" font-size="10.00">BaseExpression</text>
</a>
</g>
</g>
<!-- UnaryExpression -->
<g id="node5" class="node">
<title>UnaryExpression</title>
<g id="a_node5"><a xlink:href="../pyVHDLModel/pyVHDLModel.Expression.html#pyVHDLModel.Expression.UnaryExpression" xlink:title="A ``UnaryExpression`` is a base&#45;class for all unary expressions." target="_top">
<polygon fill="white" stroke="#1e90ff" points="444.5,-19 315.5,-19 315.5,0 444.5,0 444.5,-19"/>
<text text-anchor="middle" x="380" y="-7" font-family="Vera Sans, DejaVu Sans, Liberation Sans, Arial, Helvetica, sans" font-size="10.00">UnaryExpression</text>
</a>
</g>
</g>
<!-- BaseExpression&#45;&gt;UnaryExpression -->
<g id="edge4" class="edge">
<title>BaseExpression&#45;&gt;UnaryExpression</title>
<path fill="none" stroke="black" stroke-width="0.5" d="M257.35,-9.5C273.85,-9.5 291.86,-9.5 308.86,-9.5"/>
<polygon fill="black" stroke="black" stroke-width="0.5" points="309.31,-11.25 314.31,-9.5 309.31,-7.75 309.31,-11.25"/>
</g>
<!-- ModelEntity -->
<g id="node2" class="node">
<title>ModelEntity</title>
<g id="a_node2"><a xlink:href="../pyVHDLModel.Base.html#pyVHDLModel.Base.ModelEntity" xlink:title="``ModelEntity`` is the base&#45;class for all classes in the VHDL language model, except for mixin classes (see multiple" target="_top">
<polygon fill="white" stroke="#1e90ff" points="99,-19 0,-19 0,0 99,0 99,-19"/>
<text text-anchor="middle" x="49.5" y="-7" font-family="Vera Sans, DejaVu Sans, Liberation Sans, Arial, Helvetica, sans" font-size="10.00">ModelEntity</text>
</a>
</g>
</g>
<!-- ModelEntity&#45;&gt;BaseExpression -->
<g id="edge1" class="edge">
<title>ModelEntity&#45;&gt;BaseExpression</title>
<path fill="none" stroke="black" stroke-width="0.5" d="M99.42,-9.5C108.69,-9.5 118.53,-9.5 128.24,-9.5"/>
<polygon fill="black" stroke="black" stroke-width="0.5" points="128.84,-11.25 133.84,-9.5 128.84,-7.75 128.84,-11.25"/>
</g>
<!-- ParenthesisExpression -->
<g id="node3" class="node">
<title>ParenthesisExpression</title>
<g id="a_node3"><a xlink:href="../pyVHDLModel/pyVHDLModel.Expression.html#pyVHDLModel.Expression.ParenthesisExpression" xlink:title="ParenthesisExpression" target="_top">
<polygon fill="white" stroke="#1e90ff" points="467,-56 293,-56 293,-37 467,-37 467,-56"/>
<text text-anchor="middle" x="380" y="-44" font-family="Vera Sans, DejaVu Sans, Liberation Sans, Arial, Helvetica, sans" font-size="10.00">ParenthesisExpression</text>
</a>
</g>
</g>
<!-- SubExpression -->
<g id="node4" class="node">
<title>SubExpression</title>
<g id="a_node4"><a xlink:href="../pyVHDLModel/pyVHDLModel.Expression.html#pyVHDLModel.Expression.SubExpression" xlink:title="SubExpression" target="_top">
<polygon fill="white" stroke="#1e90ff" points="617,-37 503,-37 503,-18 617,-18 617,-37"/>
<text text-anchor="middle" x="560" y="-25" font-family="Vera Sans, DejaVu Sans, Liberation Sans, Arial, Helvetica, sans" font-size="10.00">SubExpression</text>
</a>
</g>
</g>
<!-- ParenthesisExpression&#45;&gt;SubExpression -->
<g id="edge3" class="edge">
<title>ParenthesisExpression&#45;&gt;SubExpression</title>
<path fill="none" stroke="black" stroke-width="0.5" d="M467.39,-37.28C477.18,-36.23 487.01,-35.18 496.41,-34.18"/>
<polygon fill="black" stroke="black" stroke-width="0.5" points="497.3,-35.85 502.09,-33.57 496.93,-32.37 497.3,-35.85"/>
</g>
<!-- UnaryExpression&#45;&gt;SubExpression -->
<g id="edge2" class="edge">
<title>UnaryExpression&#45;&gt;SubExpression</title>
<path fill="none" stroke="black" stroke-width="0.5" d="M444.76,-15.95C461.64,-17.65 479.84,-19.5 496.65,-21.19"/>
<polygon fill="black" stroke="black" stroke-width="0.5" points="496.87,-22.98 502.02,-21.74 497.22,-19.49 496.87,-22.98"/>
</g>
</g>
</svg>
