<?xml version="1.0" encoding="UTF-8" standalone="no"?>
<!DOCTYPE svg PUBLIC "-//W3C//DTD SVG 1.1//EN"
 "http://www.w3.org/Graphics/SVG/1.1/DTD/svg11.dtd">
<!-- Generated by graphviz version 7.0.5 (20221223.1930)
 -->
<!-- Title: inheritancecb0e56e4c5 Pages: 1 -->
<svg width="558pt" height="64pt"
 viewBox="0.00 0.00 558.00 64.00" xmlns="http://www.w3.org/2000/svg" xmlns:xlink="http://www.w3.org/1999/xlink">
<g id="graph0" class="graph" transform="scale(1 1) rotate(0) translate(4 60)">
<title>inheritancecb0e56e4c5</title>
<!-- BaseCase -->
<g id="node1" class="node">
<title>BaseCase</title>
<g id="a_node1"><a xlink:href="../pyVHDLModel.Base.html#pyVHDLModel.Base.BaseCase" xlink:title="A ``Case`` is a base&#45;class for all cases." target="_top">
<polygon fill="white" stroke="#1e90ff" points="257,-19 180,-19 180,0 257,0 257,-19"/>
<text text-anchor="middle" x="218.5" y="-7" font-family="Vera Sans, DejaVu Sans, Liberation Sans, Arial, Helvetica, sans" font-size="10.00">BaseCase</text>
</a>
</g>
</g>
<!-- SequentialCase -->
<g id="node4" class="node">
<title>SequentialCase</title>
<g id="a_node4"><a xlink:href="../pyVHDLModel/pyVHDLModel.Sequential.html#pyVHDLModel.Sequential.SequentialCase" xlink:title="SequentialCase" target="_top">
<polygon fill="white" stroke="#1e90ff" points="460,-37 338,-37 338,-18 460,-18 460,-37"/>
<text text-anchor="middle" x="399" y="-25" font-family="Vera Sans, DejaVu Sans, Liberation Sans, Arial, Helvetica, sans" font-size="10.00">SequentialCase</text>
</a>
</g>
</g>
<!-- BaseCase&#45;&gt;SequentialCase -->
<g id="edge3" class="edge">
<title>BaseCase&#45;&gt;SequentialCase</title>
<path fill="none" stroke="black" stroke-width="0.5" d="M257.36,-13.32C278.87,-15.49 306.42,-18.26 331.43,-20.79"/>
<polygon fill="black" stroke="black" stroke-width="0.5" points="331.82,-22.59 336.97,-21.35 332.17,-19.1 331.82,-22.59"/>
</g>
<!-- ModelEntity -->
<g id="node2" class="node">
<title>ModelEntity</title>
<g id="a_node2"><a xlink:href="../pyVHDLModel.Base.html#pyVHDLModel.Base.ModelEntity" xlink:title="``ModelEntity`` is the base&#45;class for all classes in the VHDL language model, except for mixin classes (see multiple" target="_top">
<polygon fill="white" stroke="#1e90ff" points="99,-19 0,-19 0,0 99,0 99,-19"/>
<text text-anchor="middle" x="49.5" y="-7" font-family="Vera Sans, DejaVu Sans, Liberation Sans, Arial, Helvetica, sans" font-size="10.00">ModelEntity</text>
</a>
</g>
</g>
<!-- ModelEntity&#45;&gt;BaseCase -->
<g id="edge1" class="edge">
<title>ModelEntity&#45;&gt;BaseCase</title>
<path fill="none" stroke="black" stroke-width="0.5" d="M99.25,-9.5C122.66,-9.5 150.5,-9.5 173.29,-9.5"/>
<polygon fill="black" stroke="black" stroke-width="0.5" points="173.82,-11.25 178.82,-9.5 173.82,-7.75 173.82,-11.25"/>
</g>
<!-- Case -->
<g id="node3" class="node">
<title>Case</title>
<g id="a_node3"><a xlink:href="../pyVHDLModel/pyVHDLModel.Sequential.html#pyVHDLModel.Sequential.Case" xlink:title="Case" target="_top">
<polygon fill="white" stroke="#1e90ff" points="550,-37 496,-37 496,-18 550,-18 550,-37"/>
<text text-anchor="middle" x="523" y="-25" font-family="Vera Sans, DejaVu Sans, Liberation Sans, Arial, Helvetica, sans" font-size="10.00">Case</text>
</a>
</g>
</g>
<!-- SequentialCase&#45;&gt;Case -->
<g id="edge2" class="edge">
<title>SequentialCase&#45;&gt;Case</title>
<path fill="none" stroke="black" stroke-width="0.5" d="M460.29,-27.5C470.33,-27.5 480.41,-27.5 489.42,-27.5"/>
<polygon fill="black" stroke="black" stroke-width="0.5" points="490.02,-29.25 495.01,-27.5 490.01,-25.75 490.02,-29.25"/>
</g>
<!-- SequentialStatements -->
<g id="node5" class="node">
<title>SequentialStatements</title>
<g id="a_node5"><a xlink:href="../pyVHDLModel/pyVHDLModel.Sequential.html#pyVHDLModel.Sequential.SequentialStatements" xlink:title="SequentialStatements" target="_top">
<polygon fill="white" stroke="#1e90ff" points="302,-56 135,-56 135,-37 302,-37 302,-56"/>
<text text-anchor="middle" x="218.5" y="-44" font-family="Vera Sans, DejaVu Sans, Liberation Sans, Arial, Helvetica, sans" font-size="10.00">SequentialStatements</text>
</a>
</g>
</g>
<!-- SequentialStatements&#45;&gt;SequentialCase -->
<g id="edge4" class="edge">
<title>SequentialStatements&#45;&gt;SequentialCase</title>
<path fill="none" stroke="black" stroke-width="0.5" d="M302.48,-37.67C312.1,-36.64 321.81,-35.61 331.17,-34.61"/>
<polygon fill="black" stroke="black" stroke-width="0.5" points="332.05,-36.28 336.84,-34.01 331.68,-32.8 332.05,-36.28"/>
</g>
</g>
</svg>
