<?xml version="1.0" encoding="UTF-8" standalone="no"?>
<!DOCTYPE svg PUBLIC "-//W3C//DTD SVG 1.1//EN"
 "http://www.w3.org/Graphics/SVG/1.1/DTD/svg11.dtd">
<!-- Generated by graphviz version 7.0.5 (20221223.1930)
 -->
<!-- Title: inheritanced3a92d1c32 Pages: 1 -->
<svg width="392pt" height="27pt"
 viewBox="0.00 0.00 392.00 27.00" xmlns="http://www.w3.org/2000/svg" xmlns:xlink="http://www.w3.org/1999/xlink">
<g id="graph0" class="graph" transform="scale(1 1) rotate(0) translate(4 23)">
<title>inheritanced3a92d1c32</title>
<!-- DependencyGraphVertexKind -->
<g id="node1" class="node">
<title>DependencyGraphVertexKind</title>
<g id="a_node1"><a xlink:href="../pyVHDLModel/pyVHDLModel.html#pyVHDLModel.DependencyGraphVertexKind" xlink:title="An enumeration." target="_top">
<polygon fill="white" stroke="#1e90ff" points="384,-19 180,-19 180,0 384,0 384,-19"/>
<text text-anchor="middle" x="282" y="-7" font-family="Vera Sans, DejaVu Sans, Liberation Sans, Arial, Helvetica, sans" font-size="10.00">DependencyGraphVertexKind</text>
</a>
</g>
</g>
<!-- Flag -->
<g id="node2" class="node">
<title>Flag</title>
<g id="a_node2"><a xlink:title="Support for flags">
<polygon fill="white" stroke="#1e90ff" points="144,-19 90,-19 90,0 144,0 144,-19"/>
<text text-anchor="middle" x="117" y="-7" font-family="Vera Sans, DejaVu Sans, Liberation Sans, Arial, Helvetica, sans" font-size="10.00">Flag</text>
</a>
</g>
</g>
<!-- Flag&#45;&gt;DependencyGraphVertexKind -->
<g id="edge1" class="edge">
<title>Flag&#45;&gt;DependencyGraphVertexKind</title>
<path fill="none" stroke="black" stroke-width="0.5" d="M144.19,-9.5C152.69,-9.5 162.71,-9.5 173.4,-9.5"/>
<polygon fill="black" stroke="black" stroke-width="0.5" points="174.01,-11.25 179.01,-9.5 174.01,-7.75 174.01,-11.25"/>
</g>
<!-- Enum -->
<g id="node3" class="node">
<title>Enum</title>
<g id="a_node3"><a xlink:title="Generic enumeration.">
<polygon fill="white" stroke="#1e90ff" points="54,-19 0,-19 0,0 54,0 54,-19"/>
<text text-anchor="middle" x="27" y="-7" font-family="Vera Sans, DejaVu Sans, Liberation Sans, Arial, Helvetica, sans" font-size="10.00">Enum</text>
</a>
</g>
</g>
<!-- Enum&#45;&gt;Flag -->
<g id="edge2" class="edge">
<title>Enum&#45;&gt;Flag</title>
<path fill="none" stroke="black" stroke-width="0.5" d="M54.4,-9.5C63.45,-9.5 73.69,-9.5 83.19,-9.5"/>
<polygon fill="black" stroke="black" stroke-width="0.5" points="83.86,-11.25 88.86,-9.5 83.86,-7.75 83.86,-11.25"/>
</g>
</g>
</svg>
