<?xml version="1.0" encoding="UTF-8" standalone="no"?>
<!DOCTYPE svg PUBLIC "-//W3C//DTD SVG 1.1//EN"
 "http://www.w3.org/Graphics/SVG/1.1/DTD/svg11.dtd">
<!-- Generated by graphviz version 7.0.5 (20221223.1930)
 -->
<!-- Title: inheritancee06be56031 Pages: 1 -->
<svg width="558pt" height="27pt"
 viewBox="0.00 0.00 558.00 27.00" xmlns="http://www.w3.org/2000/svg" xmlns:xlink="http://www.w3.org/1999/xlink">
<g id="graph0" class="graph" transform="scale(1 1) rotate(0) translate(4 23)">
<title>inheritancee06be56031</title>
<!-- BaseExpression -->
<g id="node1" class="node">
<title>BaseExpression</title>
<g id="a_node1"><a xlink:href="../pyVHDLModel/pyVHDLModel.Expression.html#pyVHDLModel.Expression.BaseExpression" xlink:title="A ``BaseExpression`` is a base&#45;class for all expressions." target="_top">
<polygon fill="white" stroke="#1e90ff" points="257,-19 135,-19 135,0 257,0 257,-19"/>
<text text-anchor="middle" x="196" y="-7" font-family="Vera Sans, DejaVu Sans, Liberation Sans, Arial, Helvetica, sans" font-size="10.00">BaseExpression</text>
</a>
</g>
</g>
<!-- Literal -->
<g id="node4" class="node">
<title>Literal</title>
<g id="a_node4"><a xlink:href="../pyVHDLModel/pyVHDLModel.Expression.html#pyVHDLModel.Expression.Literal" xlink:title="A ``Literal`` is a base&#45;class for all literals." target="_top">
<polygon fill="white" stroke="#1e90ff" points="362,-19 293,-19 293,0 362,0 362,-19"/>
<text text-anchor="middle" x="327.5" y="-7" font-family="Vera Sans, DejaVu Sans, Liberation Sans, Arial, Helvetica, sans" font-size="10.00">Literal</text>
</a>
</g>
</g>
<!-- BaseExpression&#45;&gt;Literal -->
<g id="edge3" class="edge">
<title>BaseExpression&#45;&gt;Literal</title>
<path fill="none" stroke="black" stroke-width="0.5" d="M257.2,-9.5C267.08,-9.5 277.09,-9.5 286.33,-9.5"/>
<polygon fill="black" stroke="black" stroke-width="0.5" points="286.82,-11.25 291.82,-9.5 286.82,-7.75 286.82,-11.25"/>
</g>
<!-- ModelEntity -->
<g id="node2" class="node">
<title>ModelEntity</title>
<g id="a_node2"><a xlink:href="../pyVHDLModel.Base.html#pyVHDLModel.Base.ModelEntity" xlink:title="``ModelEntity`` is the base&#45;class for all classes in the VHDL language model, except for mixin classes (see multiple" target="_top">
<polygon fill="white" stroke="#1e90ff" points="99,-19 0,-19 0,0 99,0 99,-19"/>
<text text-anchor="middle" x="49.5" y="-7" font-family="Vera Sans, DejaVu Sans, Liberation Sans, Arial, Helvetica, sans" font-size="10.00">ModelEntity</text>
</a>
</g>
</g>
<!-- ModelEntity&#45;&gt;BaseExpression -->
<g id="edge1" class="edge">
<title>ModelEntity&#45;&gt;BaseExpression</title>
<path fill="none" stroke="black" stroke-width="0.5" d="M99.42,-9.5C108.69,-9.5 118.53,-9.5 128.24,-9.5"/>
<polygon fill="black" stroke="black" stroke-width="0.5" points="128.84,-11.25 133.84,-9.5 128.84,-7.75 128.84,-11.25"/>
</g>
<!-- EnumerationLiteral -->
<g id="node3" class="node">
<title>EnumerationLiteral</title>
<g id="a_node3"><a xlink:href="../pyVHDLModel/pyVHDLModel.Expression.html#pyVHDLModel.Expression.EnumerationLiteral" xlink:title="EnumerationLiteral" target="_top">
<polygon fill="white" stroke="#1e90ff" points="550,-19 398,-19 398,0 550,0 550,-19"/>
<text text-anchor="middle" x="474" y="-7" font-family="Vera Sans, DejaVu Sans, Liberation Sans, Arial, Helvetica, sans" font-size="10.00">EnumerationLiteral</text>
</a>
</g>
</g>
<!-- Literal&#45;&gt;EnumerationLiteral -->
<g id="edge2" class="edge">
<title>Literal&#45;&gt;EnumerationLiteral</title>
<path fill="none" stroke="black" stroke-width="0.5" d="M362.38,-9.5C371.22,-9.5 381.14,-9.5 391.32,-9.5"/>
<polygon fill="black" stroke="black" stroke-width="0.5" points="391.92,-11.25 396.92,-9.5 391.92,-7.75 391.92,-11.25"/>
</g>
</g>
</svg>
