<?xml version="1.0" encoding="UTF-8" standalone="no"?>
<!DOCTYPE svg PUBLIC "-//W3C//DTD SVG 1.1//EN"
 "http://www.w3.org/Graphics/SVG/1.1/DTD/svg11.dtd">
<!-- Generated by graphviz version 7.0.5 (20221223.1930)
 -->
<!-- Title: inheritance18b3b8093d Pages: 1 -->
<svg width="576pt" height="69pt"
 viewBox="0.00 0.00 576.00 69.03" xmlns="http://www.w3.org/2000/svg" xmlns:xlink="http://www.w3.org/1999/xlink">
<g id="graph0" class="graph" transform="scale(0.58006 0.58006) rotate(0) translate(4 115)">
<title>inheritance18b3b8093d</title>
<!-- DesignUnit -->
<g id="node1" class="node">
<title>DesignUnit</title>
<g id="a_node1"><a xlink:href="../pyVHDLModel.DesignUnit.html#pyVHDLModel.DesignUnit.DesignUnit" xlink:title="A ``DesignUnit`` is a base&#45;class for all design units." target="_top">
<polygon fill="white" stroke="#1e90ff" points="302,-56 210,-56 210,-37 302,-37 302,-56"/>
<text text-anchor="middle" x="256" y="-44" font-family="Vera Sans, DejaVu Sans, Liberation Sans, Arial, Helvetica, sans" font-size="10.00">DesignUnit</text>
</a>
</g>
</g>
<!-- PrimaryUnit -->
<g id="node9" class="node">
<title>PrimaryUnit</title>
<g id="a_node9"><a xlink:href="../pyVHDLModel.DesignUnit.html#pyVHDLModel.DesignUnit.PrimaryUnit" xlink:title="A ``PrimaryUnit`` is a base&#45;class for all primary units." target="_top">
<polygon fill="white" stroke="#1e90ff" points="493.5,-56 394.5,-56 394.5,-37 493.5,-37 493.5,-56"/>
<text text-anchor="middle" x="444" y="-44" font-family="Vera Sans, DejaVu Sans, Liberation Sans, Arial, Helvetica, sans" font-size="10.00">PrimaryUnit</text>
</a>
</g>
</g>
<!-- DesignUnit&#45;&gt;PrimaryUnit -->
<g id="edge9" class="edge">
<title>DesignUnit&#45;&gt;PrimaryUnit</title>
<path fill="none" stroke="black" stroke-width="0.5" d="M302.03,-46.5C327.8,-46.5 360.36,-46.5 387.68,-46.5"/>
<polygon fill="black" stroke="black" stroke-width="0.5" points="388.39,-48.25 393.39,-46.5 388.39,-44.75 388.39,-48.25"/>
</g>
<!-- ModelEntity -->
<g id="node2" class="node">
<title>ModelEntity</title>
<g id="a_node2"><a xlink:href="../pyVHDLModel.Base.html#pyVHDLModel.Base.ModelEntity" xlink:title="``ModelEntity`` is the base&#45;class for all classes in the VHDL language model, except for mixin classes (see multiple" target="_top">
<polygon fill="white" stroke="#1e90ff" points="136.5,-93 37.5,-93 37.5,-74 136.5,-74 136.5,-93"/>
<text text-anchor="middle" x="87" y="-81" font-family="Vera Sans, DejaVu Sans, Liberation Sans, Arial, Helvetica, sans" font-size="10.00">ModelEntity</text>
</a>
</g>
</g>
<!-- ModelEntity&#45;&gt;DesignUnit -->
<g id="edge1" class="edge">
<title>ModelEntity&#45;&gt;DesignUnit</title>
<path fill="none" stroke="black" stroke-width="0.5" d="M136.71,-73.52C148.9,-70.96 161.94,-68.18 174,-65.5 184.73,-63.12 196.23,-60.48 207.1,-57.94"/>
<polygon fill="black" stroke="black" stroke-width="0.5" points="208.22,-59.47 212.68,-56.63 207.42,-56.07 208.22,-59.47"/>
</g>
<!-- NamedEntityMixin -->
<g id="node3" class="node">
<title>NamedEntityMixin</title>
<g id="a_node3"><a xlink:href="../pyVHDLModel.Base.html#pyVHDLModel.Base.NamedEntityMixin" xlink:title="A ``NamedEntityMixin`` is a mixin class for all VHDL entities that have identifiers." target="_top">
<polygon fill="white" stroke="#1e90ff" points="155.5,-56 18.5,-56 18.5,-37 155.5,-37 155.5,-56"/>
<text text-anchor="middle" x="87" y="-44" font-family="Vera Sans, DejaVu Sans, Liberation Sans, Arial, Helvetica, sans" font-size="10.00">NamedEntityMixin</text>
</a>
</g>
</g>
<!-- NamedEntityMixin&#45;&gt;DesignUnit -->
<g id="edge2" class="edge">
<title>NamedEntityMixin&#45;&gt;DesignUnit</title>
<path fill="none" stroke="black" stroke-width="0.5" d="M155.93,-46.5C171.73,-46.5 188.3,-46.5 203.28,-46.5"/>
<polygon fill="black" stroke="black" stroke-width="0.5" points="203.83,-48.25 208.83,-46.5 203.83,-44.75 203.83,-48.25"/>
</g>
<!-- DocumentedEntityMixin -->
<g id="node4" class="node">
<title>DocumentedEntityMixin</title>
<g id="a_node4"><a xlink:href="../pyVHDLModel.Base.html#pyVHDLModel.Base.DocumentedEntityMixin" xlink:title="A ``DocumentedEntityMixin`` is a mixin class for all VHDL entities that can have an associated documentation." target="_top">
<polygon fill="white" stroke="#1e90ff" points="174,-19 0,-19 0,0 174,0 174,-19"/>
<text text-anchor="middle" x="87" y="-7" font-family="Vera Sans, DejaVu Sans, Liberation Sans, Arial, Helvetica, sans" font-size="10.00">DocumentedEntityMixin</text>
</a>
</g>
</g>
<!-- DocumentedEntityMixin&#45;&gt;DesignUnit -->
<g id="edge3" class="edge">
<title>DocumentedEntityMixin&#45;&gt;DesignUnit</title>
<path fill="none" stroke="black" stroke-width="0.5" d="M133.08,-19.45C146.27,-22.36 160.71,-25.56 174,-28.5 183.78,-30.67 194.23,-32.99 204.26,-35.21"/>
<polygon fill="black" stroke="black" stroke-width="0.5" points="204.44,-37.05 209.7,-36.42 205.2,-33.63 204.44,-37.05"/>
</g>
<!-- DesignUnitWithContextMixin -->
<g id="node5" class="node">
<title>DesignUnitWithContextMixin</title>
<g id="a_node5"><a xlink:href="../pyVHDLModel.DesignUnit.html#pyVHDLModel.DesignUnit.DesignUnitWithContextMixin" xlink:title="DesignUnitWithContextMixin" target="_top">
<polygon fill="white" stroke="#1e90ff" points="550,-93 338,-93 338,-74 550,-74 550,-93"/>
<text text-anchor="middle" x="444" y="-81" font-family="Vera Sans, DejaVu Sans, Liberation Sans, Arial, Helvetica, sans" font-size="10.00">DesignUnitWithContextMixin</text>
</a>
</g>
</g>
<!-- Package -->
<g id="node8" class="node">
<title>Package</title>
<g id="a_node8"><a xlink:href="../pyVHDLModel.DesignUnit.html#pyVHDLModel.DesignUnit.Package" xlink:title="Package" target="_top">
<polygon fill="white" stroke="#1e90ff" points="685,-74 616,-74 616,-55 685,-55 685,-74"/>
<text text-anchor="middle" x="650.5" y="-62" font-family="Vera Sans, DejaVu Sans, Liberation Sans, Arial, Helvetica, sans" font-size="10.00">Package</text>
</a>
</g>
</g>
<!-- DesignUnitWithContextMixin&#45;&gt;Package -->
<g id="edge6" class="edge">
<title>DesignUnitWithContextMixin&#45;&gt;Package</title>
<path fill="none" stroke="black" stroke-width="0.5" d="M550.25,-73.72C571.34,-71.76 592.26,-69.82 609.42,-68.22"/>
<polygon fill="black" stroke="black" stroke-width="0.5" points="609.99,-69.93 614.81,-67.72 609.67,-66.44 609.99,-69.93"/>
</g>
<!-- Env -->
<g id="node6" class="node">
<title>Env</title>
<g id="a_node6"><a xlink:href="../pyVHDLModel/pyVHDLModel.STD.html#pyVHDLModel.STD.Env" xlink:title="Env" target="_top">
<polygon fill="white" stroke="#1e90ff" points="985,-92 931,-92 931,-73 985,-73 985,-92"/>
<text text-anchor="middle" x="958" y="-80" font-family="Vera Sans, DejaVu Sans, Liberation Sans, Arial, Helvetica, sans" font-size="10.00">Env</text>
</a>
</g>
</g>
<!-- PredefinedPackage -->
<g id="node7" class="node">
<title>PredefinedPackage</title>
<g id="a_node7"><a xlink:href="../pyVHDLModel/pyVHDLModel.STD.html#pyVHDLModel.STD.PredefinedPackage" xlink:title="PredefinedPackage" target="_top">
<polygon fill="white" stroke="#1e90ff" points="895,-92 751,-92 751,-73 895,-73 895,-92"/>
<text text-anchor="middle" x="823" y="-80" font-family="Vera Sans, DejaVu Sans, Liberation Sans, Arial, Helvetica, sans" font-size="10.00">PredefinedPackage</text>
</a>
</g>
</g>
<!-- PredefinedPackage&#45;&gt;Env -->
<g id="edge4" class="edge">
<title>PredefinedPackage&#45;&gt;Env</title>
<path fill="none" stroke="black" stroke-width="0.5" d="M895.17,-82.5C905.41,-82.5 915.5,-82.5 924.46,-82.5"/>
<polygon fill="black" stroke="black" stroke-width="0.5" points="925.02,-84.25 930.02,-82.5 925.02,-80.75 925.02,-84.25"/>
</g>
<!-- Package&#45;&gt;PredefinedPackage -->
<g id="edge7" class="edge">
<title>Package&#45;&gt;PredefinedPackage</title>
<path fill="none" stroke="black" stroke-width="0.5" d="M685.19,-68.06C702.16,-69.85 723.5,-72.1 744.25,-74.29"/>
<polygon fill="black" stroke="black" stroke-width="0.5" points="744.75,-76.1 749.91,-74.89 745.12,-72.62 744.75,-76.1"/>
</g>
<!-- PrimaryUnit&#45;&gt;Package -->
<g id="edge5" class="edge">
<title>PrimaryUnit&#45;&gt;Package</title>
<path fill="none" stroke="black" stroke-width="0.5" d="M493.98,-50.81C529.21,-53.91 576.14,-58.04 609.2,-60.95"/>
<polygon fill="black" stroke="black" stroke-width="0.5" points="609.73,-62.76 614.87,-61.45 610.04,-59.27 609.73,-62.76"/>
</g>
<!-- PredefinedMixin -->
<g id="node10" class="node">
<title>PredefinedMixin</title>
<g id="a_node10"><a xlink:href="../pyVHDLModel/pyVHDLModel.STD.html#pyVHDLModel.STD.PredefinedMixin" xlink:title="PredefinedMixin" target="_top">
<polygon fill="white" stroke="#1e90ff" points="715,-111 586,-111 586,-92 715,-92 715,-111"/>
<text text-anchor="middle" x="650.5" y="-99" font-family="Vera Sans, DejaVu Sans, Liberation Sans, Arial, Helvetica, sans" font-size="10.00">PredefinedMixin</text>
</a>
</g>
</g>
<!-- PredefinedMixin&#45;&gt;PredefinedPackage -->
<g id="edge8" class="edge">
<title>PredefinedMixin&#45;&gt;PredefinedPackage</title>
<path fill="none" stroke="black" stroke-width="0.5" d="M715.47,-94.37C724.85,-93.33 734.6,-92.24 744.22,-91.17"/>
<polygon fill="black" stroke="black" stroke-width="0.5" points="744.99,-92.84 749.76,-90.55 744.6,-89.36 744.99,-92.84"/>
</g>
</g>
</svg>
