<?xml version="1.0" encoding="UTF-8" standalone="no"?>
<!DOCTYPE svg PUBLIC "-//W3C//DTD SVG 1.1//EN"
 "http://www.w3.org/Graphics/SVG/1.1/DTD/svg11.dtd">
<!-- Generated by graphviz version 7.0.5 (20221223.1930)
 -->
<!-- Title: inheritance92d0d33c64 Pages: 1 -->
<svg width="423pt" height="64pt"
 viewBox="0.00 0.00 423.00 64.00" xmlns="http://www.w3.org/2000/svg" xmlns:xlink="http://www.w3.org/1999/xlink">
<g id="graph0" class="graph" transform="scale(1 1) rotate(0) translate(4 60)">
<title>inheritance92d0d33c64</title>
<!-- DefaultClock -->
<g id="node1" class="node">
<title>DefaultClock</title>
<g id="a_node1"><a xlink:href="../pyVHDLModel/pyVHDLModel.PSLModel.html#pyVHDLModel.PSLModel.DefaultClock" xlink:title="DefaultClock" target="_top">
<polygon fill="white" stroke="#1e90ff" points="415,-37 308,-37 308,-18 415,-18 415,-37"/>
<text text-anchor="middle" x="361.5" y="-25" font-family="Vera Sans, DejaVu Sans, Liberation Sans, Arial, Helvetica, sans" font-size="10.00">DefaultClock</text>
</a>
</g>
</g>
<!-- PSLEntity -->
<g id="node2" class="node">
<title>PSLEntity</title>
<g id="a_node2"><a xlink:href="../pyVHDLModel/pyVHDLModel.PSLModel.html#pyVHDLModel.PSLModel.PSLEntity" xlink:title="PSLEntity" target="_top">
<polygon fill="white" stroke="#1e90ff" points="245.5,-56 161.5,-56 161.5,-37 245.5,-37 245.5,-56"/>
<text text-anchor="middle" x="203.5" y="-44" font-family="Vera Sans, DejaVu Sans, Liberation Sans, Arial, Helvetica, sans" font-size="10.00">PSLEntity</text>
</a>
</g>
</g>
<!-- PSLEntity&#45;&gt;DefaultClock -->
<g id="edge1" class="edge">
<title>PSLEntity&#45;&gt;DefaultClock</title>
<path fill="none" stroke="black" stroke-width="0.5" d="M245.9,-41.46C262.93,-39.38 282.97,-36.94 301.49,-34.69"/>
<polygon fill="black" stroke="black" stroke-width="0.5" points="302.2,-36.36 306.95,-34.02 301.78,-32.89 302.2,-36.36"/>
</g>
<!-- NamedEntityMixin -->
<g id="node3" class="node">
<title>NamedEntityMixin</title>
<g id="a_node3"><a xlink:href="../pyVHDLModel.Base.html#pyVHDLModel.Base.NamedEntityMixin" xlink:title="A ``NamedEntityMixin`` is a mixin class for all VHDL entities that have identifiers." target="_top">
<polygon fill="white" stroke="#1e90ff" points="272,-19 135,-19 135,0 272,0 272,-19"/>
<text text-anchor="middle" x="203.5" y="-7" font-family="Vera Sans, DejaVu Sans, Liberation Sans, Arial, Helvetica, sans" font-size="10.00">NamedEntityMixin</text>
</a>
</g>
</g>
<!-- NamedEntityMixin&#45;&gt;DefaultClock -->
<g id="edge2" class="edge">
<title>NamedEntityMixin&#45;&gt;DefaultClock</title>
<path fill="none" stroke="black" stroke-width="0.5" d="M272.47,-17.34C282.08,-18.45 291.89,-19.58 301.31,-20.67"/>
<polygon fill="black" stroke="black" stroke-width="0.5" points="301.85,-22.49 307.02,-21.33 302.25,-19.02 301.85,-22.49"/>
</g>
<!-- ModelEntity -->
<g id="node4" class="node">
<title>ModelEntity</title>
<g id="a_node4"><a xlink:href="../pyVHDLModel.Base.html#pyVHDLModel.Base.ModelEntity" xlink:title="``ModelEntity`` is the base&#45;class for all classes in the VHDL language model, except for mixin classes (see multiple" target="_top">
<polygon fill="white" stroke="#1e90ff" points="99,-56 0,-56 0,-37 99,-37 99,-56"/>
<text text-anchor="middle" x="49.5" y="-44" font-family="Vera Sans, DejaVu Sans, Liberation Sans, Arial, Helvetica, sans" font-size="10.00">ModelEntity</text>
</a>
</g>
</g>
<!-- ModelEntity&#45;&gt;PSLEntity -->
<g id="edge3" class="edge">
<title>ModelEntity&#45;&gt;PSLEntity</title>
<path fill="none" stroke="black" stroke-width="0.5" d="M99.43,-46.5C117.21,-46.5 137.26,-46.5 154.92,-46.5"/>
<polygon fill="black" stroke="black" stroke-width="0.5" points="155.55,-48.25 160.55,-46.5 155.55,-44.75 155.55,-48.25"/>
</g>
</g>
</svg>
