<?xml version="1.0" encoding="UTF-8" standalone="no"?>
<!DOCTYPE svg PUBLIC "-//W3C//DTD SVG 1.1//EN"
 "http://www.w3.org/Graphics/SVG/1.1/DTD/svg11.dtd">
<!-- Generated by graphviz version 7.0.5 (20221223.1930)
 -->
<!-- Title: inheritance9497273ad0 Pages: 1 -->
<svg width="576pt" height="104pt"
 viewBox="0.00 0.00 576.00 103.50" xmlns="http://www.w3.org/2000/svg" xmlns:xlink="http://www.w3.org/1999/xlink">
<g id="graph0" class="graph" transform="scale(0.75 0.75) rotate(0) translate(4 134)">
<title>inheritance9497273ad0</title>
<!-- DocumentedEntityMixin -->
<g id="node1" class="node">
<title>DocumentedEntityMixin</title>
<g id="a_node1"><a xlink:href="../pyVHDLModel.Base.html#pyVHDLModel.Base.DocumentedEntityMixin" xlink:title="A ``DocumentedEntityMixin`` is a mixin class for all VHDL entities that can have an associated documentation." target="_top">
<polygon fill="white" stroke="#1e90ff" points="193,-130 19,-130 19,-111 193,-111 193,-130"/>
<text text-anchor="middle" x="106" y="-118" font-family="Vera Sans, DejaVu Sans, Liberation Sans, Arial, Helvetica, sans" font-size="10.00">DocumentedEntityMixin</text>
</a>
</g>
</g>
<!-- Subprogram -->
<g id="node3" class="node">
<title>Subprogram</title>
<g id="a_node3"><a xlink:href="../pyVHDLModel.Subprogram.html#pyVHDLModel.Subprogram.Subprogram" xlink:title="Subprogram" target="_top">
<polygon fill="white" stroke="#1e90ff" points="388.5,-93 296.5,-93 296.5,-74 388.5,-74 388.5,-93"/>
<text text-anchor="middle" x="342.5" y="-81" font-family="Vera Sans, DejaVu Sans, Liberation Sans, Arial, Helvetica, sans" font-size="10.00">Subprogram</text>
</a>
</g>
</g>
<!-- DocumentedEntityMixin&#45;&gt;Subprogram -->
<g id="edge6" class="edge">
<title>DocumentedEntityMixin&#45;&gt;Subprogram</title>
<path fill="none" stroke="black" stroke-width="0.5" d="M170.15,-110.54C207.72,-104.61 254.79,-97.18 290.08,-91.61"/>
<polygon fill="black" stroke="black" stroke-width="0.5" points="290.67,-93.29 295.34,-90.78 290.13,-89.83 290.67,-93.29"/>
</g>
<!-- Function -->
<g id="node2" class="node">
<title>Function</title>
<g id="a_node2"><a xlink:href="../pyVHDLModel.Subprogram.html#pyVHDLModel.Subprogram.Function" xlink:title="Function" target="_top">
<polygon fill="white" stroke="#1e90ff" points="550,-93 473,-93 473,-74 550,-74 550,-93"/>
<text text-anchor="middle" x="511.5" y="-81" font-family="Vera Sans, DejaVu Sans, Liberation Sans, Arial, Helvetica, sans" font-size="10.00">Function</text>
</a>
</g>
</g>
<!-- FunctionInstantiation -->
<g id="node4" class="node">
<title>FunctionInstantiation</title>
<g id="a_node4"><a xlink:href="../pyVHDLModel/pyVHDLModel.Instantiation.html#pyVHDLModel.Instantiation.FunctionInstantiation" xlink:title="FunctionInstantiation" target="_top">
<polygon fill="white" stroke="#1e90ff" points="760,-74 586,-74 586,-55 760,-55 760,-74"/>
<text text-anchor="middle" x="673" y="-62" font-family="Vera Sans, DejaVu Sans, Liberation Sans, Arial, Helvetica, sans" font-size="10.00">FunctionInstantiation</text>
</a>
</g>
</g>
<!-- Function&#45;&gt;FunctionInstantiation -->
<g id="edge2" class="edge">
<title>Function&#45;&gt;FunctionInstantiation</title>
<path fill="none" stroke="black" stroke-width="0.5" d="M550.3,-79C560.02,-77.84 570.89,-76.54 582.04,-75.22"/>
<polygon fill="black" stroke="black" stroke-width="0.5" points="582.75,-76.89 587.5,-74.57 582.33,-73.42 582.75,-76.89"/>
</g>
<!-- Subprogram&#45;&gt;Function -->
<g id="edge1" class="edge">
<title>Subprogram&#45;&gt;Function</title>
<path fill="none" stroke="black" stroke-width="0.5" d="M388.69,-83.5C412.81,-83.5 442.38,-83.5 466.34,-83.5"/>
<polygon fill="black" stroke="black" stroke-width="0.5" points="466.86,-85.25 471.86,-83.5 466.86,-81.75 466.86,-85.25"/>
</g>
<!-- SubprogramInstantiation -->
<g id="node5" class="node">
<title>SubprogramInstantiation</title>
<g id="a_node5"><a xlink:href="../pyVHDLModel/pyVHDLModel.Instantiation.html#pyVHDLModel.Instantiation.SubprogramInstantiation" xlink:title="SubprogramInstantiation" target="_top">
<polygon fill="white" stroke="#1e90ff" points="437,-55 248,-55 248,-36 437,-36 437,-55"/>
<text text-anchor="middle" x="342.5" y="-43" font-family="Vera Sans, DejaVu Sans, Liberation Sans, Arial, Helvetica, sans" font-size="10.00">SubprogramInstantiation</text>
</a>
</g>
</g>
<!-- SubprogramInstantiation&#45;&gt;FunctionInstantiation -->
<g id="edge3" class="edge">
<title>SubprogramInstantiation&#45;&gt;FunctionInstantiation</title>
<path fill="none" stroke="black" stroke-width="0.5" d="M437.2,-50.92C481.75,-53.5 534.86,-56.57 579.29,-59.14"/>
<polygon fill="black" stroke="black" stroke-width="0.5" points="579.93,-60.93 585.02,-59.47 580.13,-57.43 579.93,-60.93"/>
</g>
<!-- GenericEntityInstantiation -->
<g id="node6" class="node">
<title>GenericEntityInstantiation</title>
<g id="a_node6"><a xlink:href="../pyVHDLModel/pyVHDLModel.Instantiation.html#pyVHDLModel.Instantiation.GenericEntityInstantiation" xlink:title="GenericEntityInstantiation" target="_top">
<polygon fill="white" stroke="#1e90ff" points="212,-19 0,-19 0,0 212,0 212,-19"/>
<text text-anchor="middle" x="106" y="-7" font-family="Vera Sans, DejaVu Sans, Liberation Sans, Arial, Helvetica, sans" font-size="10.00">GenericEntityInstantiation</text>
</a>
</g>
</g>
<!-- GenericEntityInstantiation&#45;&gt;SubprogramInstantiation -->
<g id="edge8" class="edge">
<title>GenericEntityInstantiation&#45;&gt;SubprogramInstantiation</title>
<path fill="none" stroke="black" stroke-width="0.5" d="M172.01,-19.48C202.51,-24.16 238.93,-29.75 270.19,-34.55"/>
<polygon fill="black" stroke="black" stroke-width="0.5" points="270.41,-36.36 275.62,-35.39 270.94,-32.9 270.41,-36.36"/>
</g>
<!-- ModelEntity -->
<g id="node7" class="node">
<title>ModelEntity</title>
<g id="a_node7"><a xlink:href="../pyVHDLModel.Base.html#pyVHDLModel.Base.ModelEntity" xlink:title="``ModelEntity`` is the base&#45;class for all classes in the VHDL language model, except for mixin classes (see multiple" target="_top">
<polygon fill="white" stroke="#1e90ff" points="155.5,-56 56.5,-56 56.5,-37 155.5,-37 155.5,-56"/>
<text text-anchor="middle" x="106" y="-44" font-family="Vera Sans, DejaVu Sans, Liberation Sans, Arial, Helvetica, sans" font-size="10.00">ModelEntity</text>
</a>
</g>
</g>
<!-- ModelEntity&#45;&gt;Subprogram -->
<g id="edge4" class="edge">
<title>ModelEntity&#45;&gt;Subprogram</title>
<path fill="none" stroke="black" stroke-width="0.5" d="M155.87,-54.21C195.12,-60.4 250.07,-69.07 289.99,-75.37"/>
<polygon fill="black" stroke="black" stroke-width="0.5" points="290.31,-77.19 295.52,-76.24 290.85,-73.74 290.31,-77.19"/>
</g>
<!-- ModelEntity&#45;&gt;SubprogramInstantiation -->
<g id="edge7" class="edge">
<title>ModelEntity&#45;&gt;SubprogramInstantiation</title>
<path fill="none" stroke="black" stroke-width="0.5" d="M155.87,-46.29C180.69,-46.19 211.78,-46.05 241.38,-45.93"/>
<polygon fill="black" stroke="black" stroke-width="0.5" points="241.92,-47.67 246.92,-45.9 241.91,-44.17 241.92,-47.67"/>
</g>
<!-- NamedEntityMixin -->
<g id="node8" class="node">
<title>NamedEntityMixin</title>
<g id="a_node8"><a xlink:href="../pyVHDLModel.Base.html#pyVHDLModel.Base.NamedEntityMixin" xlink:title="A ``NamedEntityMixin`` is a mixin class for all VHDL entities that have identifiers." target="_top">
<polygon fill="white" stroke="#1e90ff" points="174.5,-93 37.5,-93 37.5,-74 174.5,-74 174.5,-93"/>
<text text-anchor="middle" x="106" y="-81" font-family="Vera Sans, DejaVu Sans, Liberation Sans, Arial, Helvetica, sans" font-size="10.00">NamedEntityMixin</text>
</a>
</g>
</g>
<!-- NamedEntityMixin&#45;&gt;Subprogram -->
<g id="edge5" class="edge">
<title>NamedEntityMixin&#45;&gt;Subprogram</title>
<path fill="none" stroke="black" stroke-width="0.5" d="M174.83,-83.5C211.5,-83.5 256.07,-83.5 289.89,-83.5"/>
<polygon fill="black" stroke="black" stroke-width="0.5" points="290.32,-85.25 295.32,-83.5 290.32,-81.75 290.32,-85.25"/>
</g>
</g>
</svg>
