<?xml version="1.0" encoding="UTF-8" standalone="no"?>
<!DOCTYPE svg PUBLIC "-//W3C//DTD SVG 1.1//EN"
 "http://www.w3.org/Graphics/SVG/1.1/DTD/svg11.dtd">
<!-- Generated by graphviz version 7.0.5 (20221223.1930)
 -->
<!-- Title: inheritanced4b0a75683 Pages: 1 -->
<svg width="576pt" height="17pt"
 viewBox="0.00 0.00 576.00 17.07" xmlns="http://www.w3.org/2000/svg" xmlns:xlink="http://www.w3.org/1999/xlink">
<g id="graph0" class="graph" transform="scale(0.632272 0.632272) rotate(0) translate(4 23)">
<title>inheritanced4b0a75683</title>
<!-- BaseExpression -->
<g id="node1" class="node">
<title>BaseExpression</title>
<g id="a_node1"><a xlink:href="../pyVHDLModel/pyVHDLModel.Expression.html#pyVHDLModel.Expression.BaseExpression" xlink:title="A ``BaseExpression`` is a base&#45;class for all expressions." target="_top">
<polygon fill="white" stroke="#1e90ff" points="257,-19 135,-19 135,0 257,0 257,-19"/>
<text text-anchor="middle" x="196" y="-7" font-family="Vera Sans, DejaVu Sans, Liberation Sans, Arial, Helvetica, sans" font-size="10.00">BaseExpression</text>
</a>
</g>
</g>
<!-- Literal -->
<g id="node3" class="node">
<title>Literal</title>
<g id="a_node3"><a xlink:href="../pyVHDLModel/pyVHDLModel.Expression.html#pyVHDLModel.Expression.Literal" xlink:title="A ``Literal`` is a base&#45;class for all literals." target="_top">
<polygon fill="white" stroke="#1e90ff" points="362,-19 293,-19 293,0 362,0 362,-19"/>
<text text-anchor="middle" x="327.5" y="-7" font-family="Vera Sans, DejaVu Sans, Liberation Sans, Arial, Helvetica, sans" font-size="10.00">Literal</text>
</a>
</g>
</g>
<!-- BaseExpression&#45;&gt;Literal -->
<g id="edge2" class="edge">
<title>BaseExpression&#45;&gt;Literal</title>
<path fill="none" stroke="black" stroke-width="0.5" d="M257.2,-9.5C267.08,-9.5 277.09,-9.5 286.33,-9.5"/>
<polygon fill="black" stroke="black" stroke-width="0.5" points="286.82,-11.25 291.82,-9.5 286.82,-7.75 286.82,-11.25"/>
</g>
<!-- ModelEntity -->
<g id="node2" class="node">
<title>ModelEntity</title>
<g id="a_node2"><a xlink:href="../pyVHDLModel.Base.html#pyVHDLModel.Base.ModelEntity" xlink:title="``ModelEntity`` is the base&#45;class for all classes in the VHDL language model, except for mixin classes (see multiple" target="_top">
<polygon fill="white" stroke="#1e90ff" points="99,-19 0,-19 0,0 99,0 99,-19"/>
<text text-anchor="middle" x="49.5" y="-7" font-family="Vera Sans, DejaVu Sans, Liberation Sans, Arial, Helvetica, sans" font-size="10.00">ModelEntity</text>
</a>
</g>
</g>
<!-- ModelEntity&#45;&gt;BaseExpression -->
<g id="edge1" class="edge">
<title>ModelEntity&#45;&gt;BaseExpression</title>
<path fill="none" stroke="black" stroke-width="0.5" d="M99.42,-9.5C108.69,-9.5 118.53,-9.5 128.24,-9.5"/>
<polygon fill="black" stroke="black" stroke-width="0.5" points="128.84,-11.25 133.84,-9.5 128.84,-7.75 128.84,-11.25"/>
</g>
<!-- NumericLiteral -->
<g id="node4" class="node">
<title>NumericLiteral</title>
<g id="a_node4"><a xlink:href="../pyVHDLModel/pyVHDLModel.Expression.html#pyVHDLModel.Expression.NumericLiteral" xlink:title="A ``NumericLiteral`` is a base&#45;class for all numeric literals." target="_top">
<polygon fill="white" stroke="#1e90ff" points="520,-19 398,-19 398,0 520,0 520,-19"/>
<text text-anchor="middle" x="459" y="-7" font-family="Vera Sans, DejaVu Sans, Liberation Sans, Arial, Helvetica, sans" font-size="10.00">NumericLiteral</text>
</a>
</g>
</g>
<!-- Literal&#45;&gt;NumericLiteral -->
<g id="edge3" class="edge">
<title>Literal&#45;&gt;NumericLiteral</title>
<path fill="none" stroke="black" stroke-width="0.5" d="M362.19,-9.5C371.19,-9.5 381.23,-9.5 391.34,-9.5"/>
<polygon fill="black" stroke="black" stroke-width="0.5" points="391.88,-11.25 396.88,-9.5 391.88,-7.75 391.88,-11.25"/>
</g>
<!-- PhysicalLiteral -->
<g id="node6" class="node">
<title>PhysicalLiteral</title>
<g id="a_node6"><a xlink:href="../pyVHDLModel/pyVHDLModel.Expression.html#pyVHDLModel.Expression.PhysicalLiteral" xlink:title="PhysicalLiteral" target="_top">
<polygon fill="white" stroke="#1e90ff" points="685,-19 556,-19 556,0 685,0 685,-19"/>
<text text-anchor="middle" x="620.5" y="-7" font-family="Vera Sans, DejaVu Sans, Liberation Sans, Arial, Helvetica, sans" font-size="10.00">PhysicalLiteral</text>
</a>
</g>
</g>
<!-- NumericLiteral&#45;&gt;PhysicalLiteral -->
<g id="edge5" class="edge">
<title>NumericLiteral&#45;&gt;PhysicalLiteral</title>
<path fill="none" stroke="black" stroke-width="0.5" d="M520.3,-9.5C529.78,-9.5 539.65,-9.5 549.33,-9.5"/>
<polygon fill="black" stroke="black" stroke-width="0.5" points="549.9,-11.25 554.9,-9.5 549.9,-7.75 549.9,-11.25"/>
</g>
<!-- PhysicalIntegerLiteral -->
<g id="node5" class="node">
<title>PhysicalIntegerLiteral</title>
<g id="a_node5"><a xlink:href="../pyVHDLModel/pyVHDLModel.Expression.html#pyVHDLModel.Expression.PhysicalIntegerLiteral" xlink:title="PhysicalIntegerLiteral" target="_top">
<polygon fill="white" stroke="#1e90ff" points="903,-19 721,-19 721,0 903,0 903,-19"/>
<text text-anchor="middle" x="812" y="-7" font-family="Vera Sans, DejaVu Sans, Liberation Sans, Arial, Helvetica, sans" font-size="10.00">PhysicalIntegerLiteral</text>
</a>
</g>
</g>
<!-- PhysicalLiteral&#45;&gt;PhysicalIntegerLiteral -->
<g id="edge4" class="edge">
<title>PhysicalLiteral&#45;&gt;PhysicalIntegerLiteral</title>
<path fill="none" stroke="black" stroke-width="0.5" d="M685.39,-9.5C694.73,-9.5 704.53,-9.5 714.35,-9.5"/>
<polygon fill="black" stroke="black" stroke-width="0.5" points="715.04,-11.25 720.04,-9.5 715.04,-7.75 715.04,-11.25"/>
</g>
</g>
</svg>
