<?xml version="1.0" encoding="UTF-8" standalone="no"?>
<!DOCTYPE svg PUBLIC "-//W3C//DTD SVG 1.1//EN"
 "http://www.w3.org/Graphics/SVG/1.1/DTD/svg11.dtd">
<!-- Generated by graphviz version 7.0.5 (20221223.1930)
 -->
<!-- Title: inheritanced5e4cb1a53 Pages: 1 -->
<svg width="576pt" height="63pt"
 viewBox="0.00 0.00 576.00 63.31" xmlns="http://www.w3.org/2000/svg" xmlns:xlink="http://www.w3.org/1999/xlink">
<g id="graph0" class="graph" transform="scale(0.772118 0.772118) rotate(0) translate(4 78)">
<title>inheritanced5e4cb1a53</title>
<!-- Assignment -->
<g id="node1" class="node">
<title>Assignment</title>
<g id="a_node1"><a xlink:href="../pyVHDLModel.Common.html#pyVHDLModel.Common.Assignment" xlink:title="An ``Assignment`` is a base&#45;class for all assignment statements." target="_top">
<polygon fill="white" stroke="#1e90ff" points="280,-74 188,-74 188,-55 280,-55 280,-74"/>
<text text-anchor="middle" x="234" y="-62" font-family="Vera Sans, DejaVu Sans, Liberation Sans, Arial, Helvetica, sans" font-size="10.00">Assignment</text>
</a>
</g>
</g>
<!-- VariableAssignment -->
<g id="node7" class="node">
<title>VariableAssignment</title>
<g id="a_node7"><a xlink:href="../pyVHDLModel.Common.html#pyVHDLModel.Common.VariableAssignment" xlink:title="An ``VariableAssignment`` is a base&#45;class for all variable assignment statements." target="_top">
<polygon fill="white" stroke="#1e90ff" points="471.5,-74 319.5,-74 319.5,-55 471.5,-55 471.5,-74"/>
<text text-anchor="middle" x="395.5" y="-62" font-family="Vera Sans, DejaVu Sans, Liberation Sans, Arial, Helvetica, sans" font-size="10.00">VariableAssignment</text>
</a>
</g>
</g>
<!-- Assignment&#45;&gt;VariableAssignment -->
<g id="edge6" class="edge">
<title>Assignment&#45;&gt;VariableAssignment</title>
<path fill="none" stroke="black" stroke-width="0.5" d="M280.28,-64.5C290.54,-64.5 301.74,-64.5 312.98,-64.5"/>
<polygon fill="black" stroke="black" stroke-width="0.5" points="313.47,-66.25 318.47,-64.5 313.47,-62.75 313.47,-66.25"/>
</g>
<!-- LabeledEntityMixin -->
<g id="node2" class="node">
<title>LabeledEntityMixin</title>
<g id="a_node2"><a xlink:href="../pyVHDLModel.Base.html#pyVHDLModel.Base.LabeledEntityMixin" xlink:title="A ``LabeledEntityMixin`` is a mixin class for all VHDL entities that can have labels." target="_top">
<polygon fill="white" stroke="#1e90ff" points="152,-56 0,-56 0,-37 152,-37 152,-56"/>
<text text-anchor="middle" x="76" y="-44" font-family="Vera Sans, DejaVu Sans, Liberation Sans, Arial, Helvetica, sans" font-size="10.00">LabeledEntityMixin</text>
</a>
</g>
</g>
<!-- Statement -->
<g id="node5" class="node">
<title>Statement</title>
<g id="a_node5"><a xlink:href="../pyVHDLModel.Common.html#pyVHDLModel.Common.Statement" xlink:title="A ``Statement`` is a base&#45;class for all statements." target="_top">
<polygon fill="white" stroke="#1e90ff" points="276,-37 192,-37 192,-18 276,-18 276,-37"/>
<text text-anchor="middle" x="234" y="-25" font-family="Vera Sans, DejaVu Sans, Liberation Sans, Arial, Helvetica, sans" font-size="10.00">Statement</text>
</a>
</g>
</g>
<!-- LabeledEntityMixin&#45;&gt;Statement -->
<g id="edge5" class="edge">
<title>LabeledEntityMixin&#45;&gt;Statement</title>
<path fill="none" stroke="black" stroke-width="0.5" d="M152.26,-37.33C163.49,-35.97 174.79,-34.59 185.23,-33.32"/>
<polygon fill="black" stroke="black" stroke-width="0.5" points="186.12,-34.97 190.87,-32.63 185.69,-31.5 186.12,-34.97"/>
</g>
<!-- ModelEntity -->
<g id="node3" class="node">
<title>ModelEntity</title>
<g id="a_node3"><a xlink:href="../pyVHDLModel.Base.html#pyVHDLModel.Base.ModelEntity" xlink:title="``ModelEntity`` is the base&#45;class for all classes in the VHDL language model, except for mixin classes (see multiple" target="_top">
<polygon fill="white" stroke="#1e90ff" points="125.5,-19 26.5,-19 26.5,0 125.5,0 125.5,-19"/>
<text text-anchor="middle" x="76" y="-7" font-family="Vera Sans, DejaVu Sans, Liberation Sans, Arial, Helvetica, sans" font-size="10.00">ModelEntity</text>
</a>
</g>
</g>
<!-- ModelEntity&#45;&gt;Statement -->
<g id="edge4" class="edge">
<title>ModelEntity&#45;&gt;Statement</title>
<path fill="none" stroke="black" stroke-width="0.5" d="M125.93,-15.15C144.88,-17.33 166.49,-19.83 185.32,-22"/>
<polygon fill="black" stroke="black" stroke-width="0.5" points="185.67,-23.8 190.84,-22.63 186.07,-20.32 185.67,-23.8"/>
</g>
<!-- SequentialStatement -->
<g id="node4" class="node">
<title>SequentialStatement</title>
<g id="a_node4"><a xlink:href="../pyVHDLModel/pyVHDLModel.Sequential.html#pyVHDLModel.Sequential.SequentialStatement" xlink:title="A ``SequentialStatement`` is a base&#45;class for all sequential statements." target="_top">
<polygon fill="white" stroke="#1e90ff" points="475,-37 316,-37 316,-18 475,-18 475,-37"/>
<text text-anchor="middle" x="395.5" y="-25" font-family="Vera Sans, DejaVu Sans, Liberation Sans, Arial, Helvetica, sans" font-size="10.00">SequentialStatement</text>
</a>
</g>
</g>
<!-- SequentialVariableAssignment -->
<g id="node6" class="node">
<title>SequentialVariableAssignment</title>
<g id="a_node6"><a xlink:href="../pyVHDLModel/pyVHDLModel.Sequential.html#pyVHDLModel.Sequential.SequentialVariableAssignment" xlink:title="SequentialVariableAssignment" target="_top">
<polygon fill="white" stroke="#1e90ff" points="738,-55 511,-55 511,-36 738,-36 738,-55"/>
<text text-anchor="middle" x="624.5" y="-43" font-family="Vera Sans, DejaVu Sans, Liberation Sans, Arial, Helvetica, sans" font-size="10.00">SequentialVariableAssignment</text>
</a>
</g>
</g>
<!-- SequentialStatement&#45;&gt;SequentialVariableAssignment -->
<g id="edge2" class="edge">
<title>SequentialStatement&#45;&gt;SequentialVariableAssignment</title>
<path fill="none" stroke="black" stroke-width="0.5" d="M475.26,-33.75C484.71,-34.49 494.52,-35.27 504.39,-36.05"/>
<polygon fill="black" stroke="black" stroke-width="0.5" points="505,-37.86 510.12,-36.51 505.28,-34.37 505,-37.86"/>
</g>
<!-- Statement&#45;&gt;SequentialStatement -->
<g id="edge1" class="edge">
<title>Statement&#45;&gt;SequentialStatement</title>
<path fill="none" stroke="black" stroke-width="0.5" d="M276.49,-27.5C286.69,-27.5 297.99,-27.5 309.43,-27.5"/>
<polygon fill="black" stroke="black" stroke-width="0.5" points="310.04,-29.25 315.04,-27.5 310.04,-25.75 310.04,-29.25"/>
</g>
<!-- VariableAssignment&#45;&gt;SequentialVariableAssignment -->
<g id="edge3" class="edge">
<title>VariableAssignment&#45;&gt;SequentialVariableAssignment</title>
<path fill="none" stroke="black" stroke-width="0.5" d="M471.77,-58.2C482.33,-57.32 493.4,-56.39 504.53,-55.46"/>
<polygon fill="black" stroke="black" stroke-width="0.5" points="505.13,-57.16 509.97,-55 504.84,-53.68 505.13,-57.16"/>
</g>
</g>
</svg>
