<?xml version="1.0" encoding="UTF-8" standalone="no"?>
<!DOCTYPE svg PUBLIC "-//W3C//DTD SVG 1.1//EN"
 "http://www.w3.org/Graphics/SVG/1.1/DTD/svg11.dtd">
<!-- Generated by graphviz version 7.0.5 (20221223.1930)
 -->
<!-- Title: inheritance1de42c24c8 Pages: 1 -->
<svg width="576pt" height="62pt"
 viewBox="0.00 0.00 576.00 61.96" xmlns="http://www.w3.org/2000/svg" xmlns:xlink="http://www.w3.org/1999/xlink">
<g id="graph0" class="graph" transform="scale(0.968067 0.968067) rotate(0) translate(4 60)">
<title>inheritance1de42c24c8</title>
<!-- AllName -->
<g id="node1" class="node">
<title>AllName</title>
<g id="a_node1"><a xlink:href="../pyVHDLModel.Name.html#pyVHDLModel.Name.AllName" xlink:title="The *all name* represents the reserved word ``all`` used in names." target="_top">
<polygon fill="white" stroke="#1e90ff" points="294,-19 225,-19 225,0 294,0 294,-19"/>
<text text-anchor="middle" x="259.5" y="-7" font-family="Vera Sans, DejaVu Sans, Liberation Sans, Arial, Helvetica, sans" font-size="10.00">AllName</text>
</a>
</g>
</g>
<!-- AllPackageMembersReferenceSymbol -->
<g id="node3" class="node">
<title>AllPackageMembersReferenceSymbol</title>
<g id="a_node3"><a xlink:href="../pyVHDLModel/pyVHDLModel.Symbol.html#pyVHDLModel.Symbol.AllPackageMembersReferenceSymbol" xlink:title="A package reference in a use clause." target="_top">
<polygon fill="white" stroke="#1e90ff" points="587,-37 330,-37 330,-18 587,-18 587,-37"/>
<text text-anchor="middle" x="458.5" y="-25" font-family="Vera Sans, DejaVu Sans, Liberation Sans, Arial, Helvetica, sans" font-size="10.00">AllPackageMembersReferenceSymbol</text>
</a>
</g>
</g>
<!-- AllName&#45;&gt;AllPackageMembersReferenceSymbol -->
<g id="edge2" class="edge">
<title>AllName&#45;&gt;AllPackageMembersReferenceSymbol</title>
<path fill="none" stroke="black" stroke-width="0.5" d="M294.37,-12.59C307.98,-13.84 324.55,-15.35 341.85,-16.93"/>
<polygon fill="black" stroke="black" stroke-width="0.5" points="342.36,-18.74 347.5,-17.45 342.68,-15.25 342.36,-18.74"/>
</g>
<!-- Name -->
<g id="node2" class="node">
<title>Name</title>
<g id="a_node2"><a xlink:href="../pyVHDLModel.Name.html#pyVHDLModel.Name.Name" xlink:title="``Name`` is the base&#45;class for all *names* in the VHDL language model." target="_top">
<polygon fill="white" stroke="#1e90ff" points="189,-19 135,-19 135,0 189,0 189,-19"/>
<text text-anchor="middle" x="162" y="-7" font-family="Vera Sans, DejaVu Sans, Liberation Sans, Arial, Helvetica, sans" font-size="10.00">Name</text>
</a>
</g>
</g>
<!-- Name&#45;&gt;AllName -->
<g id="edge1" class="edge">
<title>Name&#45;&gt;AllName</title>
<path fill="none" stroke="black" stroke-width="0.5" d="M189.35,-9.5C198.32,-9.5 208.55,-9.5 218.35,-9.5"/>
<polygon fill="black" stroke="black" stroke-width="0.5" points="218.95,-11.25 223.95,-9.5 218.95,-7.75 218.95,-11.25"/>
</g>
<!-- Symbol -->
<g id="node4" class="node">
<title>Symbol</title>
<g id="a_node4"><a xlink:href="../pyVHDLModel/pyVHDLModel.Symbol.html#pyVHDLModel.Symbol.Symbol" xlink:title="Symbol" target="_top">
<polygon fill="white" stroke="#1e90ff" points="290.5,-56 228.5,-56 228.5,-37 290.5,-37 290.5,-56"/>
<text text-anchor="middle" x="259.5" y="-44" font-family="Vera Sans, DejaVu Sans, Liberation Sans, Arial, Helvetica, sans" font-size="10.00">Symbol</text>
</a>
</g>
</g>
<!-- Symbol&#45;&gt;AllPackageMembersReferenceSymbol -->
<g id="edge3" class="edge">
<title>Symbol&#45;&gt;AllPackageMembersReferenceSymbol</title>
<path fill="none" stroke="black" stroke-width="0.5" d="M290.85,-43.57C306.57,-42.06 326.82,-40.1 347.77,-38.08"/>
<polygon fill="black" stroke="black" stroke-width="0.5" points="348.43,-39.78 353.23,-37.56 348.09,-36.29 348.43,-39.78"/>
</g>
<!-- ModelEntity -->
<g id="node5" class="node">
<title>ModelEntity</title>
<g id="a_node5"><a xlink:href="../pyVHDLModel.Base.html#pyVHDLModel.Base.ModelEntity" xlink:title="``ModelEntity`` is the base&#45;class for all classes in the VHDL language model, except for mixin classes (see multiple" target="_top">
<polygon fill="white" stroke="#1e90ff" points="99,-19 0,-19 0,0 99,0 99,-19"/>
<text text-anchor="middle" x="49.5" y="-7" font-family="Vera Sans, DejaVu Sans, Liberation Sans, Arial, Helvetica, sans" font-size="10.00">ModelEntity</text>
</a>
</g>
</g>
<!-- ModelEntity&#45;&gt;Name -->
<g id="edge4" class="edge">
<title>ModelEntity&#45;&gt;Name</title>
<path fill="none" stroke="black" stroke-width="0.5" d="M99.29,-9.5C109.06,-9.5 119.1,-9.5 128.17,-9.5"/>
<polygon fill="black" stroke="black" stroke-width="0.5" points="128.83,-11.25 133.83,-9.5 128.83,-7.75 128.83,-11.25"/>
</g>
</g>
</svg>
