<?xml version="1.0" encoding="UTF-8" standalone="no"?>
<!DOCTYPE svg PUBLIC "-//W3C//DTD SVG 1.1//EN"
 "http://www.w3.org/Graphics/SVG/1.1/DTD/svg11.dtd">
<!-- Generated by graphviz version 7.0.5 (20221223.1930)
 -->
<!-- Title: inheritance88e9d1aaa6 Pages: 1 -->
<svg width="576pt" height="123pt"
 viewBox="0.00 0.00 576.00 122.92" xmlns="http://www.w3.org/2000/svg" xmlns:xlink="http://www.w3.org/1999/xlink">
<g id="graph0" class="graph" transform="scale(0.787962 0.787962) rotate(0) translate(4 152)">
<title>inheritance88e9d1aaa6</title>
<!-- BranchMixin -->
<g id="node1" class="node">
<title>BranchMixin</title>
<g id="a_node1"><a xlink:href="../pyVHDLModel.Base.html#pyVHDLModel.Base.BranchMixin" xlink:title="A ``BaseBranch`` is a mixin&#45;class for all statements with branches." target="_top">
<polygon fill="white" stroke="#1e90ff" points="118,-148 19,-148 19,-129 118,-129 118,-148"/>
<text text-anchor="middle" x="68.5" y="-136" font-family="Vera Sans, DejaVu Sans, Liberation Sans, Arial, Helvetica, sans" font-size="10.00">BranchMixin</text>
</a>
</g>
</g>
<!-- ConditionalBranchMixin -->
<g id="node4" class="node">
<title>ConditionalBranchMixin</title>
<g id="a_node4"><a xlink:href="../pyVHDLModel.Base.html#pyVHDLModel.Base.ConditionalBranchMixin" xlink:title="A ``BaseBranch`` is a mixin&#45;class for all branch statements with a condition." target="_top">
<polygon fill="white" stroke="#1e90ff" points="355,-130 173,-130 173,-111 355,-111 355,-130"/>
<text text-anchor="middle" x="264" y="-118" font-family="Vera Sans, DejaVu Sans, Liberation Sans, Arial, Helvetica, sans" font-size="10.00">ConditionalBranchMixin</text>
</a>
</g>
</g>
<!-- BranchMixin&#45;&gt;ConditionalBranchMixin -->
<g id="edge1" class="edge">
<title>BranchMixin&#45;&gt;ConditionalBranchMixin</title>
<path fill="none" stroke="black" stroke-width="0.5" d="M118.33,-133.96C133.09,-132.59 149.83,-131.03 166.57,-129.47"/>
<polygon fill="black" stroke="black" stroke-width="0.5" points="167.16,-131.17 171.98,-128.97 166.84,-127.69 167.16,-131.17"/>
</g>
<!-- ConcurrentDeclarations -->
<g id="node2" class="node">
<title>ConcurrentDeclarations</title>
<g id="a_node2"><a xlink:href="../pyVHDLModel/pyVHDLModel.Concurrent.html#pyVHDLModel.Concurrent.ConcurrentDeclarations" xlink:title="ConcurrentDeclarations" target="_top">
<polygon fill="white" stroke="#1e90ff" points="355,-93 173,-93 173,-74 355,-74 355,-93"/>
<text text-anchor="middle" x="264" y="-81" font-family="Vera Sans, DejaVu Sans, Liberation Sans, Arial, Helvetica, sans" font-size="10.00">ConcurrentDeclarations</text>
</a>
</g>
</g>
<!-- GenerateBranch -->
<g id="node8" class="node">
<title>GenerateBranch</title>
<g id="a_node8"><a xlink:href="../pyVHDLModel/pyVHDLModel.Concurrent.html#pyVHDLModel.Concurrent.GenerateBranch" xlink:title="A ``GenerateBranch`` is a base&#45;class for all branches in a generate statements." target="_top">
<polygon fill="white" stroke="#1e90ff" points="520.5,-74 398.5,-74 398.5,-55 520.5,-55 520.5,-74"/>
<text text-anchor="middle" x="459.5" y="-62" font-family="Vera Sans, DejaVu Sans, Liberation Sans, Arial, Helvetica, sans" font-size="10.00">GenerateBranch</text>
</a>
</g>
</g>
<!-- ConcurrentDeclarations&#45;&gt;GenerateBranch -->
<g id="edge7" class="edge">
<title>ConcurrentDeclarations&#45;&gt;GenerateBranch</title>
<path fill="none" stroke="black" stroke-width="0.5" d="M355.24,-74.64C367.54,-73.43 379.98,-72.21 391.77,-71.05"/>
<polygon fill="black" stroke="black" stroke-width="0.5" points="392.68,-72.72 397.49,-70.49 392.34,-69.24 392.68,-72.72"/>
</g>
<!-- ConcurrentStatements -->
<g id="node3" class="node">
<title>ConcurrentStatements</title>
<g id="a_node3"><a xlink:href="../pyVHDLModel/pyVHDLModel.Concurrent.html#pyVHDLModel.Concurrent.ConcurrentStatements" xlink:title="ConcurrentStatements" target="_top">
<polygon fill="white" stroke="#1e90ff" points="347.5,-56 180.5,-56 180.5,-37 347.5,-37 347.5,-56"/>
<text text-anchor="middle" x="264" y="-44" font-family="Vera Sans, DejaVu Sans, Liberation Sans, Arial, Helvetica, sans" font-size="10.00">ConcurrentStatements</text>
</a>
</g>
</g>
<!-- ConcurrentStatements&#45;&gt;GenerateBranch -->
<g id="edge8" class="edge">
<title>ConcurrentStatements&#45;&gt;GenerateBranch</title>
<path fill="none" stroke="black" stroke-width="0.5" d="M347.9,-54.21C362.58,-55.58 377.69,-56.98 391.85,-58.3"/>
<polygon fill="black" stroke="black" stroke-width="0.5" points="392.39,-60.11 397.53,-58.83 392.71,-56.62 392.39,-60.11"/>
</g>
<!-- ElsifBranchMixin -->
<g id="node6" class="node">
<title>ElsifBranchMixin</title>
<g id="a_node6"><a xlink:href="../pyVHDLModel.Base.html#pyVHDLModel.Base.ElsifBranchMixin" xlink:title="A ``BaseElsifBranch`` is a mixin&#45;class for all elsif&#45;branches." target="_top">
<polygon fill="white" stroke="#1e90ff" points="528,-120 391,-120 391,-101 528,-101 528,-120"/>
<text text-anchor="middle" x="459.5" y="-108" font-family="Vera Sans, DejaVu Sans, Liberation Sans, Arial, Helvetica, sans" font-size="10.00">ElsifBranchMixin</text>
</a>
</g>
</g>
<!-- ConditionalBranchMixin&#45;&gt;ElsifBranchMixin -->
<g id="edge3" class="edge">
<title>ConditionalBranchMixin&#45;&gt;ElsifBranchMixin</title>
<path fill="none" stroke="black" stroke-width="0.5" d="M355.24,-115.84C364.92,-115.34 374.7,-114.83 384.17,-114.34"/>
<polygon fill="black" stroke="black" stroke-width="0.5" points="385.01,-116.05 389.91,-114.04 384.83,-112.55 385.01,-116.05"/>
</g>
<!-- ConditionalMixin -->
<g id="node5" class="node">
<title>ConditionalMixin</title>
<g id="a_node5"><a xlink:href="../pyVHDLModel.Base.html#pyVHDLModel.Base.ConditionalMixin" xlink:title="A ``BaseConditional`` is a mixin&#45;class for all statements with a condition." target="_top">
<polygon fill="white" stroke="#1e90ff" points="137,-111 0,-111 0,-92 137,-92 137,-111"/>
<text text-anchor="middle" x="68.5" y="-99" font-family="Vera Sans, DejaVu Sans, Liberation Sans, Arial, Helvetica, sans" font-size="10.00">ConditionalMixin</text>
</a>
</g>
</g>
<!-- ConditionalMixin&#45;&gt;ConditionalBranchMixin -->
<g id="edge2" class="edge">
<title>ConditionalMixin&#45;&gt;ConditionalBranchMixin</title>
<path fill="none" stroke="black" stroke-width="0.5" d="M137.45,-108.17C146.83,-109.09 156.61,-110.05 166.38,-111.01"/>
<polygon fill="black" stroke="black" stroke-width="0.5" points="166.9,-112.82 172.05,-111.57 167.24,-109.34 166.9,-112.82"/>
</g>
<!-- ElsifGenerateBranch -->
<g id="node7" class="node">
<title>ElsifGenerateBranch</title>
<g id="a_node7"><a xlink:href="../pyVHDLModel/pyVHDLModel.Concurrent.html#pyVHDLModel.Concurrent.ElsifGenerateBranch" xlink:title="ElsifGenerateBranch" target="_top">
<polygon fill="white" stroke="#1e90ff" points="723,-92 564,-92 564,-73 723,-73 723,-92"/>
<text text-anchor="middle" x="643.5" y="-80" font-family="Vera Sans, DejaVu Sans, Liberation Sans, Arial, Helvetica, sans" font-size="10.00">ElsifGenerateBranch</text>
</a>
</g>
</g>
<!-- ElsifBranchMixin&#45;&gt;ElsifGenerateBranch -->
<g id="edge5" class="edge">
<title>ElsifBranchMixin&#45;&gt;ElsifGenerateBranch</title>
<path fill="none" stroke="black" stroke-width="0.5" d="M525.44,-100.51C540.26,-98.23 556.1,-95.79 571.18,-93.47"/>
<polygon fill="black" stroke="black" stroke-width="0.5" points="572.17,-95.09 576.84,-92.6 571.63,-91.63 572.17,-95.09"/>
</g>
<!-- GenerateBranch&#45;&gt;ElsifGenerateBranch -->
<g id="edge4" class="edge">
<title>GenerateBranch&#45;&gt;ElsifGenerateBranch</title>
<path fill="none" stroke="black" stroke-width="0.5" d="M520.85,-70.47C532.48,-71.62 544.87,-72.84 557.12,-74.06"/>
<polygon fill="black" stroke="black" stroke-width="0.5" points="557.61,-75.86 562.76,-74.61 557.95,-72.38 557.61,-75.86"/>
</g>
<!-- ModelEntity -->
<g id="node9" class="node">
<title>ModelEntity</title>
<g id="a_node9"><a xlink:href="../pyVHDLModel.Base.html#pyVHDLModel.Base.ModelEntity" xlink:title="``ModelEntity`` is the base&#45;class for all classes in the VHDL language model, except for mixin classes (see multiple" target="_top">
<polygon fill="white" stroke="#1e90ff" points="313.5,-19 214.5,-19 214.5,0 313.5,0 313.5,-19"/>
<text text-anchor="middle" x="264" y="-7" font-family="Vera Sans, DejaVu Sans, Liberation Sans, Arial, Helvetica, sans" font-size="10.00">ModelEntity</text>
</a>
</g>
</g>
<!-- ModelEntity&#45;&gt;GenerateBranch -->
<g id="edge6" class="edge">
<title>ModelEntity&#45;&gt;GenerateBranch</title>
<path fill="none" stroke="black" stroke-width="0.5" d="M313.85,-18.64C327.27,-21.47 341.77,-24.82 355,-28.5 379.42,-35.29 406.45,-44.77 426.76,-52.29"/>
<polygon fill="black" stroke="black" stroke-width="0.5" points="426.84,-54.18 432.13,-54.29 428.06,-50.9 426.84,-54.18"/>
</g>
</g>
</svg>
