<?xml version="1.0" encoding="UTF-8" standalone="no"?>
<!DOCTYPE svg PUBLIC "-//W3C//DTD SVG 1.1//EN"
 "http://www.w3.org/Graphics/SVG/1.1/DTD/svg11.dtd">
<!-- Generated by graphviz version 7.0.5 (20221223.1930)
 -->
<!-- Title: inheritance8733250380 Pages: 1 -->
<svg width="576pt" height="25pt"
 viewBox="0.00 0.00 576.00 25.45" xmlns="http://www.w3.org/2000/svg" xmlns:xlink="http://www.w3.org/1999/xlink">
<g id="graph0" class="graph" transform="scale(0.942717 0.942717) rotate(0) translate(4 23)">
<title>inheritance8733250380</title>
<!-- BaseChoice -->
<g id="node1" class="node">
<title>BaseChoice</title>
<g id="a_node1"><a xlink:href="../pyVHDLModel.Base.html#pyVHDLModel.Base.BaseChoice" xlink:title="A ``Choice`` is a base&#45;class for all choices." target="_top">
<polygon fill="white" stroke="#1e90ff" points="227,-19 135,-19 135,0 227,0 227,-19"/>
<text text-anchor="middle" x="181" y="-7" font-family="Vera Sans, DejaVu Sans, Liberation Sans, Arial, Helvetica, sans" font-size="10.00">BaseChoice</text>
</a>
</g>
</g>
<!-- ConcurrentChoice -->
<g id="node3" class="node">
<title>ConcurrentChoice</title>
<g id="a_node3"><a xlink:href="../pyVHDLModel/pyVHDLModel.Concurrent.html#pyVHDLModel.Concurrent.ConcurrentChoice" xlink:title="A ``ConcurrentChoice`` is a base&#45;class for all concurrent choices (in case...generate statements)." target="_top">
<polygon fill="white" stroke="#1e90ff" points="400,-19 263,-19 263,0 400,0 400,-19"/>
<text text-anchor="middle" x="331.5" y="-7" font-family="Vera Sans, DejaVu Sans, Liberation Sans, Arial, Helvetica, sans" font-size="10.00">ConcurrentChoice</text>
</a>
</g>
</g>
<!-- BaseChoice&#45;&gt;ConcurrentChoice -->
<g id="edge2" class="edge">
<title>BaseChoice&#45;&gt;ConcurrentChoice</title>
<path fill="none" stroke="black" stroke-width="0.5" d="M227.36,-9.5C236.53,-9.5 246.39,-9.5 256.25,-9.5"/>
<polygon fill="black" stroke="black" stroke-width="0.5" points="256.97,-11.25 261.97,-9.5 256.97,-7.75 256.97,-11.25"/>
</g>
<!-- ModelEntity -->
<g id="node2" class="node">
<title>ModelEntity</title>
<g id="a_node2"><a xlink:href="../pyVHDLModel.Base.html#pyVHDLModel.Base.ModelEntity" xlink:title="``ModelEntity`` is the base&#45;class for all classes in the VHDL language model, except for mixin classes (see multiple" target="_top">
<polygon fill="white" stroke="#1e90ff" points="99,-19 0,-19 0,0 99,0 99,-19"/>
<text text-anchor="middle" x="49.5" y="-7" font-family="Vera Sans, DejaVu Sans, Liberation Sans, Arial, Helvetica, sans" font-size="10.00">ModelEntity</text>
</a>
</g>
</g>
<!-- ModelEntity&#45;&gt;BaseChoice -->
<g id="edge1" class="edge">
<title>ModelEntity&#45;&gt;BaseChoice</title>
<path fill="none" stroke="black" stroke-width="0.5" d="M99.46,-9.5C108.89,-9.5 118.79,-9.5 128.3,-9.5"/>
<polygon fill="black" stroke="black" stroke-width="0.5" points="129.06,-11.25 134.06,-9.5 129.06,-7.75 129.06,-11.25"/>
</g>
<!-- RangedGenerateChoice -->
<g id="node4" class="node">
<title>RangedGenerateChoice</title>
<g id="a_node4"><a xlink:href="../pyVHDLModel/pyVHDLModel.Concurrent.html#pyVHDLModel.Concurrent.RangedGenerateChoice" xlink:title="RangedGenerateChoice" target="_top">
<polygon fill="white" stroke="#1e90ff" points="603,-19 436,-19 436,0 603,0 603,-19"/>
<text text-anchor="middle" x="519.5" y="-7" font-family="Vera Sans, DejaVu Sans, Liberation Sans, Arial, Helvetica, sans" font-size="10.00">RangedGenerateChoice</text>
</a>
</g>
</g>
<!-- ConcurrentChoice&#45;&gt;RangedGenerateChoice -->
<g id="edge3" class="edge">
<title>ConcurrentChoice&#45;&gt;RangedGenerateChoice</title>
<path fill="none" stroke="black" stroke-width="0.5" d="M400.44,-9.5C409.8,-9.5 419.53,-9.5 429.21,-9.5"/>
<polygon fill="black" stroke="black" stroke-width="0.5" points="429.8,-11.25 434.8,-9.5 429.8,-7.75 429.8,-11.25"/>
</g>
</g>
</svg>
