<?xml version="1.0" encoding="UTF-8" standalone="no"?>
<!DOCTYPE svg PUBLIC "-//W3C//DTD SVG 1.1//EN"
 "http://www.w3.org/Graphics/SVG/1.1/DTD/svg11.dtd">
<!-- Generated by graphviz version 7.0.5 (20221223.1930)
 -->
<!-- Title: inheritance2919bf919a Pages: 1 -->
<svg width="302pt" height="27pt"
 viewBox="0.00 0.00 302.00 27.00" xmlns="http://www.w3.org/2000/svg" xmlns:xlink="http://www.w3.org/1999/xlink">
<g id="graph0" class="graph" transform="scale(1 1) rotate(0) translate(4 23)">
<title>inheritance2919bf919a</title>
<!-- AllName -->
<g id="node1" class="node">
<title>AllName</title>
<g id="a_node1"><a xlink:href="../pyVHDLModel/pyVHDLModel.Name.html#pyVHDLModel.Name.AllName" xlink:title="The *all name* represents the reserved word ``all`` used in names." target="_top">
<polygon fill="white" stroke="#1e90ff" points="294,-19 225,-19 225,0 294,0 294,-19"/>
<text text-anchor="middle" x="259.5" y="-7" font-family="Vera Sans, DejaVu Sans, Liberation Sans, Arial, Helvetica, sans" font-size="10.00">AllName</text>
</a>
</g>
</g>
<!-- Name -->
<g id="node2" class="node">
<title>Name</title>
<g id="a_node2"><a xlink:href="../pyVHDLModel/pyVHDLModel.Name.html#pyVHDLModel.Name.Name" xlink:title="``Name`` is the base&#45;class for all *names* in the VHDL language model." target="_top">
<polygon fill="white" stroke="#1e90ff" points="189,-19 135,-19 135,0 189,0 189,-19"/>
<text text-anchor="middle" x="162" y="-7" font-family="Vera Sans, DejaVu Sans, Liberation Sans, Arial, Helvetica, sans" font-size="10.00">Name</text>
</a>
</g>
</g>
<!-- Name&#45;&gt;AllName -->
<g id="edge1" class="edge">
<title>Name&#45;&gt;AllName</title>
<path fill="none" stroke="black" stroke-width="0.5" d="M189.35,-9.5C198.32,-9.5 208.55,-9.5 218.35,-9.5"/>
<polygon fill="black" stroke="black" stroke-width="0.5" points="218.95,-11.25 223.95,-9.5 218.95,-7.75 218.95,-11.25"/>
</g>
<!-- ModelEntity -->
<g id="node3" class="node">
<title>ModelEntity</title>
<g id="a_node3"><a xlink:href="../pyVHDLModel.Base.html#pyVHDLModel.Base.ModelEntity" xlink:title="``ModelEntity`` is the base&#45;class for all classes in the VHDL language model, except for mixin classes (see multiple" target="_top">
<polygon fill="white" stroke="#1e90ff" points="99,-19 0,-19 0,0 99,0 99,-19"/>
<text text-anchor="middle" x="49.5" y="-7" font-family="Vera Sans, DejaVu Sans, Liberation Sans, Arial, Helvetica, sans" font-size="10.00">ModelEntity</text>
</a>
</g>
</g>
<!-- ModelEntity&#45;&gt;Name -->
<g id="edge2" class="edge">
<title>ModelEntity&#45;&gt;Name</title>
<path fill="none" stroke="black" stroke-width="0.5" d="M99.29,-9.5C109.06,-9.5 119.1,-9.5 128.17,-9.5"/>
<polygon fill="black" stroke="black" stroke-width="0.5" points="128.83,-11.25 133.83,-9.5 128.83,-7.75 128.83,-11.25"/>
</g>
</g>
</svg>
