<?xml version="1.0" encoding="UTF-8" standalone="no"?>
<!DOCTYPE svg PUBLIC "-//W3C//DTD SVG 1.1//EN"
 "http://www.w3.org/Graphics/SVG/1.1/DTD/svg11.dtd">
<!-- Generated by graphviz version 7.0.5 (20221223.1930)
 -->
<!-- Title: inheritance5d99679732 Pages: 1 -->
<svg width="576pt" height="78pt"
 viewBox="0.00 0.00 576.00 77.98" xmlns="http://www.w3.org/2000/svg" xmlns:xlink="http://www.w3.org/1999/xlink">
<g id="graph0" class="graph" transform="scale(0.772118 0.772118) rotate(0) translate(4 97)">
<title>inheritance5d99679732</title>
<!-- BaseType -->
<g id="node1" class="node">
<title>BaseType</title>
<g id="a_node1"><a xlink:href="../pyVHDLModel/pyVHDLModel.Type.html#pyVHDLModel.Type.BaseType" xlink:title="``BaseType`` is the base&#45;class of all type entities in this model." target="_top">
<polygon fill="white" stroke="#1e90ff" points="287,-56 210,-56 210,-37 287,-37 287,-56"/>
<text text-anchor="middle" x="248.5" y="-44" font-family="Vera Sans, DejaVu Sans, Liberation Sans, Arial, Helvetica, sans" font-size="10.00">BaseType</text>
</a>
</g>
</g>
<!-- FullType -->
<g id="node8" class="node">
<title>FullType</title>
<g id="a_node8"><a xlink:href="../pyVHDLModel/pyVHDLModel.Type.html#pyVHDLModel.Type.FullType" xlink:title="FullType" target="_top">
<polygon fill="white" stroke="#1e90ff" points="400,-56 323,-56 323,-37 400,-37 400,-56"/>
<text text-anchor="middle" x="361.5" y="-44" font-family="Vera Sans, DejaVu Sans, Liberation Sans, Arial, Helvetica, sans" font-size="10.00">FullType</text>
</a>
</g>
</g>
<!-- BaseType&#45;&gt;FullType -->
<g id="edge6" class="edge">
<title>BaseType&#45;&gt;FullType</title>
<path fill="none" stroke="black" stroke-width="0.5" d="M287.39,-46.5C296.77,-46.5 306.89,-46.5 316.53,-46.5"/>
<polygon fill="black" stroke="black" stroke-width="0.5" points="317.02,-48.25 322.02,-46.5 317.02,-44.75 317.02,-48.25"/>
</g>
<!-- ModelEntity -->
<g id="node2" class="node">
<title>ModelEntity</title>
<g id="a_node2"><a xlink:href="../pyVHDLModel.Base.html#pyVHDLModel.Base.ModelEntity" xlink:title="``ModelEntity`` is the base&#45;class for all classes in the VHDL language model, except for mixin classes (see multiple" target="_top">
<polygon fill="white" stroke="#1e90ff" points="136.5,-93 37.5,-93 37.5,-74 136.5,-74 136.5,-93"/>
<text text-anchor="middle" x="87" y="-81" font-family="Vera Sans, DejaVu Sans, Liberation Sans, Arial, Helvetica, sans" font-size="10.00">ModelEntity</text>
</a>
</g>
</g>
<!-- ModelEntity&#45;&gt;BaseType -->
<g id="edge1" class="edge">
<title>ModelEntity&#45;&gt;BaseType</title>
<path fill="none" stroke="black" stroke-width="0.5" d="M136.75,-73.71C148.94,-71.15 161.97,-68.31 174,-65.5 183.88,-63.19 194.47,-60.55 204.45,-57.99"/>
<polygon fill="black" stroke="black" stroke-width="0.5" points="205.43,-59.54 209.84,-56.6 204.56,-56.15 205.43,-59.54"/>
</g>
<!-- NamedEntityMixin -->
<g id="node3" class="node">
<title>NamedEntityMixin</title>
<g id="a_node3"><a xlink:href="../pyVHDLModel.Base.html#pyVHDLModel.Base.NamedEntityMixin" xlink:title="A ``NamedEntityMixin`` is a mixin class for all VHDL entities that have identifiers." target="_top">
<polygon fill="white" stroke="#1e90ff" points="155.5,-56 18.5,-56 18.5,-37 155.5,-37 155.5,-56"/>
<text text-anchor="middle" x="87" y="-44" font-family="Vera Sans, DejaVu Sans, Liberation Sans, Arial, Helvetica, sans" font-size="10.00">NamedEntityMixin</text>
</a>
</g>
</g>
<!-- NamedEntityMixin&#45;&gt;BaseType -->
<g id="edge2" class="edge">
<title>NamedEntityMixin&#45;&gt;BaseType</title>
<path fill="none" stroke="black" stroke-width="0.5" d="M155.64,-46.5C171.84,-46.5 188.72,-46.5 203.52,-46.5"/>
<polygon fill="black" stroke="black" stroke-width="0.5" points="203.97,-48.25 208.97,-46.5 203.97,-44.75 203.97,-48.25"/>
</g>
<!-- DocumentedEntityMixin -->
<g id="node4" class="node">
<title>DocumentedEntityMixin</title>
<g id="a_node4"><a xlink:href="../pyVHDLModel.Base.html#pyVHDLModel.Base.DocumentedEntityMixin" xlink:title="A ``DocumentedEntityMixin`` is a mixin class for all VHDL entities that can have an associated documentation." target="_top">
<polygon fill="white" stroke="#1e90ff" points="174,-19 0,-19 0,0 174,0 174,-19"/>
<text text-anchor="middle" x="87" y="-7" font-family="Vera Sans, DejaVu Sans, Liberation Sans, Arial, Helvetica, sans" font-size="10.00">DocumentedEntityMixin</text>
</a>
</g>
</g>
<!-- DocumentedEntityMixin&#45;&gt;BaseType -->
<g id="edge3" class="edge">
<title>DocumentedEntityMixin&#45;&gt;BaseType</title>
<path fill="none" stroke="black" stroke-width="0.5" d="M134.01,-19.46C146.96,-22.32 161.04,-25.48 174,-28.5 183.55,-30.72 193.78,-33.18 203.48,-35.55"/>
<polygon fill="black" stroke="black" stroke-width="0.5" points="203.76,-37.42 209.04,-36.91 204.59,-34.02 203.76,-37.42"/>
</g>
<!-- DiscreteTypeMixin -->
<g id="node5" class="node">
<title>DiscreteTypeMixin</title>
<g id="a_node5"><a xlink:href="../pyVHDLModel/pyVHDLModel.Type.html#pyVHDLModel.Type.DiscreteTypeMixin" xlink:title="A ``DiscreteType`` is a mixin class for all discrete types." target="_top">
<polygon fill="white" stroke="#1e90ff" points="580,-93 436,-93 436,-74 580,-74 580,-93"/>
<text text-anchor="middle" x="508" y="-81" font-family="Vera Sans, DejaVu Sans, Liberation Sans, Arial, Helvetica, sans" font-size="10.00">DiscreteTypeMixin</text>
</a>
</g>
</g>
<!-- EnumeratedType -->
<g id="node6" class="node">
<title>EnumeratedType</title>
<g id="a_node6"><a xlink:href="../pyVHDLModel/pyVHDLModel.Type.html#pyVHDLModel.Type.EnumeratedType" xlink:title="EnumeratedType" target="_top">
<polygon fill="white" stroke="#1e90ff" points="738,-74 616,-74 616,-55 738,-55 738,-74"/>
<text text-anchor="middle" x="677" y="-62" font-family="Vera Sans, DejaVu Sans, Liberation Sans, Arial, Helvetica, sans" font-size="10.00">EnumeratedType</text>
</a>
</g>
</g>
<!-- DiscreteTypeMixin&#45;&gt;EnumeratedType -->
<g id="edge5" class="edge">
<title>DiscreteTypeMixin&#45;&gt;EnumeratedType</title>
<path fill="none" stroke="black" stroke-width="0.5" d="M580.31,-75.39C589.98,-74.29 599.87,-73.16 609.46,-72.07"/>
<polygon fill="black" stroke="black" stroke-width="0.5" points="610.18,-73.75 614.95,-71.45 609.79,-70.27 610.18,-73.75"/>
</g>
<!-- ScalarType -->
<g id="node7" class="node">
<title>ScalarType</title>
<g id="a_node7"><a xlink:href="../pyVHDLModel/pyVHDLModel.Type.html#pyVHDLModel.Type.ScalarType" xlink:title="A ``ScalarType`` is a base&#45;class for all scalar types." target="_top">
<polygon fill="white" stroke="#1e90ff" points="554,-56 462,-56 462,-37 554,-37 554,-56"/>
<text text-anchor="middle" x="508" y="-44" font-family="Vera Sans, DejaVu Sans, Liberation Sans, Arial, Helvetica, sans" font-size="10.00">ScalarType</text>
</a>
</g>
</g>
<!-- ScalarType&#45;&gt;EnumeratedType -->
<g id="edge4" class="edge">
<title>ScalarType&#45;&gt;EnumeratedType</title>
<path fill="none" stroke="black" stroke-width="0.5" d="M554.19,-51.37C571.2,-53.2 590.92,-55.33 609.47,-57.33"/>
<polygon fill="black" stroke="black" stroke-width="0.5" points="609.8,-59.12 614.96,-57.92 610.18,-55.65 609.8,-59.12"/>
</g>
<!-- FullType&#45;&gt;ScalarType -->
<g id="edge7" class="edge">
<title>FullType&#45;&gt;ScalarType</title>
<path fill="none" stroke="black" stroke-width="0.5" d="M400.47,-46.5C417.29,-46.5 437.35,-46.5 455.5,-46.5"/>
<polygon fill="black" stroke="black" stroke-width="0.5" points="455.82,-48.25 460.82,-46.5 455.82,-44.75 455.82,-48.25"/>
</g>
</g>
</svg>
