<?xml version="1.0" encoding="UTF-8" standalone="no"?>
<!DOCTYPE svg PUBLIC "-//W3C//DTD SVG 1.1//EN"
 "http://www.w3.org/Graphics/SVG/1.1/DTD/svg11.dtd">
<!-- Generated by graphviz version 7.0.5 (20221223.1930)
 -->
<!-- Title: inheritance9248d4a43c Pages: 1 -->
<svg width="438pt" height="101pt"
 viewBox="0.00 0.00 438.00 101.00" xmlns="http://www.w3.org/2000/svg" xmlns:xlink="http://www.w3.org/1999/xlink">
<g id="graph0" class="graph" transform="scale(1 1) rotate(0) translate(4 97)">
<title>inheritance9248d4a43c</title>
<!-- BaseConstant -->
<g id="node1" class="node">
<title>BaseConstant</title>
<g id="a_node1"><a xlink:href="../pyVHDLModel/pyVHDLModel.Object.html#pyVHDLModel.Object.BaseConstant" xlink:title="BaseConstant" target="_top">
<polygon fill="white" stroke="#1e90ff" points="430,-56 323,-56 323,-37 430,-37 430,-56"/>
<text text-anchor="middle" x="376.5" y="-44" font-family="Vera Sans, DejaVu Sans, Liberation Sans, Arial, Helvetica, sans" font-size="10.00">BaseConstant</text>
</a>
</g>
</g>
<!-- Obj -->
<g id="node2" class="node">
<title>Obj</title>
<g id="a_node2"><a xlink:href="../pyVHDLModel/pyVHDLModel.Object.html#pyVHDLModel.Object.Obj" xlink:title="Obj" target="_top">
<polygon fill="white" stroke="#1e90ff" points="287,-56 233,-56 233,-37 287,-37 287,-56"/>
<text text-anchor="middle" x="260" y="-44" font-family="Vera Sans, DejaVu Sans, Liberation Sans, Arial, Helvetica, sans" font-size="10.00">Obj</text>
</a>
</g>
</g>
<!-- Obj&#45;&gt;BaseConstant -->
<g id="edge1" class="edge">
<title>Obj&#45;&gt;BaseConstant</title>
<path fill="none" stroke="black" stroke-width="0.5" d="M287.27,-46.5C296.02,-46.5 306.15,-46.5 316.36,-46.5"/>
<polygon fill="black" stroke="black" stroke-width="0.5" points="316.95,-48.25 321.95,-46.5 316.95,-44.75 316.95,-48.25"/>
</g>
<!-- DocumentedEntityMixin -->
<g id="node3" class="node">
<title>DocumentedEntityMixin</title>
<g id="a_node3"><a xlink:href="../pyVHDLModel.Base.html#pyVHDLModel.Base.DocumentedEntityMixin" xlink:title="A ``DocumentedEntityMixin`` is a mixin class for all VHDL entities that can have an associated documentation." target="_top">
<polygon fill="white" stroke="#1e90ff" points="185.5,-93 11.5,-93 11.5,-74 185.5,-74 185.5,-93"/>
<text text-anchor="middle" x="98.5" y="-81" font-family="Vera Sans, DejaVu Sans, Liberation Sans, Arial, Helvetica, sans" font-size="10.00">DocumentedEntityMixin</text>
</a>
</g>
</g>
<!-- DocumentedEntityMixin&#45;&gt;Obj -->
<g id="edge4" class="edge">
<title>DocumentedEntityMixin&#45;&gt;Obj</title>
<path fill="none" stroke="black" stroke-width="0.5" d="M159.54,-73.54C171.98,-71.16 184.96,-68.45 197,-65.5 206.69,-63.13 217.1,-60.12 226.57,-57.21"/>
<polygon fill="black" stroke="black" stroke-width="0.5" points="227.66,-58.7 231.91,-55.54 226.62,-55.36 227.66,-58.7"/>
</g>
<!-- ModelEntity -->
<g id="node4" class="node">
<title>ModelEntity</title>
<g id="a_node4"><a xlink:href="../pyVHDLModel.Base.html#pyVHDLModel.Base.ModelEntity" xlink:title="``ModelEntity`` is the base&#45;class for all classes in the VHDL language model, except for mixin classes (see multiple" target="_top">
<polygon fill="white" stroke="#1e90ff" points="148,-56 49,-56 49,-37 148,-37 148,-56"/>
<text text-anchor="middle" x="98.5" y="-44" font-family="Vera Sans, DejaVu Sans, Liberation Sans, Arial, Helvetica, sans" font-size="10.00">ModelEntity</text>
</a>
</g>
</g>
<!-- ModelEntity&#45;&gt;Obj -->
<g id="edge2" class="edge">
<title>ModelEntity&#45;&gt;Obj</title>
<path fill="none" stroke="black" stroke-width="0.5" d="M148.22,-46.5C173.57,-46.5 203.87,-46.5 226.37,-46.5"/>
<polygon fill="black" stroke="black" stroke-width="0.5" points="227.04,-48.25 232.04,-46.5 227.04,-44.75 227.04,-48.25"/>
</g>
<!-- MultipleNamedEntityMixin -->
<g id="node5" class="node">
<title>MultipleNamedEntityMixin</title>
<g id="a_node5"><a xlink:href="../pyVHDLModel.Base.html#pyVHDLModel.Base.MultipleNamedEntityMixin" xlink:title="A ``MultipleNamedEntityMixin`` is a mixin class for all VHDL entities that declare multiple instances at once by" target="_top">
<polygon fill="white" stroke="#1e90ff" points="197,-19 0,-19 0,0 197,0 197,-19"/>
<text text-anchor="middle" x="98.5" y="-7" font-family="Vera Sans, DejaVu Sans, Liberation Sans, Arial, Helvetica, sans" font-size="10.00">MultipleNamedEntityMixin</text>
</a>
</g>
</g>
<!-- MultipleNamedEntityMixin&#45;&gt;Obj -->
<g id="edge3" class="edge">
<title>MultipleNamedEntityMixin&#45;&gt;Obj</title>
<path fill="none" stroke="black" stroke-width="0.5" d="M155.37,-19.49C169.04,-22.18 183.59,-25.25 197,-28.5 206.65,-30.84 217.05,-33.71 226.52,-36.47"/>
<polygon fill="black" stroke="black" stroke-width="0.5" points="226.57,-38.31 231.86,-38.05 227.56,-34.96 226.57,-38.31"/>
</g>
</g>
</svg>
