<?xml version="1.0" encoding="UTF-8" standalone="no"?>
<!DOCTYPE svg PUBLIC "-//W3C//DTD SVG 1.1//EN"
 "http://www.w3.org/Graphics/SVG/1.1/DTD/svg11.dtd">
<!-- Generated by graphviz version 7.0.5 (20221223.1930)
 -->
<!-- Title: inheritancee5a4c3d267 Pages: 1 -->
<svg width="576pt" height="58pt"
 viewBox="0.00 0.00 576.00 58.33" xmlns="http://www.w3.org/2000/svg" xmlns:xlink="http://www.w3.org/1999/xlink">
<g id="graph0" class="graph" transform="scale(0.911392 0.911392) rotate(0) translate(4 60)">
<title>inheritancee5a4c3d267</title>
<!-- IndexedName -->
<g id="node1" class="node">
<title>IndexedName</title>
<g id="a_node1"><a xlink:href="../pyVHDLModel.Name.html#pyVHDLModel.Name.IndexedName" xlink:title="IndexedName" target="_top">
<polygon fill="white" stroke="#1e90ff" points="324,-19 225,-19 225,0 324,0 324,-19"/>
<text text-anchor="middle" x="274.5" y="-7" font-family="Vera Sans, DejaVu Sans, Liberation Sans, Arial, Helvetica, sans" font-size="10.00">IndexedName</text>
</a>
</g>
</g>
<!-- IndexedObjectOrFunctionCallSymbol -->
<g id="node3" class="node">
<title>IndexedObjectOrFunctionCallSymbol</title>
<g id="a_node3"><a xlink:href="../pyVHDLModel/pyVHDLModel.Symbol.html#pyVHDLModel.Symbol.IndexedObjectOrFunctionCallSymbol" xlink:title="A configuration reference in a configuration instantiation." target="_top">
<polygon fill="white" stroke="#1e90ff" points="624,-37 360,-37 360,-18 624,-18 624,-37"/>
<text text-anchor="middle" x="492" y="-25" font-family="Vera Sans, DejaVu Sans, Liberation Sans, Arial, Helvetica, sans" font-size="10.00">IndexedObjectOrFunctionCallSymbol</text>
</a>
</g>
</g>
<!-- IndexedName&#45;&gt;IndexedObjectOrFunctionCallSymbol -->
<g id="edge2" class="edge">
<title>IndexedName&#45;&gt;IndexedObjectOrFunctionCallSymbol</title>
<path fill="none" stroke="black" stroke-width="0.5" d="M324.4,-13.58C336.9,-14.63 350.92,-15.8 365.38,-17.01"/>
<polygon fill="black" stroke="black" stroke-width="0.5" points="365.72,-18.79 370.84,-17.46 366.01,-15.3 365.72,-18.79"/>
</g>
<!-- Name -->
<g id="node2" class="node">
<title>Name</title>
<g id="a_node2"><a xlink:href="../pyVHDLModel.Name.html#pyVHDLModel.Name.Name" xlink:title="``Name`` is the base&#45;class for all *names* in the VHDL language model." target="_top">
<polygon fill="white" stroke="#1e90ff" points="189,-19 135,-19 135,0 189,0 189,-19"/>
<text text-anchor="middle" x="162" y="-7" font-family="Vera Sans, DejaVu Sans, Liberation Sans, Arial, Helvetica, sans" font-size="10.00">Name</text>
</a>
</g>
</g>
<!-- Name&#45;&gt;IndexedName -->
<g id="edge1" class="edge">
<title>Name&#45;&gt;IndexedName</title>
<path fill="none" stroke="black" stroke-width="0.5" d="M189.47,-9.5C198.24,-9.5 208.37,-9.5 218.48,-9.5"/>
<polygon fill="black" stroke="black" stroke-width="0.5" points="219,-11.25 224,-9.5 219,-7.75 219,-11.25"/>
</g>
<!-- Symbol -->
<g id="node4" class="node">
<title>Symbol</title>
<g id="a_node4"><a xlink:href="../pyVHDLModel/pyVHDLModel.Symbol.html#pyVHDLModel.Symbol.Symbol" xlink:title="Symbol" target="_top">
<polygon fill="white" stroke="#1e90ff" points="305.5,-56 243.5,-56 243.5,-37 305.5,-37 305.5,-56"/>
<text text-anchor="middle" x="274.5" y="-44" font-family="Vera Sans, DejaVu Sans, Liberation Sans, Arial, Helvetica, sans" font-size="10.00">Symbol</text>
</a>
</g>
</g>
<!-- Symbol&#45;&gt;IndexedObjectOrFunctionCallSymbol -->
<g id="edge3" class="edge">
<title>Symbol&#45;&gt;IndexedObjectOrFunctionCallSymbol</title>
<path fill="none" stroke="black" stroke-width="0.5" d="M305.92,-43.82C323.67,-42.25 347.35,-40.17 371.82,-38.01"/>
<polygon fill="black" stroke="black" stroke-width="0.5" points="372.47,-39.71 377.3,-37.52 372.17,-36.22 372.47,-39.71"/>
</g>
<!-- ModelEntity -->
<g id="node5" class="node">
<title>ModelEntity</title>
<g id="a_node5"><a xlink:href="../pyVHDLModel.Base.html#pyVHDLModel.Base.ModelEntity" xlink:title="``ModelEntity`` is the base&#45;class for all classes in the VHDL language model, except for mixin classes (see multiple" target="_top">
<polygon fill="white" stroke="#1e90ff" points="99,-19 0,-19 0,0 99,0 99,-19"/>
<text text-anchor="middle" x="49.5" y="-7" font-family="Vera Sans, DejaVu Sans, Liberation Sans, Arial, Helvetica, sans" font-size="10.00">ModelEntity</text>
</a>
</g>
</g>
<!-- ModelEntity&#45;&gt;Name -->
<g id="edge4" class="edge">
<title>ModelEntity&#45;&gt;Name</title>
<path fill="none" stroke="black" stroke-width="0.5" d="M99.29,-9.5C109.06,-9.5 119.1,-9.5 128.17,-9.5"/>
<polygon fill="black" stroke="black" stroke-width="0.5" points="128.83,-11.25 133.83,-9.5 128.83,-7.75 128.83,-11.25"/>
</g>
</g>
</svg>
