<?xml version="1.0" encoding="UTF-8" standalone="no"?>
<!DOCTYPE svg PUBLIC "-//W3C//DTD SVG 1.1//EN"
 "http://www.w3.org/Graphics/SVG/1.1/DTD/svg11.dtd">
<!-- Generated by graphviz version 7.0.5 (20221223.1930)
 -->
<!-- Title: inheritance49daec120b Pages: 1 -->
<svg width="572pt" height="64pt"
 viewBox="0.00 0.00 572.00 64.00" xmlns="http://www.w3.org/2000/svg" xmlns:xlink="http://www.w3.org/1999/xlink">
<g id="graph0" class="graph" transform="scale(1 1) rotate(0) translate(4 60)">
<title>inheritance49daec120b</title>
<!-- DocumentedEntityMixin -->
<g id="node1" class="node">
<title>DocumentedEntityMixin</title>
<g id="a_node1"><a xlink:href="../pyVHDLModel.Base.html#pyVHDLModel.Base.DocumentedEntityMixin" xlink:title="A ``DocumentedEntityMixin`` is a mixin class for all VHDL entities that can have an associated documentation." target="_top">
<polygon fill="white" stroke="#1e90ff" points="174,-56 0,-56 0,-37 174,-37 174,-56"/>
<text text-anchor="middle" x="87" y="-44" font-family="Vera Sans, DejaVu Sans, Liberation Sans, Arial, Helvetica, sans" font-size="10.00">DocumentedEntityMixin</text>
</a>
</g>
</g>
<!-- InterfaceItem -->
<g id="node2" class="node">
<title>InterfaceItem</title>
<g id="a_node2"><a xlink:href="../pyVHDLModel/pyVHDLModel.Interface.html#pyVHDLModel.Interface.InterfaceItem" xlink:title="An ``InterfaceItem`` is a base&#45;class for all mixin&#45;classes for all interface items." target="_top">
<polygon fill="white" stroke="#1e90ff" points="354,-56 240,-56 240,-37 354,-37 354,-56"/>
<text text-anchor="middle" x="297" y="-44" font-family="Vera Sans, DejaVu Sans, Liberation Sans, Arial, Helvetica, sans" font-size="10.00">InterfaceItem</text>
</a>
</g>
</g>
<!-- DocumentedEntityMixin&#45;&gt;InterfaceItem -->
<g id="edge1" class="edge">
<title>DocumentedEntityMixin&#45;&gt;InterfaceItem</title>
<path fill="none" stroke="black" stroke-width="0.5" d="M174.4,-46.5C194.16,-46.5 214.79,-46.5 233.32,-46.5"/>
<polygon fill="black" stroke="black" stroke-width="0.5" points="233.77,-48.25 238.77,-46.5 233.77,-44.75 233.77,-48.25"/>
</g>
<!-- PortInterfaceItem -->
<g id="node4" class="node">
<title>PortInterfaceItem</title>
<g id="a_node4"><a xlink:href="../pyVHDLModel/pyVHDLModel.Interface.html#pyVHDLModel.Interface.PortInterfaceItem" xlink:title="A ``PortInterfaceItem`` is a mixin class for all port interface items." target="_top">
<polygon fill="white" stroke="#1e90ff" points="564,-37 420,-37 420,-18 564,-18 564,-37"/>
<text text-anchor="middle" x="492" y="-25" font-family="Vera Sans, DejaVu Sans, Liberation Sans, Arial, Helvetica, sans" font-size="10.00">PortInterfaceItem</text>
</a>
</g>
</g>
<!-- InterfaceItem&#45;&gt;PortInterfaceItem -->
<g id="edge2" class="edge">
<title>InterfaceItem&#45;&gt;PortInterfaceItem</title>
<path fill="none" stroke="black" stroke-width="0.5" d="M354.34,-40.95C372.82,-39.13 393.68,-37.08 413.44,-35.14"/>
<polygon fill="black" stroke="black" stroke-width="0.5" points="414.25,-36.81 419.06,-34.58 413.91,-33.33 414.25,-36.81"/>
</g>
<!-- InterfaceItemWithMode -->
<g id="node3" class="node">
<title>InterfaceItemWithMode</title>
<g id="a_node3"><a xlink:href="../pyVHDLModel/pyVHDLModel.Interface.html#pyVHDLModel.Interface.InterfaceItemWithMode" xlink:title="An ``InterfaceItemWithMode`` is a mixin&#45;class to provide a ``Mode`` to interface items." target="_top">
<polygon fill="white" stroke="#1e90ff" points="384,-19 210,-19 210,0 384,0 384,-19"/>
<text text-anchor="middle" x="297" y="-7" font-family="Vera Sans, DejaVu Sans, Liberation Sans, Arial, Helvetica, sans" font-size="10.00">InterfaceItemWithMode</text>
</a>
</g>
</g>
<!-- InterfaceItemWithMode&#45;&gt;PortInterfaceItem -->
<g id="edge3" class="edge">
<title>InterfaceItemWithMode&#45;&gt;PortInterfaceItem</title>
<path fill="none" stroke="black" stroke-width="0.5" d="M384.34,-17.55C394.05,-18.46 403.91,-19.38 413.5,-20.27"/>
<polygon fill="black" stroke="black" stroke-width="0.5" points="413.87,-22.06 419.01,-20.79 414.19,-18.58 413.87,-22.06"/>
</g>
</g>
</svg>
