<?xml version="1.0" encoding="UTF-8" standalone="no"?>
<!DOCTYPE svg PUBLIC "-//W3C//DTD SVG 1.1//EN"
 "http://www.w3.org/Graphics/SVG/1.1/DTD/svg11.dtd">
<!-- Generated by graphviz version 7.0.5 (20221223.1930)
 -->
<!-- Title: inheritance0630be94b2 Pages: 1 -->
<svg width="576pt" height="72pt"
 viewBox="0.00 0.00 576.00 72.27" xmlns="http://www.w3.org/2000/svg" xmlns:xlink="http://www.w3.org/1999/xlink">
<g id="graph0" class="graph" transform="scale(0.715528 0.715528) rotate(0) translate(4 97)">
<title>inheritance0630be94b2</title>
<!-- DocumentedEntityMixin -->
<g id="node1" class="node">
<title>DocumentedEntityMixin</title>
<g id="a_node1"><a xlink:href="../pyVHDLModel.Base.html#pyVHDLModel.Base.DocumentedEntityMixin" xlink:title="A ``DocumentedEntityMixin`` is a mixin class for all VHDL entities that can have an associated documentation." target="_top">
<polygon fill="white" stroke="#1e90ff" points="174,-93 0,-93 0,-74 174,-74 174,-93"/>
<text text-anchor="middle" x="87" y="-81" font-family="Vera Sans, DejaVu Sans, Liberation Sans, Arial, Helvetica, sans" font-size="10.00">DocumentedEntityMixin</text>
</a>
</g>
</g>
<!-- InterfaceItem -->
<g id="node3" class="node">
<title>InterfaceItem</title>
<g id="a_node3"><a xlink:href="../pyVHDLModel/pyVHDLModel.Interface.html#pyVHDLModel.Interface.InterfaceItem" xlink:title="An ``InterfaceItem`` is a base&#45;class for all mixin&#45;classes for all interface items." target="_top">
<polygon fill="white" stroke="#1e90ff" points="324,-93 210,-93 210,-74 324,-74 324,-93"/>
<text text-anchor="middle" x="267" y="-81" font-family="Vera Sans, DejaVu Sans, Liberation Sans, Arial, Helvetica, sans" font-size="10.00">InterfaceItem</text>
</a>
</g>
</g>
<!-- DocumentedEntityMixin&#45;&gt;InterfaceItem -->
<g id="edge4" class="edge">
<title>DocumentedEntityMixin&#45;&gt;InterfaceItem</title>
<path fill="none" stroke="black" stroke-width="0.5" d="M174.39,-83.5C184.18,-83.5 194.01,-83.5 203.41,-83.5"/>
<polygon fill="black" stroke="black" stroke-width="0.5" points="204.08,-85.25 209.08,-83.5 204.08,-81.75 204.08,-85.25"/>
</g>
<!-- Subprogram -->
<g id="node8" class="node">
<title>Subprogram</title>
<g id="a_node8"><a xlink:href="../pyVHDLModel.Subprogram.html#pyVHDLModel.Subprogram.Subprogram" xlink:title="Subprogram" target="_top">
<polygon fill="white" stroke="#1e90ff" points="313,-56 221,-56 221,-37 313,-37 313,-56"/>
<text text-anchor="middle" x="267" y="-44" font-family="Vera Sans, DejaVu Sans, Liberation Sans, Arial, Helvetica, sans" font-size="10.00">Subprogram</text>
</a>
</g>
</g>
<!-- DocumentedEntityMixin&#45;&gt;Subprogram -->
<g id="edge8" class="edge">
<title>DocumentedEntityMixin&#45;&gt;Subprogram</title>
<path fill="none" stroke="black" stroke-width="0.5" d="M135.7,-73.58C160,-68.53 189.59,-62.38 214.42,-57.22"/>
<polygon fill="black" stroke="black" stroke-width="0.5" points="215.34,-58.82 219.88,-56.09 214.63,-55.39 215.34,-58.82"/>
</g>
<!-- GenericInterfaceItem -->
<g id="node2" class="node">
<title>GenericInterfaceItem</title>
<g id="a_node2"><a xlink:href="../pyVHDLModel/pyVHDLModel.Interface.html#pyVHDLModel.Interface.GenericInterfaceItem" xlink:title="A ``GenericInterfaceItem`` is a mixin class for all generic interface items." target="_top">
<polygon fill="white" stroke="#1e90ff" points="527,-93 360,-93 360,-74 527,-74 527,-93"/>
<text text-anchor="middle" x="443.5" y="-81" font-family="Vera Sans, DejaVu Sans, Liberation Sans, Arial, Helvetica, sans" font-size="10.00">GenericInterfaceItem</text>
</a>
</g>
</g>
<!-- GenericProcedureInterfaceItem -->
<g id="node4" class="node">
<title>GenericProcedureInterfaceItem</title>
<g id="a_node4"><a xlink:href="../pyVHDLModel/pyVHDLModel.Interface.html#pyVHDLModel.Interface.GenericProcedureInterfaceItem" xlink:title="GenericProcedureInterfaceItem" target="_top">
<polygon fill="white" stroke="#1e90ff" points="797,-74 563,-74 563,-55 797,-55 797,-74"/>
<text text-anchor="middle" x="680" y="-62" font-family="Vera Sans, DejaVu Sans, Liberation Sans, Arial, Helvetica, sans" font-size="10.00">GenericProcedureInterfaceItem</text>
</a>
</g>
</g>
<!-- GenericInterfaceItem&#45;&gt;GenericProcedureInterfaceItem -->
<g id="edge3" class="edge">
<title>GenericInterfaceItem&#45;&gt;GenericProcedureInterfaceItem</title>
<path fill="none" stroke="black" stroke-width="0.5" d="M527.18,-76.8C536.59,-76.04 546.32,-75.25 556.11,-74.46"/>
<polygon fill="black" stroke="black" stroke-width="0.5" points="556.95,-76.14 561.8,-74 556.67,-72.66 556.95,-76.14"/>
</g>
<!-- InterfaceItem&#45;&gt;GenericInterfaceItem -->
<g id="edge1" class="edge">
<title>InterfaceItem&#45;&gt;GenericInterfaceItem</title>
<path fill="none" stroke="black" stroke-width="0.5" d="M324.17,-83.5C333.49,-83.5 343.35,-83.5 353.25,-83.5"/>
<polygon fill="black" stroke="black" stroke-width="0.5" points="353.99,-85.25 358.99,-83.5 353.99,-81.75 353.99,-85.25"/>
</g>
<!-- Procedure -->
<g id="node5" class="node">
<title>Procedure</title>
<g id="a_node5"><a xlink:href="../pyVHDLModel.Subprogram.html#pyVHDLModel.Subprogram.Procedure" xlink:title="Procedure" target="_top">
<polygon fill="white" stroke="#1e90ff" points="485.5,-56 401.5,-56 401.5,-37 485.5,-37 485.5,-56"/>
<text text-anchor="middle" x="443.5" y="-44" font-family="Vera Sans, DejaVu Sans, Liberation Sans, Arial, Helvetica, sans" font-size="10.00">Procedure</text>
</a>
</g>
</g>
<!-- Procedure&#45;&gt;GenericProcedureInterfaceItem -->
<g id="edge2" class="edge">
<title>Procedure&#45;&gt;GenericProcedureInterfaceItem</title>
<path fill="none" stroke="black" stroke-width="0.5" d="M485.88,-49.68C505.76,-51.2 530.74,-53.12 556.07,-55.06"/>
<polygon fill="black" stroke="black" stroke-width="0.5" points="556.64,-56.86 561.76,-55.5 556.91,-53.37 556.64,-56.86"/>
</g>
<!-- ModelEntity -->
<g id="node6" class="node">
<title>ModelEntity</title>
<g id="a_node6"><a xlink:href="../pyVHDLModel.Base.html#pyVHDLModel.Base.ModelEntity" xlink:title="``ModelEntity`` is the base&#45;class for all classes in the VHDL language model, except for mixin classes (see multiple" target="_top">
<polygon fill="white" stroke="#1e90ff" points="136.5,-56 37.5,-56 37.5,-37 136.5,-37 136.5,-56"/>
<text text-anchor="middle" x="87" y="-44" font-family="Vera Sans, DejaVu Sans, Liberation Sans, Arial, Helvetica, sans" font-size="10.00">ModelEntity</text>
</a>
</g>
</g>
<!-- ModelEntity&#45;&gt;Subprogram -->
<g id="edge6" class="edge">
<title>ModelEntity&#45;&gt;Subprogram</title>
<path fill="none" stroke="black" stroke-width="0.5" d="M136.64,-46.5C160.73,-46.5 189.84,-46.5 214.33,-46.5"/>
<polygon fill="black" stroke="black" stroke-width="0.5" points="215.02,-48.25 220.02,-46.5 215.02,-44.75 215.02,-48.25"/>
</g>
<!-- NamedEntityMixin -->
<g id="node7" class="node">
<title>NamedEntityMixin</title>
<g id="a_node7"><a xlink:href="../pyVHDLModel.Base.html#pyVHDLModel.Base.NamedEntityMixin" xlink:title="A ``NamedEntityMixin`` is a mixin class for all VHDL entities that have identifiers." target="_top">
<polygon fill="white" stroke="#1e90ff" points="155.5,-19 18.5,-19 18.5,0 155.5,0 155.5,-19"/>
<text text-anchor="middle" x="87" y="-7" font-family="Vera Sans, DejaVu Sans, Liberation Sans, Arial, Helvetica, sans" font-size="10.00">NamedEntityMixin</text>
</a>
</g>
</g>
<!-- NamedEntityMixin&#45;&gt;Subprogram -->
<g id="edge7" class="edge">
<title>NamedEntityMixin&#45;&gt;Subprogram</title>
<path fill="none" stroke="black" stroke-width="0.5" d="M135.7,-19.42C160,-24.47 189.59,-30.62 214.42,-35.78"/>
<polygon fill="black" stroke="black" stroke-width="0.5" points="214.63,-37.61 219.88,-36.91 215.34,-34.18 214.63,-37.61"/>
</g>
<!-- Subprogram&#45;&gt;Procedure -->
<g id="edge5" class="edge">
<title>Subprogram&#45;&gt;Procedure</title>
<path fill="none" stroke="black" stroke-width="0.5" d="M313.39,-46.5C338.43,-46.5 369.51,-46.5 394.89,-46.5"/>
<polygon fill="black" stroke="black" stroke-width="0.5" points="395.46,-48.25 400.46,-46.5 395.46,-44.75 395.46,-48.25"/>
</g>
</g>
</svg>
