<?xml version="1.0" encoding="UTF-8" standalone="no"?>
<!DOCTYPE svg PUBLIC "-//W3C//DTD SVG 1.1//EN"
 "http://www.w3.org/Graphics/SVG/1.1/DTD/svg11.dtd">
<!-- Generated by graphviz version 7.0.5 (20221223.1930)
 -->
<!-- Title: inheritance9005ca401a Pages: 1 -->
<svg width="576pt" height="45pt"
 viewBox="0.00 0.00 576.00 45.46" xmlns="http://www.w3.org/2000/svg" xmlns:xlink="http://www.w3.org/1999/xlink">
<g id="graph0" class="graph" transform="scale(0.554379 0.554379) rotate(0) translate(4 78)">
<title>inheritance9005ca401a</title>
<!-- Assignment -->
<g id="node1" class="node">
<title>Assignment</title>
<g id="a_node1"><a xlink:href="../pyVHDLModel.Common.html#pyVHDLModel.Common.Assignment" xlink:title="An ``Assignment`` is a base&#45;class for all assignment statements." target="_top">
<polygon fill="white" stroke="#1e90ff" points="280,-74 188,-74 188,-55 280,-55 280,-74"/>
<text text-anchor="middle" x="234" y="-62" font-family="Vera Sans, DejaVu Sans, Liberation Sans, Arial, Helvetica, sans" font-size="10.00">Assignment</text>
</a>
</g>
</g>
<!-- SignalAssignment -->
<g id="node5" class="node">
<title>SignalAssignment</title>
<g id="a_node5"><a xlink:href="../pyVHDLModel.Common.html#pyVHDLModel.Common.SignalAssignment" xlink:title="An ``SignalAssignment`` is a base&#45;class for all signal assignment statements." target="_top">
<polygon fill="white" stroke="#1e90ff" points="464,-74 327,-74 327,-55 464,-55 464,-74"/>
<text text-anchor="middle" x="395.5" y="-62" font-family="Vera Sans, DejaVu Sans, Liberation Sans, Arial, Helvetica, sans" font-size="10.00">SignalAssignment</text>
</a>
</g>
</g>
<!-- Assignment&#45;&gt;SignalAssignment -->
<g id="edge5" class="edge">
<title>Assignment&#45;&gt;SignalAssignment</title>
<path fill="none" stroke="black" stroke-width="0.5" d="M280.28,-64.5C292.82,-64.5 306.77,-64.5 320.49,-64.5"/>
<polygon fill="black" stroke="black" stroke-width="0.5" points="321.01,-66.25 326.01,-64.5 321.01,-62.75 321.01,-66.25"/>
</g>
<!-- ConcurrentSelectedSignalAssignment -->
<g id="node2" class="node">
<title>ConcurrentSelectedSignalAssignment</title>
<g id="a_node2"><a xlink:href="../pyVHDLModel/pyVHDLModel.Concurrent.html#pyVHDLModel.Concurrent.ConcurrentSelectedSignalAssignment" xlink:title="ConcurrentSelectedSignalAssignment" target="_top">
<polygon fill="white" stroke="#1e90ff" points="1031,-55 759,-55 759,-36 1031,-36 1031,-55"/>
<text text-anchor="middle" x="895" y="-43" font-family="Vera Sans, DejaVu Sans, Liberation Sans, Arial, Helvetica, sans" font-size="10.00">ConcurrentSelectedSignalAssignment</text>
</a>
</g>
</g>
<!-- ConcurrentSignalAssignment -->
<g id="node3" class="node">
<title>ConcurrentSignalAssignment</title>
<g id="a_node3"><a xlink:href="../pyVHDLModel/pyVHDLModel.Concurrent.html#pyVHDLModel.Concurrent.ConcurrentSignalAssignment" xlink:title="ConcurrentSignalAssignment" target="_top">
<polygon fill="white" stroke="#1e90ff" points="723,-55 511,-55 511,-36 723,-36 723,-55"/>
<text text-anchor="middle" x="617" y="-43" font-family="Vera Sans, DejaVu Sans, Liberation Sans, Arial, Helvetica, sans" font-size="10.00">ConcurrentSignalAssignment</text>
</a>
</g>
</g>
<!-- ConcurrentSignalAssignment&#45;&gt;ConcurrentSelectedSignalAssignment -->
<g id="edge1" class="edge">
<title>ConcurrentSignalAssignment&#45;&gt;ConcurrentSelectedSignalAssignment</title>
<path fill="none" stroke="black" stroke-width="0.5" d="M723.13,-45.5C732.75,-45.5 742.6,-45.5 752.47,-45.5"/>
<polygon fill="black" stroke="black" stroke-width="0.5" points="753.21,-47.25 758.21,-45.5 753.21,-43.75 753.21,-47.25"/>
</g>
<!-- ConcurrentStatement -->
<g id="node4" class="node">
<title>ConcurrentStatement</title>
<g id="a_node4"><a xlink:href="../pyVHDLModel/pyVHDLModel.Concurrent.html#pyVHDLModel.Concurrent.ConcurrentStatement" xlink:title="A ``ConcurrentStatement`` is a base&#45;class for all concurrent statements." target="_top">
<polygon fill="white" stroke="#1e90ff" points="475,-37 316,-37 316,-18 475,-18 475,-37"/>
<text text-anchor="middle" x="395.5" y="-25" font-family="Vera Sans, DejaVu Sans, Liberation Sans, Arial, Helvetica, sans" font-size="10.00">ConcurrentStatement</text>
</a>
</g>
</g>
<!-- ConcurrentStatement&#45;&gt;ConcurrentSignalAssignment -->
<g id="edge2" class="edge">
<title>ConcurrentStatement&#45;&gt;ConcurrentSignalAssignment</title>
<path fill="none" stroke="black" stroke-width="0.5" d="M475.43,-33.97C484.81,-34.74 494.51,-35.54 504.24,-36.34"/>
<polygon fill="black" stroke="black" stroke-width="0.5" points="504.75,-38.13 509.87,-36.8 505.03,-34.64 504.75,-38.13"/>
</g>
<!-- SignalAssignment&#45;&gt;ConcurrentSignalAssignment -->
<g id="edge3" class="edge">
<title>SignalAssignment&#45;&gt;ConcurrentSignalAssignment</title>
<path fill="none" stroke="black" stroke-width="0.5" d="M464.45,-58.62C477.22,-57.51 490.89,-56.33 504.58,-55.14"/>
<polygon fill="black" stroke="black" stroke-width="0.5" points="505.29,-56.84 510.12,-54.66 504.99,-53.35 505.29,-56.84"/>
</g>
<!-- Statement -->
<g id="node6" class="node">
<title>Statement</title>
<g id="a_node6"><a xlink:href="../pyVHDLModel.Common.html#pyVHDLModel.Common.Statement" xlink:title="A ``Statement`` is a base&#45;class for all statements." target="_top">
<polygon fill="white" stroke="#1e90ff" points="276,-37 192,-37 192,-18 276,-18 276,-37"/>
<text text-anchor="middle" x="234" y="-25" font-family="Vera Sans, DejaVu Sans, Liberation Sans, Arial, Helvetica, sans" font-size="10.00">Statement</text>
</a>
</g>
</g>
<!-- Statement&#45;&gt;ConcurrentStatement -->
<g id="edge4" class="edge">
<title>Statement&#45;&gt;ConcurrentStatement</title>
<path fill="none" stroke="black" stroke-width="0.5" d="M276.49,-27.5C286.69,-27.5 297.99,-27.5 309.43,-27.5"/>
<polygon fill="black" stroke="black" stroke-width="0.5" points="310.04,-29.25 315.04,-27.5 310.04,-25.75 310.04,-29.25"/>
</g>
<!-- LabeledEntityMixin -->
<g id="node7" class="node">
<title>LabeledEntityMixin</title>
<g id="a_node7"><a xlink:href="../pyVHDLModel.Base.html#pyVHDLModel.Base.LabeledEntityMixin" xlink:title="A ``LabeledEntityMixin`` is a mixin class for all VHDL entities that can have labels." target="_top">
<polygon fill="white" stroke="#1e90ff" points="152,-56 0,-56 0,-37 152,-37 152,-56"/>
<text text-anchor="middle" x="76" y="-44" font-family="Vera Sans, DejaVu Sans, Liberation Sans, Arial, Helvetica, sans" font-size="10.00">LabeledEntityMixin</text>
</a>
</g>
</g>
<!-- LabeledEntityMixin&#45;&gt;Statement -->
<g id="edge7" class="edge">
<title>LabeledEntityMixin&#45;&gt;Statement</title>
<path fill="none" stroke="black" stroke-width="0.5" d="M152.26,-37.33C163.49,-35.97 174.79,-34.59 185.23,-33.32"/>
<polygon fill="black" stroke="black" stroke-width="0.5" points="186.12,-34.97 190.87,-32.63 185.69,-31.5 186.12,-34.97"/>
</g>
<!-- ModelEntity -->
<g id="node8" class="node">
<title>ModelEntity</title>
<g id="a_node8"><a xlink:href="../pyVHDLModel.Base.html#pyVHDLModel.Base.ModelEntity" xlink:title="``ModelEntity`` is the base&#45;class for all classes in the VHDL language model, except for mixin classes (see multiple" target="_top">
<polygon fill="white" stroke="#1e90ff" points="125.5,-19 26.5,-19 26.5,0 125.5,0 125.5,-19"/>
<text text-anchor="middle" x="76" y="-7" font-family="Vera Sans, DejaVu Sans, Liberation Sans, Arial, Helvetica, sans" font-size="10.00">ModelEntity</text>
</a>
</g>
</g>
<!-- ModelEntity&#45;&gt;Statement -->
<g id="edge6" class="edge">
<title>ModelEntity&#45;&gt;Statement</title>
<path fill="none" stroke="black" stroke-width="0.5" d="M125.93,-15.15C144.88,-17.33 166.49,-19.83 185.32,-22"/>
<polygon fill="black" stroke="black" stroke-width="0.5" points="185.67,-23.8 190.84,-22.63 186.07,-20.32 185.67,-23.8"/>
</g>
</g>
</svg>
