<?xml version="1.0" encoding="UTF-8" standalone="no"?>
<!DOCTYPE svg PUBLIC "-//W3C//DTD SVG 1.1//EN"
 "http://www.w3.org/Graphics/SVG/1.1/DTD/svg11.dtd">
<!-- Generated by graphviz version 7.0.5 (20221223.1930)
 -->
<!-- Title: inheritanceb7b299c29c Pages: 1 -->
<svg width="576pt" height="77pt"
 viewBox="0.00 0.00 576.00 76.50" xmlns="http://www.w3.org/2000/svg" xmlns:xlink="http://www.w3.org/1999/xlink">
<g id="graph0" class="graph" transform="scale(0.642857 0.642857) rotate(0) translate(4 115)">
<title>inheritanceb7b299c29c</title>
<!-- ConcurrentDeclarations -->
<g id="node1" class="node">
<title>ConcurrentDeclarations</title>
<g id="a_node1"><a xlink:href="../pyVHDLModel/pyVHDLModel.Concurrent.html#pyVHDLModel.Concurrent.ConcurrentDeclarations" xlink:title="ConcurrentDeclarations" target="_top">
<polygon fill="white" stroke="#1e90ff" points="685,-111 503,-111 503,-92 685,-92 685,-111"/>
<text text-anchor="middle" x="594" y="-99" font-family="Vera Sans, DejaVu Sans, Liberation Sans, Arial, Helvetica, sans" font-size="10.00">ConcurrentDeclarations</text>
</a>
</g>
</g>
<!-- ForGenerateStatement -->
<g id="node5" class="node">
<title>ForGenerateStatement</title>
<g id="a_node5"><a xlink:href="../pyVHDLModel/pyVHDLModel.Concurrent.html#pyVHDLModel.Concurrent.ForGenerateStatement" xlink:title="ForGenerateStatement" target="_top">
<polygon fill="white" stroke="#1e90ff" points="888,-74 721,-74 721,-55 888,-55 888,-74"/>
<text text-anchor="middle" x="804.5" y="-62" font-family="Vera Sans, DejaVu Sans, Liberation Sans, Arial, Helvetica, sans" font-size="10.00">ForGenerateStatement</text>
</a>
</g>
</g>
<!-- ConcurrentDeclarations&#45;&gt;ForGenerateStatement -->
<g id="edge3" class="edge">
<title>ConcurrentDeclarations&#45;&gt;ForGenerateStatement</title>
<path fill="none" stroke="black" stroke-width="0.5" d="M651.15,-91.54C678.85,-86.62 712.34,-80.68 740.87,-75.61"/>
<polygon fill="black" stroke="black" stroke-width="0.5" points="741.89,-77.21 746.51,-74.61 741.28,-73.76 741.89,-77.21"/>
</g>
<!-- ConcurrentStatement -->
<g id="node2" class="node">
<title>ConcurrentStatement</title>
<g id="a_node2"><a xlink:href="../pyVHDLModel/pyVHDLModel.Concurrent.html#pyVHDLModel.Concurrent.ConcurrentStatement" xlink:title="A ``ConcurrentStatement`` is a base&#45;class for all concurrent statements." target="_top">
<polygon fill="white" stroke="#1e90ff" points="467,-37 308,-37 308,-18 467,-18 467,-37"/>
<text text-anchor="middle" x="387.5" y="-25" font-family="Vera Sans, DejaVu Sans, Liberation Sans, Arial, Helvetica, sans" font-size="10.00">ConcurrentStatement</text>
</a>
</g>
</g>
<!-- GenerateStatement -->
<g id="node6" class="node">
<title>GenerateStatement</title>
<g id="a_node6"><a xlink:href="../pyVHDLModel/pyVHDLModel.Concurrent.html#pyVHDLModel.Concurrent.GenerateStatement" xlink:title="A ``GenerateStatement`` is a base&#45;class for all generate statements." target="_top">
<polygon fill="white" stroke="#1e90ff" points="666,-37 522,-37 522,-18 666,-18 666,-37"/>
<text text-anchor="middle" x="594" y="-25" font-family="Vera Sans, DejaVu Sans, Liberation Sans, Arial, Helvetica, sans" font-size="10.00">GenerateStatement</text>
</a>
</g>
</g>
<!-- ConcurrentStatement&#45;&gt;GenerateStatement -->
<g id="edge5" class="edge">
<title>ConcurrentStatement&#45;&gt;GenerateStatement</title>
<path fill="none" stroke="black" stroke-width="0.5" d="M467.27,-27.5C483.07,-27.5 499.65,-27.5 515.4,-27.5"/>
<polygon fill="black" stroke="black" stroke-width="0.5" points="515.87,-29.25 520.87,-27.5 515.87,-25.75 515.87,-29.25"/>
</g>
<!-- Statement -->
<g id="node3" class="node">
<title>Statement</title>
<g id="a_node3"><a xlink:href="../pyVHDLModel.Common.html#pyVHDLModel.Common.Statement" xlink:title="A ``Statement`` is a base&#45;class for all statements." target="_top">
<polygon fill="white" stroke="#1e90ff" points="272,-37 188,-37 188,-18 272,-18 272,-37"/>
<text text-anchor="middle" x="230" y="-25" font-family="Vera Sans, DejaVu Sans, Liberation Sans, Arial, Helvetica, sans" font-size="10.00">Statement</text>
</a>
</g>
</g>
<!-- Statement&#45;&gt;ConcurrentStatement -->
<g id="edge1" class="edge">
<title>Statement&#45;&gt;ConcurrentStatement</title>
<path fill="none" stroke="black" stroke-width="0.5" d="M272.26,-27.5C281.35,-27.5 291.3,-27.5 301.42,-27.5"/>
<polygon fill="black" stroke="black" stroke-width="0.5" points="301.98,-29.25 306.98,-27.5 301.98,-25.75 301.98,-29.25"/>
</g>
<!-- ConcurrentStatements -->
<g id="node4" class="node">
<title>ConcurrentStatements</title>
<g id="a_node4"><a xlink:href="../pyVHDLModel/pyVHDLModel.Concurrent.html#pyVHDLModel.Concurrent.ConcurrentStatements" xlink:title="ConcurrentStatements" target="_top">
<polygon fill="white" stroke="#1e90ff" points="677.5,-74 510.5,-74 510.5,-55 677.5,-55 677.5,-74"/>
<text text-anchor="middle" x="594" y="-62" font-family="Vera Sans, DejaVu Sans, Liberation Sans, Arial, Helvetica, sans" font-size="10.00">ConcurrentStatements</text>
</a>
</g>
</g>
<!-- ConcurrentStatements&#45;&gt;ForGenerateStatement -->
<g id="edge4" class="edge">
<title>ConcurrentStatements&#45;&gt;ForGenerateStatement</title>
<path fill="none" stroke="black" stroke-width="0.5" d="M677.7,-64.5C689.71,-64.5 702.11,-64.5 714.24,-64.5"/>
<polygon fill="black" stroke="black" stroke-width="0.5" points="714.8,-66.25 719.8,-64.5 714.8,-62.75 714.8,-66.25"/>
</g>
<!-- GenerateStatement&#45;&gt;ForGenerateStatement -->
<g id="edge2" class="edge">
<title>GenerateStatement&#45;&gt;ForGenerateStatement</title>
<path fill="none" stroke="black" stroke-width="0.5" d="M651.15,-37.46C678.85,-42.38 712.34,-48.32 740.87,-53.39"/>
<polygon fill="black" stroke="black" stroke-width="0.5" points="741.28,-55.24 746.51,-54.39 741.89,-51.79 741.28,-55.24"/>
</g>
<!-- LabeledEntityMixin -->
<g id="node7" class="node">
<title>LabeledEntityMixin</title>
<g id="a_node7"><a xlink:href="../pyVHDLModel.Base.html#pyVHDLModel.Base.LabeledEntityMixin" xlink:title="A ``LabeledEntityMixin`` is a mixin class for all VHDL entities that can have labels." target="_top">
<polygon fill="white" stroke="#1e90ff" points="152,-56 0,-56 0,-37 152,-37 152,-56"/>
<text text-anchor="middle" x="76" y="-44" font-family="Vera Sans, DejaVu Sans, Liberation Sans, Arial, Helvetica, sans" font-size="10.00">LabeledEntityMixin</text>
</a>
</g>
</g>
<!-- LabeledEntityMixin&#45;&gt;Statement -->
<g id="edge7" class="edge">
<title>LabeledEntityMixin&#45;&gt;Statement</title>
<path fill="none" stroke="black" stroke-width="0.5" d="M152.11,-37.11C162.08,-35.87 172.06,-34.62 181.38,-33.45"/>
<polygon fill="black" stroke="black" stroke-width="0.5" points="182.23,-35.11 186.97,-32.75 181.79,-31.64 182.23,-35.11"/>
</g>
<!-- ModelEntity -->
<g id="node8" class="node">
<title>ModelEntity</title>
<g id="a_node8"><a xlink:href="../pyVHDLModel.Base.html#pyVHDLModel.Base.ModelEntity" xlink:title="``ModelEntity`` is the base&#45;class for all classes in the VHDL language model, except for mixin classes (see multiple" target="_top">
<polygon fill="white" stroke="#1e90ff" points="125.5,-19 26.5,-19 26.5,0 125.5,0 125.5,-19"/>
<text text-anchor="middle" x="76" y="-7" font-family="Vera Sans, DejaVu Sans, Liberation Sans, Arial, Helvetica, sans" font-size="10.00">ModelEntity</text>
</a>
</g>
</g>
<!-- ModelEntity&#45;&gt;Statement -->
<g id="edge6" class="edge">
<title>ModelEntity&#45;&gt;Statement</title>
<path fill="none" stroke="black" stroke-width="0.5" d="M125.93,-15.29C143.71,-17.4 163.76,-19.77 181.42,-21.87"/>
<polygon fill="black" stroke="black" stroke-width="0.5" points="181.88,-23.68 187.06,-22.53 182.3,-20.21 181.88,-23.68"/>
</g>
</g>
</svg>
