<?xml version="1.0" encoding="UTF-8" standalone="no"?>
<!DOCTYPE svg PUBLIC "-//W3C//DTD SVG 1.1//EN"
 "http://www.w3.org/Graphics/SVG/1.1/DTD/svg11.dtd">
<!-- Generated by graphviz version 7.0.5 (20221223.1930)
 -->
<!-- Title: inheritancebc2dd1965d Pages: 1 -->
<svg width="576pt" height="102pt"
 viewBox="0.00 0.00 576.00 101.52" xmlns="http://www.w3.org/2000/svg" xmlns:xlink="http://www.w3.org/1999/xlink">
<g id="graph0" class="graph" transform="scale(0.735632 0.735632) rotate(0) translate(4 134)">
<title>inheritancebc2dd1965d</title>
<!-- DocumentedEntityMixin -->
<g id="node1" class="node">
<title>DocumentedEntityMixin</title>
<g id="a_node1"><a xlink:href="../pyVHDLModel.Base.html#pyVHDLModel.Base.DocumentedEntityMixin" xlink:title="A ``DocumentedEntityMixin`` is a mixin class for all VHDL entities that can have an associated documentation." target="_top">
<polygon fill="white" stroke="#1e90ff" points="193,-130 19,-130 19,-111 193,-111 193,-130"/>
<text text-anchor="middle" x="106" y="-118" font-family="Vera Sans, DejaVu Sans, Liberation Sans, Arial, Helvetica, sans" font-size="10.00">DocumentedEntityMixin</text>
</a>
</g>
</g>
<!-- Subprogram -->
<g id="node6" class="node">
<title>Subprogram</title>
<g id="a_node6"><a xlink:href="../pyVHDLModel.Subprogram.html#pyVHDLModel.Subprogram.Subprogram" xlink:title="Subprogram" target="_top">
<polygon fill="white" stroke="#1e90ff" points="388.5,-93 296.5,-93 296.5,-74 388.5,-74 388.5,-93"/>
<text text-anchor="middle" x="342.5" y="-81" font-family="Vera Sans, DejaVu Sans, Liberation Sans, Arial, Helvetica, sans" font-size="10.00">Subprogram</text>
</a>
</g>
</g>
<!-- DocumentedEntityMixin&#45;&gt;Subprogram -->
<g id="edge6" class="edge">
<title>DocumentedEntityMixin&#45;&gt;Subprogram</title>
<path fill="none" stroke="black" stroke-width="0.5" d="M170.15,-110.54C207.72,-104.61 254.79,-97.18 290.08,-91.61"/>
<polygon fill="black" stroke="black" stroke-width="0.5" points="290.67,-93.29 295.34,-90.78 290.13,-89.83 290.67,-93.29"/>
</g>
<!-- GenericEntityInstantiation -->
<g id="node2" class="node">
<title>GenericEntityInstantiation</title>
<g id="a_node2"><a xlink:href="../pyVHDLModel/pyVHDLModel.Instantiation.html#pyVHDLModel.Instantiation.GenericEntityInstantiation" xlink:title="GenericEntityInstantiation" target="_top">
<polygon fill="white" stroke="#1e90ff" points="212,-19 0,-19 0,0 212,0 212,-19"/>
<text text-anchor="middle" x="106" y="-7" font-family="Vera Sans, DejaVu Sans, Liberation Sans, Arial, Helvetica, sans" font-size="10.00">GenericEntityInstantiation</text>
</a>
</g>
</g>
<!-- SubprogramInstantiation -->
<g id="node8" class="node">
<title>SubprogramInstantiation</title>
<g id="a_node8"><a xlink:href="../pyVHDLModel/pyVHDLModel.Instantiation.html#pyVHDLModel.Instantiation.SubprogramInstantiation" xlink:title="SubprogramInstantiation" target="_top">
<polygon fill="white" stroke="#1e90ff" points="437,-55 248,-55 248,-36 437,-36 437,-55"/>
<text text-anchor="middle" x="342.5" y="-43" font-family="Vera Sans, DejaVu Sans, Liberation Sans, Arial, Helvetica, sans" font-size="10.00">SubprogramInstantiation</text>
</a>
</g>
</g>
<!-- GenericEntityInstantiation&#45;&gt;SubprogramInstantiation -->
<g id="edge8" class="edge">
<title>GenericEntityInstantiation&#45;&gt;SubprogramInstantiation</title>
<path fill="none" stroke="black" stroke-width="0.5" d="M172.01,-19.48C202.51,-24.16 238.93,-29.75 270.19,-34.55"/>
<polygon fill="black" stroke="black" stroke-width="0.5" points="270.41,-36.36 275.62,-35.39 270.94,-32.9 270.41,-36.36"/>
</g>
<!-- ModelEntity -->
<g id="node3" class="node">
<title>ModelEntity</title>
<g id="a_node3"><a xlink:href="../pyVHDLModel.Base.html#pyVHDLModel.Base.ModelEntity" xlink:title="``ModelEntity`` is the base&#45;class for all classes in the VHDL language model, except for mixin classes (see multiple" target="_top">
<polygon fill="white" stroke="#1e90ff" points="155.5,-56 56.5,-56 56.5,-37 155.5,-37 155.5,-56"/>
<text text-anchor="middle" x="106" y="-44" font-family="Vera Sans, DejaVu Sans, Liberation Sans, Arial, Helvetica, sans" font-size="10.00">ModelEntity</text>
</a>
</g>
</g>
<!-- ModelEntity&#45;&gt;Subprogram -->
<g id="edge4" class="edge">
<title>ModelEntity&#45;&gt;Subprogram</title>
<path fill="none" stroke="black" stroke-width="0.5" d="M155.87,-54.21C195.12,-60.4 250.07,-69.07 289.99,-75.37"/>
<polygon fill="black" stroke="black" stroke-width="0.5" points="290.31,-77.19 295.52,-76.24 290.85,-73.74 290.31,-77.19"/>
</g>
<!-- ModelEntity&#45;&gt;SubprogramInstantiation -->
<g id="edge7" class="edge">
<title>ModelEntity&#45;&gt;SubprogramInstantiation</title>
<path fill="none" stroke="black" stroke-width="0.5" d="M155.87,-46.29C180.69,-46.19 211.78,-46.05 241.38,-45.93"/>
<polygon fill="black" stroke="black" stroke-width="0.5" points="241.92,-47.67 246.92,-45.9 241.91,-44.17 241.92,-47.67"/>
</g>
<!-- NamedEntityMixin -->
<g id="node4" class="node">
<title>NamedEntityMixin</title>
<g id="a_node4"><a xlink:href="../pyVHDLModel.Base.html#pyVHDLModel.Base.NamedEntityMixin" xlink:title="A ``NamedEntityMixin`` is a mixin class for all VHDL entities that have identifiers." target="_top">
<polygon fill="white" stroke="#1e90ff" points="174.5,-93 37.5,-93 37.5,-74 174.5,-74 174.5,-93"/>
<text text-anchor="middle" x="106" y="-81" font-family="Vera Sans, DejaVu Sans, Liberation Sans, Arial, Helvetica, sans" font-size="10.00">NamedEntityMixin</text>
</a>
</g>
</g>
<!-- NamedEntityMixin&#45;&gt;Subprogram -->
<g id="edge5" class="edge">
<title>NamedEntityMixin&#45;&gt;Subprogram</title>
<path fill="none" stroke="black" stroke-width="0.5" d="M174.83,-83.5C211.5,-83.5 256.07,-83.5 289.89,-83.5"/>
<polygon fill="black" stroke="black" stroke-width="0.5" points="290.32,-85.25 295.32,-83.5 290.32,-81.75 290.32,-85.25"/>
</g>
<!-- Procedure -->
<g id="node5" class="node">
<title>Procedure</title>
<g id="a_node5"><a xlink:href="../pyVHDLModel.Subprogram.html#pyVHDLModel.Subprogram.Procedure" xlink:title="Procedure" target="_top">
<polygon fill="white" stroke="#1e90ff" points="557,-93 473,-93 473,-74 557,-74 557,-93"/>
<text text-anchor="middle" x="515" y="-81" font-family="Vera Sans, DejaVu Sans, Liberation Sans, Arial, Helvetica, sans" font-size="10.00">Procedure</text>
</a>
</g>
</g>
<!-- ProcedureInstantiation -->
<g id="node7" class="node">
<title>ProcedureInstantiation</title>
<g id="a_node7"><a xlink:href="../pyVHDLModel/pyVHDLModel.Instantiation.html#pyVHDLModel.Instantiation.ProcedureInstantiation" xlink:title="ProcedureInstantiation" target="_top">
<polygon fill="white" stroke="#1e90ff" points="775,-74 593,-74 593,-55 775,-55 775,-74"/>
<text text-anchor="middle" x="684" y="-62" font-family="Vera Sans, DejaVu Sans, Liberation Sans, Arial, Helvetica, sans" font-size="10.00">ProcedureInstantiation</text>
</a>
</g>
</g>
<!-- Procedure&#45;&gt;ProcedureInstantiation -->
<g id="edge2" class="edge">
<title>Procedure&#45;&gt;ProcedureInstantiation</title>
<path fill="none" stroke="black" stroke-width="0.5" d="M557.28,-78.8C567.06,-77.69 577.89,-76.46 588.97,-75.2"/>
<polygon fill="black" stroke="black" stroke-width="0.5" points="589.62,-76.89 594.39,-74.58 589.23,-73.41 589.62,-76.89"/>
</g>
<!-- Subprogram&#45;&gt;Procedure -->
<g id="edge1" class="edge">
<title>Subprogram&#45;&gt;Procedure</title>
<path fill="none" stroke="black" stroke-width="0.5" d="M388.74,-83.5C412.65,-83.5 441.99,-83.5 466.26,-83.5"/>
<polygon fill="black" stroke="black" stroke-width="0.5" points="466.88,-85.25 471.88,-83.5 466.88,-81.75 466.88,-85.25"/>
</g>
<!-- SubprogramInstantiation&#45;&gt;ProcedureInstantiation -->
<g id="edge3" class="edge">
<title>SubprogramInstantiation&#45;&gt;ProcedureInstantiation</title>
<path fill="none" stroke="black" stroke-width="0.5" d="M437.17,-50.74C483.56,-53.34 539.52,-56.47 586.32,-59.09"/>
<polygon fill="black" stroke="black" stroke-width="0.5" points="586.72,-60.86 591.81,-59.4 586.92,-57.37 586.72,-60.86"/>
</g>
</g>
</svg>
