<?xml version="1.0" encoding="UTF-8" standalone="no"?>
<!DOCTYPE svg PUBLIC "-//W3C//DTD SVG 1.1//EN"
 "http://www.w3.org/Graphics/SVG/1.1/DTD/svg11.dtd">
<!-- Generated by graphviz version 7.0.5 (20221223.1930)
 -->
<!-- Title: inheritance877a8edba2 Pages: 1 -->
<svg width="576pt" height="71pt"
 viewBox="0.00 0.00 576.00 70.86" xmlns="http://www.w3.org/2000/svg" xmlns:xlink="http://www.w3.org/1999/xlink">
<g id="graph0" class="graph" transform="scale(0.701583 0.701583) rotate(0) translate(4 97)">
<title>inheritance877a8edba2</title>
<!-- DocumentedEntityMixin -->
<g id="node1" class="node">
<title>DocumentedEntityMixin</title>
<g id="a_node1"><a xlink:href="../pyVHDLModel.Base.html#pyVHDLModel.Base.DocumentedEntityMixin" xlink:title="A ``DocumentedEntityMixin`` is a mixin class for all VHDL entities that can have an associated documentation." target="_top">
<polygon fill="white" stroke="#1e90ff" points="185.5,-19 11.5,-19 11.5,0 185.5,0 185.5,-19"/>
<text text-anchor="middle" x="98.5" y="-7" font-family="Vera Sans, DejaVu Sans, Liberation Sans, Arial, Helvetica, sans" font-size="10.00">DocumentedEntityMixin</text>
</a>
</g>
</g>
<!-- Obj -->
<g id="node3" class="node">
<title>Obj</title>
<g id="a_node3"><a xlink:href="../pyVHDLModel.Object.html#pyVHDLModel.Object.Obj" xlink:title="Obj" target="_top">
<polygon fill="white" stroke="#1e90ff" points="317,-56 263,-56 263,-37 317,-37 317,-56"/>
<text text-anchor="middle" x="290" y="-44" font-family="Vera Sans, DejaVu Sans, Liberation Sans, Arial, Helvetica, sans" font-size="10.00">Obj</text>
</a>
</g>
</g>
<!-- DocumentedEntityMixin&#45;&gt;Obj -->
<g id="edge5" class="edge">
<title>DocumentedEntityMixin&#45;&gt;Obj</title>
<path fill="none" stroke="black" stroke-width="0.5" d="M150.61,-19.45C165.56,-22.37 181.94,-25.56 197,-28.5 216.77,-32.36 238.94,-36.7 256.56,-40.15"/>
<polygon fill="black" stroke="black" stroke-width="0.5" points="256.84,-41.99 262.09,-41.23 257.51,-38.55 256.84,-41.99"/>
</g>
<!-- InterfaceItem -->
<g id="node4" class="node">
<title>InterfaceItem</title>
<g id="a_node4"><a xlink:href="../pyVHDLModel/pyVHDLModel.Interface.html#pyVHDLModel.Interface.InterfaceItem" xlink:title="An ``InterfaceItem`` is a base&#45;class for all mixin&#45;classes for all interface items." target="_top">
<polygon fill="white" stroke="#1e90ff" points="347,-19 233,-19 233,0 347,0 347,-19"/>
<text text-anchor="middle" x="290" y="-7" font-family="Vera Sans, DejaVu Sans, Liberation Sans, Arial, Helvetica, sans" font-size="10.00">InterfaceItem</text>
</a>
</g>
</g>
<!-- DocumentedEntityMixin&#45;&gt;InterfaceItem -->
<g id="edge2" class="edge">
<title>DocumentedEntityMixin&#45;&gt;InterfaceItem</title>
<path fill="none" stroke="black" stroke-width="0.5" d="M185.93,-9.5C199.52,-9.5 213.34,-9.5 226.26,-9.5"/>
<polygon fill="black" stroke="black" stroke-width="0.5" points="226.77,-11.25 231.77,-9.5 226.77,-7.75 226.77,-11.25"/>
</g>
<!-- File -->
<g id="node2" class="node">
<title>File</title>
<g id="a_node2"><a xlink:href="../pyVHDLModel.Object.html#pyVHDLModel.Object.File" xlink:title="File" target="_top">
<polygon fill="white" stroke="#1e90ff" points="501,-56 447,-56 447,-37 501,-37 501,-56"/>
<text text-anchor="middle" x="474" y="-44" font-family="Vera Sans, DejaVu Sans, Liberation Sans, Arial, Helvetica, sans" font-size="10.00">File</text>
</a>
</g>
</g>
<!-- ParameterFileInterfaceItem -->
<g id="node7" class="node">
<title>ParameterFileInterfaceItem</title>
<g id="a_node7"><a xlink:href="../pyVHDLModel/pyVHDLModel.Interface.html#pyVHDLModel.Interface.ParameterFileInterfaceItem" xlink:title="ParameterFileInterfaceItem" target="_top">
<polygon fill="white" stroke="#1e90ff" points="813,-37 601,-37 601,-18 813,-18 813,-37"/>
<text text-anchor="middle" x="707" y="-25" font-family="Vera Sans, DejaVu Sans, Liberation Sans, Arial, Helvetica, sans" font-size="10.00">ParameterFileInterfaceItem</text>
</a>
</g>
</g>
<!-- File&#45;&gt;ParameterFileInterfaceItem -->
<g id="edge6" class="edge">
<title>File&#45;&gt;ParameterFileInterfaceItem</title>
<path fill="none" stroke="black" stroke-width="0.5" d="M501.5,-44.32C524.54,-42.43 559.56,-39.54 594.15,-36.7"/>
<polygon fill="black" stroke="black" stroke-width="0.5" points="595.01,-38.39 599.85,-36.23 594.72,-34.9 595.01,-38.39"/>
</g>
<!-- Obj&#45;&gt;File -->
<g id="edge1" class="edge">
<title>Obj&#45;&gt;File</title>
<path fill="none" stroke="black" stroke-width="0.5" d="M317.46,-46.5C349.95,-46.5 405.04,-46.5 440.18,-46.5"/>
<polygon fill="black" stroke="black" stroke-width="0.5" points="440.75,-48.25 445.75,-46.5 440.75,-44.75 440.75,-48.25"/>
</g>
<!-- ParameterInterfaceItem -->
<g id="node8" class="node">
<title>ParameterInterfaceItem</title>
<g id="a_node8"><a xlink:href="../pyVHDLModel/pyVHDLModel.Interface.html#pyVHDLModel.Interface.ParameterInterfaceItem" xlink:title="A ``ParameterInterfaceItem`` is a mixin class for all parameter interface items." target="_top">
<polygon fill="white" stroke="#1e90ff" points="565,-19 383,-19 383,0 565,0 565,-19"/>
<text text-anchor="middle" x="474" y="-7" font-family="Vera Sans, DejaVu Sans, Liberation Sans, Arial, Helvetica, sans" font-size="10.00">ParameterInterfaceItem</text>
</a>
</g>
</g>
<!-- InterfaceItem&#45;&gt;ParameterInterfaceItem -->
<g id="edge8" class="edge">
<title>InterfaceItem&#45;&gt;ParameterInterfaceItem</title>
<path fill="none" stroke="black" stroke-width="0.5" d="M347.09,-9.5C356.43,-9.5 366.35,-9.5 376.36,-9.5"/>
<polygon fill="black" stroke="black" stroke-width="0.5" points="376.85,-11.25 381.85,-9.5 376.85,-7.75 376.85,-11.25"/>
</g>
<!-- ModelEntity -->
<g id="node5" class="node">
<title>ModelEntity</title>
<g id="a_node5"><a xlink:href="../pyVHDLModel.Base.html#pyVHDLModel.Base.ModelEntity" xlink:title="``ModelEntity`` is the base&#45;class for all classes in the VHDL language model, except for mixin classes (see multiple" target="_top">
<polygon fill="white" stroke="#1e90ff" points="148,-93 49,-93 49,-74 148,-74 148,-93"/>
<text text-anchor="middle" x="98.5" y="-81" font-family="Vera Sans, DejaVu Sans, Liberation Sans, Arial, Helvetica, sans" font-size="10.00">ModelEntity</text>
</a>
</g>
</g>
<!-- ModelEntity&#45;&gt;Obj -->
<g id="edge3" class="edge">
<title>ModelEntity&#45;&gt;Obj</title>
<path fill="none" stroke="black" stroke-width="0.5" d="M148.14,-74.73C163.76,-71.86 181.12,-68.61 197,-65.5 216.82,-61.63 238.98,-57.05 256.59,-53.37"/>
<polygon fill="black" stroke="black" stroke-width="0.5" points="257.58,-54.95 262.12,-52.21 256.86,-51.52 257.58,-54.95"/>
</g>
<!-- MultipleNamedEntityMixin -->
<g id="node6" class="node">
<title>MultipleNamedEntityMixin</title>
<g id="a_node6"><a xlink:href="../pyVHDLModel.Base.html#pyVHDLModel.Base.MultipleNamedEntityMixin" xlink:title="A ``MultipleNamedEntityMixin`` is a mixin class for all VHDL entities that declare multiple instances at once by" target="_top">
<polygon fill="white" stroke="#1e90ff" points="197,-56 0,-56 0,-37 197,-37 197,-56"/>
<text text-anchor="middle" x="98.5" y="-44" font-family="Vera Sans, DejaVu Sans, Liberation Sans, Arial, Helvetica, sans" font-size="10.00">MultipleNamedEntityMixin</text>
</a>
</g>
</g>
<!-- MultipleNamedEntityMixin&#45;&gt;Obj -->
<g id="edge4" class="edge">
<title>MultipleNamedEntityMixin&#45;&gt;Obj</title>
<path fill="none" stroke="black" stroke-width="0.5" d="M197.3,-46.5C218.55,-46.5 239.6,-46.5 256.16,-46.5"/>
<polygon fill="black" stroke="black" stroke-width="0.5" points="256.75,-48.25 261.75,-46.5 256.75,-44.75 256.75,-48.25"/>
</g>
<!-- ParameterInterfaceItem&#45;&gt;ParameterFileInterfaceItem -->
<g id="edge7" class="edge">
<title>ParameterInterfaceItem&#45;&gt;ParameterFileInterfaceItem</title>
<path fill="none" stroke="black" stroke-width="0.5" d="M565.3,-16.54C574.85,-17.28 584.64,-18.04 594.4,-18.8"/>
<polygon fill="black" stroke="black" stroke-width="0.5" points="594.93,-20.6 600.05,-19.24 595.2,-17.11 594.93,-20.6"/>
</g>
</g>
</svg>
