<?xml version="1.0" encoding="UTF-8" standalone="no"?>
<!DOCTYPE svg PUBLIC "-//W3C//DTD SVG 1.1//EN"
 "http://www.w3.org/Graphics/SVG/1.1/DTD/svg11.dtd">
<!-- Generated by graphviz version 7.0.5 (20221223.1930)
 -->
<!-- Title: inheritance08a5c6a270 Pages: 1 -->
<svg width="467pt" height="27pt"
 viewBox="0.00 0.00 467.00 27.00" xmlns="http://www.w3.org/2000/svg" xmlns:xlink="http://www.w3.org/1999/xlink">
<g id="graph0" class="graph" transform="scale(1 1) rotate(0) translate(4 23)">
<title>inheritance08a5c6a270</title>
<!-- AssociationItem -->
<g id="node1" class="node">
<title>AssociationItem</title>
<g id="a_node1"><a xlink:href="../pyVHDLModel/pyVHDLModel.Association.html#pyVHDLModel.Association.AssociationItem" xlink:title="AssociationItem" target="_top">
<polygon fill="white" stroke="#1e90ff" points="264,-19 135,-19 135,0 264,0 264,-19"/>
<text text-anchor="middle" x="199.5" y="-7" font-family="Vera Sans, DejaVu Sans, Liberation Sans, Arial, Helvetica, sans" font-size="10.00">AssociationItem</text>
</a>
</g>
</g>
<!-- PortAssociationItem -->
<g id="node3" class="node">
<title>PortAssociationItem</title>
<g id="a_node3"><a xlink:href="../pyVHDLModel/pyVHDLModel.Association.html#pyVHDLModel.Association.PortAssociationItem" xlink:title="PortAssociationItem" target="_top">
<polygon fill="white" stroke="#1e90ff" points="459,-19 300,-19 300,0 459,0 459,-19"/>
<text text-anchor="middle" x="379.5" y="-7" font-family="Vera Sans, DejaVu Sans, Liberation Sans, Arial, Helvetica, sans" font-size="10.00">PortAssociationItem</text>
</a>
</g>
</g>
<!-- AssociationItem&#45;&gt;PortAssociationItem -->
<g id="edge2" class="edge">
<title>AssociationItem&#45;&gt;PortAssociationItem</title>
<path fill="none" stroke="black" stroke-width="0.5" d="M264.26,-9.5C273.67,-9.5 283.49,-9.5 293.25,-9.5"/>
<polygon fill="black" stroke="black" stroke-width="0.5" points="293.9,-11.25 298.9,-9.5 293.9,-7.75 293.9,-11.25"/>
</g>
<!-- ModelEntity -->
<g id="node2" class="node">
<title>ModelEntity</title>
<g id="a_node2"><a xlink:href="../pyVHDLModel.Base.html#pyVHDLModel.Base.ModelEntity" xlink:title="``ModelEntity`` is the base&#45;class for all classes in the VHDL language model, except for mixin classes (see multiple" target="_top">
<polygon fill="white" stroke="#1e90ff" points="99,-19 0,-19 0,0 99,0 99,-19"/>
<text text-anchor="middle" x="49.5" y="-7" font-family="Vera Sans, DejaVu Sans, Liberation Sans, Arial, Helvetica, sans" font-size="10.00">ModelEntity</text>
</a>
</g>
</g>
<!-- ModelEntity&#45;&gt;AssociationItem -->
<g id="edge1" class="edge">
<title>ModelEntity&#45;&gt;AssociationItem</title>
<path fill="none" stroke="black" stroke-width="0.5" d="M99.37,-9.5C108.63,-9.5 118.48,-9.5 128.24,-9.5"/>
<polygon fill="black" stroke="black" stroke-width="0.5" points="128.88,-11.25 133.88,-9.5 128.88,-7.75 128.88,-11.25"/>
</g>
</g>
</svg>
