<?xml version="1.0" encoding="UTF-8" standalone="no"?>
<!DOCTYPE svg PUBLIC "-//W3C//DTD SVG 1.1//EN"
 "http://www.w3.org/Graphics/SVG/1.1/DTD/svg11.dtd">
<!-- Generated by graphviz version 7.0.5 (20221223.1930)
 -->
<!-- Title: inheritancef6e94dce00 Pages: 1 -->
<svg width="272pt" height="101pt"
 viewBox="0.00 0.00 272.00 101.00" xmlns="http://www.w3.org/2000/svg" xmlns:xlink="http://www.w3.org/1999/xlink">
<g id="graph0" class="graph" transform="scale(1 1) rotate(0) translate(4 97)">
<title>inheritancef6e94dce00</title>
<!-- Alias -->
<g id="node1" class="node">
<title>Alias</title>
<g id="a_node1"><a xlink:href="../pyVHDLModel/pyVHDLModel.Declaration.html#pyVHDLModel.Declaration.Alias" xlink:title="Alias" target="_top">
<polygon fill="white" stroke="#1e90ff" points="264,-56 210,-56 210,-37 264,-37 264,-56"/>
<text text-anchor="middle" x="237" y="-44" font-family="Vera Sans, DejaVu Sans, Liberation Sans, Arial, Helvetica, sans" font-size="10.00">Alias</text>
</a>
</g>
</g>
<!-- ModelEntity -->
<g id="node2" class="node">
<title>ModelEntity</title>
<g id="a_node2"><a xlink:href="../pyVHDLModel.Base.html#pyVHDLModel.Base.ModelEntity" xlink:title="``ModelEntity`` is the base&#45;class for all classes in the VHDL language model, except for mixin classes (see multiple" target="_top">
<polygon fill="white" stroke="#1e90ff" points="136.5,-93 37.5,-93 37.5,-74 136.5,-74 136.5,-93"/>
<text text-anchor="middle" x="87" y="-81" font-family="Vera Sans, DejaVu Sans, Liberation Sans, Arial, Helvetica, sans" font-size="10.00">ModelEntity</text>
</a>
</g>
</g>
<!-- ModelEntity&#45;&gt;Alias -->
<g id="edge1" class="edge">
<title>ModelEntity&#45;&gt;Alias</title>
<path fill="none" stroke="black" stroke-width="0.5" d="M136.84,-74.08C149.03,-71.51 162.03,-68.58 174,-65.5 183.66,-63.01 194.06,-59.97 203.53,-57.06"/>
<polygon fill="black" stroke="black" stroke-width="0.5" points="204.62,-58.55 208.88,-55.4 203.58,-55.21 204.62,-58.55"/>
</g>
<!-- NamedEntityMixin -->
<g id="node3" class="node">
<title>NamedEntityMixin</title>
<g id="a_node3"><a xlink:href="../pyVHDLModel.Base.html#pyVHDLModel.Base.NamedEntityMixin" xlink:title="A ``NamedEntityMixin`` is a mixin class for all VHDL entities that have identifiers." target="_top">
<polygon fill="white" stroke="#1e90ff" points="155.5,-56 18.5,-56 18.5,-37 155.5,-37 155.5,-56"/>
<text text-anchor="middle" x="87" y="-44" font-family="Vera Sans, DejaVu Sans, Liberation Sans, Arial, Helvetica, sans" font-size="10.00">NamedEntityMixin</text>
</a>
</g>
</g>
<!-- NamedEntityMixin&#45;&gt;Alias -->
<g id="edge2" class="edge">
<title>NamedEntityMixin&#45;&gt;Alias</title>
<path fill="none" stroke="black" stroke-width="0.5" d="M155.94,-46.5C172.54,-46.5 189.56,-46.5 203.61,-46.5"/>
<polygon fill="black" stroke="black" stroke-width="0.5" points="204.09,-48.25 209.09,-46.5 204.09,-44.75 204.09,-48.25"/>
</g>
<!-- DocumentedEntityMixin -->
<g id="node4" class="node">
<title>DocumentedEntityMixin</title>
<g id="a_node4"><a xlink:href="../pyVHDLModel.Base.html#pyVHDLModel.Base.DocumentedEntityMixin" xlink:title="A ``DocumentedEntityMixin`` is a mixin class for all VHDL entities that can have an associated documentation." target="_top">
<polygon fill="white" stroke="#1e90ff" points="174,-19 0,-19 0,0 174,0 174,-19"/>
<text text-anchor="middle" x="87" y="-7" font-family="Vera Sans, DejaVu Sans, Liberation Sans, Arial, Helvetica, sans" font-size="10.00">DocumentedEntityMixin</text>
</a>
</g>
</g>
<!-- DocumentedEntityMixin&#45;&gt;Alias -->
<g id="edge3" class="edge">
<title>DocumentedEntityMixin&#45;&gt;Alias</title>
<path fill="none" stroke="black" stroke-width="0.5" d="M135.45,-19.4C148.02,-22.18 161.56,-25.32 174,-28.5 183.62,-30.96 194.01,-33.87 203.48,-36.63"/>
<polygon fill="black" stroke="black" stroke-width="0.5" points="203.54,-38.47 208.83,-38.2 204.52,-35.11 203.54,-38.47"/>
</g>
</g>
</svg>
