<?xml version="1.0" encoding="UTF-8" standalone="no"?>
<!DOCTYPE svg PUBLIC "-//W3C//DTD SVG 1.1//EN"
 "http://www.w3.org/Graphics/SVG/1.1/DTD/svg11.dtd">
<!-- Generated by graphviz version 7.0.5 (20221223.1930)
 -->
<!-- Title: inheritance96607a2eab Pages: 1 -->
<svg width="576pt" height="98pt"
 viewBox="0.00 0.00 576.00 97.77" xmlns="http://www.w3.org/2000/svg" xmlns:xlink="http://www.w3.org/1999/xlink">
<g id="graph0" class="graph" transform="scale(0.968067 0.968067) rotate(0) translate(4 97)">
<title>inheritance96607a2eab</title>
<!-- DocumentedEntityMixin -->
<g id="node1" class="node">
<title>DocumentedEntityMixin</title>
<g id="a_node1"><a xlink:href="../pyVHDLModel.Base.html#pyVHDLModel.Base.DocumentedEntityMixin" xlink:title="A ``DocumentedEntityMixin`` is a mixin class for all VHDL entities that can have an associated documentation." target="_top">
<polygon fill="white" stroke="#1e90ff" points="174,-93 0,-93 0,-74 174,-74 174,-93"/>
<text text-anchor="middle" x="87" y="-81" font-family="Vera Sans, DejaVu Sans, Liberation Sans, Arial, Helvetica, sans" font-size="10.00">DocumentedEntityMixin</text>
</a>
</g>
</g>
<!-- Subprogram -->
<g id="node6" class="node">
<title>Subprogram</title>
<g id="a_node6"><a xlink:href="../pyVHDLModel/pyVHDLModel.Subprogram.html#pyVHDLModel.Subprogram.Subprogram" xlink:title="Subprogram" target="_top">
<polygon fill="white" stroke="#1e90ff" points="302,-56 210,-56 210,-37 302,-37 302,-56"/>
<text text-anchor="middle" x="256" y="-44" font-family="Vera Sans, DejaVu Sans, Liberation Sans, Arial, Helvetica, sans" font-size="10.00">Subprogram</text>
</a>
</g>
</g>
<!-- DocumentedEntityMixin&#45;&gt;Subprogram -->
<g id="edge6" class="edge">
<title>DocumentedEntityMixin&#45;&gt;Subprogram</title>
<path fill="none" stroke="black" stroke-width="0.5" d="M136.71,-73.52C148.9,-70.96 161.94,-68.18 174,-65.5 184.73,-63.12 196.23,-60.48 207.1,-57.94"/>
<polygon fill="black" stroke="black" stroke-width="0.5" points="208.22,-59.47 212.68,-56.63 207.42,-56.07 208.22,-59.47"/>
</g>
<!-- Method -->
<g id="node2" class="node">
<title>Method</title>
<g id="a_node2"><a xlink:href="../pyVHDLModel/pyVHDLModel.Subprogram.html#pyVHDLModel.Subprogram.Method" xlink:title="A ``Method`` is a mixin class for all subprograms in a protected type." target="_top">
<polygon fill="white" stroke="#1e90ff" points="411,-19 349,-19 349,0 411,0 411,-19"/>
<text text-anchor="middle" x="380" y="-7" font-family="Vera Sans, DejaVu Sans, Liberation Sans, Arial, Helvetica, sans" font-size="10.00">Method</text>
</a>
</g>
</g>
<!-- ProcedureMethod -->
<g id="node7" class="node">
<title>ProcedureMethod</title>
<g id="a_node7"><a xlink:href="../pyVHDLModel/pyVHDLModel.Subprogram.html#pyVHDLModel.Subprogram.ProcedureMethod" xlink:title="ProcedureMethod" target="_top">
<polygon fill="white" stroke="#1e90ff" points="587,-37 458,-37 458,-18 587,-18 587,-37"/>
<text text-anchor="middle" x="522.5" y="-25" font-family="Vera Sans, DejaVu Sans, Liberation Sans, Arial, Helvetica, sans" font-size="10.00">ProcedureMethod</text>
</a>
</g>
</g>
<!-- Method&#45;&gt;ProcedureMethod -->
<g id="edge3" class="edge">
<title>Method&#45;&gt;ProcedureMethod</title>
<path fill="none" stroke="black" stroke-width="0.5" d="M411.49,-13.41C423.24,-14.91 437.22,-16.7 451.2,-18.49"/>
<polygon fill="black" stroke="black" stroke-width="0.5" points="451.68,-20.32 456.86,-19.22 452.12,-16.85 451.68,-20.32"/>
</g>
<!-- ModelEntity -->
<g id="node3" class="node">
<title>ModelEntity</title>
<g id="a_node3"><a xlink:href="../pyVHDLModel.Base.html#pyVHDLModel.Base.ModelEntity" xlink:title="``ModelEntity`` is the base&#45;class for all classes in the VHDL language model, except for mixin classes (see multiple" target="_top">
<polygon fill="white" stroke="#1e90ff" points="136.5,-56 37.5,-56 37.5,-37 136.5,-37 136.5,-56"/>
<text text-anchor="middle" x="87" y="-44" font-family="Vera Sans, DejaVu Sans, Liberation Sans, Arial, Helvetica, sans" font-size="10.00">ModelEntity</text>
</a>
</g>
</g>
<!-- ModelEntity&#45;&gt;Subprogram -->
<g id="edge4" class="edge">
<title>ModelEntity&#45;&gt;Subprogram</title>
<path fill="none" stroke="black" stroke-width="0.5" d="M136.75,-46.5C157.6,-46.5 181.98,-46.5 203.16,-46.5"/>
<polygon fill="black" stroke="black" stroke-width="0.5" points="203.86,-48.25 208.86,-46.5 203.86,-44.75 203.86,-48.25"/>
</g>
<!-- NamedEntityMixin -->
<g id="node4" class="node">
<title>NamedEntityMixin</title>
<g id="a_node4"><a xlink:href="../pyVHDLModel.Base.html#pyVHDLModel.Base.NamedEntityMixin" xlink:title="A ``NamedEntityMixin`` is a mixin class for all VHDL entities that have identifiers." target="_top">
<polygon fill="white" stroke="#1e90ff" points="155.5,-19 18.5,-19 18.5,0 155.5,0 155.5,-19"/>
<text text-anchor="middle" x="87" y="-7" font-family="Vera Sans, DejaVu Sans, Liberation Sans, Arial, Helvetica, sans" font-size="10.00">NamedEntityMixin</text>
</a>
</g>
</g>
<!-- NamedEntityMixin&#45;&gt;Subprogram -->
<g id="edge5" class="edge">
<title>NamedEntityMixin&#45;&gt;Subprogram</title>
<path fill="none" stroke="black" stroke-width="0.5" d="M133.08,-19.45C146.27,-22.36 160.71,-25.56 174,-28.5 183.78,-30.67 194.23,-32.99 204.26,-35.21"/>
<polygon fill="black" stroke="black" stroke-width="0.5" points="204.44,-37.05 209.7,-36.42 205.2,-33.63 204.44,-37.05"/>
</g>
<!-- Procedure -->
<g id="node5" class="node">
<title>Procedure</title>
<g id="a_node5"><a xlink:href="../pyVHDLModel/pyVHDLModel.Subprogram.html#pyVHDLModel.Subprogram.Procedure" xlink:title="Procedure" target="_top">
<polygon fill="white" stroke="#1e90ff" points="422,-56 338,-56 338,-37 422,-37 422,-56"/>
<text text-anchor="middle" x="380" y="-44" font-family="Vera Sans, DejaVu Sans, Liberation Sans, Arial, Helvetica, sans" font-size="10.00">Procedure</text>
</a>
</g>
</g>
<!-- Procedure&#45;&gt;ProcedureMethod -->
<g id="edge2" class="edge">
<title>Procedure&#45;&gt;ProcedureMethod</title>
<path fill="none" stroke="black" stroke-width="0.5" d="M422.39,-40.9C431.58,-39.66 441.56,-38.31 451.53,-36.96"/>
<polygon fill="black" stroke="black" stroke-width="0.5" points="452.26,-38.63 456.98,-36.22 451.79,-35.16 452.26,-38.63"/>
</g>
<!-- Subprogram&#45;&gt;Procedure -->
<g id="edge1" class="edge">
<title>Subprogram&#45;&gt;Procedure</title>
<path fill="none" stroke="black" stroke-width="0.5" d="M302.43,-46.5C311.79,-46.5 321.67,-46.5 331.11,-46.5"/>
<polygon fill="black" stroke="black" stroke-width="0.5" points="331.81,-48.25 336.81,-46.5 331.81,-44.75 331.81,-48.25"/>
</g>
</g>
</svg>
