<?xml version="1.0" encoding="UTF-8" standalone="no"?>
<!DOCTYPE svg PUBLIC "-//W3C//DTD SVG 1.1//EN"
 "http://www.w3.org/Graphics/SVG/1.1/DTD/svg11.dtd">
<!-- Generated by graphviz version 7.0.5 (20221223.1930)
 -->
<!-- Title: inheritance876a801865 Pages: 1 -->
<svg width="536pt" height="64pt"
 viewBox="0.00 0.00 536.00 64.00" xmlns="http://www.w3.org/2000/svg" xmlns:xlink="http://www.w3.org/1999/xlink">
<g id="graph0" class="graph" transform="scale(1 1) rotate(0) translate(4 60)">
<title>inheritance876a801865</title>
<!-- BranchMixin -->
<g id="node1" class="node">
<title>BranchMixin</title>
<g id="a_node1"><a xlink:href="../pyVHDLModel/pyVHDLModel.Base.html#pyVHDLModel.Base.BranchMixin" xlink:title="A ``BaseBranch`` is a mixin&#45;class for all statements with branches." target="_top">
<polygon fill="white" stroke="#1e90ff" points="118,-56 19,-56 19,-37 118,-37 118,-56"/>
<text text-anchor="middle" x="68.5" y="-44" font-family="Vera Sans, DejaVu Sans, Liberation Sans, Arial, Helvetica, sans" font-size="10.00">BranchMixin</text>
</a>
</g>
</g>
<!-- ConditionalBranchMixin -->
<g id="node2" class="node">
<title>ConditionalBranchMixin</title>
<g id="a_node2"><a xlink:href="../pyVHDLModel/pyVHDLModel.Base.html#pyVHDLModel.Base.ConditionalBranchMixin" xlink:title="A ``BaseBranch`` is a mixin&#45;class for all branch statements with a condition." target="_top">
<polygon fill="white" stroke="#1e90ff" points="355,-37 173,-37 173,-18 355,-18 355,-37"/>
<text text-anchor="middle" x="264" y="-25" font-family="Vera Sans, DejaVu Sans, Liberation Sans, Arial, Helvetica, sans" font-size="10.00">ConditionalBranchMixin</text>
</a>
</g>
</g>
<!-- BranchMixin&#45;&gt;ConditionalBranchMixin -->
<g id="edge1" class="edge">
<title>BranchMixin&#45;&gt;ConditionalBranchMixin</title>
<path fill="none" stroke="black" stroke-width="0.5" d="M118.33,-41.71C133.09,-40.26 149.83,-38.61 166.57,-36.97"/>
<polygon fill="black" stroke="black" stroke-width="0.5" points="167.17,-38.67 171.98,-36.44 166.83,-35.18 167.17,-38.67"/>
</g>
<!-- ElsifBranchMixin -->
<g id="node4" class="node">
<title>ElsifBranchMixin</title>
<g id="a_node4"><a xlink:href="../pyVHDLModel/pyVHDLModel.Base.html#pyVHDLModel.Base.ElsifBranchMixin" xlink:title="A ``BaseElsifBranch`` is a mixin&#45;class for all elsif&#45;branches." target="_top">
<polygon fill="white" stroke="#1e90ff" points="528,-37 391,-37 391,-18 528,-18 528,-37"/>
<text text-anchor="middle" x="459.5" y="-25" font-family="Vera Sans, DejaVu Sans, Liberation Sans, Arial, Helvetica, sans" font-size="10.00">ElsifBranchMixin</text>
</a>
</g>
</g>
<!-- ConditionalBranchMixin&#45;&gt;ElsifBranchMixin -->
<g id="edge3" class="edge">
<title>ConditionalBranchMixin&#45;&gt;ElsifBranchMixin</title>
<path fill="none" stroke="black" stroke-width="0.5" d="M355.24,-27.5C364.92,-27.5 374.7,-27.5 384.17,-27.5"/>
<polygon fill="black" stroke="black" stroke-width="0.5" points="384.91,-29.25 389.91,-27.5 384.91,-25.75 384.91,-29.25"/>
</g>
<!-- ConditionalMixin -->
<g id="node3" class="node">
<title>ConditionalMixin</title>
<g id="a_node3"><a xlink:href="../pyVHDLModel/pyVHDLModel.Base.html#pyVHDLModel.Base.ConditionalMixin" xlink:title="A ``BaseConditional`` is a mixin&#45;class for all statements with a condition." target="_top">
<polygon fill="white" stroke="#1e90ff" points="137,-19 0,-19 0,0 137,0 137,-19"/>
<text text-anchor="middle" x="68.5" y="-7" font-family="Vera Sans, DejaVu Sans, Liberation Sans, Arial, Helvetica, sans" font-size="10.00">ConditionalMixin</text>
</a>
</g>
</g>
<!-- ConditionalMixin&#45;&gt;ConditionalBranchMixin -->
<g id="edge2" class="edge">
<title>ConditionalMixin&#45;&gt;ConditionalBranchMixin</title>
<path fill="none" stroke="black" stroke-width="0.5" d="M137.45,-15.82C146.83,-16.69 156.61,-17.6 166.38,-18.51"/>
<polygon fill="black" stroke="black" stroke-width="0.5" points="166.91,-20.32 172.05,-19.04 167.23,-16.83 166.91,-20.32"/>
</g>
</g>
</svg>
