<?xml version="1.0" encoding="UTF-8" standalone="no"?>
<!DOCTYPE svg PUBLIC "-//W3C//DTD SVG 1.1//EN"
 "http://www.w3.org/Graphics/SVG/1.1/DTD/svg11.dtd">
<!-- Generated by graphviz version 7.0.5 (20221223.1930)
 -->
<!-- Title: inheritance6e993f4efa Pages: 1 -->
<svg width="302pt" height="101pt"
 viewBox="0.00 0.00 302.00 101.00" xmlns="http://www.w3.org/2000/svg" xmlns:xlink="http://www.w3.org/1999/xlink">
<g id="graph0" class="graph" transform="scale(1 1) rotate(0) translate(4 97)">
<title>inheritance6e993f4efa</title>
<!-- Component -->
<g id="node1" class="node">
<title>Component</title>
<g id="a_node1"><a xlink:href="../pyVHDLModel/pyVHDLModel.DesignUnit.html#pyVHDLModel.DesignUnit.Component" xlink:title="Component" target="_top">
<polygon fill="white" stroke="#1e90ff" points="294,-56 210,-56 210,-37 294,-37 294,-56"/>
<text text-anchor="middle" x="252" y="-44" font-family="Vera Sans, DejaVu Sans, Liberation Sans, Arial, Helvetica, sans" font-size="10.00">Component</text>
</a>
</g>
</g>
<!-- ModelEntity -->
<g id="node2" class="node">
<title>ModelEntity</title>
<g id="a_node2"><a xlink:href="../pyVHDLModel.Base.html#pyVHDLModel.Base.ModelEntity" xlink:title="``ModelEntity`` is the base&#45;class for all classes in the VHDL language model, except for mixin classes (see multiple" target="_top">
<polygon fill="white" stroke="#1e90ff" points="136.5,-93 37.5,-93 37.5,-74 136.5,-74 136.5,-93"/>
<text text-anchor="middle" x="87" y="-81" font-family="Vera Sans, DejaVu Sans, Liberation Sans, Arial, Helvetica, sans" font-size="10.00">ModelEntity</text>
</a>
</g>
</g>
<!-- ModelEntity&#45;&gt;Component -->
<g id="edge1" class="edge">
<title>ModelEntity&#45;&gt;Component</title>
<path fill="none" stroke="black" stroke-width="0.5" d="M136.73,-73.62C148.92,-71.06 161.95,-68.25 174,-65.5 184.32,-63.15 195.39,-60.49 205.83,-57.93"/>
<polygon fill="black" stroke="black" stroke-width="0.5" points="206.72,-59.51 211.16,-56.62 205.88,-56.12 206.72,-59.51"/>
</g>
<!-- NamedEntityMixin -->
<g id="node3" class="node">
<title>NamedEntityMixin</title>
<g id="a_node3"><a xlink:href="../pyVHDLModel.Base.html#pyVHDLModel.Base.NamedEntityMixin" xlink:title="A ``NamedEntityMixin`` is a mixin class for all VHDL entities that have identifiers." target="_top">
<polygon fill="white" stroke="#1e90ff" points="155.5,-56 18.5,-56 18.5,-37 155.5,-37 155.5,-56"/>
<text text-anchor="middle" x="87" y="-44" font-family="Vera Sans, DejaVu Sans, Liberation Sans, Arial, Helvetica, sans" font-size="10.00">NamedEntityMixin</text>
</a>
</g>
</g>
<!-- NamedEntityMixin&#45;&gt;Component -->
<g id="edge2" class="edge">
<title>NamedEntityMixin&#45;&gt;Component</title>
<path fill="none" stroke="black" stroke-width="0.5" d="M155.71,-46.5C171.78,-46.5 188.59,-46.5 203.54,-46.5"/>
<polygon fill="black" stroke="black" stroke-width="0.5" points="204.07,-48.25 209.07,-46.5 204.07,-44.75 204.07,-48.25"/>
</g>
<!-- DocumentedEntityMixin -->
<g id="node4" class="node">
<title>DocumentedEntityMixin</title>
<g id="a_node4"><a xlink:href="../pyVHDLModel.Base.html#pyVHDLModel.Base.DocumentedEntityMixin" xlink:title="A ``DocumentedEntityMixin`` is a mixin class for all VHDL entities that can have an associated documentation." target="_top">
<polygon fill="white" stroke="#1e90ff" points="174,-19 0,-19 0,0 174,0 174,-19"/>
<text text-anchor="middle" x="87" y="-7" font-family="Vera Sans, DejaVu Sans, Liberation Sans, Arial, Helvetica, sans" font-size="10.00">DocumentedEntityMixin</text>
</a>
</g>
</g>
<!-- DocumentedEntityMixin&#45;&gt;Component -->
<g id="edge3" class="edge">
<title>DocumentedEntityMixin&#45;&gt;Component</title>
<path fill="none" stroke="black" stroke-width="0.5" d="M133.55,-19.45C146.62,-22.34 160.88,-25.52 174,-28.5 183.55,-30.67 193.77,-33.03 203.52,-35.31"/>
<polygon fill="black" stroke="black" stroke-width="0.5" points="203.86,-37.18 209.12,-36.61 204.65,-33.77 203.86,-37.18"/>
</g>
</g>
</svg>
