<?xml version="1.0" encoding="UTF-8" standalone="no"?>
<!DOCTYPE svg PUBLIC "-//W3C//DTD SVG 1.1//EN"
 "http://www.w3.org/Graphics/SVG/1.1/DTD/svg11.dtd">
<!-- Generated by graphviz version 7.0.5 (20221223.1930)
 -->
<!-- Title: inheritance59338c9b33 Pages: 1 -->
<svg width="576pt" height="76pt"
 viewBox="0.00 0.00 576.00 75.75" xmlns="http://www.w3.org/2000/svg" xmlns:xlink="http://www.w3.org/1999/xlink">
<g id="graph0" class="graph" transform="scale(0.75 0.75) rotate(0) translate(4 97)">
<title>inheritance59338c9b33</title>
<!-- BaseType -->
<g id="node1" class="node">
<title>BaseType</title>
<g id="a_node1"><a xlink:href="../pyVHDLModel.Type.html#pyVHDLModel.Type.BaseType" xlink:title="``BaseType`` is the base&#45;class of all type entities in this model." target="_top">
<polygon fill="white" stroke="#1e90ff" points="305.5,-56 228.5,-56 228.5,-37 305.5,-37 305.5,-56"/>
<text text-anchor="middle" x="267" y="-44" font-family="Vera Sans, DejaVu Sans, Liberation Sans, Arial, Helvetica, sans" font-size="10.00">BaseType</text>
</a>
</g>
</g>
<!-- Type -->
<g id="node8" class="node">
<title>Type</title>
<g id="a_node8"><a xlink:href="../pyVHDLModel.Type.html#pyVHDLModel.Type.Type" xlink:title="Type" target="_top">
<polygon fill="white" stroke="#1e90ff" points="470.5,-56 416.5,-56 416.5,-37 470.5,-37 470.5,-56"/>
<text text-anchor="middle" x="443.5" y="-44" font-family="Vera Sans, DejaVu Sans, Liberation Sans, Arial, Helvetica, sans" font-size="10.00">Type</text>
</a>
</g>
</g>
<!-- BaseType&#45;&gt;Type -->
<g id="edge8" class="edge">
<title>BaseType&#45;&gt;Type</title>
<path fill="none" stroke="black" stroke-width="0.5" d="M305.86,-46.5C336.8,-46.5 380.1,-46.5 409.6,-46.5"/>
<polygon fill="black" stroke="black" stroke-width="0.5" points="410.29,-48.25 415.29,-46.5 410.29,-44.75 410.29,-48.25"/>
</g>
<!-- ModelEntity -->
<g id="node2" class="node">
<title>ModelEntity</title>
<g id="a_node2"><a xlink:href="../pyVHDLModel.Base.html#pyVHDLModel.Base.ModelEntity" xlink:title="``ModelEntity`` is the base&#45;class for all classes in the VHDL language model, except for mixin classes (see multiple" target="_top">
<polygon fill="white" stroke="#1e90ff" points="136.5,-93 37.5,-93 37.5,-74 136.5,-74 136.5,-93"/>
<text text-anchor="middle" x="87" y="-81" font-family="Vera Sans, DejaVu Sans, Liberation Sans, Arial, Helvetica, sans" font-size="10.00">ModelEntity</text>
</a>
</g>
</g>
<!-- ModelEntity&#45;&gt;BaseType -->
<g id="edge1" class="edge">
<title>ModelEntity&#45;&gt;BaseType</title>
<path fill="none" stroke="black" stroke-width="0.5" d="M135.7,-73.58C162.49,-68.02 195.69,-61.11 221.88,-55.67"/>
<polygon fill="black" stroke="black" stroke-width="0.5" points="222.75,-57.28 227.29,-54.55 222.04,-53.85 222.75,-57.28"/>
</g>
<!-- NamedEntityMixin -->
<g id="node3" class="node">
<title>NamedEntityMixin</title>
<g id="a_node3"><a xlink:href="../pyVHDLModel.Base.html#pyVHDLModel.Base.NamedEntityMixin" xlink:title="A ``NamedEntityMixin`` is a mixin class for all VHDL entities that have identifiers." target="_top">
<polygon fill="white" stroke="#1e90ff" points="155.5,-56 18.5,-56 18.5,-37 155.5,-37 155.5,-56"/>
<text text-anchor="middle" x="87" y="-44" font-family="Vera Sans, DejaVu Sans, Liberation Sans, Arial, Helvetica, sans" font-size="10.00">NamedEntityMixin</text>
</a>
</g>
</g>
<!-- NamedEntityMixin&#45;&gt;BaseType -->
<g id="edge2" class="edge">
<title>NamedEntityMixin&#45;&gt;BaseType</title>
<path fill="none" stroke="black" stroke-width="0.5" d="M155.8,-46.5C177.88,-46.5 201.8,-46.5 221.7,-46.5"/>
<polygon fill="black" stroke="black" stroke-width="0.5" points="222.25,-48.25 227.25,-46.5 222.25,-44.75 222.25,-48.25"/>
</g>
<!-- DocumentedEntityMixin -->
<g id="node4" class="node">
<title>DocumentedEntityMixin</title>
<g id="a_node4"><a xlink:href="../pyVHDLModel.Base.html#pyVHDLModel.Base.DocumentedEntityMixin" xlink:title="A ``DocumentedEntityMixin`` is a mixin class for all VHDL entities that can have an associated documentation." target="_top">
<polygon fill="white" stroke="#1e90ff" points="174,-19 0,-19 0,0 174,0 174,-19"/>
<text text-anchor="middle" x="87" y="-7" font-family="Vera Sans, DejaVu Sans, Liberation Sans, Arial, Helvetica, sans" font-size="10.00">DocumentedEntityMixin</text>
</a>
</g>
</g>
<!-- DocumentedEntityMixin&#45;&gt;BaseType -->
<g id="edge3" class="edge">
<title>DocumentedEntityMixin&#45;&gt;BaseType</title>
<path fill="none" stroke="black" stroke-width="0.5" d="M135.7,-19.42C162.49,-24.98 195.69,-31.89 221.88,-37.33"/>
<polygon fill="black" stroke="black" stroke-width="0.5" points="222.04,-39.15 227.29,-38.45 222.75,-35.72 222.04,-39.15"/>
</g>
<!-- InterfaceItem -->
<g id="node6" class="node">
<title>InterfaceItem</title>
<g id="a_node6"><a xlink:href="../pyVHDLModel/pyVHDLModel.Interface.html#pyVHDLModel.Interface.InterfaceItem" xlink:title="An ``InterfaceItem`` is a base&#45;class for all mixin&#45;classes for all interface items." target="_top">
<polygon fill="white" stroke="#1e90ff" points="324,-19 210,-19 210,0 324,0 324,-19"/>
<text text-anchor="middle" x="267" y="-7" font-family="Vera Sans, DejaVu Sans, Liberation Sans, Arial, Helvetica, sans" font-size="10.00">InterfaceItem</text>
</a>
</g>
</g>
<!-- DocumentedEntityMixin&#45;&gt;InterfaceItem -->
<g id="edge7" class="edge">
<title>DocumentedEntityMixin&#45;&gt;InterfaceItem</title>
<path fill="none" stroke="black" stroke-width="0.5" d="M174.39,-9.5C184.18,-9.5 194.01,-9.5 203.41,-9.5"/>
<polygon fill="black" stroke="black" stroke-width="0.5" points="204.08,-11.25 209.08,-9.5 204.08,-7.75 204.08,-11.25"/>
</g>
<!-- GenericInterfaceItem -->
<g id="node5" class="node">
<title>GenericInterfaceItem</title>
<g id="a_node5"><a xlink:href="../pyVHDLModel/pyVHDLModel.Interface.html#pyVHDLModel.Interface.GenericInterfaceItem" xlink:title="A ``GenericInterfaceItem`` is a mixin class for all generic interface items." target="_top">
<polygon fill="white" stroke="#1e90ff" points="527,-19 360,-19 360,0 527,0 527,-19"/>
<text text-anchor="middle" x="443.5" y="-7" font-family="Vera Sans, DejaVu Sans, Liberation Sans, Arial, Helvetica, sans" font-size="10.00">GenericInterfaceItem</text>
</a>
</g>
</g>
<!-- GenericTypeInterfaceItem -->
<g id="node7" class="node">
<title>GenericTypeInterfaceItem</title>
<g id="a_node7"><a xlink:href="../pyVHDLModel/pyVHDLModel.Interface.html#pyVHDLModel.Interface.GenericTypeInterfaceItem" xlink:title="GenericTypeInterfaceItem" target="_top">
<polygon fill="white" stroke="#1e90ff" points="760,-37 563,-37 563,-18 760,-18 760,-37"/>
<text text-anchor="middle" x="661.5" y="-25" font-family="Vera Sans, DejaVu Sans, Liberation Sans, Arial, Helvetica, sans" font-size="10.00">GenericTypeInterfaceItem</text>
</a>
</g>
</g>
<!-- GenericInterfaceItem&#45;&gt;GenericTypeInterfaceItem -->
<g id="edge6" class="edge">
<title>GenericInterfaceItem&#45;&gt;GenericTypeInterfaceItem</title>
<path fill="none" stroke="black" stroke-width="0.5" d="M527.39,-16.41C536.86,-17.2 546.6,-18.01 556.3,-18.82"/>
<polygon fill="black" stroke="black" stroke-width="0.5" points="556.78,-20.61 561.91,-19.28 557.07,-17.12 556.78,-20.61"/>
</g>
<!-- InterfaceItem&#45;&gt;GenericInterfaceItem -->
<g id="edge4" class="edge">
<title>InterfaceItem&#45;&gt;GenericInterfaceItem</title>
<path fill="none" stroke="black" stroke-width="0.5" d="M324.17,-9.5C333.49,-9.5 343.35,-9.5 353.25,-9.5"/>
<polygon fill="black" stroke="black" stroke-width="0.5" points="353.99,-11.25 358.99,-9.5 353.99,-7.75 353.99,-11.25"/>
</g>
<!-- Type&#45;&gt;GenericTypeInterfaceItem -->
<g id="edge5" class="edge">
<title>Type&#45;&gt;GenericTypeInterfaceItem</title>
<path fill="none" stroke="black" stroke-width="0.5" d="M470.99,-44.17C492.64,-42.27 524.74,-39.44 556.39,-36.66"/>
<polygon fill="black" stroke="black" stroke-width="0.5" points="557.13,-38.35 561.96,-36.17 556.82,-34.86 557.13,-38.35"/>
</g>
</g>
</svg>
