<?xml version="1.0" encoding="UTF-8" standalone="no"?>
<!DOCTYPE svg PUBLIC "-//W3C//DTD SVG 1.1//EN"
 "http://www.w3.org/Graphics/SVG/1.1/DTD/svg11.dtd">
<!-- Generated by graphviz version 7.0.5 (20221223.1930)
 -->
<!-- Title: inheritance83b5855a00 Pages: 1 -->
<svg width="576pt" height="127pt"
 viewBox="0.00 0.00 576.00 126.98" xmlns="http://www.w3.org/2000/svg" xmlns:xlink="http://www.w3.org/1999/xlink">
<g id="graph0" class="graph" transform="scale(0.920128 0.920128) rotate(0) translate(4 134)">
<title>inheritance83b5855a00</title>
<!-- BaseCase -->
<g id="node1" class="node">
<title>BaseCase</title>
<g id="a_node1"><a xlink:href="../pyVHDLModel.Base.html#pyVHDLModel.Base.BaseCase" xlink:title="A ``Case`` is a base&#45;class for all cases." target="_top">
<polygon fill="white" stroke="#1e90ff" points="264.5,-19 187.5,-19 187.5,0 264.5,0 264.5,-19"/>
<text text-anchor="middle" x="226" y="-7" font-family="Vera Sans, DejaVu Sans, Liberation Sans, Arial, Helvetica, sans" font-size="10.00">BaseCase</text>
</a>
</g>
</g>
<!-- ConcurrentCase -->
<g id="node3" class="node">
<title>ConcurrentCase</title>
<g id="a_node3"><a xlink:href="../pyVHDLModel/pyVHDLModel.Concurrent.html#pyVHDLModel.Concurrent.ConcurrentCase" xlink:title="ConcurrentCase" target="_top">
<polygon fill="white" stroke="#1e90ff" points="475,-74 353,-74 353,-55 475,-55 475,-74"/>
<text text-anchor="middle" x="414" y="-62" font-family="Vera Sans, DejaVu Sans, Liberation Sans, Arial, Helvetica, sans" font-size="10.00">ConcurrentCase</text>
</a>
</g>
</g>
<!-- BaseCase&#45;&gt;ConcurrentCase -->
<g id="edge2" class="edge">
<title>BaseCase&#45;&gt;ConcurrentCase</title>
<path fill="none" stroke="black" stroke-width="0.5" d="M264.97,-16.2C281.15,-19.39 300.13,-23.59 317,-28.5 339.92,-35.18 365.18,-44.74 384.03,-52.33"/>
<polygon fill="black" stroke="black" stroke-width="0.5" points="383.67,-54.07 388.96,-54.33 384.99,-50.83 383.67,-54.07"/>
</g>
<!-- ModelEntity -->
<g id="node2" class="node">
<title>ModelEntity</title>
<g id="a_node2"><a xlink:href="../pyVHDLModel.Base.html#pyVHDLModel.Base.ModelEntity" xlink:title="``ModelEntity`` is the base&#45;class for all classes in the VHDL language model, except for mixin classes (see multiple" target="_top">
<polygon fill="white" stroke="#1e90ff" points="99,-19 0,-19 0,0 99,0 99,-19"/>
<text text-anchor="middle" x="49.5" y="-7" font-family="Vera Sans, DejaVu Sans, Liberation Sans, Arial, Helvetica, sans" font-size="10.00">ModelEntity</text>
</a>
</g>
</g>
<!-- ModelEntity&#45;&gt;BaseCase -->
<g id="edge1" class="edge">
<title>ModelEntity&#45;&gt;BaseCase</title>
<path fill="none" stroke="black" stroke-width="0.5" d="M99.11,-9.5C124.77,-9.5 156.01,-9.5 180.96,-9.5"/>
<polygon fill="black" stroke="black" stroke-width="0.5" points="181.4,-11.25 186.4,-9.5 181.4,-7.75 181.4,-11.25"/>
</g>
<!-- GenerateCase -->
<g id="node7" class="node">
<title>GenerateCase</title>
<g id="a_node7"><a xlink:href="../pyVHDLModel/pyVHDLModel.Concurrent.html#pyVHDLModel.Concurrent.GenerateCase" xlink:title="GenerateCase" target="_top">
<polygon fill="white" stroke="#1e90ff" points="618,-74 511,-74 511,-55 618,-55 618,-74"/>
<text text-anchor="middle" x="564.5" y="-62" font-family="Vera Sans, DejaVu Sans, Liberation Sans, Arial, Helvetica, sans" font-size="10.00">GenerateCase</text>
</a>
</g>
</g>
<!-- ConcurrentCase&#45;&gt;GenerateCase -->
<g id="edge6" class="edge">
<title>ConcurrentCase&#45;&gt;GenerateCase</title>
<path fill="none" stroke="black" stroke-width="0.5" d="M475.4,-64.5C484.93,-64.5 494.77,-64.5 504.27,-64.5"/>
<polygon fill="black" stroke="black" stroke-width="0.5" points="505.02,-66.25 510.02,-64.5 505.02,-62.75 505.02,-66.25"/>
</g>
<!-- LabeledEntityMixin -->
<g id="node4" class="node">
<title>LabeledEntityMixin</title>
<g id="a_node4"><a xlink:href="../pyVHDLModel.Base.html#pyVHDLModel.Base.LabeledEntityMixin" xlink:title="A ``LabeledEntityMixin`` is a mixin class for all VHDL entities that can have labels." target="_top">
<polygon fill="white" stroke="#1e90ff" points="302,-130 150,-130 150,-111 302,-111 302,-130"/>
<text text-anchor="middle" x="226" y="-118" font-family="Vera Sans, DejaVu Sans, Liberation Sans, Arial, Helvetica, sans" font-size="10.00">LabeledEntityMixin</text>
</a>
</g>
</g>
<!-- LabeledEntityMixin&#45;&gt;ConcurrentCase -->
<g id="edge3" class="edge">
<title>LabeledEntityMixin&#45;&gt;ConcurrentCase</title>
<path fill="none" stroke="black" stroke-width="0.5" d="M284.51,-110.6C295.39,-108.28 306.61,-105.57 317,-102.5 340.68,-95.51 366.67,-85.04 385.63,-76.86"/>
<polygon fill="black" stroke="black" stroke-width="0.5" points="386.7,-78.3 390.59,-74.7 385.3,-75.09 386.7,-78.3"/>
</g>
<!-- ConcurrentDeclarations -->
<g id="node5" class="node">
<title>ConcurrentDeclarations</title>
<g id="a_node5"><a xlink:href="../pyVHDLModel/pyVHDLModel.Concurrent.html#pyVHDLModel.Concurrent.ConcurrentDeclarations" xlink:title="ConcurrentDeclarations" target="_top">
<polygon fill="white" stroke="#1e90ff" points="317,-93 135,-93 135,-74 317,-74 317,-93"/>
<text text-anchor="middle" x="226" y="-81" font-family="Vera Sans, DejaVu Sans, Liberation Sans, Arial, Helvetica, sans" font-size="10.00">ConcurrentDeclarations</text>
</a>
</g>
</g>
<!-- ConcurrentDeclarations&#45;&gt;ConcurrentCase -->
<g id="edge4" class="edge">
<title>ConcurrentDeclarations&#45;&gt;ConcurrentCase</title>
<path fill="none" stroke="black" stroke-width="0.5" d="M317.28,-74.28C327.05,-73.28 336.87,-72.28 346.29,-71.31"/>
<polygon fill="black" stroke="black" stroke-width="0.5" points="347.2,-72.98 352,-70.73 346.84,-69.5 347.2,-72.98"/>
</g>
<!-- ConcurrentStatements -->
<g id="node6" class="node">
<title>ConcurrentStatements</title>
<g id="a_node6"><a xlink:href="../pyVHDLModel/pyVHDLModel.Concurrent.html#pyVHDLModel.Concurrent.ConcurrentStatements" xlink:title="ConcurrentStatements" target="_top">
<polygon fill="white" stroke="#1e90ff" points="309.5,-56 142.5,-56 142.5,-37 309.5,-37 309.5,-56"/>
<text text-anchor="middle" x="226" y="-44" font-family="Vera Sans, DejaVu Sans, Liberation Sans, Arial, Helvetica, sans" font-size="10.00">ConcurrentStatements</text>
</a>
</g>
</g>
<!-- ConcurrentStatements&#45;&gt;ConcurrentCase -->
<g id="edge5" class="edge">
<title>ConcurrentStatements&#45;&gt;ConcurrentCase</title>
<path fill="none" stroke="black" stroke-width="0.5" d="M309.94,-54.53C322.03,-55.7 334.36,-56.89 346.09,-58.02"/>
<polygon fill="black" stroke="black" stroke-width="0.5" points="346.63,-59.84 351.78,-58.58 346.97,-56.35 346.63,-59.84"/>
</g>
</g>
</svg>
