<?xml version="1.0" encoding="UTF-8" standalone="no"?>
<!DOCTYPE svg PUBLIC "-//W3C//DTD SVG 1.1//EN"
 "http://www.w3.org/Graphics/SVG/1.1/DTD/svg11.dtd">
<!-- Generated by graphviz version 7.0.5 (20221223.1930)
 -->
<!-- Title: inheritancef54fc9c793 Pages: 1 -->
<svg width="576pt" height="60pt"
 viewBox="0.00 0.00 576.00 60.43" xmlns="http://www.w3.org/2000/svg" xmlns:xlink="http://www.w3.org/1999/xlink">
<g id="graph0" class="graph" transform="scale(0.944262 0.944262) rotate(0) translate(4 60)">
<title>inheritancef54fc9c793</title>
<!-- ModelEntity -->
<g id="node1" class="node">
<title>ModelEntity</title>
<g id="a_node1"><a xlink:href="../pyVHDLModel.Base.html#pyVHDLModel.Base.ModelEntity" xlink:title="``ModelEntity`` is the base&#45;class for all classes in the VHDL language model, except for mixin classes (see multiple" target="_top">
<polygon fill="white" stroke="#1e90ff" points="99,-56 0,-56 0,-37 99,-37 99,-56"/>
<text text-anchor="middle" x="49.5" y="-44" font-family="Vera Sans, DejaVu Sans, Liberation Sans, Arial, Helvetica, sans" font-size="10.00">ModelEntity</text>
</a>
</g>
</g>
<!-- Name -->
<g id="node2" class="node">
<title>Name</title>
<g id="a_node2"><a xlink:href="../pyVHDLModel.Name.html#pyVHDLModel.Name.Name" xlink:title="``Name`` is the base&#45;class for all *names* in the VHDL language model." target="_top">
<polygon fill="white" stroke="#1e90ff" points="189,-56 135,-56 135,-37 189,-37 189,-56"/>
<text text-anchor="middle" x="162" y="-44" font-family="Vera Sans, DejaVu Sans, Liberation Sans, Arial, Helvetica, sans" font-size="10.00">Name</text>
</a>
</g>
</g>
<!-- ModelEntity&#45;&gt;Name -->
<g id="edge1" class="edge">
<title>ModelEntity&#45;&gt;Name</title>
<path fill="none" stroke="black" stroke-width="0.5" d="M99.29,-46.5C109.06,-46.5 119.1,-46.5 128.17,-46.5"/>
<polygon fill="black" stroke="black" stroke-width="0.5" points="128.83,-48.25 133.83,-46.5 128.83,-44.75 128.83,-48.25"/>
</g>
<!-- SelectedName -->
<g id="node4" class="node">
<title>SelectedName</title>
<g id="a_node4"><a xlink:href="../pyVHDLModel.Name.html#pyVHDLModel.Name.SelectedName" xlink:title="A *selected name* is a name made from multiple words separated by a dot (``.``)." target="_top">
<polygon fill="white" stroke="#1e90ff" points="332,-56 225,-56 225,-37 332,-37 332,-56"/>
<text text-anchor="middle" x="278.5" y="-44" font-family="Vera Sans, DejaVu Sans, Liberation Sans, Arial, Helvetica, sans" font-size="10.00">SelectedName</text>
</a>
</g>
</g>
<!-- Name&#45;&gt;SelectedName -->
<g id="edge4" class="edge">
<title>Name&#45;&gt;SelectedName</title>
<path fill="none" stroke="black" stroke-width="0.5" d="M189.27,-46.5C198.02,-46.5 208.15,-46.5 218.36,-46.5"/>
<polygon fill="black" stroke="black" stroke-width="0.5" points="218.95,-48.25 223.95,-46.5 218.95,-44.75 218.95,-48.25"/>
</g>
<!-- PackageMembersReferenceSymbol -->
<g id="node3" class="node">
<title>PackageMembersReferenceSymbol</title>
<g id="a_node3"><a xlink:href="../pyVHDLModel/pyVHDLModel.Symbol.html#pyVHDLModel.Symbol.PackageMembersReferenceSymbol" xlink:title="A package member reference in a use clause." target="_top">
<polygon fill="white" stroke="#1e90ff" points="602,-37 368,-37 368,-18 602,-18 602,-37"/>
<text text-anchor="middle" x="485" y="-25" font-family="Vera Sans, DejaVu Sans, Liberation Sans, Arial, Helvetica, sans" font-size="10.00">PackageMembersReferenceSymbol</text>
</a>
</g>
</g>
<!-- SelectedName&#45;&gt;PackageMembersReferenceSymbol -->
<g id="edge2" class="edge">
<title>SelectedName&#45;&gt;PackageMembersReferenceSymbol</title>
<path fill="none" stroke="black" stroke-width="0.5" d="M332.43,-41.58C344.13,-40.5 356.95,-39.3 370.04,-38.09"/>
<polygon fill="black" stroke="black" stroke-width="0.5" points="370.91,-39.76 375.73,-37.56 370.59,-36.28 370.91,-39.76"/>
</g>
<!-- Symbol -->
<g id="node5" class="node">
<title>Symbol</title>
<g id="a_node5"><a xlink:href="../pyVHDLModel/pyVHDLModel.Symbol.html#pyVHDLModel.Symbol.Symbol" xlink:title="Symbol" target="_top">
<polygon fill="white" stroke="#1e90ff" points="309.5,-19 247.5,-19 247.5,0 309.5,0 309.5,-19"/>
<text text-anchor="middle" x="278.5" y="-7" font-family="Vera Sans, DejaVu Sans, Liberation Sans, Arial, Helvetica, sans" font-size="10.00">Symbol</text>
</a>
</g>
</g>
<!-- Symbol&#45;&gt;PackageMembersReferenceSymbol -->
<g id="edge3" class="edge">
<title>Symbol&#45;&gt;PackageMembersReferenceSymbol</title>
<path fill="none" stroke="black" stroke-width="0.5" d="M309.67,-12.16C324.78,-13.49 344.15,-15.19 364.46,-16.98"/>
<polygon fill="black" stroke="black" stroke-width="0.5" points="364.9,-18.77 370.03,-17.47 365.21,-15.29 364.9,-18.77"/>
</g>
</g>
</svg>
