<?xml version="1.0" encoding="UTF-8" standalone="no"?>
<!DOCTYPE svg PUBLIC "-//W3C//DTD SVG 1.1//EN"
 "http://www.w3.org/Graphics/SVG/1.1/DTD/svg11.dtd">
<!-- Generated by graphviz version 7.0.5 (20221223.1930)
 -->
<!-- Title: inheritancee2073c03f5 Pages: 1 -->
<svg width="558pt" height="64pt"
 viewBox="0.00 0.00 558.00 64.00" xmlns="http://www.w3.org/2000/svg" xmlns:xlink="http://www.w3.org/1999/xlink">
<g id="graph0" class="graph" transform="scale(1 1) rotate(0) translate(4 60)">
<title>inheritancee2073c03f5</title>
<!-- ContextReferenceSymbol -->
<g id="node1" class="node">
<title>ContextReferenceSymbol</title>
<g id="a_node1"><a xlink:href="../pyVHDLModel/pyVHDLModel.Symbol.html#pyVHDLModel.Symbol.ContextReferenceSymbol" xlink:title="A context reference in a context clause." target="_top">
<polygon fill="white" stroke="#1e90ff" points="550,-37 368,-37 368,-18 550,-18 550,-37"/>
<text text-anchor="middle" x="459" y="-25" font-family="Vera Sans, DejaVu Sans, Liberation Sans, Arial, Helvetica, sans" font-size="10.00">ContextReferenceSymbol</text>
</a>
</g>
</g>
<!-- SelectedName -->
<g id="node2" class="node">
<title>SelectedName</title>
<g id="a_node2"><a xlink:href="../pyVHDLModel.Name.html#pyVHDLModel.Name.SelectedName" xlink:title="A *selected name* is a name made from multiple words separated by a dot (``.``)." target="_top">
<polygon fill="white" stroke="#1e90ff" points="332,-56 225,-56 225,-37 332,-37 332,-56"/>
<text text-anchor="middle" x="278.5" y="-44" font-family="Vera Sans, DejaVu Sans, Liberation Sans, Arial, Helvetica, sans" font-size="10.00">SelectedName</text>
</a>
</g>
</g>
<!-- SelectedName&#45;&gt;ContextReferenceSymbol -->
<g id="edge1" class="edge">
<title>SelectedName&#45;&gt;ContextReferenceSymbol</title>
<path fill="none" stroke="black" stroke-width="0.5" d="M332.09,-40.9C341.37,-39.91 351.3,-38.86 361.35,-37.79"/>
<polygon fill="black" stroke="black" stroke-width="0.5" points="362.08,-39.47 366.86,-37.2 361.7,-35.99 362.08,-39.47"/>
</g>
<!-- Symbol -->
<g id="node3" class="node">
<title>Symbol</title>
<g id="a_node3"><a xlink:href="../pyVHDLModel/pyVHDLModel.Symbol.html#pyVHDLModel.Symbol.Symbol" xlink:title="Symbol" target="_top">
<polygon fill="white" stroke="#1e90ff" points="309.5,-19 247.5,-19 247.5,0 309.5,0 309.5,-19"/>
<text text-anchor="middle" x="278.5" y="-7" font-family="Vera Sans, DejaVu Sans, Liberation Sans, Arial, Helvetica, sans" font-size="10.00">Symbol</text>
</a>
</g>
</g>
<!-- Symbol&#45;&gt;ContextReferenceSymbol -->
<g id="edge2" class="edge">
<title>Symbol&#45;&gt;ContextReferenceSymbol</title>
<path fill="none" stroke="black" stroke-width="0.5" d="M309.78,-12.55C324.35,-14.02 342.71,-15.87 361.5,-17.77"/>
<polygon fill="black" stroke="black" stroke-width="0.5" points="361.98,-19.58 367.13,-18.34 362.33,-16.09 361.98,-19.58"/>
</g>
<!-- ModelEntity -->
<g id="node4" class="node">
<title>ModelEntity</title>
<g id="a_node4"><a xlink:href="../pyVHDLModel.Base.html#pyVHDLModel.Base.ModelEntity" xlink:title="``ModelEntity`` is the base&#45;class for all classes in the VHDL language model, except for mixin classes (see multiple" target="_top">
<polygon fill="white" stroke="#1e90ff" points="99,-56 0,-56 0,-37 99,-37 99,-56"/>
<text text-anchor="middle" x="49.5" y="-44" font-family="Vera Sans, DejaVu Sans, Liberation Sans, Arial, Helvetica, sans" font-size="10.00">ModelEntity</text>
</a>
</g>
</g>
<!-- Name -->
<g id="node5" class="node">
<title>Name</title>
<g id="a_node5"><a xlink:href="../pyVHDLModel.Name.html#pyVHDLModel.Name.Name" xlink:title="``Name`` is the base&#45;class for all *names* in the VHDL language model." target="_top">
<polygon fill="white" stroke="#1e90ff" points="189,-56 135,-56 135,-37 189,-37 189,-56"/>
<text text-anchor="middle" x="162" y="-44" font-family="Vera Sans, DejaVu Sans, Liberation Sans, Arial, Helvetica, sans" font-size="10.00">Name</text>
</a>
</g>
</g>
<!-- ModelEntity&#45;&gt;Name -->
<g id="edge3" class="edge">
<title>ModelEntity&#45;&gt;Name</title>
<path fill="none" stroke="black" stroke-width="0.5" d="M99.29,-46.5C109.06,-46.5 119.1,-46.5 128.17,-46.5"/>
<polygon fill="black" stroke="black" stroke-width="0.5" points="128.83,-48.25 133.83,-46.5 128.83,-44.75 128.83,-48.25"/>
</g>
<!-- Name&#45;&gt;SelectedName -->
<g id="edge4" class="edge">
<title>Name&#45;&gt;SelectedName</title>
<path fill="none" stroke="black" stroke-width="0.5" d="M189.27,-46.5C198.02,-46.5 208.15,-46.5 218.36,-46.5"/>
<polygon fill="black" stroke="black" stroke-width="0.5" points="218.95,-48.25 223.95,-46.5 218.95,-44.75 218.95,-48.25"/>
</g>
</g>
</svg>
