<?xml version="1.0" encoding="UTF-8" standalone="no"?>
<!DOCTYPE svg PUBLIC "-//W3C//DTD SVG 1.1//EN"
 "http://www.w3.org/Graphics/SVG/1.1/DTD/svg11.dtd">
<!-- Generated by graphviz version 7.0.5 (20221223.1930)
 -->
<!-- Title: inheritance8fa4d3ddc2 Pages: 1 -->
<svg width="576pt" height="55pt"
 viewBox="0.00 0.00 576.00 55.44" xmlns="http://www.w3.org/2000/svg" xmlns:xlink="http://www.w3.org/1999/xlink">
<g id="graph0" class="graph" transform="scale(0.554379 0.554379) rotate(0) translate(4 96)">
<title>inheritance8fa4d3ddc2</title>
<!-- CompoundStatement -->
<g id="node1" class="node">
<title>CompoundStatement</title>
<g id="a_node1"><a xlink:href="../pyVHDLModel/pyVHDLModel.Sequential.html#pyVHDLModel.Sequential.CompoundStatement" xlink:title="A ``CompoundStatement`` is a base&#45;class for all compound statements." target="_top">
<polygon fill="white" stroke="#1e90ff" points="658.5,-37 514.5,-37 514.5,-18 658.5,-18 658.5,-37"/>
<text text-anchor="middle" x="586.5" y="-25" font-family="Vera Sans, DejaVu Sans, Liberation Sans, Arial, Helvetica, sans" font-size="10.00">CompoundStatement</text>
</a>
</g>
</g>
<!-- LoopStatement -->
<g id="node5" class="node">
<title>LoopStatement</title>
<g id="a_node5"><a xlink:href="../pyVHDLModel/pyVHDLModel.Sequential.html#pyVHDLModel.Sequential.LoopStatement" xlink:title="A ``LoopStatement`` is a base&#45;class for all loop statements." target="_top">
<polygon fill="white" stroke="#1e90ff" points="831.5,-55 717.5,-55 717.5,-36 831.5,-36 831.5,-55"/>
<text text-anchor="middle" x="774.5" y="-43" font-family="Vera Sans, DejaVu Sans, Liberation Sans, Arial, Helvetica, sans" font-size="10.00">LoopStatement</text>
</a>
</g>
</g>
<!-- CompoundStatement&#45;&gt;LoopStatement -->
<g id="edge2" class="edge">
<title>CompoundStatement&#45;&gt;LoopStatement</title>
<path fill="none" stroke="black" stroke-width="0.5" d="M658.88,-34.41C676.03,-36.07 694.23,-37.83 710.94,-39.45"/>
<polygon fill="black" stroke="black" stroke-width="0.5" points="711.13,-41.22 716.28,-39.96 711.47,-37.74 711.13,-41.22"/>
</g>
<!-- SequentialStatement -->
<g id="node2" class="node">
<title>SequentialStatement</title>
<g id="a_node2"><a xlink:href="../pyVHDLModel/pyVHDLModel.Sequential.html#pyVHDLModel.Sequential.SequentialStatement" xlink:title="A ``SequentialStatement`` is a base&#45;class for all sequential statements." target="_top">
<polygon fill="white" stroke="#1e90ff" points="467,-37 308,-37 308,-18 467,-18 467,-37"/>
<text text-anchor="middle" x="387.5" y="-25" font-family="Vera Sans, DejaVu Sans, Liberation Sans, Arial, Helvetica, sans" font-size="10.00">SequentialStatement</text>
</a>
</g>
</g>
<!-- SequentialStatement&#45;&gt;CompoundStatement -->
<g id="edge1" class="edge">
<title>SequentialStatement&#45;&gt;CompoundStatement</title>
<path fill="none" stroke="black" stroke-width="0.5" d="M467.49,-27.5C480.74,-27.5 494.48,-27.5 507.69,-27.5"/>
<polygon fill="black" stroke="black" stroke-width="0.5" points="508.38,-29.25 513.38,-27.5 508.38,-25.75 508.38,-29.25"/>
</g>
<!-- ConditionalMixin -->
<g id="node3" class="node">
<title>ConditionalMixin</title>
<g id="a_node3"><a xlink:href="../pyVHDLModel.Base.html#pyVHDLModel.Base.ConditionalMixin" xlink:title="A ``BaseConditional`` is a mixin&#45;class for all statements with a condition." target="_top">
<polygon fill="white" stroke="#1e90ff" points="843,-92 706,-92 706,-73 843,-73 843,-92"/>
<text text-anchor="middle" x="774.5" y="-80" font-family="Vera Sans, DejaVu Sans, Liberation Sans, Arial, Helvetica, sans" font-size="10.00">ConditionalMixin</text>
</a>
</g>
</g>
<!-- WhileLoopStatement -->
<g id="node9" class="node">
<title>WhileLoopStatement</title>
<g id="a_node9"><a xlink:href="../pyVHDLModel/pyVHDLModel.Sequential.html#pyVHDLModel.Sequential.WhileLoopStatement" xlink:title="WhileLoopStatement" target="_top">
<polygon fill="white" stroke="#1e90ff" points="1031,-73 879,-73 879,-54 1031,-54 1031,-73"/>
<text text-anchor="middle" x="955" y="-61" font-family="Vera Sans, DejaVu Sans, Liberation Sans, Arial, Helvetica, sans" font-size="10.00">WhileLoopStatement</text>
</a>
</g>
</g>
<!-- ConditionalMixin&#45;&gt;WhileLoopStatement -->
<g id="edge8" class="edge">
<title>ConditionalMixin&#45;&gt;WhileLoopStatement</title>
<path fill="none" stroke="black" stroke-width="0.5" d="M843.49,-75.26C852.95,-74.26 862.74,-73.21 872.42,-72.18"/>
<polygon fill="black" stroke="black" stroke-width="0.5" points="873.21,-73.86 878,-71.59 872.84,-70.38 873.21,-73.86"/>
</g>
<!-- LabeledEntityMixin -->
<g id="node4" class="node">
<title>LabeledEntityMixin</title>
<g id="a_node4"><a xlink:href="../pyVHDLModel.Base.html#pyVHDLModel.Base.LabeledEntityMixin" xlink:title="A ``LabeledEntityMixin`` is a mixin class for all VHDL entities that can have labels." target="_top">
<polygon fill="white" stroke="#1e90ff" points="152,-56 0,-56 0,-37 152,-37 152,-56"/>
<text text-anchor="middle" x="76" y="-44" font-family="Vera Sans, DejaVu Sans, Liberation Sans, Arial, Helvetica, sans" font-size="10.00">LabeledEntityMixin</text>
</a>
</g>
</g>
<!-- Statement -->
<g id="node8" class="node">
<title>Statement</title>
<g id="a_node8"><a xlink:href="../pyVHDLModel.Common.html#pyVHDLModel.Common.Statement" xlink:title="A ``Statement`` is a base&#45;class for all statements." target="_top">
<polygon fill="white" stroke="#1e90ff" points="272,-37 188,-37 188,-18 272,-18 272,-37"/>
<text text-anchor="middle" x="230" y="-25" font-family="Vera Sans, DejaVu Sans, Liberation Sans, Arial, Helvetica, sans" font-size="10.00">Statement</text>
</a>
</g>
</g>
<!-- LabeledEntityMixin&#45;&gt;Statement -->
<g id="edge6" class="edge">
<title>LabeledEntityMixin&#45;&gt;Statement</title>
<path fill="none" stroke="black" stroke-width="0.5" d="M152.11,-37.11C162.08,-35.87 172.06,-34.62 181.38,-33.45"/>
<polygon fill="black" stroke="black" stroke-width="0.5" points="182.23,-35.11 186.97,-32.75 181.79,-31.64 182.23,-35.11"/>
</g>
<!-- LoopStatement&#45;&gt;WhileLoopStatement -->
<g id="edge7" class="edge">
<title>LoopStatement&#45;&gt;WhileLoopStatement</title>
<path fill="none" stroke="black" stroke-width="0.5" d="M831.98,-51.2C844.82,-52.49 858.72,-53.89 872.37,-55.27"/>
<polygon fill="black" stroke="black" stroke-width="0.5" points="872.72,-57.06 877.87,-55.82 873.07,-53.58 872.72,-57.06"/>
</g>
<!-- SequentialStatements -->
<g id="node6" class="node">
<title>SequentialStatements</title>
<g id="a_node6"><a xlink:href="../pyVHDLModel/pyVHDLModel.Sequential.html#pyVHDLModel.Sequential.SequentialStatements" xlink:title="SequentialStatements" target="_top">
<polygon fill="white" stroke="#1e90ff" points="670,-74 503,-74 503,-55 670,-55 670,-74"/>
<text text-anchor="middle" x="586.5" y="-62" font-family="Vera Sans, DejaVu Sans, Liberation Sans, Arial, Helvetica, sans" font-size="10.00">SequentialStatements</text>
</a>
</g>
</g>
<!-- SequentialStatements&#45;&gt;LoopStatement -->
<g id="edge3" class="edge">
<title>SequentialStatements&#45;&gt;LoopStatement</title>
<path fill="none" stroke="black" stroke-width="0.5" d="M670.44,-56.03C684.01,-54.64 697.87,-53.23 710.84,-51.9"/>
<polygon fill="black" stroke="black" stroke-width="0.5" points="711.58,-53.58 716.38,-51.33 711.23,-50.1 711.58,-53.58"/>
</g>
<!-- ModelEntity -->
<g id="node7" class="node">
<title>ModelEntity</title>
<g id="a_node7"><a xlink:href="../pyVHDLModel.Base.html#pyVHDLModel.Base.ModelEntity" xlink:title="``ModelEntity`` is the base&#45;class for all classes in the VHDL language model, except for mixin classes (see multiple" target="_top">
<polygon fill="white" stroke="#1e90ff" points="125.5,-19 26.5,-19 26.5,0 125.5,0 125.5,-19"/>
<text text-anchor="middle" x="76" y="-7" font-family="Vera Sans, DejaVu Sans, Liberation Sans, Arial, Helvetica, sans" font-size="10.00">ModelEntity</text>
</a>
</g>
</g>
<!-- ModelEntity&#45;&gt;Statement -->
<g id="edge5" class="edge">
<title>ModelEntity&#45;&gt;Statement</title>
<path fill="none" stroke="black" stroke-width="0.5" d="M125.93,-15.29C143.71,-17.4 163.76,-19.77 181.42,-21.87"/>
<polygon fill="black" stroke="black" stroke-width="0.5" points="181.88,-23.68 187.06,-22.53 182.3,-20.21 181.88,-23.68"/>
</g>
<!-- Statement&#45;&gt;SequentialStatement -->
<g id="edge4" class="edge">
<title>Statement&#45;&gt;SequentialStatement</title>
<path fill="none" stroke="black" stroke-width="0.5" d="M272.26,-27.5C281.35,-27.5 291.3,-27.5 301.42,-27.5"/>
<polygon fill="black" stroke="black" stroke-width="0.5" points="301.98,-29.25 306.98,-27.5 301.98,-25.75 301.98,-29.25"/>
</g>
</g>
</svg>
