<?xml version="1.0" encoding="UTF-8" standalone="no"?>
<!DOCTYPE svg PUBLIC "-//W3C//DTD SVG 1.1//EN"
 "http://www.w3.org/Graphics/SVG/1.1/DTD/svg11.dtd">
<!-- Generated by graphviz version 7.0.5 (20221223.1930)
 -->
<!-- Title: inheritancecb7222d1ad Pages: 1 -->
<svg width="498pt" height="27pt"
 viewBox="0.00 0.00 498.00 27.00" xmlns="http://www.w3.org/2000/svg" xmlns:xlink="http://www.w3.org/1999/xlink">
<g id="graph0" class="graph" transform="scale(1 1) rotate(0) translate(4 23)">
<title>inheritancecb7222d1ad</title>
<!-- AggregateElement -->
<g id="node1" class="node">
<title>AggregateElement</title>
<g id="a_node1"><a xlink:href="../pyVHDLModel/pyVHDLModel.Expression.html#pyVHDLModel.Expression.AggregateElement" xlink:title="A ``AggregateElement`` is a base&#45;class for all aggregate elements." target="_top">
<polygon fill="white" stroke="#1e90ff" points="272,-19 135,-19 135,0 272,0 272,-19"/>
<text text-anchor="middle" x="203.5" y="-7" font-family="Vera Sans, DejaVu Sans, Liberation Sans, Arial, Helvetica, sans" font-size="10.00">AggregateElement</text>
</a>
</g>
</g>
<!-- SimpleAggregateElement -->
<g id="node3" class="node">
<title>SimpleAggregateElement</title>
<g id="a_node3"><a xlink:href="../pyVHDLModel/pyVHDLModel.Expression.html#pyVHDLModel.Expression.SimpleAggregateElement" xlink:title="SimpleAggregateElement" target="_top">
<polygon fill="white" stroke="#1e90ff" points="490,-19 308,-19 308,0 490,0 490,-19"/>
<text text-anchor="middle" x="399" y="-7" font-family="Vera Sans, DejaVu Sans, Liberation Sans, Arial, Helvetica, sans" font-size="10.00">SimpleAggregateElement</text>
</a>
</g>
</g>
<!-- AggregateElement&#45;&gt;SimpleAggregateElement -->
<g id="edge2" class="edge">
<title>AggregateElement&#45;&gt;SimpleAggregateElement</title>
<path fill="none" stroke="black" stroke-width="0.5" d="M272.45,-9.5C281.83,-9.5 291.61,-9.5 301.38,-9.5"/>
<polygon fill="black" stroke="black" stroke-width="0.5" points="302.04,-11.25 307.04,-9.5 302.04,-7.75 302.04,-11.25"/>
</g>
<!-- ModelEntity -->
<g id="node2" class="node">
<title>ModelEntity</title>
<g id="a_node2"><a xlink:href="../pyVHDLModel.Base.html#pyVHDLModel.Base.ModelEntity" xlink:title="``ModelEntity`` is the base&#45;class for all classes in the VHDL language model, except for mixin classes (see multiple" target="_top">
<polygon fill="white" stroke="#1e90ff" points="99,-19 0,-19 0,0 99,0 99,-19"/>
<text text-anchor="middle" x="49.5" y="-7" font-family="Vera Sans, DejaVu Sans, Liberation Sans, Arial, Helvetica, sans" font-size="10.00">ModelEntity</text>
</a>
</g>
</g>
<!-- ModelEntity&#45;&gt;AggregateElement -->
<g id="edge1" class="edge">
<title>ModelEntity&#45;&gt;AggregateElement</title>
<path fill="none" stroke="black" stroke-width="0.5" d="M99.43,-9.5C108.61,-9.5 118.4,-9.5 128.16,-9.5"/>
<polygon fill="black" stroke="black" stroke-width="0.5" points="128.8,-11.25 133.8,-9.5 128.8,-7.75 128.8,-11.25"/>
</g>
</g>
</svg>
