<?xml version="1.0" encoding="UTF-8" standalone="no"?>
<!DOCTYPE svg PUBLIC "-//W3C//DTD SVG 1.1//EN"
 "http://www.w3.org/Graphics/SVG/1.1/DTD/svg11.dtd">
<!-- Generated by graphviz version 7.0.5 (20221223.1930)
 -->
<!-- Title: inheritance9aa24fd915 Pages: 1 -->
<svg width="576pt" height="109pt"
 viewBox="0.00 0.00 576.00 109.50" xmlns="http://www.w3.org/2000/svg" xmlns:xlink="http://www.w3.org/1999/xlink">
<g id="graph0" class="graph" transform="scale(0.920128 0.920128) rotate(0) translate(4 115)">
<title>inheritance9aa24fd915</title>
<!-- Branch -->
<g id="node1" class="node">
<title>Branch</title>
<g id="a_node1"><a xlink:href="../pyVHDLModel/pyVHDLModel.Sequential.html#pyVHDLModel.Sequential.Branch" xlink:title="A ``Branch`` is a base&#45;class for all branches in a if statement." target="_top">
<polygon fill="white" stroke="#1e90ff" points="479,-56 417,-56 417,-37 479,-37 479,-56"/>
<text text-anchor="middle" x="448" y="-44" font-family="Vera Sans, DejaVu Sans, Liberation Sans, Arial, Helvetica, sans" font-size="10.00">Branch</text>
</a>
</g>
</g>
<!-- IfBranch -->
<g id="node7" class="node">
<title>IfBranch</title>
<g id="a_node7"><a xlink:href="../pyVHDLModel/pyVHDLModel.Sequential.html#pyVHDLModel.Sequential.IfBranch" xlink:title="IfBranch" target="_top">
<polygon fill="white" stroke="#1e90ff" points="618,-74 541,-74 541,-55 618,-55 618,-74"/>
<text text-anchor="middle" x="579.5" y="-62" font-family="Vera Sans, DejaVu Sans, Liberation Sans, Arial, Helvetica, sans" font-size="10.00">IfBranch</text>
</a>
</g>
</g>
<!-- Branch&#45;&gt;IfBranch -->
<g id="edge5" class="edge">
<title>Branch&#45;&gt;IfBranch</title>
<path fill="none" stroke="black" stroke-width="0.5" d="M479.36,-50.72C495.88,-53.02 516.62,-55.9 534.84,-58.43"/>
<polygon fill="black" stroke="black" stroke-width="0.5" points="534.98,-60.22 540.17,-59.17 535.46,-56.75 534.98,-60.22"/>
</g>
<!-- ModelEntity -->
<g id="node2" class="node">
<title>ModelEntity</title>
<g id="a_node2"><a xlink:href="../pyVHDLModel.Base.html#pyVHDLModel.Base.ModelEntity" xlink:title="``ModelEntity`` is the base&#45;class for all classes in the VHDL language model, except for mixin classes (see multiple" target="_top">
<polygon fill="white" stroke="#1e90ff" points="313.5,-56 214.5,-56 214.5,-37 313.5,-37 313.5,-56"/>
<text text-anchor="middle" x="264" y="-44" font-family="Vera Sans, DejaVu Sans, Liberation Sans, Arial, Helvetica, sans" font-size="10.00">ModelEntity</text>
</a>
</g>
</g>
<!-- ModelEntity&#45;&gt;Branch -->
<g id="edge1" class="edge">
<title>ModelEntity&#45;&gt;Branch</title>
<path fill="none" stroke="black" stroke-width="0.5" d="M313.77,-46.5C344.09,-46.5 382.44,-46.5 410.2,-46.5"/>
<polygon fill="black" stroke="black" stroke-width="0.5" points="410.91,-48.25 415.91,-46.5 410.91,-44.75 410.91,-48.25"/>
</g>
<!-- SequentialStatements -->
<g id="node3" class="node">
<title>SequentialStatements</title>
<g id="a_node3"><a xlink:href="../pyVHDLModel/pyVHDLModel.Sequential.html#pyVHDLModel.Sequential.SequentialStatements" xlink:title="SequentialStatements" target="_top">
<polygon fill="white" stroke="#1e90ff" points="347.5,-19 180.5,-19 180.5,0 347.5,0 347.5,-19"/>
<text text-anchor="middle" x="264" y="-7" font-family="Vera Sans, DejaVu Sans, Liberation Sans, Arial, Helvetica, sans" font-size="10.00">SequentialStatements</text>
</a>
</g>
</g>
<!-- SequentialStatements&#45;&gt;Branch -->
<g id="edge2" class="edge">
<title>SequentialStatements&#45;&gt;Branch</title>
<path fill="none" stroke="black" stroke-width="0.5" d="M315,-19.44C328.02,-22.05 342.04,-24.87 355,-27.5 373.36,-31.23 393.77,-35.44 410.7,-38.95"/>
<polygon fill="black" stroke="black" stroke-width="0.5" points="410.77,-40.75 416.02,-40.05 411.48,-37.32 410.77,-40.75"/>
</g>
<!-- BranchMixin -->
<g id="node4" class="node">
<title>BranchMixin</title>
<g id="a_node4"><a xlink:href="../pyVHDLModel.Base.html#pyVHDLModel.Base.BranchMixin" xlink:title="A ``BaseBranch`` is a mixin&#45;class for all statements with branches." target="_top">
<polygon fill="white" stroke="#1e90ff" points="118,-111 19,-111 19,-92 118,-92 118,-111"/>
<text text-anchor="middle" x="68.5" y="-99" font-family="Vera Sans, DejaVu Sans, Liberation Sans, Arial, Helvetica, sans" font-size="10.00">BranchMixin</text>
</a>
</g>
</g>
<!-- ConditionalBranchMixin -->
<g id="node5" class="node">
<title>ConditionalBranchMixin</title>
<g id="a_node5"><a xlink:href="../pyVHDLModel.Base.html#pyVHDLModel.Base.ConditionalBranchMixin" xlink:title="A ``BaseBranch`` is a mixin&#45;class for all branch statements with a condition." target="_top">
<polygon fill="white" stroke="#1e90ff" points="355,-93 173,-93 173,-74 355,-74 355,-93"/>
<text text-anchor="middle" x="264" y="-81" font-family="Vera Sans, DejaVu Sans, Liberation Sans, Arial, Helvetica, sans" font-size="10.00">ConditionalBranchMixin</text>
</a>
</g>
</g>
<!-- BranchMixin&#45;&gt;ConditionalBranchMixin -->
<g id="edge3" class="edge">
<title>BranchMixin&#45;&gt;ConditionalBranchMixin</title>
<path fill="none" stroke="black" stroke-width="0.5" d="M118.33,-96.96C133.09,-95.59 149.83,-94.03 166.57,-92.47"/>
<polygon fill="black" stroke="black" stroke-width="0.5" points="167.16,-94.17 171.98,-91.97 166.84,-90.69 167.16,-94.17"/>
</g>
<!-- IfBranchMixin -->
<g id="node8" class="node">
<title>IfBranchMixin</title>
<g id="a_node8"><a xlink:href="../pyVHDLModel.Base.html#pyVHDLModel.Base.IfBranchMixin" xlink:title="A ``BaseIfBranch`` is a mixin&#45;class for all if&#45;branches." target="_top">
<polygon fill="white" stroke="#1e90ff" points="505,-93 391,-93 391,-74 505,-74 505,-93"/>
<text text-anchor="middle" x="448" y="-81" font-family="Vera Sans, DejaVu Sans, Liberation Sans, Arial, Helvetica, sans" font-size="10.00">IfBranchMixin</text>
</a>
</g>
</g>
<!-- ConditionalBranchMixin&#45;&gt;IfBranchMixin -->
<g id="edge7" class="edge">
<title>ConditionalBranchMixin&#45;&gt;IfBranchMixin</title>
<path fill="none" stroke="black" stroke-width="0.5" d="M355.47,-83.5C365.18,-83.5 374.9,-83.5 384.19,-83.5"/>
<polygon fill="black" stroke="black" stroke-width="0.5" points="384.79,-85.25 389.79,-83.5 384.79,-81.75 384.79,-85.25"/>
</g>
<!-- ConditionalMixin -->
<g id="node6" class="node">
<title>ConditionalMixin</title>
<g id="a_node6"><a xlink:href="../pyVHDLModel.Base.html#pyVHDLModel.Base.ConditionalMixin" xlink:title="A ``BaseConditional`` is a mixin&#45;class for all statements with a condition." target="_top">
<polygon fill="white" stroke="#1e90ff" points="137,-74 0,-74 0,-55 137,-55 137,-74"/>
<text text-anchor="middle" x="68.5" y="-62" font-family="Vera Sans, DejaVu Sans, Liberation Sans, Arial, Helvetica, sans" font-size="10.00">ConditionalMixin</text>
</a>
</g>
</g>
<!-- ConditionalMixin&#45;&gt;ConditionalBranchMixin -->
<g id="edge4" class="edge">
<title>ConditionalMixin&#45;&gt;ConditionalBranchMixin</title>
<path fill="none" stroke="black" stroke-width="0.5" d="M137.45,-71.17C146.83,-72.09 156.61,-73.05 166.38,-74.01"/>
<polygon fill="black" stroke="black" stroke-width="0.5" points="166.9,-75.82 172.05,-74.57 167.24,-72.34 166.9,-75.82"/>
</g>
<!-- IfBranchMixin&#45;&gt;IfBranch -->
<g id="edge6" class="edge">
<title>IfBranchMixin&#45;&gt;IfBranch</title>
<path fill="none" stroke="black" stroke-width="0.5" d="M505.42,-75.22C515.06,-73.81 524.95,-72.36 534.21,-71"/>
<polygon fill="black" stroke="black" stroke-width="0.5" points="535.07,-72.64 539.76,-70.18 534.56,-69.18 535.07,-72.64"/>
</g>
</g>
</svg>
