<?xml version="1.0" encoding="UTF-8" standalone="no"?>
<!DOCTYPE svg PUBLIC "-//W3C//DTD SVG 1.1//EN"
 "http://www.w3.org/Graphics/SVG/1.1/DTD/svg11.dtd">
<!-- Generated by graphviz version 7.0.5 (20221223.1930)
 -->
<!-- Title: inheritanceab30f1ce04 Pages: 1 -->
<svg width="576pt" height="62pt"
 viewBox="0.00 0.00 576.00 62.29" xmlns="http://www.w3.org/2000/svg" xmlns:xlink="http://www.w3.org/1999/xlink">
<g id="graph0" class="graph" transform="scale(0.616702 0.616702) rotate(0) translate(4 97)">
<title>inheritanceab30f1ce04</title>
<!-- DocumentedEntityMixin -->
<g id="node1" class="node">
<title>DocumentedEntityMixin</title>
<g id="a_node1"><a xlink:href="../pyVHDLModel.Base.html#pyVHDLModel.Base.DocumentedEntityMixin" xlink:title="A ``DocumentedEntityMixin`` is a mixin class for all VHDL entities that can have an associated documentation." target="_top">
<polygon fill="white" stroke="#1e90ff" points="185.5,-93 11.5,-93 11.5,-74 185.5,-74 185.5,-93"/>
<text text-anchor="middle" x="98.5" y="-81" font-family="Vera Sans, DejaVu Sans, Liberation Sans, Arial, Helvetica, sans" font-size="10.00">DocumentedEntityMixin</text>
</a>
</g>
</g>
<!-- InterfaceItem -->
<g id="node2" class="node">
<title>InterfaceItem</title>
<g id="a_node2"><a xlink:href="../pyVHDLModel/pyVHDLModel.Interface.html#pyVHDLModel.Interface.InterfaceItem" xlink:title="An ``InterfaceItem`` is a base&#45;class for all mixin&#45;classes for all interface items." target="_top">
<polygon fill="white" stroke="#1e90ff" points="396,-93 282,-93 282,-74 396,-74 396,-93"/>
<text text-anchor="middle" x="339" y="-81" font-family="Vera Sans, DejaVu Sans, Liberation Sans, Arial, Helvetica, sans" font-size="10.00">InterfaceItem</text>
</a>
</g>
</g>
<!-- DocumentedEntityMixin&#45;&gt;InterfaceItem -->
<g id="edge1" class="edge">
<title>DocumentedEntityMixin&#45;&gt;InterfaceItem</title>
<path fill="none" stroke="black" stroke-width="0.5" d="M185.94,-83.5C215.44,-83.5 247.84,-83.5 275.12,-83.5"/>
<polygon fill="black" stroke="black" stroke-width="0.5" points="275.83,-85.25 280.83,-83.5 275.83,-81.75 275.83,-85.25"/>
</g>
<!-- Obj -->
<g id="node6" class="node">
<title>Obj</title>
<g id="a_node6"><a xlink:href="../pyVHDLModel.Object.html#pyVHDLModel.Object.Obj" xlink:title="Obj" target="_top">
<polygon fill="white" stroke="#1e90ff" points="366,-56 312,-56 312,-37 366,-37 366,-56"/>
<text text-anchor="middle" x="339" y="-44" font-family="Vera Sans, DejaVu Sans, Liberation Sans, Arial, Helvetica, sans" font-size="10.00">Obj</text>
</a>
</g>
</g>
<!-- DocumentedEntityMixin&#45;&gt;Obj -->
<g id="edge4" class="edge">
<title>DocumentedEntityMixin&#45;&gt;Obj</title>
<path fill="none" stroke="black" stroke-width="0.5" d="M163.73,-73.54C209.51,-66.43 269.14,-57.18 305.45,-51.55"/>
<polygon fill="black" stroke="black" stroke-width="0.5" points="306.09,-53.22 310.76,-50.73 305.55,-49.76 306.09,-53.22"/>
</g>
<!-- ParameterInterfaceItem -->
<g id="node7" class="node">
<title>ParameterInterfaceItem</title>
<g id="a_node7"><a xlink:href="../pyVHDLModel/pyVHDLModel.Interface.html#pyVHDLModel.Interface.ParameterInterfaceItem" xlink:title="A ``ParameterInterfaceItem`` is a mixin class for all parameter interface items." target="_top">
<polygon fill="white" stroke="#1e90ff" points="663,-93 481,-93 481,-74 663,-74 663,-93"/>
<text text-anchor="middle" x="572" y="-81" font-family="Vera Sans, DejaVu Sans, Liberation Sans, Arial, Helvetica, sans" font-size="10.00">ParameterInterfaceItem</text>
</a>
</g>
</g>
<!-- InterfaceItem&#45;&gt;ParameterInterfaceItem -->
<g id="edge5" class="edge">
<title>InterfaceItem&#45;&gt;ParameterInterfaceItem</title>
<path fill="none" stroke="black" stroke-width="0.5" d="M396.21,-83.5C419.7,-83.5 447.68,-83.5 474.3,-83.5"/>
<polygon fill="black" stroke="black" stroke-width="0.5" points="474.91,-85.25 479.91,-83.5 474.91,-81.75 474.91,-85.25"/>
</g>
<!-- InterfaceItemWithMode -->
<g id="node3" class="node">
<title>InterfaceItemWithMode</title>
<g id="a_node3"><a xlink:href="../pyVHDLModel/pyVHDLModel.Interface.html#pyVHDLModel.Interface.InterfaceItemWithMode" xlink:title="An ``InterfaceItemWithMode`` is a mixin&#45;class to provide a ``Mode`` to interface items." target="_top">
<polygon fill="white" stroke="#1e90ff" points="659,-19 485,-19 485,0 659,0 659,-19"/>
<text text-anchor="middle" x="572" y="-7" font-family="Vera Sans, DejaVu Sans, Liberation Sans, Arial, Helvetica, sans" font-size="10.00">InterfaceItemWithMode</text>
</a>
</g>
</g>
<!-- ParameterSignalInterfaceItem -->
<g id="node8" class="node">
<title>ParameterSignalInterfaceItem</title>
<g id="a_node8"><a xlink:href="../pyVHDLModel/pyVHDLModel.Interface.html#pyVHDLModel.Interface.ParameterSignalInterfaceItem" xlink:title="ParameterSignalInterfaceItem" target="_top">
<polygon fill="white" stroke="#1e90ff" points="926,-56 699,-56 699,-37 926,-37 926,-56"/>
<text text-anchor="middle" x="812.5" y="-44" font-family="Vera Sans, DejaVu Sans, Liberation Sans, Arial, Helvetica, sans" font-size="10.00">ParameterSignalInterfaceItem</text>
</a>
</g>
</g>
<!-- InterfaceItemWithMode&#45;&gt;ParameterSignalInterfaceItem -->
<g id="edge8" class="edge">
<title>InterfaceItemWithMode&#45;&gt;ParameterSignalInterfaceItem</title>
<path fill="none" stroke="black" stroke-width="0.5" d="M637.23,-19.46C669.31,-24.44 708.2,-30.47 741.09,-35.58"/>
<polygon fill="black" stroke="black" stroke-width="0.5" points="741.2,-37.36 746.41,-36.4 741.74,-33.91 741.2,-37.36"/>
</g>
<!-- ModelEntity -->
<g id="node4" class="node">
<title>ModelEntity</title>
<g id="a_node4"><a xlink:href="../pyVHDLModel.Base.html#pyVHDLModel.Base.ModelEntity" xlink:title="``ModelEntity`` is the base&#45;class for all classes in the VHDL language model, except for mixin classes (see multiple" target="_top">
<polygon fill="white" stroke="#1e90ff" points="148,-56 49,-56 49,-37 148,-37 148,-56"/>
<text text-anchor="middle" x="98.5" y="-44" font-family="Vera Sans, DejaVu Sans, Liberation Sans, Arial, Helvetica, sans" font-size="10.00">ModelEntity</text>
</a>
</g>
</g>
<!-- ModelEntity&#45;&gt;Obj -->
<g id="edge2" class="edge">
<title>ModelEntity&#45;&gt;Obj</title>
<path fill="none" stroke="black" stroke-width="0.5" d="M148.34,-46.5C195.2,-46.5 264.66,-46.5 305.23,-46.5"/>
<polygon fill="black" stroke="black" stroke-width="0.5" points="305.97,-48.25 310.97,-46.5 305.97,-44.75 305.97,-48.25"/>
</g>
<!-- MultipleNamedEntityMixin -->
<g id="node5" class="node">
<title>MultipleNamedEntityMixin</title>
<g id="a_node5"><a xlink:href="../pyVHDLModel.Base.html#pyVHDLModel.Base.MultipleNamedEntityMixin" xlink:title="A ``MultipleNamedEntityMixin`` is a mixin class for all VHDL entities that declare multiple instances at once by" target="_top">
<polygon fill="white" stroke="#1e90ff" points="197,-19 0,-19 0,0 197,0 197,-19"/>
<text text-anchor="middle" x="98.5" y="-7" font-family="Vera Sans, DejaVu Sans, Liberation Sans, Arial, Helvetica, sans" font-size="10.00">MultipleNamedEntityMixin</text>
</a>
</g>
</g>
<!-- MultipleNamedEntityMixin&#45;&gt;Obj -->
<g id="edge3" class="edge">
<title>MultipleNamedEntityMixin&#45;&gt;Obj</title>
<path fill="none" stroke="black" stroke-width="0.5" d="M163.73,-19.46C209.51,-26.57 269.14,-35.82 305.45,-41.45"/>
<polygon fill="black" stroke="black" stroke-width="0.5" points="305.55,-43.24 310.76,-42.27 306.09,-39.78 305.55,-43.24"/>
</g>
<!-- Signal -->
<g id="node9" class="node">
<title>Signal</title>
<g id="a_node9"><a xlink:href="../pyVHDLModel.Object.html#pyVHDLModel.Object.Signal" xlink:title="Signal" target="_top">
<polygon fill="white" stroke="#1e90ff" points="603,-56 541,-56 541,-37 603,-37 603,-56"/>
<text text-anchor="middle" x="572" y="-44" font-family="Vera Sans, DejaVu Sans, Liberation Sans, Arial, Helvetica, sans" font-size="10.00">Signal</text>
</a>
</g>
</g>
<!-- Obj&#45;&gt;Signal -->
<g id="edge9" class="edge">
<title>Obj&#45;&gt;Signal</title>
<path fill="none" stroke="black" stroke-width="0.5" d="M366.5,-46.5C407.81,-46.5 487.67,-46.5 534.43,-46.5"/>
<polygon fill="black" stroke="black" stroke-width="0.5" points="535.05,-48.25 540.05,-46.5 535.05,-44.75 535.05,-48.25"/>
</g>
<!-- ParameterInterfaceItem&#45;&gt;ParameterSignalInterfaceItem -->
<g id="edge7" class="edge">
<title>ParameterInterfaceItem&#45;&gt;ParameterSignalInterfaceItem</title>
<path fill="none" stroke="black" stroke-width="0.5" d="M637.23,-73.54C669.31,-68.56 708.2,-62.53 741.09,-57.42"/>
<polygon fill="black" stroke="black" stroke-width="0.5" points="741.74,-59.09 746.41,-56.6 741.2,-55.64 741.74,-59.09"/>
</g>
<!-- Signal&#45;&gt;ParameterSignalInterfaceItem -->
<g id="edge6" class="edge">
<title>Signal&#45;&gt;ParameterSignalInterfaceItem</title>
<path fill="none" stroke="black" stroke-width="0.5" d="M603.21,-46.5C626.16,-46.5 659.33,-46.5 692.48,-46.5"/>
<polygon fill="black" stroke="black" stroke-width="0.5" points="692.91,-48.25 697.91,-46.5 692.91,-44.75 692.91,-48.25"/>
</g>
<!-- WithDefaultExpressionMixin -->
<g id="node10" class="node">
<title>WithDefaultExpressionMixin</title>
<g id="a_node10"><a xlink:href="../pyVHDLModel.Object.html#pyVHDLModel.Object.WithDefaultExpressionMixin" xlink:title="A ``WithDefaultExpression`` is a mixin class for all objects declarations accepting default expressions." target="_top">
<polygon fill="white" stroke="#1e90ff" points="445,-19 233,-19 233,0 445,0 445,-19"/>
<text text-anchor="middle" x="339" y="-7" font-family="Vera Sans, DejaVu Sans, Liberation Sans, Arial, Helvetica, sans" font-size="10.00">WithDefaultExpressionMixin</text>
</a>
</g>
</g>
<!-- WithDefaultExpressionMixin&#45;&gt;Signal -->
<g id="edge10" class="edge">
<title>WithDefaultExpressionMixin&#45;&gt;Signal</title>
<path fill="none" stroke="black" stroke-width="0.5" d="M402.21,-19.46C444.48,-26.23 498.94,-34.96 534.4,-40.64"/>
<polygon fill="black" stroke="black" stroke-width="0.5" points="534.83,-42.48 540.05,-41.54 535.39,-39.02 534.83,-42.48"/>
</g>
</g>
</svg>
