<?xml version="1.0" encoding="UTF-8" standalone="no"?>
<!DOCTYPE svg PUBLIC "-//W3C//DTD SVG 1.1//EN"
 "http://www.w3.org/Graphics/SVG/1.1/DTD/svg11.dtd">
<!-- Generated by graphviz version 7.0.5 (20221223.1930)
 -->
<!-- Title: inheritancee719cdbb52 Pages: 1 -->
<svg width="576pt" height="23pt"
 viewBox="0.00 0.00 576.00 23.46" xmlns="http://www.w3.org/2000/svg" xmlns:xlink="http://www.w3.org/1999/xlink">
<g id="graph0" class="graph" transform="scale(0.868778 0.868778) rotate(0) translate(4 23)">
<title>inheritancee719cdbb52</title>
<!-- Allocation -->
<g id="node1" class="node">
<title>Allocation</title>
<g id="a_node1"><a xlink:href="../pyVHDLModel/pyVHDLModel.Expression.html#pyVHDLModel.Expression.Allocation" xlink:title="Allocation" target="_top">
<polygon fill="white" stroke="#1e90ff" points="385,-19 293,-19 293,0 385,0 385,-19"/>
<text text-anchor="middle" x="339" y="-7" font-family="Vera Sans, DejaVu Sans, Liberation Sans, Arial, Helvetica, sans" font-size="10.00">Allocation</text>
</a>
</g>
</g>
<!-- QualifiedExpressionAllocation -->
<g id="node4" class="node">
<title>QualifiedExpressionAllocation</title>
<g id="a_node4"><a xlink:href="../pyVHDLModel/pyVHDLModel.Expression.html#pyVHDLModel.Expression.QualifiedExpressionAllocation" xlink:title="QualifiedExpressionAllocation" target="_top">
<polygon fill="white" stroke="#1e90ff" points="655,-19 421,-19 421,0 655,0 655,-19"/>
<text text-anchor="middle" x="538" y="-7" font-family="Vera Sans, DejaVu Sans, Liberation Sans, Arial, Helvetica, sans" font-size="10.00">QualifiedExpressionAllocation</text>
</a>
</g>
</g>
<!-- Allocation&#45;&gt;QualifiedExpressionAllocation -->
<g id="edge3" class="edge">
<title>Allocation&#45;&gt;QualifiedExpressionAllocation</title>
<path fill="none" stroke="black" stroke-width="0.5" d="M385.2,-9.5C394.23,-9.5 404.11,-9.5 414.37,-9.5"/>
<polygon fill="black" stroke="black" stroke-width="0.5" points="415.05,-11.25 420.05,-9.5 415.05,-7.75 415.05,-11.25"/>
</g>
<!-- BaseExpression -->
<g id="node2" class="node">
<title>BaseExpression</title>
<g id="a_node2"><a xlink:href="../pyVHDLModel/pyVHDLModel.Expression.html#pyVHDLModel.Expression.BaseExpression" xlink:title="A ``BaseExpression`` is a base&#45;class for all expressions." target="_top">
<polygon fill="white" stroke="#1e90ff" points="257,-19 135,-19 135,0 257,0 257,-19"/>
<text text-anchor="middle" x="196" y="-7" font-family="Vera Sans, DejaVu Sans, Liberation Sans, Arial, Helvetica, sans" font-size="10.00">BaseExpression</text>
</a>
</g>
</g>
<!-- BaseExpression&#45;&gt;Allocation -->
<g id="edge1" class="edge">
<title>BaseExpression&#45;&gt;Allocation</title>
<path fill="none" stroke="black" stroke-width="0.5" d="M257.21,-9.5C266.94,-9.5 276.93,-9.5 286.44,-9.5"/>
<polygon fill="black" stroke="black" stroke-width="0.5" points="287.17,-11.25 292.17,-9.5 287.17,-7.75 287.17,-11.25"/>
</g>
<!-- ModelEntity -->
<g id="node3" class="node">
<title>ModelEntity</title>
<g id="a_node3"><a xlink:href="../pyVHDLModel.Base.html#pyVHDLModel.Base.ModelEntity" xlink:title="``ModelEntity`` is the base&#45;class for all classes in the VHDL language model, except for mixin classes (see multiple" target="_top">
<polygon fill="white" stroke="#1e90ff" points="99,-19 0,-19 0,0 99,0 99,-19"/>
<text text-anchor="middle" x="49.5" y="-7" font-family="Vera Sans, DejaVu Sans, Liberation Sans, Arial, Helvetica, sans" font-size="10.00">ModelEntity</text>
</a>
</g>
</g>
<!-- ModelEntity&#45;&gt;BaseExpression -->
<g id="edge2" class="edge">
<title>ModelEntity&#45;&gt;BaseExpression</title>
<path fill="none" stroke="black" stroke-width="0.5" d="M99.42,-9.5C108.69,-9.5 118.53,-9.5 128.24,-9.5"/>
<polygon fill="black" stroke="black" stroke-width="0.5" points="128.84,-11.25 133.84,-9.5 128.84,-7.75 128.84,-11.25"/>
</g>
</g>
</svg>
