<?xml version="1.0" encoding="UTF-8" standalone="no"?>
<!DOCTYPE svg PUBLIC "-//W3C//DTD SVG 1.1//EN"
 "http://www.w3.org/Graphics/SVG/1.1/DTD/svg11.dtd">
<!-- Generated by graphviz version 7.0.5 (20221223.1930)
 -->
<!-- Title: inheritance60a498c76a Pages: 1 -->
<svg width="576pt" height="144pt"
 viewBox="0.00 0.00 576.00 143.79" xmlns="http://www.w3.org/2000/svg" xmlns:xlink="http://www.w3.org/1999/xlink">
<g id="graph0" class="graph" transform="scale(0.821683 0.821683) rotate(0) translate(4 171)">
<title>inheritance60a498c76a</title>
<!-- Architecture -->
<g id="node1" class="node">
<title>Architecture</title>
<g id="a_node1"><a xlink:href="../pyVHDLModel/pyVHDLModel.DesignUnit.html#pyVHDLModel.DesignUnit.Architecture" xlink:title="Architecture" target="_top">
<polygon fill="white" stroke="#1e90ff" points="693,-74 586,-74 586,-55 693,-55 693,-74"/>
<text text-anchor="middle" x="639.5" y="-62" font-family="Vera Sans, DejaVu Sans, Liberation Sans, Arial, Helvetica, sans" font-size="10.00">Architecture</text>
</a>
</g>
</g>
<!-- SecondaryUnit -->
<g id="node2" class="node">
<title>SecondaryUnit</title>
<g id="a_node2"><a xlink:href="../pyVHDLModel/pyVHDLModel.DesignUnit.html#pyVHDLModel.DesignUnit.SecondaryUnit" xlink:title="A ``SecondaryUnit`` is a base&#45;class for all secondary units." target="_top">
<polygon fill="white" stroke="#1e90ff" points="501,-130 387,-130 387,-111 501,-111 501,-130"/>
<text text-anchor="middle" x="444" y="-118" font-family="Vera Sans, DejaVu Sans, Liberation Sans, Arial, Helvetica, sans" font-size="10.00">SecondaryUnit</text>
</a>
</g>
</g>
<!-- SecondaryUnit&#45;&gt;Architecture -->
<g id="edge1" class="edge">
<title>SecondaryUnit&#45;&gt;Architecture</title>
<path fill="none" stroke="black" stroke-width="0.5" d="M501.38,-112.62C517.27,-109.77 534.46,-106.1 550,-101.5 571.67,-95.09 595.22,-85.09 612.58,-77.09"/>
<polygon fill="black" stroke="black" stroke-width="0.5" points="613.74,-78.49 617.53,-74.79 612.26,-75.31 613.74,-78.49"/>
</g>
<!-- DesignUnitWithContextMixin -->
<g id="node3" class="node">
<title>DesignUnitWithContextMixin</title>
<g id="a_node3"><a xlink:href="../pyVHDLModel/pyVHDLModel.DesignUnit.html#pyVHDLModel.DesignUnit.DesignUnitWithContextMixin" xlink:title="DesignUnitWithContextMixin" target="_top">
<polygon fill="white" stroke="#1e90ff" points="550,-93 338,-93 338,-74 550,-74 550,-93"/>
<text text-anchor="middle" x="444" y="-81" font-family="Vera Sans, DejaVu Sans, Liberation Sans, Arial, Helvetica, sans" font-size="10.00">DesignUnitWithContextMixin</text>
</a>
</g>
</g>
<!-- DesignUnitWithContextMixin&#45;&gt;Architecture -->
<g id="edge2" class="edge">
<title>DesignUnitWithContextMixin&#45;&gt;Architecture</title>
<path fill="none" stroke="black" stroke-width="0.5" d="M546.57,-73.53C557.75,-72.43 568.85,-71.34 579.26,-70.32"/>
<polygon fill="black" stroke="black" stroke-width="0.5" points="580.09,-71.99 584.89,-69.76 579.75,-68.51 580.09,-71.99"/>
</g>
<!-- ConcurrentDeclarations -->
<g id="node4" class="node">
<title>ConcurrentDeclarations</title>
<g id="a_node4"><a xlink:href="../pyVHDLModel.Concurrent.html#pyVHDLModel.Concurrent.ConcurrentDeclarations" xlink:title="ConcurrentDeclarations" target="_top">
<polygon fill="white" stroke="#1e90ff" points="535,-56 353,-56 353,-37 535,-37 535,-56"/>
<text text-anchor="middle" x="444" y="-44" font-family="Vera Sans, DejaVu Sans, Liberation Sans, Arial, Helvetica, sans" font-size="10.00">ConcurrentDeclarations</text>
</a>
</g>
</g>
<!-- ConcurrentDeclarations&#45;&gt;Architecture -->
<g id="edge3" class="edge">
<title>ConcurrentDeclarations&#45;&gt;Architecture</title>
<path fill="none" stroke="black" stroke-width="0.5" d="M535.24,-54.89C550.19,-56.28 565.35,-57.7 579.28,-58.99"/>
<polygon fill="black" stroke="black" stroke-width="0.5" points="579.7,-60.79 584.84,-59.51 580.02,-57.3 579.7,-60.79"/>
</g>
<!-- ConcurrentStatements -->
<g id="node5" class="node">
<title>ConcurrentStatements</title>
<g id="a_node5"><a xlink:href="../pyVHDLModel.Concurrent.html#pyVHDLModel.Concurrent.ConcurrentStatements" xlink:title="ConcurrentStatements" target="_top">
<polygon fill="white" stroke="#1e90ff" points="527.5,-19 360.5,-19 360.5,0 527.5,0 527.5,-19"/>
<text text-anchor="middle" x="444" y="-7" font-family="Vera Sans, DejaVu Sans, Liberation Sans, Arial, Helvetica, sans" font-size="10.00">ConcurrentStatements</text>
</a>
</g>
</g>
<!-- ConcurrentStatements&#45;&gt;Architecture -->
<g id="edge4" class="edge">
<title>ConcurrentStatements&#45;&gt;Architecture</title>
<path fill="none" stroke="black" stroke-width="0.5" d="M516.38,-19.49C527.72,-21.72 539.26,-24.38 550,-27.5 571.84,-33.85 595.56,-43.95 612.94,-52"/>
<polygon fill="black" stroke="black" stroke-width="0.5" points="612.63,-53.78 617.9,-54.32 614.11,-50.61 612.63,-53.78"/>
</g>
<!-- DesignUnit -->
<g id="node6" class="node">
<title>DesignUnit</title>
<g id="a_node6"><a xlink:href="../pyVHDLModel/pyVHDLModel.DesignUnit.html#pyVHDLModel.DesignUnit.DesignUnit" xlink:title="A ``DesignUnit`` is a base&#45;class for all design units." target="_top">
<polygon fill="white" stroke="#1e90ff" points="302,-130 210,-130 210,-111 302,-111 302,-130"/>
<text text-anchor="middle" x="256" y="-118" font-family="Vera Sans, DejaVu Sans, Liberation Sans, Arial, Helvetica, sans" font-size="10.00">DesignUnit</text>
</a>
</g>
</g>
<!-- DesignUnit&#45;&gt;SecondaryUnit -->
<g id="edge8" class="edge">
<title>DesignUnit&#45;&gt;SecondaryUnit</title>
<path fill="none" stroke="black" stroke-width="0.5" d="M302.03,-120.5C325.52,-120.5 354.63,-120.5 380.29,-120.5"/>
<polygon fill="black" stroke="black" stroke-width="0.5" points="380.98,-122.25 385.98,-120.5 380.98,-118.75 380.98,-122.25"/>
</g>
<!-- ModelEntity -->
<g id="node7" class="node">
<title>ModelEntity</title>
<g id="a_node7"><a xlink:href="../pyVHDLModel.Base.html#pyVHDLModel.Base.ModelEntity" xlink:title="``ModelEntity`` is the base&#45;class for all classes in the VHDL language model, except for mixin classes (see multiple" target="_top">
<polygon fill="white" stroke="#1e90ff" points="136.5,-167 37.5,-167 37.5,-148 136.5,-148 136.5,-167"/>
<text text-anchor="middle" x="87" y="-155" font-family="Vera Sans, DejaVu Sans, Liberation Sans, Arial, Helvetica, sans" font-size="10.00">ModelEntity</text>
</a>
</g>
</g>
<!-- ModelEntity&#45;&gt;DesignUnit -->
<g id="edge5" class="edge">
<title>ModelEntity&#45;&gt;DesignUnit</title>
<path fill="none" stroke="black" stroke-width="0.5" d="M136.71,-147.52C148.9,-144.96 161.94,-142.18 174,-139.5 184.73,-137.12 196.23,-134.48 207.1,-131.94"/>
<polygon fill="black" stroke="black" stroke-width="0.5" points="208.22,-133.47 212.68,-130.63 207.42,-130.07 208.22,-133.47"/>
</g>
<!-- NamedEntityMixin -->
<g id="node8" class="node">
<title>NamedEntityMixin</title>
<g id="a_node8"><a xlink:href="../pyVHDLModel.Base.html#pyVHDLModel.Base.NamedEntityMixin" xlink:title="A ``NamedEntityMixin`` is a mixin class for all VHDL entities that have identifiers." target="_top">
<polygon fill="white" stroke="#1e90ff" points="155.5,-130 18.5,-130 18.5,-111 155.5,-111 155.5,-130"/>
<text text-anchor="middle" x="87" y="-118" font-family="Vera Sans, DejaVu Sans, Liberation Sans, Arial, Helvetica, sans" font-size="10.00">NamedEntityMixin</text>
</a>
</g>
</g>
<!-- NamedEntityMixin&#45;&gt;DesignUnit -->
<g id="edge6" class="edge">
<title>NamedEntityMixin&#45;&gt;DesignUnit</title>
<path fill="none" stroke="black" stroke-width="0.5" d="M155.93,-120.5C171.73,-120.5 188.3,-120.5 203.28,-120.5"/>
<polygon fill="black" stroke="black" stroke-width="0.5" points="203.83,-122.25 208.83,-120.5 203.83,-118.75 203.83,-122.25"/>
</g>
<!-- DocumentedEntityMixin -->
<g id="node9" class="node">
<title>DocumentedEntityMixin</title>
<g id="a_node9"><a xlink:href="../pyVHDLModel.Base.html#pyVHDLModel.Base.DocumentedEntityMixin" xlink:title="A ``DocumentedEntityMixin`` is a mixin class for all VHDL entities that can have an associated documentation." target="_top">
<polygon fill="white" stroke="#1e90ff" points="174,-93 0,-93 0,-74 174,-74 174,-93"/>
<text text-anchor="middle" x="87" y="-81" font-family="Vera Sans, DejaVu Sans, Liberation Sans, Arial, Helvetica, sans" font-size="10.00">DocumentedEntityMixin</text>
</a>
</g>
</g>
<!-- DocumentedEntityMixin&#45;&gt;DesignUnit -->
<g id="edge7" class="edge">
<title>DocumentedEntityMixin&#45;&gt;DesignUnit</title>
<path fill="none" stroke="black" stroke-width="0.5" d="M136.71,-93.48C148.9,-96.04 161.94,-98.82 174,-101.5 184.73,-103.88 196.23,-106.52 207.1,-109.06"/>
<polygon fill="black" stroke="black" stroke-width="0.5" points="207.42,-110.93 212.68,-110.37 208.22,-107.53 207.42,-110.93"/>
</g>
</g>
</svg>
