<?xml version="1.0" encoding="UTF-8" standalone="no"?>
<!DOCTYPE svg PUBLIC "-//W3C//DTD SVG 1.1//EN"
 "http://www.w3.org/Graphics/SVG/1.1/DTD/svg11.dtd">
<!-- Generated by graphviz version 7.0.5 (20221223.1930)
 -->
<!-- Title: inheritancea93cf76d15 Pages: 1 -->
<svg width="576pt" height="20pt"
 viewBox="0.00 0.00 576.00 19.69" xmlns="http://www.w3.org/2000/svg" xmlns:xlink="http://www.w3.org/1999/xlink">
<g id="graph0" class="graph" transform="scale(0.729114 0.729114) rotate(0) translate(4 23)">
<title>inheritancea93cf76d15</title>
<!-- DocumentedEntityMixin -->
<g id="node1" class="node">
<title>DocumentedEntityMixin</title>
<g id="a_node1"><a xlink:href="../pyVHDLModel.Base.html#pyVHDLModel.Base.DocumentedEntityMixin" xlink:title="A ``DocumentedEntityMixin`` is a mixin class for all VHDL entities that can have an associated documentation." target="_top">
<polygon fill="white" stroke="#1e90ff" points="174,-19 0,-19 0,0 174,0 174,-19"/>
<text text-anchor="middle" x="87" y="-7" font-family="Vera Sans, DejaVu Sans, Liberation Sans, Arial, Helvetica, sans" font-size="10.00">DocumentedEntityMixin</text>
</a>
</g>
</g>
<!-- InterfaceItem -->
<g id="node3" class="node">
<title>InterfaceItem</title>
<g id="a_node3"><a xlink:href="../pyVHDLModel/pyVHDLModel.Interface.html#pyVHDLModel.Interface.InterfaceItem" xlink:title="An ``InterfaceItem`` is a base&#45;class for all mixin&#45;classes for all interface items." target="_top">
<polygon fill="white" stroke="#1e90ff" points="324,-19 210,-19 210,0 324,0 324,-19"/>
<text text-anchor="middle" x="267" y="-7" font-family="Vera Sans, DejaVu Sans, Liberation Sans, Arial, Helvetica, sans" font-size="10.00">InterfaceItem</text>
</a>
</g>
</g>
<!-- DocumentedEntityMixin&#45;&gt;InterfaceItem -->
<g id="edge3" class="edge">
<title>DocumentedEntityMixin&#45;&gt;InterfaceItem</title>
<path fill="none" stroke="black" stroke-width="0.5" d="M174.39,-9.5C184.18,-9.5 194.01,-9.5 203.41,-9.5"/>
<polygon fill="black" stroke="black" stroke-width="0.5" points="204.08,-11.25 209.08,-9.5 204.08,-7.75 204.08,-11.25"/>
</g>
<!-- GenericInterfaceItem -->
<g id="node2" class="node">
<title>GenericInterfaceItem</title>
<g id="a_node2"><a xlink:href="../pyVHDLModel/pyVHDLModel.Interface.html#pyVHDLModel.Interface.GenericInterfaceItem" xlink:title="A ``GenericInterfaceItem`` is a mixin class for all generic interface items." target="_top">
<polygon fill="white" stroke="#1e90ff" points="527,-19 360,-19 360,0 527,0 527,-19"/>
<text text-anchor="middle" x="443.5" y="-7" font-family="Vera Sans, DejaVu Sans, Liberation Sans, Arial, Helvetica, sans" font-size="10.00">GenericInterfaceItem</text>
</a>
</g>
</g>
<!-- GenericPackageInterfaceItem -->
<g id="node4" class="node">
<title>GenericPackageInterfaceItem</title>
<g id="a_node4"><a xlink:href="../pyVHDLModel/pyVHDLModel.Interface.html#pyVHDLModel.Interface.GenericPackageInterfaceItem" xlink:title="GenericPackageInterfaceItem" target="_top">
<polygon fill="white" stroke="#1e90ff" points="782,-19 563,-19 563,0 782,0 782,-19"/>
<text text-anchor="middle" x="672.5" y="-7" font-family="Vera Sans, DejaVu Sans, Liberation Sans, Arial, Helvetica, sans" font-size="10.00">GenericPackageInterfaceItem</text>
</a>
</g>
</g>
<!-- GenericInterfaceItem&#45;&gt;GenericPackageInterfaceItem -->
<g id="edge2" class="edge">
<title>GenericInterfaceItem&#45;&gt;GenericPackageInterfaceItem</title>
<path fill="none" stroke="black" stroke-width="0.5" d="M527.42,-9.5C536.87,-9.5 546.63,-9.5 556.41,-9.5"/>
<polygon fill="black" stroke="black" stroke-width="0.5" points="557.07,-11.25 562.07,-9.5 557.07,-7.75 557.07,-11.25"/>
</g>
<!-- InterfaceItem&#45;&gt;GenericInterfaceItem -->
<g id="edge1" class="edge">
<title>InterfaceItem&#45;&gt;GenericInterfaceItem</title>
<path fill="none" stroke="black" stroke-width="0.5" d="M324.17,-9.5C333.49,-9.5 343.35,-9.5 353.25,-9.5"/>
<polygon fill="black" stroke="black" stroke-width="0.5" points="353.99,-11.25 358.99,-9.5 353.99,-7.75 353.99,-11.25"/>
</g>
</g>
</svg>
