<?xml version="1.0" encoding="UTF-8" standalone="no"?>
<!DOCTYPE svg PUBLIC "-//W3C//DTD SVG 1.1//EN"
 "http://www.w3.org/Graphics/SVG/1.1/DTD/svg11.dtd">
<!-- Generated by graphviz version 7.0.5 (20221223.1930)
 -->
<!-- Title: inheritance16fd4d227e Pages: 1 -->
<svg width="576pt" height="102pt"
 viewBox="0.00 0.00 576.00 102.15" xmlns="http://www.w3.org/2000/svg" xmlns:xlink="http://www.w3.org/1999/xlink">
<g id="graph0" class="graph" transform="scale(0.85842 0.85842) rotate(0) translate(4 115)">
<title>inheritance16fd4d227e</title>
<!-- Branch -->
<g id="node1" class="node">
<title>Branch</title>
<g id="a_node1"><a xlink:href="../pyVHDLModel/pyVHDLModel.Sequential.html#pyVHDLModel.Sequential.Branch" xlink:title="A ``Branch`` is a base&#45;class for all branches in a if statement." target="_top">
<polygon fill="white" stroke="#1e90ff" points="490.5,-56 428.5,-56 428.5,-37 490.5,-37 490.5,-56"/>
<text text-anchor="middle" x="459.5" y="-44" font-family="Vera Sans, DejaVu Sans, Liberation Sans, Arial, Helvetica, sans" font-size="10.00">Branch</text>
</a>
</g>
</g>
<!-- ElsifBranch -->
<g id="node7" class="node">
<title>ElsifBranch</title>
<g id="a_node7"><a xlink:href="../pyVHDLModel/pyVHDLModel.Sequential.html#pyVHDLModel.Sequential.ElsifBranch" xlink:title="ElsifBranch" target="_top">
<polygon fill="white" stroke="#1e90ff" points="663,-74 564,-74 564,-55 663,-55 663,-74"/>
<text text-anchor="middle" x="613.5" y="-62" font-family="Vera Sans, DejaVu Sans, Liberation Sans, Arial, Helvetica, sans" font-size="10.00">ElsifBranch</text>
</a>
</g>
</g>
<!-- Branch&#45;&gt;ElsifBranch -->
<g id="edge5" class="edge">
<title>Branch&#45;&gt;ElsifBranch</title>
<path fill="none" stroke="black" stroke-width="0.5" d="M490.89,-50.1C509.9,-52.35 534.94,-55.32 557.36,-57.97"/>
<polygon fill="black" stroke="black" stroke-width="0.5" points="557.69,-59.77 562.86,-58.62 558.1,-56.3 557.69,-59.77"/>
</g>
<!-- ModelEntity -->
<g id="node2" class="node">
<title>ModelEntity</title>
<g id="a_node2"><a xlink:href="../pyVHDLModel.Base.html#pyVHDLModel.Base.ModelEntity" xlink:title="``ModelEntity`` is the base&#45;class for all classes in the VHDL language model, except for mixin classes (see multiple" target="_top">
<polygon fill="white" stroke="#1e90ff" points="313.5,-56 214.5,-56 214.5,-37 313.5,-37 313.5,-56"/>
<text text-anchor="middle" x="264" y="-44" font-family="Vera Sans, DejaVu Sans, Liberation Sans, Arial, Helvetica, sans" font-size="10.00">ModelEntity</text>
</a>
</g>
</g>
<!-- ModelEntity&#45;&gt;Branch -->
<g id="edge1" class="edge">
<title>ModelEntity&#45;&gt;Branch</title>
<path fill="none" stroke="black" stroke-width="0.5" d="M313.83,-46.5C347.38,-46.5 391.22,-46.5 421.81,-46.5"/>
<polygon fill="black" stroke="black" stroke-width="0.5" points="422.37,-48.25 427.37,-46.5 422.37,-44.75 422.37,-48.25"/>
</g>
<!-- SequentialStatements -->
<g id="node3" class="node">
<title>SequentialStatements</title>
<g id="a_node3"><a xlink:href="../pyVHDLModel/pyVHDLModel.Sequential.html#pyVHDLModel.Sequential.SequentialStatements" xlink:title="SequentialStatements" target="_top">
<polygon fill="white" stroke="#1e90ff" points="347.5,-19 180.5,-19 180.5,0 347.5,0 347.5,-19"/>
<text text-anchor="middle" x="264" y="-7" font-family="Vera Sans, DejaVu Sans, Liberation Sans, Arial, Helvetica, sans" font-size="10.00">SequentialStatements</text>
</a>
</g>
</g>
<!-- SequentialStatements&#45;&gt;Branch -->
<g id="edge2" class="edge">
<title>SequentialStatements&#45;&gt;Branch</title>
<path fill="none" stroke="black" stroke-width="0.5" d="M317.11,-19.46C350.24,-25.8 392.31,-33.84 421.91,-39.5"/>
<polygon fill="black" stroke="black" stroke-width="0.5" points="422.05,-41.31 427.29,-40.53 422.71,-37.87 422.05,-41.31"/>
</g>
<!-- BranchMixin -->
<g id="node4" class="node">
<title>BranchMixin</title>
<g id="a_node4"><a xlink:href="../pyVHDLModel.Base.html#pyVHDLModel.Base.BranchMixin" xlink:title="A ``BaseBranch`` is a mixin&#45;class for all statements with branches." target="_top">
<polygon fill="white" stroke="#1e90ff" points="118,-111 19,-111 19,-92 118,-92 118,-111"/>
<text text-anchor="middle" x="68.5" y="-99" font-family="Vera Sans, DejaVu Sans, Liberation Sans, Arial, Helvetica, sans" font-size="10.00">BranchMixin</text>
</a>
</g>
</g>
<!-- ConditionalBranchMixin -->
<g id="node5" class="node">
<title>ConditionalBranchMixin</title>
<g id="a_node5"><a xlink:href="../pyVHDLModel.Base.html#pyVHDLModel.Base.ConditionalBranchMixin" xlink:title="A ``BaseBranch`` is a mixin&#45;class for all branch statements with a condition." target="_top">
<polygon fill="white" stroke="#1e90ff" points="355,-93 173,-93 173,-74 355,-74 355,-93"/>
<text text-anchor="middle" x="264" y="-81" font-family="Vera Sans, DejaVu Sans, Liberation Sans, Arial, Helvetica, sans" font-size="10.00">ConditionalBranchMixin</text>
</a>
</g>
</g>
<!-- BranchMixin&#45;&gt;ConditionalBranchMixin -->
<g id="edge3" class="edge">
<title>BranchMixin&#45;&gt;ConditionalBranchMixin</title>
<path fill="none" stroke="black" stroke-width="0.5" d="M118.33,-96.96C133.09,-95.59 149.83,-94.03 166.57,-92.47"/>
<polygon fill="black" stroke="black" stroke-width="0.5" points="167.16,-94.17 171.98,-91.97 166.84,-90.69 167.16,-94.17"/>
</g>
<!-- ElsifBranchMixin -->
<g id="node8" class="node">
<title>ElsifBranchMixin</title>
<g id="a_node8"><a xlink:href="../pyVHDLModel.Base.html#pyVHDLModel.Base.ElsifBranchMixin" xlink:title="A ``BaseElsifBranch`` is a mixin&#45;class for all elsif&#45;branches." target="_top">
<polygon fill="white" stroke="#1e90ff" points="528,-93 391,-93 391,-74 528,-74 528,-93"/>
<text text-anchor="middle" x="459.5" y="-81" font-family="Vera Sans, DejaVu Sans, Liberation Sans, Arial, Helvetica, sans" font-size="10.00">ElsifBranchMixin</text>
</a>
</g>
</g>
<!-- ConditionalBranchMixin&#45;&gt;ElsifBranchMixin -->
<g id="edge7" class="edge">
<title>ConditionalBranchMixin&#45;&gt;ElsifBranchMixin</title>
<path fill="none" stroke="black" stroke-width="0.5" d="M355.24,-83.5C364.92,-83.5 374.7,-83.5 384.17,-83.5"/>
<polygon fill="black" stroke="black" stroke-width="0.5" points="384.91,-85.25 389.91,-83.5 384.91,-81.75 384.91,-85.25"/>
</g>
<!-- ConditionalMixin -->
<g id="node6" class="node">
<title>ConditionalMixin</title>
<g id="a_node6"><a xlink:href="../pyVHDLModel.Base.html#pyVHDLModel.Base.ConditionalMixin" xlink:title="A ``BaseConditional`` is a mixin&#45;class for all statements with a condition." target="_top">
<polygon fill="white" stroke="#1e90ff" points="137,-74 0,-74 0,-55 137,-55 137,-74"/>
<text text-anchor="middle" x="68.5" y="-62" font-family="Vera Sans, DejaVu Sans, Liberation Sans, Arial, Helvetica, sans" font-size="10.00">ConditionalMixin</text>
</a>
</g>
</g>
<!-- ConditionalMixin&#45;&gt;ConditionalBranchMixin -->
<g id="edge4" class="edge">
<title>ConditionalMixin&#45;&gt;ConditionalBranchMixin</title>
<path fill="none" stroke="black" stroke-width="0.5" d="M137.45,-71.17C146.83,-72.09 156.61,-73.05 166.38,-74.01"/>
<polygon fill="black" stroke="black" stroke-width="0.5" points="166.9,-75.82 172.05,-74.57 167.24,-72.34 166.9,-75.82"/>
</g>
<!-- ElsifBranchMixin&#45;&gt;ElsifBranch -->
<g id="edge6" class="edge">
<title>ElsifBranchMixin&#45;&gt;ElsifBranch</title>
<path fill="none" stroke="black" stroke-width="0.5" d="M528.5,-75C538.13,-73.8 547.94,-72.57 557.29,-71.4"/>
<polygon fill="black" stroke="black" stroke-width="0.5" points="558.19,-73.05 562.93,-70.7 557.75,-69.58 558.19,-73.05"/>
</g>
</g>
</svg>
