<?xml version="1.0" encoding="UTF-8" standalone="no"?>
<!DOCTYPE svg PUBLIC "-//W3C//DTD SVG 1.1//EN"
 "http://www.w3.org/Graphics/SVG/1.1/DTD/svg11.dtd">
<!-- Generated by graphviz version 7.0.5 (20221223.1930)
 -->
<!-- Title: inheritance291a10a041 Pages: 1 -->
<svg width="576pt" height="26pt"
 viewBox="0.00 0.00 576.00 26.45" xmlns="http://www.w3.org/2000/svg" xmlns:xlink="http://www.w3.org/1999/xlink">
<g id="graph0" class="graph" transform="scale(0.979592 0.979592) rotate(0) translate(4 23)">
<title>inheritance291a10a041</title>
<!-- BaseExpression -->
<g id="node1" class="node">
<title>BaseExpression</title>
<g id="a_node1"><a xlink:href="../pyVHDLModel/pyVHDLModel.Expression.html#pyVHDLModel.Expression.BaseExpression" xlink:title="A ``BaseExpression`` is a base&#45;class for all expressions." target="_top">
<polygon fill="white" stroke="#1e90ff" points="257,-19 135,-19 135,0 257,0 257,-19"/>
<text text-anchor="middle" x="196" y="-7" font-family="Vera Sans, DejaVu Sans, Liberation Sans, Arial, Helvetica, sans" font-size="10.00">BaseExpression</text>
</a>
</g>
</g>
<!-- UnaryExpression -->
<g id="node4" class="node">
<title>UnaryExpression</title>
<g id="a_node4"><a xlink:href="../pyVHDLModel/pyVHDLModel.Expression.html#pyVHDLModel.Expression.UnaryExpression" xlink:title="A ``UnaryExpression`` is a base&#45;class for all unary expressions." target="_top">
<polygon fill="white" stroke="#1e90ff" points="422,-19 293,-19 293,0 422,0 422,-19"/>
<text text-anchor="middle" x="357.5" y="-7" font-family="Vera Sans, DejaVu Sans, Liberation Sans, Arial, Helvetica, sans" font-size="10.00">UnaryExpression</text>
</a>
</g>
</g>
<!-- BaseExpression&#45;&gt;UnaryExpression -->
<g id="edge3" class="edge">
<title>BaseExpression&#45;&gt;UnaryExpression</title>
<path fill="none" stroke="black" stroke-width="0.5" d="M257.3,-9.5C266.78,-9.5 276.65,-9.5 286.33,-9.5"/>
<polygon fill="black" stroke="black" stroke-width="0.5" points="286.9,-11.25 291.9,-9.5 286.9,-7.75 286.9,-11.25"/>
</g>
<!-- ModelEntity -->
<g id="node2" class="node">
<title>ModelEntity</title>
<g id="a_node2"><a xlink:href="../pyVHDLModel.Base.html#pyVHDLModel.Base.ModelEntity" xlink:title="``ModelEntity`` is the base&#45;class for all classes in the VHDL language model, except for mixin classes (see multiple" target="_top">
<polygon fill="white" stroke="#1e90ff" points="99,-19 0,-19 0,0 99,0 99,-19"/>
<text text-anchor="middle" x="49.5" y="-7" font-family="Vera Sans, DejaVu Sans, Liberation Sans, Arial, Helvetica, sans" font-size="10.00">ModelEntity</text>
</a>
</g>
</g>
<!-- ModelEntity&#45;&gt;BaseExpression -->
<g id="edge1" class="edge">
<title>ModelEntity&#45;&gt;BaseExpression</title>
<path fill="none" stroke="black" stroke-width="0.5" d="M99.42,-9.5C108.69,-9.5 118.53,-9.5 128.24,-9.5"/>
<polygon fill="black" stroke="black" stroke-width="0.5" points="128.84,-11.25 133.84,-9.5 128.84,-7.75 128.84,-11.25"/>
</g>
<!-- TypeConversion -->
<g id="node3" class="node">
<title>TypeConversion</title>
<g id="a_node3"><a xlink:href="../pyVHDLModel/pyVHDLModel.Expression.html#pyVHDLModel.Expression.TypeConversion" xlink:title="TypeConversion" target="_top">
<polygon fill="white" stroke="#1e90ff" points="580,-19 458,-19 458,0 580,0 580,-19"/>
<text text-anchor="middle" x="519" y="-7" font-family="Vera Sans, DejaVu Sans, Liberation Sans, Arial, Helvetica, sans" font-size="10.00">TypeConversion</text>
</a>
</g>
</g>
<!-- UnaryExpression&#45;&gt;TypeConversion -->
<g id="edge2" class="edge">
<title>UnaryExpression&#45;&gt;TypeConversion</title>
<path fill="none" stroke="black" stroke-width="0.5" d="M422.46,-9.5C431.98,-9.5 441.82,-9.5 451.4,-9.5"/>
<polygon fill="black" stroke="black" stroke-width="0.5" points="451.9,-11.25 456.9,-9.5 451.9,-7.75 451.9,-11.25"/>
</g>
</g>
</svg>
