<?xml version="1.0" encoding="UTF-8" standalone="no"?>
<!DOCTYPE svg PUBLIC "-//W3C//DTD SVG 1.1//EN"
 "http://www.w3.org/Graphics/SVG/1.1/DTD/svg11.dtd">
<!-- Generated by graphviz version 7.0.5 (20221223.1930)
 -->
<!-- Title: inheritance8a20b739ef Pages: 1 -->
<svg width="393pt" height="64pt"
 viewBox="0.00 0.00 393.00 64.00" xmlns="http://www.w3.org/2000/svg" xmlns:xlink="http://www.w3.org/1999/xlink">
<g id="graph0" class="graph" transform="scale(1 1) rotate(0) translate(4 60)">
<title>inheritance8a20b739ef</title>
<!-- ArchitectureSymbol -->
<g id="node1" class="node">
<title>ArchitectureSymbol</title>
<g id="a_node1"><a xlink:href="../pyVHDLModel/pyVHDLModel.Symbol.html#pyVHDLModel.Symbol.ArchitectureSymbol" xlink:title="An entity reference in an entity instantiation with architecture name." target="_top">
<polygon fill="white" stroke="#1e90ff" points="385,-37 233,-37 233,-18 385,-18 385,-37"/>
<text text-anchor="middle" x="309" y="-25" font-family="Vera Sans, DejaVu Sans, Liberation Sans, Arial, Helvetica, sans" font-size="10.00">ArchitectureSymbol</text>
</a>
</g>
</g>
<!-- Name -->
<g id="node2" class="node">
<title>Name</title>
<g id="a_node2"><a xlink:href="../pyVHDLModel.Name.html#pyVHDLModel.Name.Name" xlink:title="``Name`` is the base&#45;class for all *names* in the VHDL language model." target="_top">
<polygon fill="white" stroke="#1e90ff" points="193,-56 139,-56 139,-37 193,-37 193,-56"/>
<text text-anchor="middle" x="166" y="-44" font-family="Vera Sans, DejaVu Sans, Liberation Sans, Arial, Helvetica, sans" font-size="10.00">Name</text>
</a>
</g>
</g>
<!-- Name&#45;&gt;ArchitectureSymbol -->
<g id="edge1" class="edge">
<title>Name&#45;&gt;ArchitectureSymbol</title>
<path fill="none" stroke="black" stroke-width="0.5" d="M193.19,-42.97C203.25,-41.62 215.34,-39.99 227.84,-38.3"/>
<polygon fill="black" stroke="black" stroke-width="0.5" points="228.53,-39.98 233.25,-37.57 228.06,-36.51 228.53,-39.98"/>
</g>
<!-- Symbol -->
<g id="node3" class="node">
<title>Symbol</title>
<g id="a_node3"><a xlink:href="../pyVHDLModel/pyVHDLModel.Symbol.html#pyVHDLModel.Symbol.Symbol" xlink:title="Symbol" target="_top">
<polygon fill="white" stroke="#1e90ff" points="197,-19 135,-19 135,0 197,0 197,-19"/>
<text text-anchor="middle" x="166" y="-7" font-family="Vera Sans, DejaVu Sans, Liberation Sans, Arial, Helvetica, sans" font-size="10.00">Symbol</text>
</a>
</g>
</g>
<!-- Symbol&#45;&gt;ArchitectureSymbol -->
<g id="edge2" class="edge">
<title>Symbol&#45;&gt;ArchitectureSymbol</title>
<path fill="none" stroke="black" stroke-width="0.5" d="M197.25,-13.36C205.96,-14.47 215.9,-15.74 226.18,-17.05"/>
<polygon fill="black" stroke="black" stroke-width="0.5" points="226.68,-18.88 231.86,-17.78 227.12,-15.41 226.68,-18.88"/>
</g>
<!-- ModelEntity -->
<g id="node4" class="node">
<title>ModelEntity</title>
<g id="a_node4"><a xlink:href="../pyVHDLModel.Base.html#pyVHDLModel.Base.ModelEntity" xlink:title="``ModelEntity`` is the base&#45;class for all classes in the VHDL language model, except for mixin classes (see multiple" target="_top">
<polygon fill="white" stroke="#1e90ff" points="99,-56 0,-56 0,-37 99,-37 99,-56"/>
<text text-anchor="middle" x="49.5" y="-44" font-family="Vera Sans, DejaVu Sans, Liberation Sans, Arial, Helvetica, sans" font-size="10.00">ModelEntity</text>
</a>
</g>
</g>
<!-- ModelEntity&#45;&gt;Name -->
<g id="edge3" class="edge">
<title>ModelEntity&#45;&gt;Name</title>
<path fill="none" stroke="black" stroke-width="0.5" d="M99.39,-46.5C110.46,-46.5 121.95,-46.5 132.17,-46.5"/>
<polygon fill="black" stroke="black" stroke-width="0.5" points="132.93,-48.25 137.93,-46.5 132.93,-44.75 132.93,-48.25"/>
</g>
</g>
</svg>
