<?xml version="1.0" encoding="UTF-8" standalone="no"?>
<!DOCTYPE svg PUBLIC "-//W3C//DTD SVG 1.1//EN"
 "http://www.w3.org/Graphics/SVG/1.1/DTD/svg11.dtd">
<!-- Generated by graphviz version 7.0.5 (20221223.1930)
 -->
<!-- Title: inheritance0376ade860 Pages: 1 -->
<svg width="295pt" height="64pt"
 viewBox="0.00 0.00 295.00 64.00" xmlns="http://www.w3.org/2000/svg" xmlns:xlink="http://www.w3.org/1999/xlink">
<g id="graph0" class="graph" transform="scale(1 1) rotate(0) translate(4 60)">
<title>inheritance0376ade860</title>
<!-- Document -->
<g id="node1" class="node">
<title>Document</title>
<g id="a_node1"><a xlink:href="../pyVHDLModel/pyVHDLModel.html#pyVHDLModel.Document" xlink:title="A ``Document`` represents a sourcefile. It contains *primary* and *secondary* design units." target="_top">
<polygon fill="white" stroke="#1e90ff" points="287,-37 210,-37 210,-18 287,-18 287,-37"/>
<text text-anchor="middle" x="248.5" y="-25" font-family="Vera Sans, DejaVu Sans, Liberation Sans, Arial, Helvetica, sans" font-size="10.00">Document</text>
</a>
</g>
</g>
<!-- ModelEntity -->
<g id="node2" class="node">
<title>ModelEntity</title>
<g id="a_node2"><a xlink:href="../pyVHDLModel.Base.html#pyVHDLModel.Base.ModelEntity" xlink:title="``ModelEntity`` is the base&#45;class for all classes in the VHDL language model, except for mixin classes (see multiple" target="_top">
<polygon fill="white" stroke="#1e90ff" points="136.5,-56 37.5,-56 37.5,-37 136.5,-37 136.5,-56"/>
<text text-anchor="middle" x="87" y="-44" font-family="Vera Sans, DejaVu Sans, Liberation Sans, Arial, Helvetica, sans" font-size="10.00">ModelEntity</text>
</a>
</g>
</g>
<!-- ModelEntity&#45;&gt;Document -->
<g id="edge1" class="edge">
<title>ModelEntity&#45;&gt;Document</title>
<path fill="none" stroke="black" stroke-width="0.5" d="M136.72,-40.7C157.98,-38.16 182.71,-35.22 203.41,-32.75"/>
<polygon fill="black" stroke="black" stroke-width="0.5" points="204.19,-34.42 208.95,-32.09 203.78,-30.95 204.19,-34.42"/>
</g>
<!-- DocumentedEntityMixin -->
<g id="node3" class="node">
<title>DocumentedEntityMixin</title>
<g id="a_node3"><a xlink:href="../pyVHDLModel.Base.html#pyVHDLModel.Base.DocumentedEntityMixin" xlink:title="A ``DocumentedEntityMixin`` is a mixin class for all VHDL entities that can have an associated documentation." target="_top">
<polygon fill="white" stroke="#1e90ff" points="174,-19 0,-19 0,0 174,0 174,-19"/>
<text text-anchor="middle" x="87" y="-7" font-family="Vera Sans, DejaVu Sans, Liberation Sans, Arial, Helvetica, sans" font-size="10.00">DocumentedEntityMixin</text>
</a>
</g>
</g>
<!-- DocumentedEntityMixin&#45;&gt;Document -->
<g id="edge2" class="edge">
<title>DocumentedEntityMixin&#45;&gt;Document</title>
<path fill="none" stroke="black" stroke-width="0.5" d="M174.29,-19.24C184.42,-20.38 194.42,-21.51 203.61,-22.55"/>
<polygon fill="black" stroke="black" stroke-width="0.5" points="203.93,-24.34 209.09,-23.17 204.32,-20.87 203.93,-24.34"/>
</g>
</g>
</svg>
