<?xml version="1.0" encoding="UTF-8" standalone="no"?>
<!DOCTYPE svg PUBLIC "-//W3C//DTD SVG 1.1//EN"
 "http://www.w3.org/Graphics/SVG/1.1/DTD/svg11.dtd">
<!-- Generated by graphviz version 7.0.5 (20221223.1930)
 -->
<!-- Title: inheritance46c0dfd6ec Pages: 1 -->
<svg width="576pt" height="66pt"
 viewBox="0.00 0.00 576.00 66.12" xmlns="http://www.w3.org/2000/svg" xmlns:xlink="http://www.w3.org/1999/xlink">
<g id="graph0" class="graph" transform="scale(0.79668 0.79668) rotate(0) translate(4 79)">
<title>inheritance46c0dfd6ec</title>
<!-- LabeledEntityMixin -->
<g id="node1" class="node">
<title>LabeledEntityMixin</title>
<g id="a_node1"><a xlink:href="../pyVHDLModel.Base.html#pyVHDLModel.Base.LabeledEntityMixin" xlink:title="A ``LabeledEntityMixin`` is a mixin class for all VHDL entities that can have labels." target="_top">
<polygon fill="white" stroke="#1e90ff" points="152,-75 0,-75 0,-56 152,-56 152,-75"/>
<text text-anchor="middle" x="76" y="-63" font-family="Vera Sans, DejaVu Sans, Liberation Sans, Arial, Helvetica, sans" font-size="10.00">LabeledEntityMixin</text>
</a>
</g>
</g>
<!-- Statement -->
<g id="node6" class="node">
<title>Statement</title>
<g id="a_node6"><a xlink:href="../pyVHDLModel.Common.html#pyVHDLModel.Common.Statement" xlink:title="A ``Statement`` is a base&#45;class for all statements." target="_top">
<polygon fill="white" stroke="#1e90ff" points="272,-56 188,-56 188,-37 272,-37 272,-56"/>
<text text-anchor="middle" x="230" y="-44" font-family="Vera Sans, DejaVu Sans, Liberation Sans, Arial, Helvetica, sans" font-size="10.00">Statement</text>
</a>
</g>
</g>
<!-- LabeledEntityMixin&#45;&gt;Statement -->
<g id="edge5" class="edge">
<title>LabeledEntityMixin&#45;&gt;Statement</title>
<path fill="none" stroke="black" stroke-width="0.5" d="M152.11,-56.11C162.08,-54.87 172.06,-53.62 181.38,-52.45"/>
<polygon fill="black" stroke="black" stroke-width="0.5" points="182.23,-54.11 186.97,-51.75 181.79,-50.64 182.23,-54.11"/>
</g>
<!-- ModelEntity -->
<g id="node2" class="node">
<title>ModelEntity</title>
<g id="a_node2"><a xlink:href="../pyVHDLModel.Base.html#pyVHDLModel.Base.ModelEntity" xlink:title="``ModelEntity`` is the base&#45;class for all classes in the VHDL language model, except for mixin classes (see multiple" target="_top">
<polygon fill="white" stroke="#1e90ff" points="125.5,-38 26.5,-38 26.5,-19 125.5,-19 125.5,-38"/>
<text text-anchor="middle" x="76" y="-26" font-family="Vera Sans, DejaVu Sans, Liberation Sans, Arial, Helvetica, sans" font-size="10.00">ModelEntity</text>
</a>
</g>
</g>
<!-- ModelEntity&#45;&gt;Statement -->
<g id="edge4" class="edge">
<title>ModelEntity&#45;&gt;Statement</title>
<path fill="none" stroke="black" stroke-width="0.5" d="M125.93,-34.29C143.71,-36.4 163.76,-38.77 181.42,-40.87"/>
<polygon fill="black" stroke="black" stroke-width="0.5" points="181.88,-42.68 187.06,-41.53 182.3,-39.21 181.88,-42.68"/>
</g>
<!-- ReportStatementMixin -->
<g id="node3" class="node">
<title>ReportStatementMixin</title>
<g id="a_node3"><a xlink:href="../pyVHDLModel.Base.html#pyVHDLModel.Base.ReportStatementMixin" xlink:title="A ``MixinReportStatement`` is a mixin&#45;class for all report and assert statements." target="_top">
<polygon fill="white" stroke="#1e90ff" points="475,-19 308,-19 308,0 475,0 475,-19"/>
<text text-anchor="middle" x="391.5" y="-7" font-family="Vera Sans, DejaVu Sans, Liberation Sans, Arial, Helvetica, sans" font-size="10.00">ReportStatementMixin</text>
</a>
</g>
</g>
<!-- SequentialReportStatement -->
<g id="node4" class="node">
<title>SequentialReportStatement</title>
<g id="a_node4"><a xlink:href="../pyVHDLModel/pyVHDLModel.Sequential.html#pyVHDLModel.Sequential.SequentialReportStatement" xlink:title="SequentialReportStatement" target="_top">
<polygon fill="white" stroke="#1e90ff" points="715,-37 511,-37 511,-18 715,-18 715,-37"/>
<text text-anchor="middle" x="613" y="-25" font-family="Vera Sans, DejaVu Sans, Liberation Sans, Arial, Helvetica, sans" font-size="10.00">SequentialReportStatement</text>
</a>
</g>
</g>
<!-- ReportStatementMixin&#45;&gt;SequentialReportStatement -->
<g id="edge2" class="edge">
<title>ReportStatementMixin&#45;&gt;SequentialReportStatement</title>
<path fill="none" stroke="black" stroke-width="0.5" d="M475.48,-16.31C484.94,-17.08 494.69,-17.88 504.41,-18.68"/>
<polygon fill="black" stroke="black" stroke-width="0.5" points="504.91,-20.47 510.04,-19.14 505.2,-16.99 504.91,-20.47"/>
</g>
<!-- SequentialStatement -->
<g id="node5" class="node">
<title>SequentialStatement</title>
<g id="a_node5"><a xlink:href="../pyVHDLModel/pyVHDLModel.Sequential.html#pyVHDLModel.Sequential.SequentialStatement" xlink:title="A ``SequentialStatement`` is a base&#45;class for all sequential statements." target="_top">
<polygon fill="white" stroke="#1e90ff" points="471,-56 312,-56 312,-37 471,-37 471,-56"/>
<text text-anchor="middle" x="391.5" y="-44" font-family="Vera Sans, DejaVu Sans, Liberation Sans, Arial, Helvetica, sans" font-size="10.00">SequentialStatement</text>
</a>
</g>
</g>
<!-- SequentialStatement&#45;&gt;SequentialReportStatement -->
<g id="edge1" class="edge">
<title>SequentialStatement&#45;&gt;SequentialReportStatement</title>
<path fill="none" stroke="black" stroke-width="0.5" d="M471.43,-39.67C482.22,-38.73 493.44,-37.76 504.62,-36.79"/>
<polygon fill="black" stroke="black" stroke-width="0.5" points="505.24,-38.5 510.07,-36.32 504.94,-35.01 505.24,-38.5"/>
</g>
<!-- Statement&#45;&gt;SequentialStatement -->
<g id="edge3" class="edge">
<title>Statement&#45;&gt;SequentialStatement</title>
<path fill="none" stroke="black" stroke-width="0.5" d="M272.49,-46.5C282.69,-46.5 293.99,-46.5 305.43,-46.5"/>
<polygon fill="black" stroke="black" stroke-width="0.5" points="306.04,-48.25 311.04,-46.5 306.04,-44.75 306.04,-48.25"/>
</g>
</g>
</svg>
