<?xml version="1.0" encoding="UTF-8" standalone="no"?>
<!DOCTYPE svg PUBLIC "-//W3C//DTD SVG 1.1//EN"
 "http://www.w3.org/Graphics/SVG/1.1/DTD/svg11.dtd">
<!-- Generated by graphviz version 7.0.5 (20221223.1930)
 -->
<!-- Title: inheritance245c447150 Pages: 1 -->
<svg width="576pt" height="93pt"
 viewBox="0.00 0.00 576.00 92.64" xmlns="http://www.w3.org/2000/svg" xmlns:xlink="http://www.w3.org/1999/xlink">
<g id="graph0" class="graph" transform="scale(0.671329 0.671329) rotate(0) translate(4 134)">
<title>inheritance245c447150</title>
<!-- DocumentedEntityMixin -->
<g id="node1" class="node">
<title>DocumentedEntityMixin</title>
<g id="a_node1"><a xlink:href="../pyVHDLModel.Base.html#pyVHDLModel.Base.DocumentedEntityMixin" xlink:title="A ``DocumentedEntityMixin`` is a mixin class for all VHDL entities that can have an associated documentation." target="_top">
<polygon fill="white" stroke="#1e90ff" points="185.5,-120 11.5,-120 11.5,-101 185.5,-101 185.5,-120"/>
<text text-anchor="middle" x="98.5" y="-108" font-family="Vera Sans, DejaVu Sans, Liberation Sans, Arial, Helvetica, sans" font-size="10.00">DocumentedEntityMixin</text>
</a>
</g>
</g>
<!-- InterfaceItem -->
<g id="node2" class="node">
<title>InterfaceItem</title>
<g id="a_node2"><a xlink:href="../pyVHDLModel/pyVHDLModel.Interface.html#pyVHDLModel.Interface.InterfaceItem" xlink:title="An ``InterfaceItem`` is a base&#45;class for all mixin&#45;classes for all interface items." target="_top">
<polygon fill="white" stroke="#1e90ff" points="396,-130 282,-130 282,-111 396,-111 396,-130"/>
<text text-anchor="middle" x="339" y="-118" font-family="Vera Sans, DejaVu Sans, Liberation Sans, Arial, Helvetica, sans" font-size="10.00">InterfaceItem</text>
</a>
</g>
</g>
<!-- DocumentedEntityMixin&#45;&gt;InterfaceItem -->
<g id="edge1" class="edge">
<title>DocumentedEntityMixin&#45;&gt;InterfaceItem</title>
<path fill="none" stroke="black" stroke-width="0.5" d="M185.94,-114.12C215.44,-115.36 247.84,-116.72 275.12,-117.86"/>
<polygon fill="black" stroke="black" stroke-width="0.5" points="275.76,-119.64 280.83,-118.1 275.9,-116.14 275.76,-119.64"/>
</g>
<!-- Obj -->
<g id="node6" class="node">
<title>Obj</title>
<g id="a_node6"><a xlink:href="../pyVHDLModel.Object.html#pyVHDLModel.Object.Obj" xlink:title="Obj" target="_top">
<polygon fill="white" stroke="#1e90ff" points="366,-56 312,-56 312,-37 366,-37 366,-56"/>
<text text-anchor="middle" x="339" y="-44" font-family="Vera Sans, DejaVu Sans, Liberation Sans, Arial, Helvetica, sans" font-size="10.00">Obj</text>
</a>
</g>
</g>
<!-- DocumentedEntityMixin&#45;&gt;Obj -->
<g id="edge4" class="edge">
<title>DocumentedEntityMixin&#45;&gt;Obj</title>
<path fill="none" stroke="black" stroke-width="0.5" d="M142.31,-100.56C159.55,-96.06 179.46,-90.24 197,-83.5 213.7,-77.08 216.03,-71.15 233,-65.5 256.58,-57.65 284.27,-52.81 305.3,-49.98"/>
<polygon fill="black" stroke="black" stroke-width="0.5" points="306.11,-51.64 310.84,-49.27 305.66,-48.17 306.11,-51.64"/>
</g>
<!-- PortInterfaceItem -->
<g id="node7" class="node">
<title>PortInterfaceItem</title>
<g id="a_node7"><a xlink:href="../pyVHDLModel/pyVHDLModel.Interface.html#pyVHDLModel.Interface.PortInterfaceItem" xlink:title="A ``PortInterfaceItem`` is a mixin class for all port interface items." target="_top">
<polygon fill="white" stroke="#1e90ff" points="625,-93 481,-93 481,-74 625,-74 625,-93"/>
<text text-anchor="middle" x="553" y="-81" font-family="Vera Sans, DejaVu Sans, Liberation Sans, Arial, Helvetica, sans" font-size="10.00">PortInterfaceItem</text>
</a>
</g>
</g>
<!-- InterfaceItem&#45;&gt;PortInterfaceItem -->
<g id="edge5" class="edge">
<title>InterfaceItem&#45;&gt;PortInterfaceItem</title>
<path fill="none" stroke="black" stroke-width="0.5" d="M396.41,-110.89C412.14,-108.2 429.24,-105.25 445,-102.5 459.56,-99.96 475.22,-97.2 489.95,-94.58"/>
<polygon fill="black" stroke="black" stroke-width="0.5" points="490.84,-96.2 495.45,-93.61 490.23,-92.76 490.84,-96.2"/>
</g>
<!-- InterfaceItemWithMode -->
<g id="node3" class="node">
<title>InterfaceItemWithMode</title>
<g id="a_node3"><a xlink:href="../pyVHDLModel/pyVHDLModel.Interface.html#pyVHDLModel.Interface.InterfaceItemWithMode" xlink:title="An ``InterfaceItemWithMode`` is a mixin&#45;class to provide a ``Mode`` to interface items." target="_top">
<polygon fill="white" stroke="#1e90ff" points="426,-93 252,-93 252,-74 426,-74 426,-93"/>
<text text-anchor="middle" x="339" y="-81" font-family="Vera Sans, DejaVu Sans, Liberation Sans, Arial, Helvetica, sans" font-size="10.00">InterfaceItemWithMode</text>
</a>
</g>
</g>
<!-- InterfaceItemWithMode&#45;&gt;PortInterfaceItem -->
<g id="edge6" class="edge">
<title>InterfaceItemWithMode&#45;&gt;PortInterfaceItem</title>
<path fill="none" stroke="black" stroke-width="0.5" d="M426.23,-83.5C442.22,-83.5 458.83,-83.5 474.54,-83.5"/>
<polygon fill="black" stroke="black" stroke-width="0.5" points="474.99,-85.25 479.99,-83.5 474.99,-81.75 474.99,-85.25"/>
</g>
<!-- ModelEntity -->
<g id="node4" class="node">
<title>ModelEntity</title>
<g id="a_node4"><a xlink:href="../pyVHDLModel.Base.html#pyVHDLModel.Base.ModelEntity" xlink:title="``ModelEntity`` is the base&#45;class for all classes in the VHDL language model, except for mixin classes (see multiple" target="_top">
<polygon fill="white" stroke="#1e90ff" points="148,-74 49,-74 49,-55 148,-55 148,-74"/>
<text text-anchor="middle" x="98.5" y="-62" font-family="Vera Sans, DejaVu Sans, Liberation Sans, Arial, Helvetica, sans" font-size="10.00">ModelEntity</text>
</a>
</g>
</g>
<!-- ModelEntity&#45;&gt;Obj -->
<g id="edge2" class="edge">
<title>ModelEntity&#45;&gt;Obj</title>
<path fill="none" stroke="black" stroke-width="0.5" d="M148.34,-60.81C195.3,-57.27 264.95,-52.01 305.48,-48.95"/>
<polygon fill="black" stroke="black" stroke-width="0.5" points="306.12,-50.66 310.98,-48.54 305.86,-47.17 306.12,-50.66"/>
</g>
<!-- MultipleNamedEntityMixin -->
<g id="node5" class="node">
<title>MultipleNamedEntityMixin</title>
<g id="a_node5"><a xlink:href="../pyVHDLModel.Base.html#pyVHDLModel.Base.MultipleNamedEntityMixin" xlink:title="A ``MultipleNamedEntityMixin`` is a mixin class for all VHDL entities that declare multiple instances at once by" target="_top">
<polygon fill="white" stroke="#1e90ff" points="197,-37 0,-37 0,-18 197,-18 197,-37"/>
<text text-anchor="middle" x="98.5" y="-25" font-family="Vera Sans, DejaVu Sans, Liberation Sans, Arial, Helvetica, sans" font-size="10.00">MultipleNamedEntityMixin</text>
</a>
</g>
</g>
<!-- MultipleNamedEntityMixin&#45;&gt;Obj -->
<g id="edge3" class="edge">
<title>MultipleNamedEntityMixin&#45;&gt;Obj</title>
<path fill="none" stroke="black" stroke-width="0.5" d="M197.2,-35.28C235.66,-38.35 277.23,-41.66 305.15,-43.88"/>
<polygon fill="black" stroke="black" stroke-width="0.5" points="305.71,-45.68 310.84,-44.34 305.99,-42.19 305.71,-45.68"/>
</g>
<!-- Signal -->
<g id="node9" class="node">
<title>Signal</title>
<g id="a_node9"><a xlink:href="../pyVHDLModel.Object.html#pyVHDLModel.Object.Signal" xlink:title="Signal" target="_top">
<polygon fill="white" stroke="#1e90ff" points="584,-56 522,-56 522,-37 584,-37 584,-56"/>
<text text-anchor="middle" x="553" y="-44" font-family="Vera Sans, DejaVu Sans, Liberation Sans, Arial, Helvetica, sans" font-size="10.00">Signal</text>
</a>
</g>
</g>
<!-- Obj&#45;&gt;Signal -->
<g id="edge9" class="edge">
<title>Obj&#45;&gt;Signal</title>
<path fill="none" stroke="black" stroke-width="0.5" d="M366.42,-46.5C404.01,-46.5 473.05,-46.5 515.5,-46.5"/>
<polygon fill="black" stroke="black" stroke-width="0.5" points="516.06,-48.25 521.06,-46.5 516.06,-44.75 516.06,-48.25"/>
</g>
<!-- PortSignalInterfaceItem -->
<g id="node8" class="node">
<title>PortSignalInterfaceItem</title>
<g id="a_node8"><a xlink:href="../pyVHDLModel/pyVHDLModel.Interface.html#pyVHDLModel.Interface.PortSignalInterfaceItem" xlink:title="PortSignalInterfaceItem" target="_top">
<polygon fill="white" stroke="#1e90ff" points="850,-74 661,-74 661,-55 850,-55 850,-74"/>
<text text-anchor="middle" x="755.5" y="-62" font-family="Vera Sans, DejaVu Sans, Liberation Sans, Arial, Helvetica, sans" font-size="10.00">PortSignalInterfaceItem</text>
</a>
</g>
</g>
<!-- PortInterfaceItem&#45;&gt;PortSignalInterfaceItem -->
<g id="edge8" class="edge">
<title>PortInterfaceItem&#45;&gt;PortSignalInterfaceItem</title>
<path fill="none" stroke="black" stroke-width="0.5" d="M625.25,-76.75C634.67,-75.86 644.46,-74.93 654.25,-74"/>
<polygon fill="black" stroke="black" stroke-width="0.5" points="655.12,-75.68 659.93,-73.46 654.79,-72.19 655.12,-75.68"/>
</g>
<!-- Signal&#45;&gt;PortSignalInterfaceItem -->
<g id="edge7" class="edge">
<title>Signal&#45;&gt;PortSignalInterfaceItem</title>
<path fill="none" stroke="black" stroke-width="0.5" d="M584.45,-49.23C603.34,-50.93 628.78,-53.21 654.23,-55.5"/>
<polygon fill="black" stroke="black" stroke-width="0.5" points="654.81,-57.31 659.94,-56.01 655.12,-53.82 654.81,-57.31"/>
</g>
<!-- WithDefaultExpressionMixin -->
<g id="node10" class="node">
<title>WithDefaultExpressionMixin</title>
<g id="a_node10"><a xlink:href="../pyVHDLModel.Object.html#pyVHDLModel.Object.WithDefaultExpressionMixin" xlink:title="A ``WithDefaultExpression`` is a mixin class for all objects declarations accepting default expressions." target="_top">
<polygon fill="white" stroke="#1e90ff" points="445,-19 233,-19 233,0 445,0 445,-19"/>
<text text-anchor="middle" x="339" y="-7" font-family="Vera Sans, DejaVu Sans, Liberation Sans, Arial, Helvetica, sans" font-size="10.00">WithDefaultExpressionMixin</text>
</a>
</g>
</g>
<!-- WithDefaultExpressionMixin&#45;&gt;Signal -->
<g id="edge10" class="edge">
<title>WithDefaultExpressionMixin&#45;&gt;Signal</title>
<path fill="none" stroke="black" stroke-width="0.5" d="M398.6,-19.48C413.72,-22.08 429.97,-24.88 445,-27.5 468.41,-31.59 494.69,-36.25 515.35,-39.94"/>
<polygon fill="black" stroke="black" stroke-width="0.5" points="515.59,-41.76 520.82,-40.91 516.21,-38.31 515.59,-41.76"/>
</g>
</g>
</svg>
