<?xml version="1.0" encoding="UTF-8" standalone="no"?>
<!DOCTYPE svg PUBLIC "-//W3C//DTD SVG 1.1//EN"
 "http://www.w3.org/Graphics/SVG/1.1/DTD/svg11.dtd">
<!-- Generated by graphviz version 7.0.5 (20221223.1930)
 -->
<!-- Title: inheritancecf5b896648 Pages: 1 -->
<svg width="576pt" height="44pt"
 viewBox="0.00 0.00 576.00 43.73" xmlns="http://www.w3.org/2000/svg" xmlns:xlink="http://www.w3.org/1999/xlink">
<g id="graph0" class="graph" transform="scale(0.683274 0.683274) rotate(0) translate(4 60)">
<title>inheritancecf5b896648</title>
<!-- ComponentInstantiation -->
<g id="node1" class="node">
<title>ComponentInstantiation</title>
<g id="a_node1"><a xlink:href="../pyVHDLModel/pyVHDLModel.Concurrent.html#pyVHDLModel.Concurrent.ComponentInstantiation" xlink:title="ComponentInstantiation" target="_top">
<polygon fill="white" stroke="#1e90ff" points="835,-37 653,-37 653,-18 835,-18 835,-37"/>
<text text-anchor="middle" x="744" y="-25" font-family="Vera Sans, DejaVu Sans, Liberation Sans, Arial, Helvetica, sans" font-size="10.00">ComponentInstantiation</text>
</a>
</g>
</g>
<!-- Instantiation -->
<g id="node2" class="node">
<title>Instantiation</title>
<g id="a_node2"><a xlink:href="../pyVHDLModel/pyVHDLModel.Concurrent.html#pyVHDLModel.Concurrent.Instantiation" xlink:title="Instantiation" target="_top">
<polygon fill="white" stroke="#1e90ff" points="617,-37 503,-37 503,-18 617,-18 617,-37"/>
<text text-anchor="middle" x="560" y="-25" font-family="Vera Sans, DejaVu Sans, Liberation Sans, Arial, Helvetica, sans" font-size="10.00">Instantiation</text>
</a>
</g>
</g>
<!-- Instantiation&#45;&gt;ComponentInstantiation -->
<g id="edge1" class="edge">
<title>Instantiation&#45;&gt;ComponentInstantiation</title>
<path fill="none" stroke="black" stroke-width="0.5" d="M617.09,-27.5C626.43,-27.5 636.35,-27.5 646.36,-27.5"/>
<polygon fill="black" stroke="black" stroke-width="0.5" points="646.85,-29.25 651.85,-27.5 646.85,-25.75 646.85,-29.25"/>
</g>
<!-- ConcurrentStatement -->
<g id="node3" class="node">
<title>ConcurrentStatement</title>
<g id="a_node3"><a xlink:href="../pyVHDLModel/pyVHDLModel.Concurrent.html#pyVHDLModel.Concurrent.ConcurrentStatement" xlink:title="A ``ConcurrentStatement`` is a base&#45;class for all concurrent statements." target="_top">
<polygon fill="white" stroke="#1e90ff" points="467,-37 308,-37 308,-18 467,-18 467,-37"/>
<text text-anchor="middle" x="387.5" y="-25" font-family="Vera Sans, DejaVu Sans, Liberation Sans, Arial, Helvetica, sans" font-size="10.00">ConcurrentStatement</text>
</a>
</g>
</g>
<!-- ConcurrentStatement&#45;&gt;Instantiation -->
<g id="edge3" class="edge">
<title>ConcurrentStatement&#45;&gt;Instantiation</title>
<path fill="none" stroke="black" stroke-width="0.5" d="M467.26,-27.5C477.05,-27.5 486.94,-27.5 496.44,-27.5"/>
<polygon fill="black" stroke="black" stroke-width="0.5" points="497.18,-29.25 502.18,-27.5 497.18,-25.75 497.18,-29.25"/>
</g>
<!-- Statement -->
<g id="node4" class="node">
<title>Statement</title>
<g id="a_node4"><a xlink:href="../pyVHDLModel.Common.html#pyVHDLModel.Common.Statement" xlink:title="A ``Statement`` is a base&#45;class for all statements." target="_top">
<polygon fill="white" stroke="#1e90ff" points="272,-37 188,-37 188,-18 272,-18 272,-37"/>
<text text-anchor="middle" x="230" y="-25" font-family="Vera Sans, DejaVu Sans, Liberation Sans, Arial, Helvetica, sans" font-size="10.00">Statement</text>
</a>
</g>
</g>
<!-- Statement&#45;&gt;ConcurrentStatement -->
<g id="edge2" class="edge">
<title>Statement&#45;&gt;ConcurrentStatement</title>
<path fill="none" stroke="black" stroke-width="0.5" d="M272.26,-27.5C281.35,-27.5 291.3,-27.5 301.42,-27.5"/>
<polygon fill="black" stroke="black" stroke-width="0.5" points="301.98,-29.25 306.98,-27.5 301.98,-25.75 301.98,-29.25"/>
</g>
<!-- LabeledEntityMixin -->
<g id="node5" class="node">
<title>LabeledEntityMixin</title>
<g id="a_node5"><a xlink:href="../pyVHDLModel.Base.html#pyVHDLModel.Base.LabeledEntityMixin" xlink:title="A ``LabeledEntityMixin`` is a mixin class for all VHDL entities that can have labels." target="_top">
<polygon fill="white" stroke="#1e90ff" points="152,-56 0,-56 0,-37 152,-37 152,-56"/>
<text text-anchor="middle" x="76" y="-44" font-family="Vera Sans, DejaVu Sans, Liberation Sans, Arial, Helvetica, sans" font-size="10.00">LabeledEntityMixin</text>
</a>
</g>
</g>
<!-- LabeledEntityMixin&#45;&gt;Statement -->
<g id="edge5" class="edge">
<title>LabeledEntityMixin&#45;&gt;Statement</title>
<path fill="none" stroke="black" stroke-width="0.5" d="M152.11,-37.11C162.08,-35.87 172.06,-34.62 181.38,-33.45"/>
<polygon fill="black" stroke="black" stroke-width="0.5" points="182.23,-35.11 186.97,-32.75 181.79,-31.64 182.23,-35.11"/>
</g>
<!-- ModelEntity -->
<g id="node6" class="node">
<title>ModelEntity</title>
<g id="a_node6"><a xlink:href="../pyVHDLModel.Base.html#pyVHDLModel.Base.ModelEntity" xlink:title="``ModelEntity`` is the base&#45;class for all classes in the VHDL language model, except for mixin classes (see multiple" target="_top">
<polygon fill="white" stroke="#1e90ff" points="125.5,-19 26.5,-19 26.5,0 125.5,0 125.5,-19"/>
<text text-anchor="middle" x="76" y="-7" font-family="Vera Sans, DejaVu Sans, Liberation Sans, Arial, Helvetica, sans" font-size="10.00">ModelEntity</text>
</a>
</g>
</g>
<!-- ModelEntity&#45;&gt;Statement -->
<g id="edge4" class="edge">
<title>ModelEntity&#45;&gt;Statement</title>
<path fill="none" stroke="black" stroke-width="0.5" d="M125.93,-15.29C143.71,-17.4 163.76,-19.77 181.42,-21.87"/>
<polygon fill="black" stroke="black" stroke-width="0.5" points="181.88,-23.68 187.06,-22.53 182.3,-20.21 181.88,-23.68"/>
</g>
</g>
</svg>
