<?xml version="1.0" encoding="UTF-8" standalone="no"?>
<!DOCTYPE svg PUBLIC "-//W3C//DTD SVG 1.1//EN"
 "http://www.w3.org/Graphics/SVG/1.1/DTD/svg11.dtd">
<!-- Generated by graphviz version 7.0.5 (20221223.1930)
 -->
<!-- Title: inheritance3649c7a88a Pages: 1 -->
<svg width="576pt" height="57pt"
 viewBox="0.00 0.00 576.00 57.04" xmlns="http://www.w3.org/2000/svg" xmlns:xlink="http://www.w3.org/1999/xlink">
<g id="graph0" class="graph" transform="scale(0.695652 0.695652) rotate(0) translate(4 78)">
<title>inheritance3649c7a88a</title>
<!-- ConditionalMixin -->
<g id="node1" class="node">
<title>ConditionalMixin</title>
<g id="a_node1"><a xlink:href="../pyVHDLModel.Base.html#pyVHDLModel.Base.ConditionalMixin" xlink:title="A ``BaseConditional`` is a mixin&#45;class for all statements with a condition." target="_top">
<polygon fill="white" stroke="#1e90ff" points="456,-74 319,-74 319,-55 456,-55 456,-74"/>
<text text-anchor="middle" x="387.5" y="-62" font-family="Vera Sans, DejaVu Sans, Liberation Sans, Arial, Helvetica, sans" font-size="10.00">ConditionalMixin</text>
</a>
</g>
</g>
<!-- LoopControlStatement -->
<g id="node3" class="node">
<title>LoopControlStatement</title>
<g id="a_node3"><a xlink:href="../pyVHDLModel/pyVHDLModel.Sequential.html#pyVHDLModel.Sequential.LoopControlStatement" xlink:title="A ``LoopControlStatement`` is a base&#45;class for all loop controlling statements." target="_top">
<polygon fill="white" stroke="#1e90ff" points="670,-55 503,-55 503,-36 670,-36 670,-55"/>
<text text-anchor="middle" x="586.5" y="-43" font-family="Vera Sans, DejaVu Sans, Liberation Sans, Arial, Helvetica, sans" font-size="10.00">LoopControlStatement</text>
</a>
</g>
</g>
<!-- ConditionalMixin&#45;&gt;LoopControlStatement -->
<g id="edge3" class="edge">
<title>ConditionalMixin&#45;&gt;LoopControlStatement</title>
<path fill="none" stroke="black" stroke-width="0.5" d="M456.3,-57.96C469.23,-56.71 482.95,-55.39 496.43,-54.09"/>
<polygon fill="black" stroke="black" stroke-width="0.5" points="497.04,-55.79 501.85,-53.57 496.7,-52.31 497.04,-55.79"/>
</g>
<!-- ExitStatement -->
<g id="node2" class="node">
<title>ExitStatement</title>
<g id="a_node2"><a xlink:href="../pyVHDLModel/pyVHDLModel.Sequential.html#pyVHDLModel.Sequential.ExitStatement" xlink:title="ExitStatement" target="_top">
<polygon fill="white" stroke="#1e90ff" points="820,-55 706,-55 706,-36 820,-36 820,-55"/>
<text text-anchor="middle" x="763" y="-43" font-family="Vera Sans, DejaVu Sans, Liberation Sans, Arial, Helvetica, sans" font-size="10.00">ExitStatement</text>
</a>
</g>
</g>
<!-- LoopControlStatement&#45;&gt;ExitStatement -->
<g id="edge1" class="edge">
<title>LoopControlStatement&#45;&gt;ExitStatement</title>
<path fill="none" stroke="black" stroke-width="0.5" d="M670.41,-45.5C680.12,-45.5 689.91,-45.5 699.29,-45.5"/>
<polygon fill="black" stroke="black" stroke-width="0.5" points="699.95,-47.25 704.95,-45.5 699.95,-43.75 699.95,-47.25"/>
</g>
<!-- LabeledEntityMixin -->
<g id="node4" class="node">
<title>LabeledEntityMixin</title>
<g id="a_node4"><a xlink:href="../pyVHDLModel.Base.html#pyVHDLModel.Base.LabeledEntityMixin" xlink:title="A ``LabeledEntityMixin`` is a mixin class for all VHDL entities that can have labels." target="_top">
<polygon fill="white" stroke="#1e90ff" points="152,-56 0,-56 0,-37 152,-37 152,-56"/>
<text text-anchor="middle" x="76" y="-44" font-family="Vera Sans, DejaVu Sans, Liberation Sans, Arial, Helvetica, sans" font-size="10.00">LabeledEntityMixin</text>
</a>
</g>
</g>
<!-- Statement -->
<g id="node7" class="node">
<title>Statement</title>
<g id="a_node7"><a xlink:href="../pyVHDLModel.Common.html#pyVHDLModel.Common.Statement" xlink:title="A ``Statement`` is a base&#45;class for all statements." target="_top">
<polygon fill="white" stroke="#1e90ff" points="272,-37 188,-37 188,-18 272,-18 272,-37"/>
<text text-anchor="middle" x="230" y="-25" font-family="Vera Sans, DejaVu Sans, Liberation Sans, Arial, Helvetica, sans" font-size="10.00">Statement</text>
</a>
</g>
</g>
<!-- LabeledEntityMixin&#45;&gt;Statement -->
<g id="edge6" class="edge">
<title>LabeledEntityMixin&#45;&gt;Statement</title>
<path fill="none" stroke="black" stroke-width="0.5" d="M152.11,-37.11C162.08,-35.87 172.06,-34.62 181.38,-33.45"/>
<polygon fill="black" stroke="black" stroke-width="0.5" points="182.23,-35.11 186.97,-32.75 181.79,-31.64 182.23,-35.11"/>
</g>
<!-- SequentialStatement -->
<g id="node5" class="node">
<title>SequentialStatement</title>
<g id="a_node5"><a xlink:href="../pyVHDLModel/pyVHDLModel.Sequential.html#pyVHDLModel.Sequential.SequentialStatement" xlink:title="A ``SequentialStatement`` is a base&#45;class for all sequential statements." target="_top">
<polygon fill="white" stroke="#1e90ff" points="467,-37 308,-37 308,-18 467,-18 467,-37"/>
<text text-anchor="middle" x="387.5" y="-25" font-family="Vera Sans, DejaVu Sans, Liberation Sans, Arial, Helvetica, sans" font-size="10.00">SequentialStatement</text>
</a>
</g>
</g>
<!-- SequentialStatement&#45;&gt;LoopControlStatement -->
<g id="edge2" class="edge">
<title>SequentialStatement&#45;&gt;LoopControlStatement</title>
<path fill="none" stroke="black" stroke-width="0.5" d="M467.49,-34.72C476.98,-35.58 486.71,-36.47 496.33,-37.35"/>
<polygon fill="black" stroke="black" stroke-width="0.5" points="496.73,-39.15 501.87,-37.86 497.05,-35.66 496.73,-39.15"/>
</g>
<!-- ModelEntity -->
<g id="node6" class="node">
<title>ModelEntity</title>
<g id="a_node6"><a xlink:href="../pyVHDLModel.Base.html#pyVHDLModel.Base.ModelEntity" xlink:title="``ModelEntity`` is the base&#45;class for all classes in the VHDL language model, except for mixin classes (see multiple" target="_top">
<polygon fill="white" stroke="#1e90ff" points="125.5,-19 26.5,-19 26.5,0 125.5,0 125.5,-19"/>
<text text-anchor="middle" x="76" y="-7" font-family="Vera Sans, DejaVu Sans, Liberation Sans, Arial, Helvetica, sans" font-size="10.00">ModelEntity</text>
</a>
</g>
</g>
<!-- ModelEntity&#45;&gt;Statement -->
<g id="edge5" class="edge">
<title>ModelEntity&#45;&gt;Statement</title>
<path fill="none" stroke="black" stroke-width="0.5" d="M125.93,-15.29C143.71,-17.4 163.76,-19.77 181.42,-21.87"/>
<polygon fill="black" stroke="black" stroke-width="0.5" points="181.88,-23.68 187.06,-22.53 182.3,-20.21 181.88,-23.68"/>
</g>
<!-- Statement&#45;&gt;SequentialStatement -->
<g id="edge4" class="edge">
<title>Statement&#45;&gt;SequentialStatement</title>
<path fill="none" stroke="black" stroke-width="0.5" d="M272.26,-27.5C281.35,-27.5 291.3,-27.5 301.42,-27.5"/>
<polygon fill="black" stroke="black" stroke-width="0.5" points="301.98,-29.25 306.98,-27.5 301.98,-25.75 301.98,-29.25"/>
</g>
</g>
</svg>
