<?xml version="1.0" encoding="UTF-8" standalone="no"?>
<!DOCTYPE svg PUBLIC "-//W3C//DTD SVG 1.1//EN"
 "http://www.w3.org/Graphics/SVG/1.1/DTD/svg11.dtd">
<!-- Generated by graphviz version 7.0.5 (20221223.1930)
 -->
<!-- Title: inheritancefbe9a0300f Pages: 1 -->
<svg width="468pt" height="101pt"
 viewBox="0.00 0.00 468.00 101.00" xmlns="http://www.w3.org/2000/svg" xmlns:xlink="http://www.w3.org/1999/xlink">
<g id="graph0" class="graph" transform="scale(1 1) rotate(0) translate(4 97)">
<title>inheritancefbe9a0300f</title>
<!-- Branch -->
<g id="node1" class="node">
<title>Branch</title>
<g id="a_node1"><a xlink:href="../pyVHDLModel/pyVHDLModel.Sequential.html#pyVHDLModel.Sequential.Branch" xlink:title="A ``Branch`` is a base&#45;class for all branches in a if statement." target="_top">
<polygon fill="white" stroke="#1e90ff" points="298.5,-56 236.5,-56 236.5,-37 298.5,-37 298.5,-56"/>
<text text-anchor="middle" x="267.5" y="-44" font-family="Vera Sans, DejaVu Sans, Liberation Sans, Arial, Helvetica, sans" font-size="10.00">Branch</text>
</a>
</g>
</g>
<!-- ElseBranch -->
<g id="node5" class="node">
<title>ElseBranch</title>
<g id="a_node5"><a xlink:href="../pyVHDLModel/pyVHDLModel.Sequential.html#pyVHDLModel.Sequential.ElseBranch" xlink:title="ElseBranch" target="_top">
<polygon fill="white" stroke="#1e90ff" points="460,-74 368,-74 368,-55 460,-55 460,-74"/>
<text text-anchor="middle" x="414" y="-62" font-family="Vera Sans, DejaVu Sans, Liberation Sans, Arial, Helvetica, sans" font-size="10.00">ElseBranch</text>
</a>
</g>
</g>
<!-- Branch&#45;&gt;ElseBranch -->
<g id="edge3" class="edge">
<title>Branch&#45;&gt;ElseBranch</title>
<path fill="none" stroke="black" stroke-width="0.5" d="M298.79,-50.27C316.87,-52.52 340.3,-55.44 361.24,-58.05"/>
<polygon fill="black" stroke="black" stroke-width="0.5" points="361.72,-59.88 366.89,-58.76 362.15,-56.4 361.72,-59.88"/>
</g>
<!-- ModelEntity -->
<g id="node2" class="node">
<title>ModelEntity</title>
<g id="a_node2"><a xlink:href="../pyVHDLModel.Base.html#pyVHDLModel.Base.ModelEntity" xlink:title="``ModelEntity`` is the base&#45;class for all classes in the VHDL language model, except for mixin classes (see multiple" target="_top">
<polygon fill="white" stroke="#1e90ff" points="133,-56 34,-56 34,-37 133,-37 133,-56"/>
<text text-anchor="middle" x="83.5" y="-44" font-family="Vera Sans, DejaVu Sans, Liberation Sans, Arial, Helvetica, sans" font-size="10.00">ModelEntity</text>
</a>
</g>
</g>
<!-- ModelEntity&#45;&gt;Branch -->
<g id="edge1" class="edge">
<title>ModelEntity&#45;&gt;Branch</title>
<path fill="none" stroke="black" stroke-width="0.5" d="M133.27,-46.5C163.59,-46.5 201.94,-46.5 229.7,-46.5"/>
<polygon fill="black" stroke="black" stroke-width="0.5" points="230.41,-48.25 235.41,-46.5 230.41,-44.75 230.41,-48.25"/>
</g>
<!-- SequentialStatements -->
<g id="node3" class="node">
<title>SequentialStatements</title>
<g id="a_node3"><a xlink:href="../pyVHDLModel/pyVHDLModel.Sequential.html#pyVHDLModel.Sequential.SequentialStatements" xlink:title="SequentialStatements" target="_top">
<polygon fill="white" stroke="#1e90ff" points="167,-19 0,-19 0,0 167,0 167,-19"/>
<text text-anchor="middle" x="83.5" y="-7" font-family="Vera Sans, DejaVu Sans, Liberation Sans, Arial, Helvetica, sans" font-size="10.00">SequentialStatements</text>
</a>
</g>
</g>
<!-- SequentialStatements&#45;&gt;Branch -->
<g id="edge2" class="edge">
<title>SequentialStatements&#45;&gt;Branch</title>
<path fill="none" stroke="black" stroke-width="0.5" d="M133.27,-19.42C163.72,-25.6 202.26,-33.44 230.05,-39.09"/>
<polygon fill="black" stroke="black" stroke-width="0.5" points="230.17,-40.9 235.42,-40.18 230.87,-37.47 230.17,-40.9"/>
</g>
<!-- BranchMixin -->
<g id="node4" class="node">
<title>BranchMixin</title>
<g id="a_node4"><a xlink:href="../pyVHDLModel.Base.html#pyVHDLModel.Base.BranchMixin" xlink:title="A ``BaseBranch`` is a mixin&#45;class for all statements with branches." target="_top">
<polygon fill="white" stroke="#1e90ff" points="133,-93 34,-93 34,-74 133,-74 133,-93"/>
<text text-anchor="middle" x="83.5" y="-81" font-family="Vera Sans, DejaVu Sans, Liberation Sans, Arial, Helvetica, sans" font-size="10.00">BranchMixin</text>
</a>
</g>
</g>
<!-- ElseBranchMixin -->
<g id="node6" class="node">
<title>ElseBranchMixin</title>
<g id="a_node6"><a xlink:href="../pyVHDLModel.Base.html#pyVHDLModel.Base.ElseBranchMixin" xlink:title="A ``BaseElseBranch`` is a mixin&#45;class for all else&#45;branches." target="_top">
<polygon fill="white" stroke="#1e90ff" points="332,-93 203,-93 203,-74 332,-74 332,-93"/>
<text text-anchor="middle" x="267.5" y="-81" font-family="Vera Sans, DejaVu Sans, Liberation Sans, Arial, Helvetica, sans" font-size="10.00">ElseBranchMixin</text>
</a>
</g>
</g>
<!-- BranchMixin&#45;&gt;ElseBranchMixin -->
<g id="edge5" class="edge">
<title>BranchMixin&#45;&gt;ElseBranchMixin</title>
<path fill="none" stroke="black" stroke-width="0.5" d="M133.27,-83.5C152.55,-83.5 175.07,-83.5 196.06,-83.5"/>
<polygon fill="black" stroke="black" stroke-width="0.5" points="196.76,-85.25 201.76,-83.5 196.76,-81.75 196.76,-85.25"/>
</g>
<!-- ElseBranchMixin&#45;&gt;ElseBranch -->
<g id="edge4" class="edge">
<title>ElseBranchMixin&#45;&gt;ElseBranch</title>
<path fill="none" stroke="black" stroke-width="0.5" d="M332.3,-75.11C342.01,-73.83 351.92,-72.53 361.32,-71.29"/>
<polygon fill="black" stroke="black" stroke-width="0.5" points="362.26,-72.94 366.99,-70.55 361.81,-69.47 362.26,-72.94"/>
</g>
</g>
</svg>
