<?xml version="1.0" encoding="UTF-8" standalone="no"?>
<!DOCTYPE svg PUBLIC "-//W3C//DTD SVG 1.1//EN"
 "http://www.w3.org/Graphics/SVG/1.1/DTD/svg11.dtd">
<!-- Generated by graphviz version 7.0.5 (20221223.1930)
 -->
<!-- Title: inheritance5ed14ca82c Pages: 1 -->
<svg width="551pt" height="101pt"
 viewBox="0.00 0.00 551.00 101.00" xmlns="http://www.w3.org/2000/svg" xmlns:xlink="http://www.w3.org/1999/xlink">
<g id="graph0" class="graph" transform="scale(1 1) rotate(0) translate(4 97)">
<title>inheritance5ed14ca82c</title>
<!-- DocumentedEntityMixin -->
<g id="node1" class="node">
<title>DocumentedEntityMixin</title>
<g id="a_node1"><a xlink:href="../pyVHDLModel.Base.html#pyVHDLModel.Base.DocumentedEntityMixin" xlink:title="A ``DocumentedEntityMixin`` is a mixin class for all VHDL entities that can have an associated documentation." target="_top">
<polygon fill="white" stroke="#1e90ff" points="185.5,-93 11.5,-93 11.5,-74 185.5,-74 185.5,-93"/>
<text text-anchor="middle" x="98.5" y="-81" font-family="Vera Sans, DejaVu Sans, Liberation Sans, Arial, Helvetica, sans" font-size="10.00">DocumentedEntityMixin</text>
</a>
</g>
</g>
<!-- Obj -->
<g id="node4" class="node">
<title>Obj</title>
<g id="a_node4"><a xlink:href="../pyVHDLModel/pyVHDLModel.Object.html#pyVHDLModel.Object.Obj" xlink:title="Obj" target="_top">
<polygon fill="white" stroke="#1e90ff" points="366,-56 312,-56 312,-37 366,-37 366,-56"/>
<text text-anchor="middle" x="339" y="-44" font-family="Vera Sans, DejaVu Sans, Liberation Sans, Arial, Helvetica, sans" font-size="10.00">Obj</text>
</a>
</g>
</g>
<!-- DocumentedEntityMixin&#45;&gt;Obj -->
<g id="edge3" class="edge">
<title>DocumentedEntityMixin&#45;&gt;Obj</title>
<path fill="none" stroke="black" stroke-width="0.5" d="M163.73,-73.54C209.51,-66.43 269.14,-57.18 305.45,-51.55"/>
<polygon fill="black" stroke="black" stroke-width="0.5" points="306.09,-53.22 310.76,-50.73 305.55,-49.76 306.09,-53.22"/>
</g>
<!-- ModelEntity -->
<g id="node2" class="node">
<title>ModelEntity</title>
<g id="a_node2"><a xlink:href="../pyVHDLModel.Base.html#pyVHDLModel.Base.ModelEntity" xlink:title="``ModelEntity`` is the base&#45;class for all classes in the VHDL language model, except for mixin classes (see multiple" target="_top">
<polygon fill="white" stroke="#1e90ff" points="148,-56 49,-56 49,-37 148,-37 148,-56"/>
<text text-anchor="middle" x="98.5" y="-44" font-family="Vera Sans, DejaVu Sans, Liberation Sans, Arial, Helvetica, sans" font-size="10.00">ModelEntity</text>
</a>
</g>
</g>
<!-- ModelEntity&#45;&gt;Obj -->
<g id="edge1" class="edge">
<title>ModelEntity&#45;&gt;Obj</title>
<path fill="none" stroke="black" stroke-width="0.5" d="M148.34,-46.5C195.2,-46.5 264.66,-46.5 305.23,-46.5"/>
<polygon fill="black" stroke="black" stroke-width="0.5" points="305.97,-48.25 310.97,-46.5 305.97,-44.75 305.97,-48.25"/>
</g>
<!-- MultipleNamedEntityMixin -->
<g id="node3" class="node">
<title>MultipleNamedEntityMixin</title>
<g id="a_node3"><a xlink:href="../pyVHDLModel.Base.html#pyVHDLModel.Base.MultipleNamedEntityMixin" xlink:title="A ``MultipleNamedEntityMixin`` is a mixin class for all VHDL entities that declare multiple instances at once by" target="_top">
<polygon fill="white" stroke="#1e90ff" points="197,-19 0,-19 0,0 197,0 197,-19"/>
<text text-anchor="middle" x="98.5" y="-7" font-family="Vera Sans, DejaVu Sans, Liberation Sans, Arial, Helvetica, sans" font-size="10.00">MultipleNamedEntityMixin</text>
</a>
</g>
</g>
<!-- MultipleNamedEntityMixin&#45;&gt;Obj -->
<g id="edge2" class="edge">
<title>MultipleNamedEntityMixin&#45;&gt;Obj</title>
<path fill="none" stroke="black" stroke-width="0.5" d="M163.73,-19.46C209.51,-26.57 269.14,-35.82 305.45,-41.45"/>
<polygon fill="black" stroke="black" stroke-width="0.5" points="305.55,-43.24 310.76,-42.27 306.09,-39.78 305.55,-43.24"/>
</g>
<!-- Signal -->
<g id="node5" class="node">
<title>Signal</title>
<g id="a_node5"><a xlink:href="../pyVHDLModel/pyVHDLModel.Object.html#pyVHDLModel.Object.Signal" xlink:title="Signal" target="_top">
<polygon fill="white" stroke="#1e90ff" points="543,-37 481,-37 481,-18 543,-18 543,-37"/>
<text text-anchor="middle" x="512" y="-25" font-family="Vera Sans, DejaVu Sans, Liberation Sans, Arial, Helvetica, sans" font-size="10.00">Signal</text>
</a>
</g>
</g>
<!-- Obj&#45;&gt;Signal -->
<g id="edge4" class="edge">
<title>Obj&#45;&gt;Signal</title>
<path fill="none" stroke="black" stroke-width="0.5" d="M366.34,-43.57C395.24,-40.36 441.82,-35.19 474.29,-31.58"/>
<polygon fill="black" stroke="black" stroke-width="0.5" points="475.06,-33.25 479.83,-30.96 474.67,-29.78 475.06,-33.25"/>
</g>
<!-- WithDefaultExpressionMixin -->
<g id="node6" class="node">
<title>WithDefaultExpressionMixin</title>
<g id="a_node6"><a xlink:href="../pyVHDLModel/pyVHDLModel.Object.html#pyVHDLModel.Object.WithDefaultExpressionMixin" xlink:title="A ``WithDefaultExpression`` is a mixin class for all objects declarations accepting default expressions." target="_top">
<polygon fill="white" stroke="#1e90ff" points="445,-19 233,-19 233,0 445,0 445,-19"/>
<text text-anchor="middle" x="339" y="-7" font-family="Vera Sans, DejaVu Sans, Liberation Sans, Arial, Helvetica, sans" font-size="10.00">WithDefaultExpressionMixin</text>
</a>
</g>
</g>
<!-- WithDefaultExpressionMixin&#45;&gt;Signal -->
<g id="edge5" class="edge">
<title>WithDefaultExpressionMixin&#45;&gt;Signal</title>
<path fill="none" stroke="black" stroke-width="0.5" d="M434.5,-19.45C448.58,-20.93 462.33,-22.38 474.2,-23.63"/>
<polygon fill="black" stroke="black" stroke-width="0.5" points="474.68,-25.44 479.84,-24.22 475.05,-21.96 474.68,-25.44"/>
</g>
</g>
</svg>
