<?xml version="1.0" encoding="UTF-8" standalone="no"?>
<!DOCTYPE svg PUBLIC "-//W3C//DTD SVG 1.1//EN"
 "http://www.w3.org/Graphics/SVG/1.1/DTD/svg11.dtd">
<!-- Generated by graphviz version 7.0.5 (20221223.1930)
 -->
<!-- Title: inheritanceb4a5d6e370 Pages: 1 -->
<svg width="576pt" height="154pt"
 viewBox="0.00 0.00 576.00 153.66" xmlns="http://www.w3.org/2000/svg" xmlns:xlink="http://www.w3.org/1999/xlink">
<g id="graph0" class="graph" transform="scale(0.878049 0.878049) rotate(0) translate(4 171)">
<title>inheritanceb4a5d6e370</title>
<!-- ConcurrentDeclarations -->
<g id="node1" class="node">
<title>ConcurrentDeclarations</title>
<g id="a_node1"><a xlink:href="../pyVHDLModel.Concurrent.html#pyVHDLModel.Concurrent.ConcurrentDeclarations" xlink:title="ConcurrentDeclarations" target="_top">
<polygon fill="white" stroke="#1e90ff" points="535,-167 353,-167 353,-148 535,-148 535,-167"/>
<text text-anchor="middle" x="444" y="-155" font-family="Vera Sans, DejaVu Sans, Liberation Sans, Arial, Helvetica, sans" font-size="10.00">ConcurrentDeclarations</text>
</a>
</g>
</g>
<!-- Entity -->
<g id="node8" class="node">
<title>Entity</title>
<g id="a_node8"><a xlink:href="../pyVHDLModel/pyVHDLModel.DesignUnit.html#pyVHDLModel.DesignUnit.Entity" xlink:title="Entity" target="_top">
<polygon fill="white" stroke="#1e90ff" points="648,-111 586,-111 586,-92 648,-92 648,-111"/>
<text text-anchor="middle" x="617" y="-99" font-family="Vera Sans, DejaVu Sans, Liberation Sans, Arial, Helvetica, sans" font-size="10.00">Entity</text>
</a>
</g>
</g>
<!-- ConcurrentDeclarations&#45;&gt;Entity -->
<g id="edge6" class="edge">
<title>ConcurrentDeclarations&#45;&gt;Entity</title>
<path fill="none" stroke="black" stroke-width="0.5" d="M522.09,-147.51C531.62,-145.34 541.13,-142.7 550,-139.5 566.98,-133.38 584.61,-122.98 597.38,-114.61"/>
<polygon fill="black" stroke="black" stroke-width="0.5" points="598.72,-115.82 601.91,-111.58 596.78,-112.91 598.72,-115.82"/>
</g>
<!-- ConcurrentStatements -->
<g id="node2" class="node">
<title>ConcurrentStatements</title>
<g id="a_node2"><a xlink:href="../pyVHDLModel.Concurrent.html#pyVHDLModel.Concurrent.ConcurrentStatements" xlink:title="ConcurrentStatements" target="_top">
<polygon fill="white" stroke="#1e90ff" points="527.5,-130 360.5,-130 360.5,-111 527.5,-111 527.5,-130"/>
<text text-anchor="middle" x="444" y="-118" font-family="Vera Sans, DejaVu Sans, Liberation Sans, Arial, Helvetica, sans" font-size="10.00">ConcurrentStatements</text>
</a>
</g>
</g>
<!-- ConcurrentStatements&#45;&gt;Entity -->
<g id="edge7" class="edge">
<title>ConcurrentStatements&#45;&gt;Entity</title>
<path fill="none" stroke="black" stroke-width="0.5" d="M528,-111.28C546.01,-109.28 564.18,-107.26 579.29,-105.58"/>
<polygon fill="black" stroke="black" stroke-width="0.5" points="580.04,-107.26 584.82,-104.96 579.66,-103.78 580.04,-107.26"/>
</g>
<!-- DesignUnit -->
<g id="node3" class="node">
<title>DesignUnit</title>
<g id="a_node3"><a xlink:href="../pyVHDLModel/pyVHDLModel.DesignUnit.html#pyVHDLModel.DesignUnit.DesignUnit" xlink:title="A ``DesignUnit`` is a base&#45;class for all design units." target="_top">
<polygon fill="white" stroke="#1e90ff" points="302,-56 210,-56 210,-37 302,-37 302,-56"/>
<text text-anchor="middle" x="256" y="-44" font-family="Vera Sans, DejaVu Sans, Liberation Sans, Arial, Helvetica, sans" font-size="10.00">DesignUnit</text>
</a>
</g>
</g>
<!-- PrimaryUnit -->
<g id="node9" class="node">
<title>PrimaryUnit</title>
<g id="a_node9"><a xlink:href="../pyVHDLModel/pyVHDLModel.DesignUnit.html#pyVHDLModel.DesignUnit.PrimaryUnit" xlink:title="A ``PrimaryUnit`` is a base&#45;class for all primary units." target="_top">
<polygon fill="white" stroke="#1e90ff" points="493.5,-56 394.5,-56 394.5,-37 493.5,-37 493.5,-56"/>
<text text-anchor="middle" x="444" y="-44" font-family="Vera Sans, DejaVu Sans, Liberation Sans, Arial, Helvetica, sans" font-size="10.00">PrimaryUnit</text>
</a>
</g>
</g>
<!-- DesignUnit&#45;&gt;PrimaryUnit -->
<g id="edge8" class="edge">
<title>DesignUnit&#45;&gt;PrimaryUnit</title>
<path fill="none" stroke="black" stroke-width="0.5" d="M302.03,-46.5C327.8,-46.5 360.36,-46.5 387.68,-46.5"/>
<polygon fill="black" stroke="black" stroke-width="0.5" points="388.39,-48.25 393.39,-46.5 388.39,-44.75 388.39,-48.25"/>
</g>
<!-- ModelEntity -->
<g id="node4" class="node">
<title>ModelEntity</title>
<g id="a_node4"><a xlink:href="../pyVHDLModel.Base.html#pyVHDLModel.Base.ModelEntity" xlink:title="``ModelEntity`` is the base&#45;class for all classes in the VHDL language model, except for mixin classes (see multiple" target="_top">
<polygon fill="white" stroke="#1e90ff" points="136.5,-93 37.5,-93 37.5,-74 136.5,-74 136.5,-93"/>
<text text-anchor="middle" x="87" y="-81" font-family="Vera Sans, DejaVu Sans, Liberation Sans, Arial, Helvetica, sans" font-size="10.00">ModelEntity</text>
</a>
</g>
</g>
<!-- ModelEntity&#45;&gt;DesignUnit -->
<g id="edge1" class="edge">
<title>ModelEntity&#45;&gt;DesignUnit</title>
<path fill="none" stroke="black" stroke-width="0.5" d="M136.71,-73.52C148.9,-70.96 161.94,-68.18 174,-65.5 184.73,-63.12 196.23,-60.48 207.1,-57.94"/>
<polygon fill="black" stroke="black" stroke-width="0.5" points="208.22,-59.47 212.68,-56.63 207.42,-56.07 208.22,-59.47"/>
</g>
<!-- NamedEntityMixin -->
<g id="node5" class="node">
<title>NamedEntityMixin</title>
<g id="a_node5"><a xlink:href="../pyVHDLModel.Base.html#pyVHDLModel.Base.NamedEntityMixin" xlink:title="A ``NamedEntityMixin`` is a mixin class for all VHDL entities that have identifiers." target="_top">
<polygon fill="white" stroke="#1e90ff" points="155.5,-56 18.5,-56 18.5,-37 155.5,-37 155.5,-56"/>
<text text-anchor="middle" x="87" y="-44" font-family="Vera Sans, DejaVu Sans, Liberation Sans, Arial, Helvetica, sans" font-size="10.00">NamedEntityMixin</text>
</a>
</g>
</g>
<!-- NamedEntityMixin&#45;&gt;DesignUnit -->
<g id="edge2" class="edge">
<title>NamedEntityMixin&#45;&gt;DesignUnit</title>
<path fill="none" stroke="black" stroke-width="0.5" d="M155.93,-46.5C171.73,-46.5 188.3,-46.5 203.28,-46.5"/>
<polygon fill="black" stroke="black" stroke-width="0.5" points="203.83,-48.25 208.83,-46.5 203.83,-44.75 203.83,-48.25"/>
</g>
<!-- DocumentedEntityMixin -->
<g id="node6" class="node">
<title>DocumentedEntityMixin</title>
<g id="a_node6"><a xlink:href="../pyVHDLModel.Base.html#pyVHDLModel.Base.DocumentedEntityMixin" xlink:title="A ``DocumentedEntityMixin`` is a mixin class for all VHDL entities that can have an associated documentation." target="_top">
<polygon fill="white" stroke="#1e90ff" points="174,-19 0,-19 0,0 174,0 174,-19"/>
<text text-anchor="middle" x="87" y="-7" font-family="Vera Sans, DejaVu Sans, Liberation Sans, Arial, Helvetica, sans" font-size="10.00">DocumentedEntityMixin</text>
</a>
</g>
</g>
<!-- DocumentedEntityMixin&#45;&gt;DesignUnit -->
<g id="edge3" class="edge">
<title>DocumentedEntityMixin&#45;&gt;DesignUnit</title>
<path fill="none" stroke="black" stroke-width="0.5" d="M133.08,-19.45C146.27,-22.36 160.71,-25.56 174,-28.5 183.78,-30.67 194.23,-32.99 204.26,-35.21"/>
<polygon fill="black" stroke="black" stroke-width="0.5" points="204.44,-37.05 209.7,-36.42 205.2,-33.63 204.44,-37.05"/>
</g>
<!-- DesignUnitWithContextMixin -->
<g id="node7" class="node">
<title>DesignUnitWithContextMixin</title>
<g id="a_node7"><a xlink:href="../pyVHDLModel/pyVHDLModel.DesignUnit.html#pyVHDLModel.DesignUnit.DesignUnitWithContextMixin" xlink:title="DesignUnitWithContextMixin" target="_top">
<polygon fill="white" stroke="#1e90ff" points="550,-93 338,-93 338,-74 550,-74 550,-93"/>
<text text-anchor="middle" x="444" y="-81" font-family="Vera Sans, DejaVu Sans, Liberation Sans, Arial, Helvetica, sans" font-size="10.00">DesignUnitWithContextMixin</text>
</a>
</g>
</g>
<!-- DesignUnitWithContextMixin&#45;&gt;Entity -->
<g id="edge5" class="edge">
<title>DesignUnitWithContextMixin&#45;&gt;Entity</title>
<path fill="none" stroke="black" stroke-width="0.5" d="M539.5,-93.45C553.58,-94.93 567.33,-96.38 579.2,-97.63"/>
<polygon fill="black" stroke="black" stroke-width="0.5" points="579.68,-99.44 584.84,-98.22 580.05,-95.96 579.68,-99.44"/>
</g>
<!-- PrimaryUnit&#45;&gt;Entity -->
<g id="edge4" class="edge">
<title>PrimaryUnit&#45;&gt;Entity</title>
<path fill="none" stroke="black" stroke-width="0.5" d="M493.93,-52.03C511.89,-54.92 532.18,-59.21 550,-65.5 566.12,-71.19 583.01,-80.47 595.68,-88.19"/>
<polygon fill="black" stroke="black" stroke-width="0.5" points="595.37,-90.06 600.54,-91.21 597.21,-87.08 595.37,-90.06"/>
</g>
</g>
</svg>
