<?xml version="1.0" encoding="UTF-8" standalone="no"?>
<!DOCTYPE svg PUBLIC "-//W3C//DTD SVG 1.1//EN"
 "http://www.w3.org/Graphics/SVG/1.1/DTD/svg11.dtd">
<!-- Generated by graphviz version 7.0.5 (20221223.1930)
 -->
<!-- Title: inheritance200a74259a Pages: 1 -->
<svg width="347pt" height="27pt"
 viewBox="0.00 0.00 347.00 27.00" xmlns="http://www.w3.org/2000/svg" xmlns:xlink="http://www.w3.org/1999/xlink">
<g id="graph0" class="graph" transform="scale(1 1) rotate(0) translate(4 23)">
<title>inheritance200a74259a</title>
<!-- ModelEntity -->
<g id="node1" class="node">
<title>ModelEntity</title>
<g id="a_node1"><a xlink:href="../pyVHDLModel.Base.html#pyVHDLModel.Base.ModelEntity" xlink:title="``ModelEntity`` is the base&#45;class for all classes in the VHDL language model, except for mixin classes (see multiple" target="_top">
<polygon fill="white" stroke="#1e90ff" points="99,-19 0,-19 0,0 99,0 99,-19"/>
<text text-anchor="middle" x="49.5" y="-7" font-family="Vera Sans, DejaVu Sans, Liberation Sans, Arial, Helvetica, sans" font-size="10.00">ModelEntity</text>
</a>
</g>
</g>
<!-- Reference -->
<g id="node2" class="node">
<title>Reference</title>
<g id="a_node2"><a xlink:href="../pyVHDLModel/pyVHDLModel.DesignUnit.html#pyVHDLModel.DesignUnit.Reference" xlink:title="Reference" target="_top">
<polygon fill="white" stroke="#1e90ff" points="219,-19 135,-19 135,0 219,0 219,-19"/>
<text text-anchor="middle" x="177" y="-7" font-family="Vera Sans, DejaVu Sans, Liberation Sans, Arial, Helvetica, sans" font-size="10.00">Reference</text>
</a>
</g>
</g>
<!-- ModelEntity&#45;&gt;Reference -->
<g id="edge1" class="edge">
<title>ModelEntity&#45;&gt;Reference</title>
<path fill="none" stroke="black" stroke-width="0.5" d="M99.38,-9.5C108.89,-9.5 118.84,-9.5 128.31,-9.5"/>
<polygon fill="black" stroke="black" stroke-width="0.5" points="129.02,-11.25 134.02,-9.5 129.02,-7.75 129.02,-11.25"/>
</g>
<!-- UseClause -->
<g id="node3" class="node">
<title>UseClause</title>
<g id="a_node3"><a xlink:href="../pyVHDLModel/pyVHDLModel.DesignUnit.html#pyVHDLModel.DesignUnit.UseClause" xlink:title="UseClause" target="_top">
<polygon fill="white" stroke="#1e90ff" points="339,-19 255,-19 255,0 339,0 339,-19"/>
<text text-anchor="middle" x="297" y="-7" font-family="Vera Sans, DejaVu Sans, Liberation Sans, Arial, Helvetica, sans" font-size="10.00">UseClause</text>
</a>
</g>
</g>
<!-- Reference&#45;&gt;UseClause -->
<g id="edge2" class="edge">
<title>Reference&#45;&gt;UseClause</title>
<path fill="none" stroke="black" stroke-width="0.5" d="M219.27,-9.5C228.65,-9.5 238.68,-9.5 248.3,-9.5"/>
<polygon fill="black" stroke="black" stroke-width="0.5" points="248.8,-11.25 253.8,-9.5 248.8,-7.75 248.8,-11.25"/>
</g>
</g>
</svg>
