<?xml version="1.0" encoding="UTF-8" standalone="no"?>
<!DOCTYPE svg PUBLIC "-//W3C//DTD SVG 1.1//EN"
 "http://www.w3.org/Graphics/SVG/1.1/DTD/svg11.dtd">
<!-- Generated by graphviz version 7.0.5 (20221223.1930)
 -->
<!-- Title: inheritance4391dd6bc3 Pages: 1 -->
<svg width="576pt" height="68pt"
 viewBox="0.00 0.00 576.00 68.30" xmlns="http://www.w3.org/2000/svg" xmlns:xlink="http://www.w3.org/1999/xlink">
<g id="graph0" class="graph" transform="scale(0.822857 0.822857) rotate(0) translate(4 79)">
<title>inheritance4391dd6bc3</title>
<!-- ConcurrentProcedureCall -->
<g id="node1" class="node">
<title>ConcurrentProcedureCall</title>
<g id="a_node1"><a xlink:href="../pyVHDLModel/pyVHDLModel.Concurrent.html#pyVHDLModel.Concurrent.ConcurrentProcedureCall" xlink:title="ConcurrentProcedureCall" target="_top">
<polygon fill="white" stroke="#1e90ff" points="692,-37 503,-37 503,-18 692,-18 692,-37"/>
<text text-anchor="middle" x="597.5" y="-25" font-family="Vera Sans, DejaVu Sans, Liberation Sans, Arial, Helvetica, sans" font-size="10.00">ConcurrentProcedureCall</text>
</a>
</g>
</g>
<!-- ConcurrentStatement -->
<g id="node2" class="node">
<title>ConcurrentStatement</title>
<g id="a_node2"><a xlink:href="../pyVHDLModel/pyVHDLModel.Concurrent.html#pyVHDLModel.Concurrent.ConcurrentStatement" xlink:title="A ``ConcurrentStatement`` is a base&#45;class for all concurrent statements." target="_top">
<polygon fill="white" stroke="#1e90ff" points="467,-56 308,-56 308,-37 467,-37 467,-56"/>
<text text-anchor="middle" x="387.5" y="-44" font-family="Vera Sans, DejaVu Sans, Liberation Sans, Arial, Helvetica, sans" font-size="10.00">ConcurrentStatement</text>
</a>
</g>
</g>
<!-- ConcurrentStatement&#45;&gt;ConcurrentProcedureCall -->
<g id="edge1" class="edge">
<title>ConcurrentStatement&#45;&gt;ConcurrentProcedureCall</title>
<path fill="none" stroke="black" stroke-width="0.5" d="M467.43,-39.29C476.86,-38.43 486.58,-37.54 496.26,-36.66"/>
<polygon fill="black" stroke="black" stroke-width="0.5" points="497.03,-38.34 501.85,-36.15 496.71,-34.86 497.03,-38.34"/>
</g>
<!-- ProcedureCall -->
<g id="node3" class="node">
<title>ProcedureCall</title>
<g id="a_node3"><a xlink:href="../pyVHDLModel.Common.html#pyVHDLModel.Common.ProcedureCall" xlink:title="ProcedureCall" target="_top">
<polygon fill="white" stroke="#1e90ff" points="444.5,-19 330.5,-19 330.5,0 444.5,0 444.5,-19"/>
<text text-anchor="middle" x="387.5" y="-7" font-family="Vera Sans, DejaVu Sans, Liberation Sans, Arial, Helvetica, sans" font-size="10.00">ProcedureCall</text>
</a>
</g>
</g>
<!-- ProcedureCall&#45;&gt;ConcurrentProcedureCall -->
<g id="edge2" class="edge">
<title>ProcedureCall&#45;&gt;ConcurrentProcedureCall</title>
<path fill="none" stroke="black" stroke-width="0.5" d="M444.79,-14.37C460.89,-15.76 478.95,-17.33 496.83,-18.87"/>
<polygon fill="black" stroke="black" stroke-width="0.5" points="497,-20.65 502.13,-19.33 497.3,-17.16 497,-20.65"/>
</g>
<!-- Statement -->
<g id="node4" class="node">
<title>Statement</title>
<g id="a_node4"><a xlink:href="../pyVHDLModel.Common.html#pyVHDLModel.Common.Statement" xlink:title="A ``Statement`` is a base&#45;class for all statements." target="_top">
<polygon fill="white" stroke="#1e90ff" points="272,-56 188,-56 188,-37 272,-37 272,-56"/>
<text text-anchor="middle" x="230" y="-44" font-family="Vera Sans, DejaVu Sans, Liberation Sans, Arial, Helvetica, sans" font-size="10.00">Statement</text>
</a>
</g>
</g>
<!-- Statement&#45;&gt;ConcurrentStatement -->
<g id="edge3" class="edge">
<title>Statement&#45;&gt;ConcurrentStatement</title>
<path fill="none" stroke="black" stroke-width="0.5" d="M272.26,-46.5C281.35,-46.5 291.3,-46.5 301.42,-46.5"/>
<polygon fill="black" stroke="black" stroke-width="0.5" points="301.98,-48.25 306.98,-46.5 301.98,-44.75 301.98,-48.25"/>
</g>
<!-- LabeledEntityMixin -->
<g id="node5" class="node">
<title>LabeledEntityMixin</title>
<g id="a_node5"><a xlink:href="../pyVHDLModel.Base.html#pyVHDLModel.Base.LabeledEntityMixin" xlink:title="A ``LabeledEntityMixin`` is a mixin class for all VHDL entities that can have labels." target="_top">
<polygon fill="white" stroke="#1e90ff" points="152,-75 0,-75 0,-56 152,-56 152,-75"/>
<text text-anchor="middle" x="76" y="-63" font-family="Vera Sans, DejaVu Sans, Liberation Sans, Arial, Helvetica, sans" font-size="10.00">LabeledEntityMixin</text>
</a>
</g>
</g>
<!-- LabeledEntityMixin&#45;&gt;Statement -->
<g id="edge5" class="edge">
<title>LabeledEntityMixin&#45;&gt;Statement</title>
<path fill="none" stroke="black" stroke-width="0.5" d="M152.11,-56.11C162.08,-54.87 172.06,-53.62 181.38,-52.45"/>
<polygon fill="black" stroke="black" stroke-width="0.5" points="182.23,-54.11 186.97,-51.75 181.79,-50.64 182.23,-54.11"/>
</g>
<!-- ModelEntity -->
<g id="node6" class="node">
<title>ModelEntity</title>
<g id="a_node6"><a xlink:href="../pyVHDLModel.Base.html#pyVHDLModel.Base.ModelEntity" xlink:title="``ModelEntity`` is the base&#45;class for all classes in the VHDL language model, except for mixin classes (see multiple" target="_top">
<polygon fill="white" stroke="#1e90ff" points="125.5,-38 26.5,-38 26.5,-19 125.5,-19 125.5,-38"/>
<text text-anchor="middle" x="76" y="-26" font-family="Vera Sans, DejaVu Sans, Liberation Sans, Arial, Helvetica, sans" font-size="10.00">ModelEntity</text>
</a>
</g>
</g>
<!-- ModelEntity&#45;&gt;Statement -->
<g id="edge4" class="edge">
<title>ModelEntity&#45;&gt;Statement</title>
<path fill="none" stroke="black" stroke-width="0.5" d="M125.93,-34.29C143.71,-36.4 163.76,-38.77 181.42,-40.87"/>
<polygon fill="black" stroke="black" stroke-width="0.5" points="181.88,-42.68 187.06,-41.53 182.3,-39.21 181.88,-42.68"/>
</g>
</g>
</svg>
