<?xml version="1.0" encoding="UTF-8" standalone="no"?>
<!DOCTYPE svg PUBLIC "-//W3C//DTD SVG 1.1//EN"
 "http://www.w3.org/Graphics/SVG/1.1/DTD/svg11.dtd">
<!-- Generated by graphviz version 7.0.5 (20221223.1930)
 -->
<!-- Title: inheritancee078c7d359 Pages: 1 -->
<svg width="520pt" height="64pt"
 viewBox="0.00 0.00 520.00 64.00" xmlns="http://www.w3.org/2000/svg" xmlns:xlink="http://www.w3.org/1999/xlink">
<g id="graph0" class="graph" transform="scale(1 1) rotate(0) translate(4 60)">
<title>inheritancee078c7d359</title>
<!-- Library -->
<g id="node1" class="node">
<title>Library</title>
<g id="a_node1"><a xlink:href="../pyVHDLModel.html#pyVHDLModel.Library" xlink:title="A ``Library`` represents a VHDL library. It contains all *primary* and *secondary* design units." target="_top">
<polygon fill="white" stroke="#1e90ff" points="242,-37 173,-37 173,-18 242,-18 242,-37"/>
<text text-anchor="middle" x="207.5" y="-25" font-family="Vera Sans, DejaVu Sans, Liberation Sans, Arial, Helvetica, sans" font-size="10.00">Library</text>
</a>
</g>
</g>
<!-- PredefinedLibrary -->
<g id="node4" class="node">
<title>PredefinedLibrary</title>
<g id="a_node4"><a xlink:href="../pyVHDLModel/pyVHDLModel.STD.html#pyVHDLModel.STD.PredefinedLibrary" xlink:title="PredefinedLibrary" target="_top">
<polygon fill="white" stroke="#1e90ff" points="422,-37 278,-37 278,-18 422,-18 422,-37"/>
<text text-anchor="middle" x="350" y="-25" font-family="Vera Sans, DejaVu Sans, Liberation Sans, Arial, Helvetica, sans" font-size="10.00">PredefinedLibrary</text>
</a>
</g>
</g>
<!-- Library&#45;&gt;PredefinedLibrary -->
<g id="edge3" class="edge">
<title>Library&#45;&gt;PredefinedLibrary</title>
<path fill="none" stroke="black" stroke-width="0.5" d="M242.15,-27.5C251.03,-27.5 260.98,-27.5 271.15,-27.5"/>
<polygon fill="black" stroke="black" stroke-width="0.5" points="271.75,-29.25 276.75,-27.5 271.75,-25.75 271.75,-29.25"/>
</g>
<!-- ModelEntity -->
<g id="node2" class="node">
<title>ModelEntity</title>
<g id="a_node2"><a xlink:href="../pyVHDLModel.Base.html#pyVHDLModel.Base.ModelEntity" xlink:title="``ModelEntity`` is the base&#45;class for all classes in the VHDL language model, except for mixin classes (see multiple" target="_top">
<polygon fill="white" stroke="#1e90ff" points="118,-56 19,-56 19,-37 118,-37 118,-56"/>
<text text-anchor="middle" x="68.5" y="-44" font-family="Vera Sans, DejaVu Sans, Liberation Sans, Arial, Helvetica, sans" font-size="10.00">ModelEntity</text>
</a>
</g>
</g>
<!-- ModelEntity&#45;&gt;Library -->
<g id="edge1" class="edge">
<title>ModelEntity&#45;&gt;Library</title>
<path fill="none" stroke="black" stroke-width="0.5" d="M118.19,-39.75C133.93,-37.56 151.21,-35.17 166.27,-33.08"/>
<polygon fill="black" stroke="black" stroke-width="0.5" points="167.12,-34.73 171.83,-32.31 166.64,-31.26 167.12,-34.73"/>
</g>
<!-- NamedEntityMixin -->
<g id="node3" class="node">
<title>NamedEntityMixin</title>
<g id="a_node3"><a xlink:href="../pyVHDLModel.Base.html#pyVHDLModel.Base.NamedEntityMixin" xlink:title="A ``NamedEntityMixin`` is a mixin class for all VHDL entities that have identifiers." target="_top">
<polygon fill="white" stroke="#1e90ff" points="137,-19 0,-19 0,0 137,0 137,-19"/>
<text text-anchor="middle" x="68.5" y="-7" font-family="Vera Sans, DejaVu Sans, Liberation Sans, Arial, Helvetica, sans" font-size="10.00">NamedEntityMixin</text>
</a>
</g>
</g>
<!-- NamedEntityMixin&#45;&gt;Library -->
<g id="edge2" class="edge">
<title>NamedEntityMixin&#45;&gt;Library</title>
<path fill="none" stroke="black" stroke-width="0.5" d="M137.2,-18.39C147.17,-19.7 157.16,-21.02 166.33,-22.22"/>
<polygon fill="black" stroke="black" stroke-width="0.5" points="166.6,-24.02 171.78,-22.94 167.05,-20.55 166.6,-24.02"/>
</g>
<!-- Std -->
<g id="node5" class="node">
<title>Std</title>
<g id="a_node5"><a xlink:href="../pyVHDLModel/pyVHDLModel.STD.html#pyVHDLModel.STD.Std" xlink:title="Std" target="_top">
<polygon fill="white" stroke="#1e90ff" points="512,-37 458,-37 458,-18 512,-18 512,-37"/>
<text text-anchor="middle" x="485" y="-25" font-family="Vera Sans, DejaVu Sans, Liberation Sans, Arial, Helvetica, sans" font-size="10.00">Std</text>
</a>
</g>
</g>
<!-- PredefinedLibrary&#45;&gt;Std -->
<g id="edge4" class="edge">
<title>PredefinedLibrary&#45;&gt;Std</title>
<path fill="none" stroke="black" stroke-width="0.5" d="M422.17,-27.5C432.41,-27.5 442.5,-27.5 451.46,-27.5"/>
<polygon fill="black" stroke="black" stroke-width="0.5" points="452.02,-29.25 457.02,-27.5 452.02,-25.75 452.02,-29.25"/>
</g>
</g>
</svg>
