<?xml version="1.0" encoding="UTF-8" standalone="no"?>
<!DOCTYPE svg PUBLIC "-//W3C//DTD SVG 1.1//EN"
 "http://www.w3.org/Graphics/SVG/1.1/DTD/svg11.dtd">
<!-- Generated by graphviz version 7.0.5 (20221223.1930)
 -->
<!-- Title: inheritance3976506a58 Pages: 1 -->
<svg width="520pt" height="64pt"
 viewBox="0.00 0.00 520.00 64.00" xmlns="http://www.w3.org/2000/svg" xmlns:xlink="http://www.w3.org/1999/xlink">
<g id="graph0" class="graph" transform="scale(1 1) rotate(0) translate(4 60)">
<title>inheritance3976506a58</title>
<!-- ModelEntity -->
<g id="node1" class="node">
<title>ModelEntity</title>
<g id="a_node1"><a xlink:href="../pyVHDLModel.Base.html#pyVHDLModel.Base.ModelEntity" xlink:title="``ModelEntity`` is the base&#45;class for all classes in the VHDL language model, except for mixin classes (see multiple" target="_top">
<polygon fill="white" stroke="#1e90ff" points="99,-56 0,-56 0,-37 99,-37 99,-56"/>
<text text-anchor="middle" x="49.5" y="-44" font-family="Vera Sans, DejaVu Sans, Liberation Sans, Arial, Helvetica, sans" font-size="10.00">ModelEntity</text>
</a>
</g>
</g>
<!-- Name -->
<g id="node2" class="node">
<title>Name</title>
<g id="a_node2"><a xlink:href="../pyVHDLModel.Name.html#pyVHDLModel.Name.Name" xlink:title="``Name`` is the base&#45;class for all *names* in the VHDL language model." target="_top">
<polygon fill="white" stroke="#1e90ff" points="189,-56 135,-56 135,-37 189,-37 189,-56"/>
<text text-anchor="middle" x="162" y="-44" font-family="Vera Sans, DejaVu Sans, Liberation Sans, Arial, Helvetica, sans" font-size="10.00">Name</text>
</a>
</g>
</g>
<!-- ModelEntity&#45;&gt;Name -->
<g id="edge1" class="edge">
<title>ModelEntity&#45;&gt;Name</title>
<path fill="none" stroke="black" stroke-width="0.5" d="M99.29,-46.5C109.06,-46.5 119.1,-46.5 128.17,-46.5"/>
<polygon fill="black" stroke="black" stroke-width="0.5" points="128.83,-48.25 133.83,-46.5 128.83,-44.75 128.83,-48.25"/>
</g>
<!-- SimpleName -->
<g id="node3" class="node">
<title>SimpleName</title>
<g id="a_node3"><a xlink:href="../pyVHDLModel.Name.html#pyVHDLModel.Name.SimpleName" xlink:title="A *simple name* is a name made from a single word." target="_top">
<polygon fill="white" stroke="#1e90ff" points="317,-56 225,-56 225,-37 317,-37 317,-56"/>
<text text-anchor="middle" x="271" y="-44" font-family="Vera Sans, DejaVu Sans, Liberation Sans, Arial, Helvetica, sans" font-size="10.00">SimpleName</text>
</a>
</g>
</g>
<!-- Name&#45;&gt;SimpleName -->
<g id="edge2" class="edge">
<title>Name&#45;&gt;SimpleName</title>
<path fill="none" stroke="black" stroke-width="0.5" d="M189.45,-46.5C198.26,-46.5 208.41,-46.5 218.46,-46.5"/>
<polygon fill="black" stroke="black" stroke-width="0.5" points="218.94,-48.25 223.94,-46.5 218.94,-44.75 218.94,-48.25"/>
</g>
<!-- SimpleSubtypeSymbol -->
<g id="node4" class="node">
<title>SimpleSubtypeSymbol</title>
<g id="a_node4"><a xlink:href="../pyVHDLModel/pyVHDLModel.Symbol.html#pyVHDLModel.Symbol.SimpleSubtypeSymbol" xlink:title="A configuration reference in a configuration instantiation." target="_top">
<polygon fill="white" stroke="#1e90ff" points="512,-37 353,-37 353,-18 512,-18 512,-37"/>
<text text-anchor="middle" x="432.5" y="-25" font-family="Vera Sans, DejaVu Sans, Liberation Sans, Arial, Helvetica, sans" font-size="10.00">SimpleSubtypeSymbol</text>
</a>
</g>
</g>
<!-- SimpleName&#45;&gt;SimpleSubtypeSymbol -->
<g id="edge3" class="edge">
<title>SimpleName&#45;&gt;SimpleSubtypeSymbol</title>
<path fill="none" stroke="black" stroke-width="0.5" d="M317.28,-41.11C326.43,-40.02 336.33,-38.84 346.35,-37.64"/>
<polygon fill="black" stroke="black" stroke-width="0.5" points="347.09,-39.32 351.85,-36.99 346.67,-35.84 347.09,-39.32"/>
</g>
<!-- Symbol -->
<g id="node5" class="node">
<title>Symbol</title>
<g id="a_node5"><a xlink:href="../pyVHDLModel/pyVHDLModel.Symbol.html#pyVHDLModel.Symbol.Symbol" xlink:title="Symbol" target="_top">
<polygon fill="white" stroke="#1e90ff" points="302,-19 240,-19 240,0 302,0 302,-19"/>
<text text-anchor="middle" x="271" y="-7" font-family="Vera Sans, DejaVu Sans, Liberation Sans, Arial, Helvetica, sans" font-size="10.00">Symbol</text>
</a>
</g>
</g>
<!-- Symbol&#45;&gt;SimpleSubtypeSymbol -->
<g id="edge4" class="edge">
<title>Symbol&#45;&gt;SimpleSubtypeSymbol</title>
<path fill="none" stroke="black" stroke-width="0.5" d="M302.38,-12.93C315.14,-14.37 330.69,-16.12 346.52,-17.91"/>
<polygon fill="black" stroke="black" stroke-width="0.5" points="346.91,-19.72 352.08,-18.54 347.31,-16.24 346.91,-19.72"/>
</g>
</g>
</svg>
