<?xml version="1.0" encoding="UTF-8" standalone="no"?>
<!DOCTYPE svg PUBLIC "-//W3C//DTD SVG 1.1//EN"
 "http://www.w3.org/Graphics/SVG/1.1/DTD/svg11.dtd">
<!-- Generated by graphviz version 7.0.5 (20221223.1930)
 -->
<!-- Title: inheritancec218f92451 Pages: 1 -->
<svg width="576pt" height="134pt"
 viewBox="0.00 0.00 576.00 133.91" xmlns="http://www.w3.org/2000/svg" xmlns:xlink="http://www.w3.org/1999/xlink">
<g id="graph0" class="graph" transform="scale(0.85842 0.85842) rotate(0) translate(4 152)">
<title>inheritancec218f92451</title>
<!-- ConcurrentStatement -->
<g id="node1" class="node">
<title>ConcurrentStatement</title>
<g id="a_node1"><a xlink:href="../pyVHDLModel/pyVHDLModel.Concurrent.html#pyVHDLModel.Concurrent.ConcurrentStatement" xlink:title="A ``ConcurrentStatement`` is a base&#45;class for all concurrent statements." target="_top">
<polygon fill="white" stroke="#1e90ff" points="478.5,-37 319.5,-37 319.5,-18 478.5,-18 478.5,-37"/>
<text text-anchor="middle" x="399" y="-25" font-family="Vera Sans, DejaVu Sans, Liberation Sans, Arial, Helvetica, sans" font-size="10.00">ConcurrentStatement</text>
</a>
</g>
</g>
<!-- ProcessStatement -->
<g id="node6" class="node">
<title>ProcessStatement</title>
<g id="a_node6"><a xlink:href="../pyVHDLModel/pyVHDLModel.Concurrent.html#pyVHDLModel.Concurrent.ProcessStatement" xlink:title="ProcessStatement" target="_top">
<polygon fill="white" stroke="#1e90ff" points="663,-92 526,-92 526,-73 663,-73 663,-92"/>
<text text-anchor="middle" x="594.5" y="-80" font-family="Vera Sans, DejaVu Sans, Liberation Sans, Arial, Helvetica, sans" font-size="10.00">ProcessStatement</text>
</a>
</g>
</g>
<!-- ConcurrentStatement&#45;&gt;ProcessStatement -->
<g id="edge2" class="edge">
<title>ConcurrentStatement&#45;&gt;ProcessStatement</title>
<path fill="none" stroke="black" stroke-width="0.5" d="M452.62,-37.44C464.96,-40.09 478,-43.16 490,-46.5 514.42,-53.29 541.45,-62.77 561.76,-70.29"/>
<polygon fill="black" stroke="black" stroke-width="0.5" points="561.84,-72.18 567.13,-72.29 563.06,-68.9 561.84,-72.18"/>
</g>
<!-- Statement -->
<g id="node2" class="node">
<title>Statement</title>
<g id="a_node2"><a xlink:href="../pyVHDLModel.Common.html#pyVHDLModel.Common.Statement" xlink:title="A ``Statement`` is a base&#45;class for all statements." target="_top">
<polygon fill="white" stroke="#1e90ff" points="272,-37 188,-37 188,-18 272,-18 272,-37"/>
<text text-anchor="middle" x="230" y="-25" font-family="Vera Sans, DejaVu Sans, Liberation Sans, Arial, Helvetica, sans" font-size="10.00">Statement</text>
</a>
</g>
</g>
<!-- Statement&#45;&gt;ConcurrentStatement -->
<g id="edge1" class="edge">
<title>Statement&#45;&gt;ConcurrentStatement</title>
<path fill="none" stroke="black" stroke-width="0.5" d="M272.28,-27.5C284.59,-27.5 298.57,-27.5 312.61,-27.5"/>
<polygon fill="black" stroke="black" stroke-width="0.5" points="313.31,-29.25 318.31,-27.5 313.31,-25.75 313.31,-29.25"/>
</g>
<!-- DocumentedEntityMixin -->
<g id="node3" class="node">
<title>DocumentedEntityMixin</title>
<g id="a_node3"><a xlink:href="../pyVHDLModel.Base.html#pyVHDLModel.Base.DocumentedEntityMixin" xlink:title="A ``DocumentedEntityMixin`` is a mixin class for all VHDL entities that can have an associated documentation." target="_top">
<polygon fill="white" stroke="#1e90ff" points="486,-148 312,-148 312,-129 486,-129 486,-148"/>
<text text-anchor="middle" x="399" y="-136" font-family="Vera Sans, DejaVu Sans, Liberation Sans, Arial, Helvetica, sans" font-size="10.00">DocumentedEntityMixin</text>
</a>
</g>
</g>
<!-- DocumentedEntityMixin&#45;&gt;ProcessStatement -->
<g id="edge5" class="edge">
<title>DocumentedEntityMixin&#45;&gt;ProcessStatement</title>
<path fill="none" stroke="black" stroke-width="0.5" d="M456.49,-128.59C467.67,-126.24 479.26,-123.52 490,-120.5 515.32,-113.37 543.28,-102.94 563.76,-94.81"/>
<polygon fill="black" stroke="black" stroke-width="0.5" points="564.89,-96.24 568.89,-92.76 563.59,-92.99 564.89,-96.24"/>
</g>
<!-- LabeledEntityMixin -->
<g id="node4" class="node">
<title>LabeledEntityMixin</title>
<g id="a_node4"><a xlink:href="../pyVHDLModel.Base.html#pyVHDLModel.Base.LabeledEntityMixin" xlink:title="A ``LabeledEntityMixin`` is a mixin class for all VHDL entities that can have labels." target="_top">
<polygon fill="white" stroke="#1e90ff" points="152,-56 0,-56 0,-37 152,-37 152,-56"/>
<text text-anchor="middle" x="76" y="-44" font-family="Vera Sans, DejaVu Sans, Liberation Sans, Arial, Helvetica, sans" font-size="10.00">LabeledEntityMixin</text>
</a>
</g>
</g>
<!-- LabeledEntityMixin&#45;&gt;Statement -->
<g id="edge7" class="edge">
<title>LabeledEntityMixin&#45;&gt;Statement</title>
<path fill="none" stroke="black" stroke-width="0.5" d="M152.11,-37.11C162.08,-35.87 172.06,-34.62 181.38,-33.45"/>
<polygon fill="black" stroke="black" stroke-width="0.5" points="182.23,-35.11 186.97,-32.75 181.79,-31.64 182.23,-35.11"/>
</g>
<!-- ModelEntity -->
<g id="node5" class="node">
<title>ModelEntity</title>
<g id="a_node5"><a xlink:href="../pyVHDLModel.Base.html#pyVHDLModel.Base.ModelEntity" xlink:title="``ModelEntity`` is the base&#45;class for all classes in the VHDL language model, except for mixin classes (see multiple" target="_top">
<polygon fill="white" stroke="#1e90ff" points="125.5,-19 26.5,-19 26.5,0 125.5,0 125.5,-19"/>
<text text-anchor="middle" x="76" y="-7" font-family="Vera Sans, DejaVu Sans, Liberation Sans, Arial, Helvetica, sans" font-size="10.00">ModelEntity</text>
</a>
</g>
</g>
<!-- ModelEntity&#45;&gt;Statement -->
<g id="edge6" class="edge">
<title>ModelEntity&#45;&gt;Statement</title>
<path fill="none" stroke="black" stroke-width="0.5" d="M125.93,-15.29C143.71,-17.4 163.76,-19.77 181.42,-21.87"/>
<polygon fill="black" stroke="black" stroke-width="0.5" points="181.88,-23.68 187.06,-22.53 182.3,-20.21 181.88,-23.68"/>
</g>
<!-- SequentialDeclarations -->
<g id="node7" class="node">
<title>SequentialDeclarations</title>
<g id="a_node7"><a xlink:href="../pyVHDLModel.Sequential.html#pyVHDLModel.Sequential.SequentialDeclarations" xlink:title="SequentialDeclarations" target="_top">
<polygon fill="white" stroke="#1e90ff" points="490,-111 308,-111 308,-92 490,-92 490,-111"/>
<text text-anchor="middle" x="399" y="-99" font-family="Vera Sans, DejaVu Sans, Liberation Sans, Arial, Helvetica, sans" font-size="10.00">SequentialDeclarations</text>
</a>
</g>
</g>
<!-- SequentialDeclarations&#45;&gt;ProcessStatement -->
<g id="edge3" class="edge">
<title>SequentialDeclarations&#45;&gt;ProcessStatement</title>
<path fill="none" stroke="black" stroke-width="0.5" d="M490.24,-92.64C500.01,-91.68 509.88,-90.71 519.44,-89.77"/>
<polygon fill="black" stroke="black" stroke-width="0.5" points="520.11,-91.46 524.92,-89.23 519.77,-87.98 520.11,-91.46"/>
</g>
<!-- SequentialStatements -->
<g id="node8" class="node">
<title>SequentialStatements</title>
<g id="a_node8"><a xlink:href="../pyVHDLModel.Sequential.html#pyVHDLModel.Sequential.SequentialStatements" xlink:title="SequentialStatements" target="_top">
<polygon fill="white" stroke="#1e90ff" points="482.5,-74 315.5,-74 315.5,-55 482.5,-55 482.5,-74"/>
<text text-anchor="middle" x="399" y="-62" font-family="Vera Sans, DejaVu Sans, Liberation Sans, Arial, Helvetica, sans" font-size="10.00">SequentialStatements</text>
</a>
</g>
</g>
<!-- SequentialStatements&#45;&gt;ProcessStatement -->
<g id="edge4" class="edge">
<title>SequentialStatements&#45;&gt;ProcessStatement</title>
<path fill="none" stroke="black" stroke-width="0.5" d="M482.9,-72.21C495.05,-73.34 507.48,-74.5 519.43,-75.61"/>
<polygon fill="black" stroke="black" stroke-width="0.5" points="519.74,-77.4 524.88,-76.12 520.06,-73.91 519.74,-77.4"/>
</g>
</g>
</svg>
