<?xml version="1.0" encoding="UTF-8" standalone="no"?>
<!DOCTYPE svg PUBLIC "-//W3C//DTD SVG 1.1//EN"
 "http://www.w3.org/Graphics/SVG/1.1/DTD/svg11.dtd">
<!-- Generated by graphviz version 7.0.5 (20221223.1930)
 -->
<!-- Title: inheritance98c00a7eba Pages: 1 -->
<svg width="576pt" height="84pt"
 viewBox="0.00 0.00 576.00 83.51" xmlns="http://www.w3.org/2000/svg" xmlns:xlink="http://www.w3.org/1999/xlink">
<g id="graph0" class="graph" transform="scale(0.535316 0.535316) rotate(0) translate(4 152)">
<title>inheritance98c00a7eba</title>
<!-- BaseConstant -->
<g id="node1" class="node">
<title>BaseConstant</title>
<g id="a_node1"><a xlink:href="../pyVHDLModel.Object.html#pyVHDLModel.Object.BaseConstant" xlink:title="BaseConstant" target="_top">
<polygon fill="white" stroke="#1e90ff" points="542.5,-130 435.5,-130 435.5,-111 542.5,-111 542.5,-130"/>
<text text-anchor="middle" x="489" y="-118" font-family="Vera Sans, DejaVu Sans, Liberation Sans, Arial, Helvetica, sans" font-size="10.00">BaseConstant</text>
</a>
</g>
</g>
<!-- Constant -->
<g id="node3" class="node">
<title>Constant</title>
<g id="a_node3"><a xlink:href="../pyVHDLModel.Object.html#pyVHDLModel.Object.Constant" xlink:title="Constant" target="_top">
<polygon fill="white" stroke="#1e90ff" points="756.5,-93 679.5,-93 679.5,-74 756.5,-74 756.5,-93"/>
<text text-anchor="middle" x="718" y="-81" font-family="Vera Sans, DejaVu Sans, Liberation Sans, Arial, Helvetica, sans" font-size="10.00">Constant</text>
</a>
</g>
</g>
<!-- BaseConstant&#45;&gt;Constant -->
<g id="edge2" class="edge">
<title>BaseConstant&#45;&gt;Constant</title>
<path fill="none" stroke="black" stroke-width="0.5" d="M542.93,-111.87C582.44,-105.43 635.79,-96.74 672.98,-90.68"/>
<polygon fill="black" stroke="black" stroke-width="0.5" points="673.86,-92.3 678.51,-89.77 673.3,-88.85 673.86,-92.3"/>
</g>
<!-- Obj -->
<g id="node2" class="node">
<title>Obj</title>
<g id="a_node2"><a xlink:href="../pyVHDLModel.Object.html#pyVHDLModel.Object.Obj" xlink:title="Obj" target="_top">
<polygon fill="white" stroke="#1e90ff" points="317,-120 263,-120 263,-101 317,-101 317,-120"/>
<text text-anchor="middle" x="290" y="-108" font-family="Vera Sans, DejaVu Sans, Liberation Sans, Arial, Helvetica, sans" font-size="10.00">Obj</text>
</a>
</g>
</g>
<!-- Obj&#45;&gt;BaseConstant -->
<g id="edge1" class="edge">
<title>Obj&#45;&gt;BaseConstant</title>
<path fill="none" stroke="black" stroke-width="0.5" d="M317.16,-111.83C345.46,-113.26 391.51,-115.6 428.67,-117.49"/>
<polygon fill="black" stroke="black" stroke-width="0.5" points="429.19,-119.27 434.27,-117.77 429.36,-115.77 429.19,-119.27"/>
</g>
<!-- GenericConstantInterfaceItem -->
<g id="node6" class="node">
<title>GenericConstantInterfaceItem</title>
<g id="a_node6"><a xlink:href="../pyVHDLModel/pyVHDLModel.Interface.html#pyVHDLModel.Interface.GenericConstantInterfaceItem" xlink:title="GenericConstantInterfaceItem" target="_top">
<polygon fill="white" stroke="#1e90ff" points="1068,-56 841,-56 841,-37 1068,-37 1068,-56"/>
<text text-anchor="middle" x="954.5" y="-44" font-family="Vera Sans, DejaVu Sans, Liberation Sans, Arial, Helvetica, sans" font-size="10.00">GenericConstantInterfaceItem</text>
</a>
</g>
</g>
<!-- Constant&#45;&gt;GenericConstantInterfaceItem -->
<g id="edge4" class="edge">
<title>Constant&#45;&gt;GenericConstantInterfaceItem</title>
<path fill="none" stroke="black" stroke-width="0.5" d="M756.94,-77.51C791.21,-72.11 842.51,-64.01 884.11,-57.45"/>
<polygon fill="black" stroke="black" stroke-width="0.5" points="885.02,-59.08 889.69,-56.57 884.48,-55.62 885.02,-59.08"/>
</g>
<!-- WithDefaultExpressionMixin -->
<g id="node4" class="node">
<title>WithDefaultExpressionMixin</title>
<g id="a_node4"><a xlink:href="../pyVHDLModel.Object.html#pyVHDLModel.Object.WithDefaultExpressionMixin" xlink:title="A ``WithDefaultExpression`` is a mixin class for all objects declarations accepting default expressions." target="_top">
<polygon fill="white" stroke="#1e90ff" points="595,-93 383,-93 383,-74 595,-74 595,-93"/>
<text text-anchor="middle" x="489" y="-81" font-family="Vera Sans, DejaVu Sans, Liberation Sans, Arial, Helvetica, sans" font-size="10.00">WithDefaultExpressionMixin</text>
</a>
</g>
</g>
<!-- WithDefaultExpressionMixin&#45;&gt;Constant -->
<g id="edge3" class="edge">
<title>WithDefaultExpressionMixin&#45;&gt;Constant</title>
<path fill="none" stroke="black" stroke-width="0.5" d="M595.19,-83.5C622.53,-83.5 650.52,-83.5 672.76,-83.5"/>
<polygon fill="black" stroke="black" stroke-width="0.5" points="673.41,-85.25 678.41,-83.5 673.41,-81.75 673.41,-85.25"/>
</g>
<!-- DocumentedEntityMixin -->
<g id="node5" class="node">
<title>DocumentedEntityMixin</title>
<g id="a_node5"><a xlink:href="../pyVHDLModel.Base.html#pyVHDLModel.Base.DocumentedEntityMixin" xlink:title="A ``DocumentedEntityMixin`` is a mixin class for all VHDL entities that can have an associated documentation." target="_top">
<polygon fill="white" stroke="#1e90ff" points="185.5,-74 11.5,-74 11.5,-55 185.5,-55 185.5,-74"/>
<text text-anchor="middle" x="98.5" y="-62" font-family="Vera Sans, DejaVu Sans, Liberation Sans, Arial, Helvetica, sans" font-size="10.00">DocumentedEntityMixin</text>
</a>
</g>
</g>
<!-- DocumentedEntityMixin&#45;&gt;Obj -->
<g id="edge11" class="edge">
<title>DocumentedEntityMixin&#45;&gt;Obj</title>
<path fill="none" stroke="black" stroke-width="0.5" d="M155.38,-74.46C169.05,-77.15 183.6,-80.23 197,-83.5 217.05,-88.38 239.26,-94.87 256.83,-100.26"/>
<polygon fill="black" stroke="black" stroke-width="0.5" points="256.59,-102.02 261.88,-101.82 257.62,-98.67 256.59,-102.02"/>
</g>
<!-- InterfaceItem -->
<g id="node9" class="node">
<title>InterfaceItem</title>
<g id="a_node9"><a xlink:href="../pyVHDLModel/pyVHDLModel.Interface.html#pyVHDLModel.Interface.InterfaceItem" xlink:title="An ``InterfaceItem`` is a base&#45;class for all mixin&#45;classes for all interface items." target="_top">
<polygon fill="white" stroke="#1e90ff" points="347,-74 233,-74 233,-55 347,-55 347,-74"/>
<text text-anchor="middle" x="290" y="-62" font-family="Vera Sans, DejaVu Sans, Liberation Sans, Arial, Helvetica, sans" font-size="10.00">InterfaceItem</text>
</a>
</g>
</g>
<!-- DocumentedEntityMixin&#45;&gt;InterfaceItem -->
<g id="edge8" class="edge">
<title>DocumentedEntityMixin&#45;&gt;InterfaceItem</title>
<path fill="none" stroke="black" stroke-width="0.5" d="M185.93,-64.5C199.52,-64.5 213.34,-64.5 226.26,-64.5"/>
<polygon fill="black" stroke="black" stroke-width="0.5" points="226.77,-66.25 231.77,-64.5 226.77,-62.75 226.77,-66.25"/>
</g>
<!-- GenericInterfaceItem -->
<g id="node7" class="node">
<title>GenericInterfaceItem</title>
<g id="a_node7"><a xlink:href="../pyVHDLModel/pyVHDLModel.Interface.html#pyVHDLModel.Interface.GenericInterfaceItem" xlink:title="A ``GenericInterfaceItem`` is a mixin class for all generic interface items." target="_top">
<polygon fill="white" stroke="#1e90ff" points="801.5,-56 634.5,-56 634.5,-37 801.5,-37 801.5,-56"/>
<text text-anchor="middle" x="718" y="-44" font-family="Vera Sans, DejaVu Sans, Liberation Sans, Arial, Helvetica, sans" font-size="10.00">GenericInterfaceItem</text>
</a>
</g>
</g>
<!-- GenericInterfaceItem&#45;&gt;GenericConstantInterfaceItem -->
<g id="edge5" class="edge">
<title>GenericInterfaceItem&#45;&gt;GenericConstantInterfaceItem</title>
<path fill="none" stroke="black" stroke-width="0.5" d="M801.68,-46.5C812.26,-46.5 823.25,-46.5 834.27,-46.5"/>
<polygon fill="black" stroke="black" stroke-width="0.5" points="835,-48.25 840,-46.5 835,-44.75 835,-48.25"/>
</g>
<!-- InterfaceItemWithMode -->
<g id="node8" class="node">
<title>InterfaceItemWithMode</title>
<g id="a_node8"><a xlink:href="../pyVHDLModel/pyVHDLModel.Interface.html#pyVHDLModel.Interface.InterfaceItemWithMode" xlink:title="An ``InterfaceItemWithMode`` is a mixin&#45;class to provide a ``Mode`` to interface items." target="_top">
<polygon fill="white" stroke="#1e90ff" points="805,-19 631,-19 631,0 805,0 805,-19"/>
<text text-anchor="middle" x="718" y="-7" font-family="Vera Sans, DejaVu Sans, Liberation Sans, Arial, Helvetica, sans" font-size="10.00">InterfaceItemWithMode</text>
</a>
</g>
</g>
<!-- InterfaceItemWithMode&#45;&gt;GenericConstantInterfaceItem -->
<g id="edge6" class="edge">
<title>InterfaceItemWithMode&#45;&gt;GenericConstantInterfaceItem</title>
<path fill="none" stroke="black" stroke-width="0.5" d="M782.15,-19.46C813.56,-24.42 851.61,-30.42 883.87,-35.51"/>
<polygon fill="black" stroke="black" stroke-width="0.5" points="884.28,-37.35 889.49,-36.4 884.82,-33.89 884.28,-37.35"/>
</g>
<!-- InterfaceItem&#45;&gt;GenericInterfaceItem -->
<g id="edge7" class="edge">
<title>InterfaceItem&#45;&gt;GenericInterfaceItem</title>
<path fill="none" stroke="black" stroke-width="0.5" d="M347.13,-62.13C418.66,-59.11 543.14,-53.85 627.74,-50.27"/>
<polygon fill="black" stroke="black" stroke-width="0.5" points="628.34,-52 633.26,-50.04 628.19,-48.5 628.34,-52"/>
</g>
<!-- ModelEntity -->
<g id="node10" class="node">
<title>ModelEntity</title>
<g id="a_node10"><a xlink:href="../pyVHDLModel.Base.html#pyVHDLModel.Base.ModelEntity" xlink:title="``ModelEntity`` is the base&#45;class for all classes in the VHDL language model, except for mixin classes (see multiple" target="_top">
<polygon fill="white" stroke="#1e90ff" points="148,-148 49,-148 49,-129 148,-129 148,-148"/>
<text text-anchor="middle" x="98.5" y="-136" font-family="Vera Sans, DejaVu Sans, Liberation Sans, Arial, Helvetica, sans" font-size="10.00">ModelEntity</text>
</a>
</g>
</g>
<!-- ModelEntity&#45;&gt;Obj -->
<g id="edge9" class="edge">
<title>ModelEntity&#45;&gt;Obj</title>
<path fill="none" stroke="black" stroke-width="0.5" d="M148.3,-131.29C182.29,-126.27 226.69,-119.71 256.44,-115.31"/>
<polygon fill="black" stroke="black" stroke-width="0.5" points="257.12,-116.98 261.81,-114.52 256.61,-113.52 257.12,-116.98"/>
</g>
<!-- MultipleNamedEntityMixin -->
<g id="node11" class="node">
<title>MultipleNamedEntityMixin</title>
<g id="a_node11"><a xlink:href="../pyVHDLModel.Base.html#pyVHDLModel.Base.MultipleNamedEntityMixin" xlink:title="A ``MultipleNamedEntityMixin`` is a mixin class for all VHDL entities that declare multiple instances at once by" target="_top">
<polygon fill="white" stroke="#1e90ff" points="197,-111 0,-111 0,-92 197,-92 197,-111"/>
<text text-anchor="middle" x="98.5" y="-99" font-family="Vera Sans, DejaVu Sans, Liberation Sans, Arial, Helvetica, sans" font-size="10.00">MultipleNamedEntityMixin</text>
</a>
</g>
</g>
<!-- MultipleNamedEntityMixin&#45;&gt;Obj -->
<g id="edge10" class="edge">
<title>MultipleNamedEntityMixin&#45;&gt;Obj</title>
<path fill="none" stroke="black" stroke-width="0.5" d="M197.3,-106.14C218.55,-107.15 239.6,-108.15 256.16,-108.94"/>
<polygon fill="black" stroke="black" stroke-width="0.5" points="256.67,-110.72 261.75,-109.21 256.84,-107.22 256.67,-110.72"/>
</g>
</g>
</svg>
