<?xml version="1.0" encoding="UTF-8" standalone="no"?>
<!DOCTYPE svg PUBLIC "-//W3C//DTD SVG 1.1//EN"
 "http://www.w3.org/Graphics/SVG/1.1/DTD/svg11.dtd">
<!-- Generated by graphviz version 7.0.5 (20221223.1930)
 -->
<!-- Title: inheritanceae7fc14d84 Pages: 1 -->
<svg width="385pt" height="64pt"
 viewBox="0.00 0.00 385.00 64.00" xmlns="http://www.w3.org/2000/svg" xmlns:xlink="http://www.w3.org/1999/xlink">
<g id="graph0" class="graph" transform="scale(1 1) rotate(0) translate(4 60)">
<title>inheritanceae7fc14d84</title>
<!-- ModelEntity -->
<g id="node1" class="node">
<title>ModelEntity</title>
<g id="a_node1"><a xlink:href="../pyVHDLModel.Base.html#pyVHDLModel.Base.ModelEntity" xlink:title="``ModelEntity`` is the base&#45;class for all classes in the VHDL language model, except for mixin classes (see multiple" target="_top">
<polygon fill="white" stroke="#1e90ff" points="148,-56 49,-56 49,-37 148,-37 148,-56"/>
<text text-anchor="middle" x="98.5" y="-44" font-family="Vera Sans, DejaVu Sans, Liberation Sans, Arial, Helvetica, sans" font-size="10.00">ModelEntity</text>
</a>
</g>
</g>
<!-- RecordTypeElement -->
<g id="node3" class="node">
<title>RecordTypeElement</title>
<g id="a_node3"><a xlink:href="../pyVHDLModel/pyVHDLModel.Type.html#pyVHDLModel.Type.RecordTypeElement" xlink:title="RecordTypeElement" target="_top">
<polygon fill="white" stroke="#1e90ff" points="377,-37 233,-37 233,-18 377,-18 377,-37"/>
<text text-anchor="middle" x="305" y="-25" font-family="Vera Sans, DejaVu Sans, Liberation Sans, Arial, Helvetica, sans" font-size="10.00">RecordTypeElement</text>
</a>
</g>
</g>
<!-- ModelEntity&#45;&gt;RecordTypeElement -->
<g id="edge1" class="edge">
<title>ModelEntity&#45;&gt;RecordTypeElement</title>
<path fill="none" stroke="black" stroke-width="0.5" d="M148.48,-41.95C171.78,-39.78 200.2,-37.14 226.35,-34.71"/>
<polygon fill="black" stroke="black" stroke-width="0.5" points="227.01,-36.41 231.83,-34.21 226.69,-32.93 227.01,-36.41"/>
</g>
<!-- MultipleNamedEntityMixin -->
<g id="node2" class="node">
<title>MultipleNamedEntityMixin</title>
<g id="a_node2"><a xlink:href="../pyVHDLModel.Base.html#pyVHDLModel.Base.MultipleNamedEntityMixin" xlink:title="A ``MultipleNamedEntityMixin`` is a mixin class for all VHDL entities that declare multiple instances at once by" target="_top">
<polygon fill="white" stroke="#1e90ff" points="197,-19 0,-19 0,0 197,0 197,-19"/>
<text text-anchor="middle" x="98.5" y="-7" font-family="Vera Sans, DejaVu Sans, Liberation Sans, Arial, Helvetica, sans" font-size="10.00">MultipleNamedEntityMixin</text>
</a>
</g>
</g>
<!-- MultipleNamedEntityMixin&#45;&gt;RecordTypeElement -->
<g id="edge2" class="edge">
<title>MultipleNamedEntityMixin&#45;&gt;RecordTypeElement</title>
<path fill="none" stroke="black" stroke-width="0.5" d="M197.26,-18.1C206.94,-18.96 216.67,-19.81 226.11,-20.64"/>
<polygon fill="black" stroke="black" stroke-width="0.5" points="226.7,-22.45 231.84,-21.15 227.01,-18.97 226.7,-22.45"/>
</g>
</g>
</svg>
