<?xml version="1.0" encoding="UTF-8" standalone="no"?>
<!DOCTYPE svg PUBLIC "-//W3C//DTD SVG 1.1//EN"
 "http://www.w3.org/Graphics/SVG/1.1/DTD/svg11.dtd">
<!-- Generated by graphviz version 7.0.5 (20221223.1930)
 -->
<!-- Title: inheritancec4ecd5a5d5 Pages: 1 -->
<svg width="576pt" height="74pt"
 viewBox="0.00 0.00 576.00 73.80" xmlns="http://www.w3.org/2000/svg" xmlns:xlink="http://www.w3.org/1999/xlink">
<g id="graph0" class="graph" transform="scale(0.9 0.9) rotate(0) translate(4 78)">
<title>inheritancec4ecd5a5d5</title>
<!-- ConditionalMixin -->
<g id="node1" class="node">
<title>ConditionalMixin</title>
<g id="a_node1"><a xlink:href="../pyVHDLModel.Base.html#pyVHDLModel.Base.ConditionalMixin" xlink:title="A ``BaseConditional`` is a mixin&#45;class for all statements with a condition." target="_top">
<polygon fill="white" stroke="#1e90ff" points="456,-74 319,-74 319,-55 456,-55 456,-74"/>
<text text-anchor="middle" x="387.5" y="-62" font-family="Vera Sans, DejaVu Sans, Liberation Sans, Arial, Helvetica, sans" font-size="10.00">ConditionalMixin</text>
</a>
</g>
</g>
<!-- ReturnStatement -->
<g id="node4" class="node">
<title>ReturnStatement</title>
<g id="a_node4"><a xlink:href="../pyVHDLModel/pyVHDLModel.Sequential.html#pyVHDLModel.Sequential.ReturnStatement" xlink:title="ReturnStatement" target="_top">
<polygon fill="white" stroke="#1e90ff" points="632,-55 503,-55 503,-36 632,-36 632,-55"/>
<text text-anchor="middle" x="567.5" y="-43" font-family="Vera Sans, DejaVu Sans, Liberation Sans, Arial, Helvetica, sans" font-size="10.00">ReturnStatement</text>
</a>
</g>
</g>
<!-- ConditionalMixin&#45;&gt;ReturnStatement -->
<g id="edge2" class="edge">
<title>ConditionalMixin&#45;&gt;ReturnStatement</title>
<path fill="none" stroke="black" stroke-width="0.5" d="M456.3,-57.26C469.39,-55.87 483.12,-54.4 496.29,-52.99"/>
<polygon fill="black" stroke="black" stroke-width="0.5" points="497.16,-54.66 501.94,-52.39 496.79,-51.18 497.16,-54.66"/>
</g>
<!-- LabeledEntityMixin -->
<g id="node2" class="node">
<title>LabeledEntityMixin</title>
<g id="a_node2"><a xlink:href="../pyVHDLModel.Base.html#pyVHDLModel.Base.LabeledEntityMixin" xlink:title="A ``LabeledEntityMixin`` is a mixin class for all VHDL entities that can have labels." target="_top">
<polygon fill="white" stroke="#1e90ff" points="152,-56 0,-56 0,-37 152,-37 152,-56"/>
<text text-anchor="middle" x="76" y="-44" font-family="Vera Sans, DejaVu Sans, Liberation Sans, Arial, Helvetica, sans" font-size="10.00">LabeledEntityMixin</text>
</a>
</g>
</g>
<!-- Statement -->
<g id="node6" class="node">
<title>Statement</title>
<g id="a_node6"><a xlink:href="../pyVHDLModel.Common.html#pyVHDLModel.Common.Statement" xlink:title="A ``Statement`` is a base&#45;class for all statements." target="_top">
<polygon fill="white" stroke="#1e90ff" points="272,-37 188,-37 188,-18 272,-18 272,-37"/>
<text text-anchor="middle" x="230" y="-25" font-family="Vera Sans, DejaVu Sans, Liberation Sans, Arial, Helvetica, sans" font-size="10.00">Statement</text>
</a>
</g>
</g>
<!-- LabeledEntityMixin&#45;&gt;Statement -->
<g id="edge5" class="edge">
<title>LabeledEntityMixin&#45;&gt;Statement</title>
<path fill="none" stroke="black" stroke-width="0.5" d="M152.11,-37.11C162.08,-35.87 172.06,-34.62 181.38,-33.45"/>
<polygon fill="black" stroke="black" stroke-width="0.5" points="182.23,-35.11 186.97,-32.75 181.79,-31.64 182.23,-35.11"/>
</g>
<!-- ModelEntity -->
<g id="node3" class="node">
<title>ModelEntity</title>
<g id="a_node3"><a xlink:href="../pyVHDLModel.Base.html#pyVHDLModel.Base.ModelEntity" xlink:title="``ModelEntity`` is the base&#45;class for all classes in the VHDL language model, except for mixin classes (see multiple" target="_top">
<polygon fill="white" stroke="#1e90ff" points="125.5,-19 26.5,-19 26.5,0 125.5,0 125.5,-19"/>
<text text-anchor="middle" x="76" y="-7" font-family="Vera Sans, DejaVu Sans, Liberation Sans, Arial, Helvetica, sans" font-size="10.00">ModelEntity</text>
</a>
</g>
</g>
<!-- ModelEntity&#45;&gt;Statement -->
<g id="edge4" class="edge">
<title>ModelEntity&#45;&gt;Statement</title>
<path fill="none" stroke="black" stroke-width="0.5" d="M125.93,-15.29C143.71,-17.4 163.76,-19.77 181.42,-21.87"/>
<polygon fill="black" stroke="black" stroke-width="0.5" points="181.88,-23.68 187.06,-22.53 182.3,-20.21 181.88,-23.68"/>
</g>
<!-- SequentialStatement -->
<g id="node5" class="node">
<title>SequentialStatement</title>
<g id="a_node5"><a xlink:href="../pyVHDLModel/pyVHDLModel.Sequential.html#pyVHDLModel.Sequential.SequentialStatement" xlink:title="A ``SequentialStatement`` is a base&#45;class for all sequential statements." target="_top">
<polygon fill="white" stroke="#1e90ff" points="467,-37 308,-37 308,-18 467,-18 467,-37"/>
<text text-anchor="middle" x="387.5" y="-25" font-family="Vera Sans, DejaVu Sans, Liberation Sans, Arial, Helvetica, sans" font-size="10.00">SequentialStatement</text>
</a>
</g>
</g>
<!-- SequentialStatement&#45;&gt;ReturnStatement -->
<g id="edge1" class="edge">
<title>SequentialStatement&#45;&gt;ReturnStatement</title>
<path fill="none" stroke="black" stroke-width="0.5" d="M467.35,-35.47C477.04,-36.45 486.89,-37.45 496.43,-38.41"/>
<polygon fill="black" stroke="black" stroke-width="0.5" points="496.76,-40.21 501.91,-38.97 497.11,-36.72 496.76,-40.21"/>
</g>
<!-- Statement&#45;&gt;SequentialStatement -->
<g id="edge3" class="edge">
<title>Statement&#45;&gt;SequentialStatement</title>
<path fill="none" stroke="black" stroke-width="0.5" d="M272.26,-27.5C281.35,-27.5 291.3,-27.5 301.42,-27.5"/>
<polygon fill="black" stroke="black" stroke-width="0.5" points="301.98,-29.25 306.98,-27.5 301.98,-25.75 301.98,-29.25"/>
</g>
</g>
</svg>
