<?xml version="1.0" encoding="UTF-8" standalone="no"?>
<!DOCTYPE svg PUBLIC "-//W3C//DTD SVG 1.1//EN"
 "http://www.w3.org/Graphics/SVG/1.1/DTD/svg11.dtd">
<!-- Generated by graphviz version 7.0.5 (20221223.1930)
 -->
<!-- Title: inheritance8fa8460949 Pages: 1 -->
<svg width="325pt" height="27pt"
 viewBox="0.00 0.00 325.00 27.00" xmlns="http://www.w3.org/2000/svg" xmlns:xlink="http://www.w3.org/1999/xlink">
<g id="graph0" class="graph" transform="scale(1 1) rotate(0) translate(4 23)">
<title>inheritance8fa8460949</title>
<!-- ModelEntity -->
<g id="node1" class="node">
<title>ModelEntity</title>
<g id="a_node1"><a xlink:href="../pyVHDLModel.Base.html#pyVHDLModel.Base.ModelEntity" xlink:title="``ModelEntity`` is the base&#45;class for all classes in the VHDL language model, except for mixin classes (see multiple" target="_top">
<polygon fill="white" stroke="#1e90ff" points="99,-19 0,-19 0,0 99,0 99,-19"/>
<text text-anchor="middle" x="49.5" y="-7" font-family="Vera Sans, DejaVu Sans, Liberation Sans, Arial, Helvetica, sans" font-size="10.00">ModelEntity</text>
</a>
</g>
</g>
<!-- Name -->
<g id="node2" class="node">
<title>Name</title>
<g id="a_node2"><a xlink:href="../pyVHDLModel/pyVHDLModel.Name.html#pyVHDLModel.Name.Name" xlink:title="``Name`` is the base&#45;class for all *names* in the VHDL language model." target="_top">
<polygon fill="white" stroke="#1e90ff" points="189,-19 135,-19 135,0 189,0 189,-19"/>
<text text-anchor="middle" x="162" y="-7" font-family="Vera Sans, DejaVu Sans, Liberation Sans, Arial, Helvetica, sans" font-size="10.00">Name</text>
</a>
</g>
</g>
<!-- ModelEntity&#45;&gt;Name -->
<g id="edge1" class="edge">
<title>ModelEntity&#45;&gt;Name</title>
<path fill="none" stroke="black" stroke-width="0.5" d="M99.29,-9.5C109.06,-9.5 119.1,-9.5 128.17,-9.5"/>
<polygon fill="black" stroke="black" stroke-width="0.5" points="128.83,-11.25 133.83,-9.5 128.83,-7.75 128.83,-11.25"/>
</g>
<!-- SlicedName -->
<g id="node3" class="node">
<title>SlicedName</title>
<g id="a_node3"><a xlink:href="../pyVHDLModel/pyVHDLModel.Name.html#pyVHDLModel.Name.SlicedName" xlink:title="SlicedName" target="_top">
<polygon fill="white" stroke="#1e90ff" points="317,-19 225,-19 225,0 317,0 317,-19"/>
<text text-anchor="middle" x="271" y="-7" font-family="Vera Sans, DejaVu Sans, Liberation Sans, Arial, Helvetica, sans" font-size="10.00">SlicedName</text>
</a>
</g>
</g>
<!-- Name&#45;&gt;SlicedName -->
<g id="edge2" class="edge">
<title>Name&#45;&gt;SlicedName</title>
<path fill="none" stroke="black" stroke-width="0.5" d="M189.45,-9.5C198.26,-9.5 208.41,-9.5 218.46,-9.5"/>
<polygon fill="black" stroke="black" stroke-width="0.5" points="218.94,-11.25 223.94,-9.5 218.94,-7.75 218.94,-11.25"/>
</g>
</g>
</svg>
