<?xml version="1.0" encoding="UTF-8" standalone="no"?>
<!DOCTYPE svg PUBLIC "-//W3C//DTD SVG 1.1//EN"
 "http://www.w3.org/Graphics/SVG/1.1/DTD/svg11.dtd">
<!-- Generated by graphviz version 7.0.5 (20221223.1930)
 -->
<!-- Title: inheritance502f648504 Pages: 1 -->
<svg width="512pt" height="64pt"
 viewBox="0.00 0.00 512.00 64.00" xmlns="http://www.w3.org/2000/svg" xmlns:xlink="http://www.w3.org/1999/xlink">
<g id="graph0" class="graph" transform="scale(1 1) rotate(0) translate(4 60)">
<title>inheritance502f648504</title>
<!-- BaseExpression -->
<g id="node1" class="node">
<title>BaseExpression</title>
<g id="a_node1"><a xlink:href="../pyVHDLModel/pyVHDLModel.Expression.html#pyVHDLModel.Expression.BaseExpression" xlink:title="A ``BaseExpression`` is a base&#45;class for all expressions." target="_top">
<polygon fill="white" stroke="#1e90ff" points="283,-19 161,-19 161,0 283,0 283,-19"/>
<text text-anchor="middle" x="222" y="-7" font-family="Vera Sans, DejaVu Sans, Liberation Sans, Arial, Helvetica, sans" font-size="10.00">BaseExpression</text>
</a>
</g>
</g>
<!-- QualifiedExpression -->
<g id="node4" class="node">
<title>QualifiedExpression</title>
<g id="a_node4"><a xlink:href="../pyVHDLModel/pyVHDLModel.Expression.html#pyVHDLModel.Expression.QualifiedExpression" xlink:title="QualifiedExpression" target="_top">
<polygon fill="white" stroke="#1e90ff" points="504,-37 345,-37 345,-18 504,-18 504,-37"/>
<text text-anchor="middle" x="424.5" y="-25" font-family="Vera Sans, DejaVu Sans, Liberation Sans, Arial, Helvetica, sans" font-size="10.00">QualifiedExpression</text>
</a>
</g>
</g>
<!-- BaseExpression&#45;&gt;QualifiedExpression -->
<g id="edge2" class="edge">
<title>BaseExpression&#45;&gt;QualifiedExpression</title>
<path fill="none" stroke="black" stroke-width="0.5" d="M283.43,-14.93C300.73,-16.48 319.92,-18.2 338.4,-19.86"/>
<polygon fill="black" stroke="black" stroke-width="0.5" points="338.75,-21.65 343.89,-20.35 339.06,-18.16 338.75,-21.65"/>
</g>
<!-- ModelEntity -->
<g id="node2" class="node">
<title>ModelEntity</title>
<g id="a_node2"><a xlink:href="../pyVHDLModel.Base.html#pyVHDLModel.Base.ModelEntity" xlink:title="``ModelEntity`` is the base&#45;class for all classes in the VHDL language model, except for mixin classes (see multiple" target="_top">
<polygon fill="white" stroke="#1e90ff" points="99,-19 0,-19 0,0 99,0 99,-19"/>
<text text-anchor="middle" x="49.5" y="-7" font-family="Vera Sans, DejaVu Sans, Liberation Sans, Arial, Helvetica, sans" font-size="10.00">ModelEntity</text>
</a>
</g>
</g>
<!-- ModelEntity&#45;&gt;BaseExpression -->
<g id="edge1" class="edge">
<title>ModelEntity&#45;&gt;BaseExpression</title>
<path fill="none" stroke="black" stroke-width="0.5" d="M99.36,-9.5C116.51,-9.5 136.08,-9.5 154.44,-9.5"/>
<polygon fill="black" stroke="black" stroke-width="0.5" points="154.85,-11.25 159.85,-9.5 154.85,-7.75 154.85,-11.25"/>
</g>
<!-- ParenthesisExpression -->
<g id="node3" class="node">
<title>ParenthesisExpression</title>
<g id="a_node3"><a xlink:href="../pyVHDLModel/pyVHDLModel.Expression.html#pyVHDLModel.Expression.ParenthesisExpression" xlink:title="ParenthesisExpression" target="_top">
<polygon fill="white" stroke="#1e90ff" points="309,-56 135,-56 135,-37 309,-37 309,-56"/>
<text text-anchor="middle" x="222" y="-44" font-family="Vera Sans, DejaVu Sans, Liberation Sans, Arial, Helvetica, sans" font-size="10.00">ParenthesisExpression</text>
</a>
</g>
</g>
<!-- ParenthesisExpression&#45;&gt;QualifiedExpression -->
<g id="edge3" class="edge">
<title>ParenthesisExpression&#45;&gt;QualifiedExpression</title>
<path fill="none" stroke="black" stroke-width="0.5" d="M309.48,-38.3C319.05,-37.4 328.78,-36.48 338.33,-35.57"/>
<polygon fill="black" stroke="black" stroke-width="0.5" points="339.01,-37.26 343.82,-35.05 338.68,-33.78 339.01,-37.26"/>
</g>
</g>
</svg>
