<?xml version="1.0" encoding="UTF-8" standalone="no"?>
<!DOCTYPE svg PUBLIC "-//W3C//DTD SVG 1.1//EN"
 "http://www.w3.org/Graphics/SVG/1.1/DTD/svg11.dtd">
<!-- Generated by graphviz version 7.0.5 (20221223.1930)
 -->
<!-- Title: inheritanceb8bc770ac8 Pages: 1 -->
<svg width="576pt" height="129pt"
 viewBox="0.00 0.00 576.00 129.48" xmlns="http://www.w3.org/2000/svg" xmlns:xlink="http://www.w3.org/1999/xlink">
<g id="graph0" class="graph" transform="scale(0.829971 0.829971) rotate(0) translate(4 152)">
<title>inheritanceb8bc770ac8</title>
<!-- BranchMixin -->
<g id="node1" class="node">
<title>BranchMixin</title>
<g id="a_node1"><a xlink:href="../pyVHDLModel.Base.html#pyVHDLModel.Base.BranchMixin" xlink:title="A ``BaseBranch`` is a mixin&#45;class for all statements with branches." target="_top">
<polygon fill="white" stroke="#1e90ff" points="118,-148 19,-148 19,-129 118,-129 118,-148"/>
<text text-anchor="middle" x="68.5" y="-136" font-family="Vera Sans, DejaVu Sans, Liberation Sans, Arial, Helvetica, sans" font-size="10.00">BranchMixin</text>
</a>
</g>
</g>
<!-- ConditionalBranchMixin -->
<g id="node4" class="node">
<title>ConditionalBranchMixin</title>
<g id="a_node4"><a xlink:href="../pyVHDLModel.Base.html#pyVHDLModel.Base.ConditionalBranchMixin" xlink:title="A ``BaseBranch`` is a mixin&#45;class for all branch statements with a condition." target="_top">
<polygon fill="white" stroke="#1e90ff" points="355,-130 173,-130 173,-111 355,-111 355,-130"/>
<text text-anchor="middle" x="264" y="-118" font-family="Vera Sans, DejaVu Sans, Liberation Sans, Arial, Helvetica, sans" font-size="10.00">ConditionalBranchMixin</text>
</a>
</g>
</g>
<!-- BranchMixin&#45;&gt;ConditionalBranchMixin -->
<g id="edge1" class="edge">
<title>BranchMixin&#45;&gt;ConditionalBranchMixin</title>
<path fill="none" stroke="black" stroke-width="0.5" d="M118.33,-133.96C133.09,-132.59 149.83,-131.03 166.57,-129.47"/>
<polygon fill="black" stroke="black" stroke-width="0.5" points="167.16,-131.17 171.98,-128.97 166.84,-127.69 167.16,-131.17"/>
</g>
<!-- ConcurrentDeclarations -->
<g id="node2" class="node">
<title>ConcurrentDeclarations</title>
<g id="a_node2"><a xlink:href="../pyVHDLModel/pyVHDLModel.Concurrent.html#pyVHDLModel.Concurrent.ConcurrentDeclarations" xlink:title="ConcurrentDeclarations" target="_top">
<polygon fill="white" stroke="#1e90ff" points="355,-93 173,-93 173,-74 355,-74 355,-93"/>
<text text-anchor="middle" x="264" y="-81" font-family="Vera Sans, DejaVu Sans, Liberation Sans, Arial, Helvetica, sans" font-size="10.00">ConcurrentDeclarations</text>
</a>
</g>
</g>
<!-- GenerateBranch -->
<g id="node6" class="node">
<title>GenerateBranch</title>
<g id="a_node6"><a xlink:href="../pyVHDLModel/pyVHDLModel.Concurrent.html#pyVHDLModel.Concurrent.GenerateBranch" xlink:title="A ``GenerateBranch`` is a base&#45;class for all branches in a generate statements." target="_top">
<polygon fill="white" stroke="#1e90ff" points="513,-74 391,-74 391,-55 513,-55 513,-74"/>
<text text-anchor="middle" x="452" y="-62" font-family="Vera Sans, DejaVu Sans, Liberation Sans, Arial, Helvetica, sans" font-size="10.00">GenerateBranch</text>
</a>
</g>
</g>
<!-- ConcurrentDeclarations&#45;&gt;GenerateBranch -->
<g id="edge4" class="edge">
<title>ConcurrentDeclarations&#45;&gt;GenerateBranch</title>
<path fill="none" stroke="black" stroke-width="0.5" d="M355.28,-74.28C365.05,-73.28 374.87,-72.28 384.29,-71.31"/>
<polygon fill="black" stroke="black" stroke-width="0.5" points="385.2,-72.98 390,-70.73 384.84,-69.5 385.2,-72.98"/>
</g>
<!-- ConcurrentStatements -->
<g id="node3" class="node">
<title>ConcurrentStatements</title>
<g id="a_node3"><a xlink:href="../pyVHDLModel/pyVHDLModel.Concurrent.html#pyVHDLModel.Concurrent.ConcurrentStatements" xlink:title="ConcurrentStatements" target="_top">
<polygon fill="white" stroke="#1e90ff" points="347.5,-56 180.5,-56 180.5,-37 347.5,-37 347.5,-56"/>
<text text-anchor="middle" x="264" y="-44" font-family="Vera Sans, DejaVu Sans, Liberation Sans, Arial, Helvetica, sans" font-size="10.00">ConcurrentStatements</text>
</a>
</g>
</g>
<!-- ConcurrentStatements&#45;&gt;GenerateBranch -->
<g id="edge5" class="edge">
<title>ConcurrentStatements&#45;&gt;GenerateBranch</title>
<path fill="none" stroke="black" stroke-width="0.5" d="M347.94,-54.53C360.03,-55.7 372.36,-56.89 384.09,-58.02"/>
<polygon fill="black" stroke="black" stroke-width="0.5" points="384.63,-59.84 389.78,-58.58 384.97,-56.35 384.63,-59.84"/>
</g>
<!-- IfBranchMixin -->
<g id="node8" class="node">
<title>IfBranchMixin</title>
<g id="a_node8"><a xlink:href="../pyVHDLModel.Base.html#pyVHDLModel.Base.IfBranchMixin" xlink:title="A ``BaseIfBranch`` is a mixin&#45;class for all if&#45;branches." target="_top">
<polygon fill="white" stroke="#1e90ff" points="509,-120 395,-120 395,-101 509,-101 509,-120"/>
<text text-anchor="middle" x="452" y="-108" font-family="Vera Sans, DejaVu Sans, Liberation Sans, Arial, Helvetica, sans" font-size="10.00">IfBranchMixin</text>
</a>
</g>
</g>
<!-- ConditionalBranchMixin&#45;&gt;IfBranchMixin -->
<g id="edge6" class="edge">
<title>ConditionalBranchMixin&#45;&gt;IfBranchMixin</title>
<path fill="none" stroke="black" stroke-width="0.5" d="M355.28,-115.65C366.49,-115.04 377.77,-114.44 388.44,-113.86"/>
<polygon fill="black" stroke="black" stroke-width="0.5" points="388.99,-115.59 393.89,-113.57 388.8,-112.09 388.99,-115.59"/>
</g>
<!-- ConditionalMixin -->
<g id="node5" class="node">
<title>ConditionalMixin</title>
<g id="a_node5"><a xlink:href="../pyVHDLModel.Base.html#pyVHDLModel.Base.ConditionalMixin" xlink:title="A ``BaseConditional`` is a mixin&#45;class for all statements with a condition." target="_top">
<polygon fill="white" stroke="#1e90ff" points="137,-111 0,-111 0,-92 137,-92 137,-111"/>
<text text-anchor="middle" x="68.5" y="-99" font-family="Vera Sans, DejaVu Sans, Liberation Sans, Arial, Helvetica, sans" font-size="10.00">ConditionalMixin</text>
</a>
</g>
</g>
<!-- ConditionalMixin&#45;&gt;ConditionalBranchMixin -->
<g id="edge2" class="edge">
<title>ConditionalMixin&#45;&gt;ConditionalBranchMixin</title>
<path fill="none" stroke="black" stroke-width="0.5" d="M137.45,-108.17C146.83,-109.09 156.61,-110.05 166.38,-111.01"/>
<polygon fill="black" stroke="black" stroke-width="0.5" points="166.9,-112.82 172.05,-111.57 167.24,-109.34 166.9,-112.82"/>
</g>
<!-- IfGenerateBranch -->
<g id="node9" class="node">
<title>IfGenerateBranch</title>
<g id="a_node9"><a xlink:href="../pyVHDLModel/pyVHDLModel.Concurrent.html#pyVHDLModel.Concurrent.IfGenerateBranch" xlink:title="IfGenerateBranch" target="_top">
<polygon fill="white" stroke="#1e90ff" points="686,-92 549,-92 549,-73 686,-73 686,-92"/>
<text text-anchor="middle" x="617.5" y="-80" font-family="Vera Sans, DejaVu Sans, Liberation Sans, Arial, Helvetica, sans" font-size="10.00">IfGenerateBranch</text>
</a>
</g>
</g>
<!-- GenerateBranch&#45;&gt;IfGenerateBranch -->
<g id="edge7" class="edge">
<title>GenerateBranch&#45;&gt;IfGenerateBranch</title>
<path fill="none" stroke="black" stroke-width="0.5" d="M513.42,-71.15C522.82,-72.19 532.63,-73.27 542.29,-74.33"/>
<polygon fill="black" stroke="black" stroke-width="0.5" points="542.7,-76.14 547.86,-74.94 543.09,-72.66 542.7,-76.14"/>
</g>
<!-- ModelEntity -->
<g id="node7" class="node">
<title>ModelEntity</title>
<g id="a_node7"><a xlink:href="../pyVHDLModel.Base.html#pyVHDLModel.Base.ModelEntity" xlink:title="``ModelEntity`` is the base&#45;class for all classes in the VHDL language model, except for mixin classes (see multiple" target="_top">
<polygon fill="white" stroke="#1e90ff" points="313.5,-19 214.5,-19 214.5,0 313.5,0 313.5,-19"/>
<text text-anchor="middle" x="264" y="-7" font-family="Vera Sans, DejaVu Sans, Liberation Sans, Arial, Helvetica, sans" font-size="10.00">ModelEntity</text>
</a>
</g>
</g>
<!-- ModelEntity&#45;&gt;GenerateBranch -->
<g id="edge3" class="edge">
<title>ModelEntity&#45;&gt;GenerateBranch</title>
<path fill="none" stroke="black" stroke-width="0.5" d="M313.91,-18.43C327.33,-21.26 341.81,-24.66 355,-28.5 377.92,-35.18 403.18,-44.74 422.03,-52.33"/>
<polygon fill="black" stroke="black" stroke-width="0.5" points="421.67,-54.07 426.96,-54.33 422.99,-50.83 421.67,-54.07"/>
</g>
<!-- IfBranchMixin&#45;&gt;IfGenerateBranch -->
<g id="edge8" class="edge">
<title>IfBranchMixin&#45;&gt;IfGenerateBranch</title>
<path fill="none" stroke="black" stroke-width="0.5" d="M509.27,-100.86C522.97,-98.52 537.72,-95.99 551.78,-93.58"/>
<polygon fill="black" stroke="black" stroke-width="0.5" points="552.8,-95.18 557.44,-92.62 552.21,-91.73 552.8,-95.18"/>
</g>
</g>
</svg>
