<?xml version="1.0" encoding="UTF-8" standalone="no"?>
<!DOCTYPE svg PUBLIC "-//W3C//DTD SVG 1.1//EN"
 "http://www.w3.org/Graphics/SVG/1.1/DTD/svg11.dtd">
<!-- Generated by graphviz version 7.0.5 (20221223.1930)
 -->
<!-- Title: inheritancec74d712283 Pages: 1 -->
<svg width="576pt" height="82pt"
 viewBox="0.00 0.00 576.00 82.17" xmlns="http://www.w3.org/2000/svg" xmlns:xlink="http://www.w3.org/1999/xlink">
<g id="graph0" class="graph" transform="scale(0.813559 0.813559) rotate(0) translate(4 97)">
<title>inheritancec74d712283</title>
<!-- Configuration -->
<g id="node1" class="node">
<title>Configuration</title>
<g id="a_node1"><a xlink:href="../pyVHDLModel/pyVHDLModel.DesignUnit.html#pyVHDLModel.DesignUnit.Configuration" xlink:title="Configuration" target="_top">
<polygon fill="white" stroke="#1e90ff" points="700,-37 586,-37 586,-18 700,-18 700,-37"/>
<text text-anchor="middle" x="643" y="-25" font-family="Vera Sans, DejaVu Sans, Liberation Sans, Arial, Helvetica, sans" font-size="10.00">Configuration</text>
</a>
</g>
</g>
<!-- PrimaryUnit -->
<g id="node2" class="node">
<title>PrimaryUnit</title>
<g id="a_node2"><a xlink:href="../pyVHDLModel/pyVHDLModel.DesignUnit.html#pyVHDLModel.DesignUnit.PrimaryUnit" xlink:title="A ``PrimaryUnit`` is a base&#45;class for all primary units." target="_top">
<polygon fill="white" stroke="#1e90ff" points="493.5,-56 394.5,-56 394.5,-37 493.5,-37 493.5,-56"/>
<text text-anchor="middle" x="444" y="-44" font-family="Vera Sans, DejaVu Sans, Liberation Sans, Arial, Helvetica, sans" font-size="10.00">PrimaryUnit</text>
</a>
</g>
</g>
<!-- PrimaryUnit&#45;&gt;Configuration -->
<g id="edge1" class="edge">
<title>PrimaryUnit&#45;&gt;Configuration</title>
<path fill="none" stroke="black" stroke-width="0.5" d="M493.95,-41.78C519.8,-39.29 551.81,-36.2 579.44,-33.53"/>
<polygon fill="black" stroke="black" stroke-width="0.5" points="580.07,-35.23 584.87,-33.01 579.73,-31.75 580.07,-35.23"/>
</g>
<!-- DesignUnitWithContextMixin -->
<g id="node3" class="node">
<title>DesignUnitWithContextMixin</title>
<g id="a_node3"><a xlink:href="../pyVHDLModel/pyVHDLModel.DesignUnit.html#pyVHDLModel.DesignUnit.DesignUnitWithContextMixin" xlink:title="DesignUnitWithContextMixin" target="_top">
<polygon fill="white" stroke="#1e90ff" points="550,-19 338,-19 338,0 550,0 550,-19"/>
<text text-anchor="middle" x="444" y="-7" font-family="Vera Sans, DejaVu Sans, Liberation Sans, Arial, Helvetica, sans" font-size="10.00">DesignUnitWithContextMixin</text>
</a>
</g>
</g>
<!-- DesignUnitWithContextMixin&#45;&gt;Configuration -->
<g id="edge2" class="edge">
<title>DesignUnitWithContextMixin&#45;&gt;Configuration</title>
<path fill="none" stroke="black" stroke-width="0.5" d="M550.42,-19.13C560.31,-20.04 570.1,-20.93 579.4,-21.78"/>
<polygon fill="black" stroke="black" stroke-width="0.5" points="579.86,-23.58 585,-22.29 580.18,-20.09 579.86,-23.58"/>
</g>
<!-- DesignUnit -->
<g id="node4" class="node">
<title>DesignUnit</title>
<g id="a_node4"><a xlink:href="../pyVHDLModel/pyVHDLModel.DesignUnit.html#pyVHDLModel.DesignUnit.DesignUnit" xlink:title="A ``DesignUnit`` is a base&#45;class for all design units." target="_top">
<polygon fill="white" stroke="#1e90ff" points="302,-56 210,-56 210,-37 302,-37 302,-56"/>
<text text-anchor="middle" x="256" y="-44" font-family="Vera Sans, DejaVu Sans, Liberation Sans, Arial, Helvetica, sans" font-size="10.00">DesignUnit</text>
</a>
</g>
</g>
<!-- DesignUnit&#45;&gt;PrimaryUnit -->
<g id="edge6" class="edge">
<title>DesignUnit&#45;&gt;PrimaryUnit</title>
<path fill="none" stroke="black" stroke-width="0.5" d="M302.03,-46.5C327.8,-46.5 360.36,-46.5 387.68,-46.5"/>
<polygon fill="black" stroke="black" stroke-width="0.5" points="388.39,-48.25 393.39,-46.5 388.39,-44.75 388.39,-48.25"/>
</g>
<!-- ModelEntity -->
<g id="node5" class="node">
<title>ModelEntity</title>
<g id="a_node5"><a xlink:href="../pyVHDLModel.Base.html#pyVHDLModel.Base.ModelEntity" xlink:title="``ModelEntity`` is the base&#45;class for all classes in the VHDL language model, except for mixin classes (see multiple" target="_top">
<polygon fill="white" stroke="#1e90ff" points="136.5,-93 37.5,-93 37.5,-74 136.5,-74 136.5,-93"/>
<text text-anchor="middle" x="87" y="-81" font-family="Vera Sans, DejaVu Sans, Liberation Sans, Arial, Helvetica, sans" font-size="10.00">ModelEntity</text>
</a>
</g>
</g>
<!-- ModelEntity&#45;&gt;DesignUnit -->
<g id="edge3" class="edge">
<title>ModelEntity&#45;&gt;DesignUnit</title>
<path fill="none" stroke="black" stroke-width="0.5" d="M136.71,-73.52C148.9,-70.96 161.94,-68.18 174,-65.5 184.73,-63.12 196.23,-60.48 207.1,-57.94"/>
<polygon fill="black" stroke="black" stroke-width="0.5" points="208.22,-59.47 212.68,-56.63 207.42,-56.07 208.22,-59.47"/>
</g>
<!-- NamedEntityMixin -->
<g id="node6" class="node">
<title>NamedEntityMixin</title>
<g id="a_node6"><a xlink:href="../pyVHDLModel.Base.html#pyVHDLModel.Base.NamedEntityMixin" xlink:title="A ``NamedEntityMixin`` is a mixin class for all VHDL entities that have identifiers." target="_top">
<polygon fill="white" stroke="#1e90ff" points="155.5,-56 18.5,-56 18.5,-37 155.5,-37 155.5,-56"/>
<text text-anchor="middle" x="87" y="-44" font-family="Vera Sans, DejaVu Sans, Liberation Sans, Arial, Helvetica, sans" font-size="10.00">NamedEntityMixin</text>
</a>
</g>
</g>
<!-- NamedEntityMixin&#45;&gt;DesignUnit -->
<g id="edge4" class="edge">
<title>NamedEntityMixin&#45;&gt;DesignUnit</title>
<path fill="none" stroke="black" stroke-width="0.5" d="M155.93,-46.5C171.73,-46.5 188.3,-46.5 203.28,-46.5"/>
<polygon fill="black" stroke="black" stroke-width="0.5" points="203.83,-48.25 208.83,-46.5 203.83,-44.75 203.83,-48.25"/>
</g>
<!-- DocumentedEntityMixin -->
<g id="node7" class="node">
<title>DocumentedEntityMixin</title>
<g id="a_node7"><a xlink:href="../pyVHDLModel.Base.html#pyVHDLModel.Base.DocumentedEntityMixin" xlink:title="A ``DocumentedEntityMixin`` is a mixin class for all VHDL entities that can have an associated documentation." target="_top">
<polygon fill="white" stroke="#1e90ff" points="174,-19 0,-19 0,0 174,0 174,-19"/>
<text text-anchor="middle" x="87" y="-7" font-family="Vera Sans, DejaVu Sans, Liberation Sans, Arial, Helvetica, sans" font-size="10.00">DocumentedEntityMixin</text>
</a>
</g>
</g>
<!-- DocumentedEntityMixin&#45;&gt;DesignUnit -->
<g id="edge5" class="edge">
<title>DocumentedEntityMixin&#45;&gt;DesignUnit</title>
<path fill="none" stroke="black" stroke-width="0.5" d="M136.71,-19.48C148.9,-22.04 161.94,-24.82 174,-27.5 184.73,-29.88 196.23,-32.52 207.1,-35.06"/>
<polygon fill="black" stroke="black" stroke-width="0.5" points="207.42,-36.93 212.68,-36.37 208.22,-33.53 207.42,-36.93"/>
</g>
</g>
</svg>
