<?xml version="1.0" encoding="UTF-8" standalone="no"?>
<!DOCTYPE svg PUBLIC "-//W3C//DTD SVG 1.1//EN"
 "http://www.w3.org/Graphics/SVG/1.1/DTD/svg11.dtd">
<!-- Generated by graphviz version 7.0.5 (20221223.1930)
 -->
<!-- Title: inheritance83c732a95c Pages: 1 -->
<svg width="576pt" height="19pt"
 viewBox="0.00 0.00 576.00 19.30" xmlns="http://www.w3.org/2000/svg" xmlns:xlink="http://www.w3.org/1999/xlink">
<g id="graph0" class="graph" transform="scale(0.71464 0.71464) rotate(0) translate(4 23)">
<title>inheritance83c732a95c</title>
<!-- BaseExpression -->
<g id="node1" class="node">
<title>BaseExpression</title>
<g id="a_node1"><a xlink:href="../pyVHDLModel/pyVHDLModel.Expression.html#pyVHDLModel.Expression.BaseExpression" xlink:title="A ``BaseExpression`` is a base&#45;class for all expressions." target="_top">
<polygon fill="white" stroke="#1e90ff" points="257,-19 135,-19 135,0 257,0 257,-19"/>
<text text-anchor="middle" x="196" y="-7" font-family="Vera Sans, DejaVu Sans, Liberation Sans, Arial, Helvetica, sans" font-size="10.00">BaseExpression</text>
</a>
</g>
</g>
<!-- BinaryExpression -->
<g id="node3" class="node">
<title>BinaryExpression</title>
<g id="a_node3"><a xlink:href="../pyVHDLModel/pyVHDLModel.Expression.html#pyVHDLModel.Expression.BinaryExpression" xlink:title="A ``BinaryExpression`` is a base&#45;class for all binary expressions." target="_top">
<polygon fill="white" stroke="#1e90ff" points="430,-19 293,-19 293,0 430,0 430,-19"/>
<text text-anchor="middle" x="361.5" y="-7" font-family="Vera Sans, DejaVu Sans, Liberation Sans, Arial, Helvetica, sans" font-size="10.00">BinaryExpression</text>
</a>
</g>
</g>
<!-- BaseExpression&#45;&gt;BinaryExpression -->
<g id="edge2" class="edge">
<title>BaseExpression&#45;&gt;BinaryExpression</title>
<path fill="none" stroke="black" stroke-width="0.5" d="M257.42,-9.5C266.82,-9.5 276.63,-9.5 286.29,-9.5"/>
<polygon fill="black" stroke="black" stroke-width="0.5" points="286.86,-11.25 291.86,-9.5 286.86,-7.75 286.86,-11.25"/>
</g>
<!-- ModelEntity -->
<g id="node2" class="node">
<title>ModelEntity</title>
<g id="a_node2"><a xlink:href="../pyVHDLModel.Base.html#pyVHDLModel.Base.ModelEntity" xlink:title="``ModelEntity`` is the base&#45;class for all classes in the VHDL language model, except for mixin classes (see multiple" target="_top">
<polygon fill="white" stroke="#1e90ff" points="99,-19 0,-19 0,0 99,0 99,-19"/>
<text text-anchor="middle" x="49.5" y="-7" font-family="Vera Sans, DejaVu Sans, Liberation Sans, Arial, Helvetica, sans" font-size="10.00">ModelEntity</text>
</a>
</g>
</g>
<!-- ModelEntity&#45;&gt;BaseExpression -->
<g id="edge1" class="edge">
<title>ModelEntity&#45;&gt;BaseExpression</title>
<path fill="none" stroke="black" stroke-width="0.5" d="M99.42,-9.5C108.69,-9.5 118.53,-9.5 128.24,-9.5"/>
<polygon fill="black" stroke="black" stroke-width="0.5" points="128.84,-11.25 133.84,-9.5 128.84,-7.75 128.84,-11.25"/>
</g>
<!-- RelationalExpression -->
<g id="node5" class="node">
<title>RelationalExpression</title>
<g id="a_node5"><a xlink:href="../pyVHDLModel/pyVHDLModel.Expression.html#pyVHDLModel.Expression.RelationalExpression" xlink:title="A ``RelationalExpression`` is a base&#45;class for all shifting expressions." target="_top">
<polygon fill="white" stroke="#1e90ff" points="633,-19 466,-19 466,0 633,0 633,-19"/>
<text text-anchor="middle" x="549.5" y="-7" font-family="Vera Sans, DejaVu Sans, Liberation Sans, Arial, Helvetica, sans" font-size="10.00">RelationalExpression</text>
</a>
</g>
</g>
<!-- BinaryExpression&#45;&gt;RelationalExpression -->
<g id="edge4" class="edge">
<title>BinaryExpression&#45;&gt;RelationalExpression</title>
<path fill="none" stroke="black" stroke-width="0.5" d="M430.44,-9.5C439.8,-9.5 449.53,-9.5 459.21,-9.5"/>
<polygon fill="black" stroke="black" stroke-width="0.5" points="459.8,-11.25 464.8,-9.5 459.8,-7.75 459.8,-11.25"/>
</g>
<!-- EqualExpression -->
<g id="node4" class="node">
<title>EqualExpression</title>
<g id="a_node4"><a xlink:href="../pyVHDLModel/pyVHDLModel.Expression.html#pyVHDLModel.Expression.EqualExpression" xlink:title="EqualExpression" target="_top">
<polygon fill="white" stroke="#1e90ff" points="798,-19 669,-19 669,0 798,0 798,-19"/>
<text text-anchor="middle" x="733.5" y="-7" font-family="Vera Sans, DejaVu Sans, Liberation Sans, Arial, Helvetica, sans" font-size="10.00">EqualExpression</text>
</a>
</g>
</g>
<!-- RelationalExpression&#45;&gt;EqualExpression -->
<g id="edge3" class="edge">
<title>RelationalExpression&#45;&gt;EqualExpression</title>
<path fill="none" stroke="black" stroke-width="0.5" d="M633.25,-9.5C643.03,-9.5 652.94,-9.5 662.52,-9.5"/>
<polygon fill="black" stroke="black" stroke-width="0.5" points="663.01,-11.25 668.01,-9.5 663.01,-7.75 663.01,-11.25"/>
</g>
</g>
</svg>
